<?xml version="1.0" encoding="UTF-8"?>
<svg width="24px" height="24px" viewBox="0 0 24 24" version="1.1" xmlns="http://www.w3.org/2000/svg" xmlns:xlink="http://www.w3.org/1999/xlink">
    <!-- Generator: Sketch 54.1 (76490) - https://sketchapp.com -->
    <title>Icon/24/admin on</title>
    <desc>Created with Sketch.</desc>
    <g id="Icon/24/admin-on" stroke="none" stroke-width="1" fill="none" fill-rule="evenodd">
        <g id="Group-2" transform="translate(4.000000, 5.000000)" fill="#FFFFFF">
            <path d="M6,2 C4.75735134,2 3.75,3.00736471 3.75,4.25 C3.75,5.49263529 4.75735134,6.5 6,6.5 C7.24264853,6.5 8.25,5.49263529 8.25,4.25 C8.25,3.00736471 7.2426484,2 6,2 Z M6,7.25 C2.67600006,7.25 0,9.11364286 0,11.4285714 L0,14 L12,14 L12,11.4285714 C12,9.11364286 9.32400002,7.25 6,7.25 Z" id="Shape" fill-rule="nonzero"></path>
            <path d="M11.4497042,1.3151 L11.4497042,0.201316289 L12.913573,0.201316289 L12.913573,1.3151 C13.0770689,1.36869438 13.2325134,1.43970014 13.3778024,1.52594084 L14.2114757,0.699535449 L15.2466139,1.72553683 L14.3375514,2.62657534 C14.3594179,2.67871877 14.3793631,2.73185973 14.397387,2.78581685 L15.5668351,2.78581685 L15.5668351,4.23676453 L14.397387,4.23676453 C14.3683841,4.32354934 14.3344406,4.40815772 14.2957396,4.49004558 L15.1551221,5.34184256 L14.1199839,6.36784394 L13.2907022,5.54588208 C13.1709394,5.6101772 13.0447722,5.66449705 12.913573,5.70748137 L12.913573,6.82126509 L11.4497042,6.82126509 L11.4497042,5.70748137 C11.3292095,5.66794305 11.213015,5.61897357 11.1020354,5.56147976 L10.2884903,6.36784394 L9.25335215,5.34184256 L10.0821763,4.52033412 C10.0373454,4.4290151 9.99846135,4.33434076 9.96589027,4.23676453 L8.79644211,4.23676453 L8.79644211,2.78581685 L9.96589027,2.78581685 C9.98757383,2.72097762 10.0120021,2.65731729 10.0391752,2.59510791 L9.16186035,1.72553683 L10.1969986,0.699535449 L11.0139288,1.50934562 C11.1509835,1.43054103 11.2968215,1.36524838 11.4497042,1.3151 Z M12.1816386,2.35506675 C12.8254664,2.35506675 13.348159,2.87314576 13.348159,3.51129069 C13.348159,4.14943562 12.8254664,4.66751462 12.1816386,4.66751462 C11.5378108,4.66751462 11.0151182,4.14943562 11.0151182,3.51129069 C11.0151182,2.87314576 11.5378108,2.35506675 12.1816386,2.35506675 Z" id="Shape"></path>
        </g>
    </g>
</svg>