<?xml version="1.0" encoding="UTF-8"?>
<svg width="24px" height="24px" viewBox="0 0 24 24" version="1.1" xmlns="http://www.w3.org/2000/svg" xmlns:xlink="http://www.w3.org/1999/xlink">
    <!-- Generator: Sketch 54.1 (76490) - https://sketchapp.com -->
    <title>Client View On</title>
    <g id="Icon/24/client-view-on" stroke="none" stroke-width="1" fill="none" fill-rule="evenodd">
        <g id="noun_Explore-Clients_337812" transform="translate(4.000000, 5.000000)" fill="#FFFFFF" fill-rule="nonzero">
            <g id="Group" transform="translate(0.514851, 0.000000)">
                <path d="M14.5425743,12.4752475 L10.7405941,8.88712871 C10.550495,8.6970297 10.2415842,8.72079208 10.0752475,8.91089109 L10.0039604,8.98217822 L8.67326733,7.72277228 C8.72079208,7.65148515 8.79207921,7.58019802 8.83960396,7.50891089 C10.3128713,5.2990099 9.71881188,2.3049505 7.50891089,0.831683168 C5.2990099,-0.641584158 2.3049505,-0.0475247525 0.831683168,2.16237624 C-0.641584158,4.37227723 -0.0475247525,7.36633663 2.16237624,8.83960396 C3.99207921,10.0514851 6.34455446,9.86138614 7.93663366,8.50693069 L9.26732673,9.76633663 L9.1960396,9.83762376 C9.00594059,10.0277228 9.02970297,10.3366337 9.21980198,10.5029703 L13.0217822,14.0910891 C13.2118812,14.2811881 13.5207921,14.2574257 13.6871287,14.0673267 L14.5663366,13.1405941 C14.7326733,12.950495 14.7326733,12.6653465 14.5425743,12.4752475 Z M7.88910891,6.89108911 C6.74851485,8.6019802 4.46732673,9.05346535 2.75643564,7.91287129 C1.06930693,6.77227723 0.594059406,4.49108911 1.73465347,2.78019802 C2.87524752,1.06930693 5.15643564,0.617821782 6.86732673,1.75841584 C8.57821782,2.8990099 9.02970297,5.18019802 7.88910891,6.89108911 Z" id="Shape"></path>
                <path d="M4.75181518,2.53333333 C4.26856292,2.53333333 3.87681518,2.92508627 3.87681518,3.40833333 C3.87681518,3.89158039 4.26856292,4.28333333 4.75181518,4.28333333 C5.23506739,4.28333333 5.62681518,3.89158039 5.62681518,3.40833333 C5.62681518,2.92508627 5.23506734,2.53333333 4.75181518,2.53333333 Z M4.7518152,4.575 C3.45914854,4.575 2.41848185,5.29975 2.41848185,6.2 L2.41848185,7.2 L7.08514851,7.2 L7.08514851,6.2 C7.08514851,5.29975 6.04448185,4.575 4.7518152,4.575 Z" id="Shape"></path>
            </g>
        </g>
    </g>
</svg>