<?xml version="1.0" encoding="UTF-8"?>
<svg width="12px" height="12px" viewBox="0 0 12 12" version="1.1" xmlns="http://www.w3.org/2000/svg" xmlns:xlink="http://www.w3.org/1999/xlink">
  <title>Confidential</title>
    <g id="Icon/12/confidential" stroke="none" stroke-width="1" fill="none" fill-rule="evenodd">
        <g id="Group" transform="translate(1.000000, -1.000000)" fill="#FB657E" fill-rule="nonzero">
            <path d="M2.00688876,3.84054207 L2.00688876,5.39085263 L3.38102767,5.39085263 L3.38102767,3.84054207 C3.38102767,2.92444946 4.12094862,2.18452851 5.07227555,2.18452851 C5.98836815,2.18452851 6.7282891,2.92444946 6.7282891,3.84054207 L6.7282891,5.39085263 L8.10242801,5.39085263 L8.10242801,3.84054207 C8.10242801,2.18452851 6.7282891,0.81038961 5.03704122,0.81038961 C3.38102767,0.81038961 2.00688876,2.18452851 2.00688876,3.84054207 Z" id="Path"></path>
            <path d="M0.632749859,6.76499153 L0.632749859,11.9796725 C0.632749859,12.3672501 0.949858837,12.6843591 1.33743648,12.6843591 L8.80711462,12.6843591 C9.19469226,12.6843591 9.51180124,12.3672501 9.51180124,11.9796725 L9.51180124,6.76499153 L0.632749859,6.76499153 Z" id="Path"></path>
        </g>
    </g>
</svg>
