<?xml version="1.0" encoding="UTF-8"?>
<svg width="24px" height="24px" viewBox="0 0 24 24" version="1.1" xmlns="http://www.w3.org/2000/svg" xmlns:xlink="http://www.w3.org/1999/xlink">
    <!-- Generator: Sketch 54.1 (76490) - https://sketchapp.com -->
    <title>Icon/24/contract on</title>
    <desc>Created with Sketch.</desc>
    <g id="Icon/24/contract-on" stroke="none" stroke-width="1" fill="none" fill-rule="evenodd">
        <g id="noun_contract_2433330" transform="translate(6.000000, 4.000000)" fill="#FFFFFF" fill-rule="nonzero">
            <path d="M11.6869565,0.166956522 L1.00173913,0.166956522 C0.726620118,0.170553308 0.504466351,0.392707074 0.500869565,0.667826087 L0.500869565,12.6886957 L0.500869565,12.6886957 C0.499919921,12.8204062 0.550209542,12.9473276 0.641113043,13.0426435 L3.31241739,15.7139478 C3.40706208,15.8066982 3.53385909,15.8593309 3.66636522,15.8608696 L11.6869565,15.8608696 C11.9620755,15.8572728 12.1842293,15.635119 12.1878261,15.36 L12.1878261,0.667826087 C12.1842293,0.392707074 11.9620755,0.170553308 11.6869565,0.166956522 Z M3.17217391,14.1512348 L2.21050435,13.1895652 L3.17217391,13.1895652 L3.17217391,14.1512348 Z M11.186087,14.8591304 L4.17391304,14.8591304 L4.17391304,12.6886957 C4.17031626,12.4135766 3.94816249,12.1914229 3.67304348,12.1878261 L1.5026087,12.1878261 L1.5026087,1.16869565 L11.186087,1.16869565 L11.186087,14.8591304 Z M9.68347826,4.50782609 L3.00521739,4.50782609 L3.00521739,3.50608696 L9.68347826,3.50608696 L9.68347826,4.50782609 Z M9.68347826,7.84695652 L3.00521739,7.84695652 L3.00521739,6.84521739 L9.68347826,6.84521739 L9.68347826,7.84695652 Z M6.34434783,11.186087 L3.00521739,11.186087 L3.00521739,10.1843478 L6.34434783,10.1843478 L6.34434783,11.186087 Z M8.68173913,13.8573913 C9.511607,13.8573913 10.1843478,13.1846505 10.1843478,12.3547826 C10.1843478,11.5249147 9.511607,10.8521739 8.68173913,10.8521739 C7.85187126,10.8521739 7.17913043,11.5249147 7.17913043,12.3547826 C7.17913043,13.1846505 7.85187126,13.8573913 8.68173913,13.8573913 Z M9.1826087,12.3547826 C9.1826087,12.6314052 8.95836175,12.8556522 8.68173913,12.8556522 C8.40511651,12.8556522 8.18086957,12.6314052 8.18086957,12.3547826 C8.18086957,12.07816 8.40511651,11.853913 8.68173913,11.853913 C8.95685814,11.8575098 9.17901191,12.0796636 9.1826087,12.3547826 L9.1826087,12.3547826 Z" id="Shape"></path>
        </g>
    </g>
</svg>