<svg xmlns="http://www.w3.org/2000/svg" xmlns:xlink="http://www.w3.org/1999/xlink" width="16" height="16" viewBox="0 0 16 16">
  <defs>
    <path id="icon-16-download-a" d="M9,8.58578644 L11.2928932,6.29289322 C11.6834175,5.90236893 12.3165825,5.90236893 12.7071068,6.29289322 C13.0976311,6.68341751 13.0976311,7.31658249 12.7071068,7.70710678 L8.70710678,11.7071068 C8.31658249,12.0976311 7.68341751,12.0976311 7.29289322,11.7071068 L3.29289322,7.70710678 C2.90236893,7.31658249 2.90236893,6.68341751 3.29289322,6.29289322 C3.68341751,5.90236893 4.31658249,5.90236893 4.70710678,6.29289322 L7,8.58578644 L7,1 C7,0.44771525 7.44771525,1.11022302e-16 8,0 C8.55228475,0 9,0.44771525 9,1 L9,8.58578644 Z M3,16 C2.44771525,16 2,15.5522847 2,15 C2,14.4477153 2.44771525,14 3,14 L13,14 C13.5522847,14 14,14.4477153 14,15 C14,15.5522847 13.5522847,16 13,16 L3,16 Z"/>
  </defs>
  <g fill="none" fill-rule="evenodd">
    <use fill="#455565" fill-rule="nonzero" xlink:href="#icon-16-download-a"/>
  </g>
</svg>
