<?xml version="1.0" encoding="UTF-8"?>
<svg width="16px" height="16px" viewBox="0 0 16 16" version="1.1" xmlns="http://www.w3.org/2000/svg" xmlns:xlink="http://www.w3.org/1999/xlink">
    <title>Warning: Person or their employer is a target of at least one deal!</title>
    <defs></defs>
    <g id="Icon/16/multiple-deals" stroke="none" stroke-width="1" fill="none" fill-rule="evenodd">
        <g id="Group" transform="translate(2.000000, 0.000000)">
            <path d="M0.997561338,8.61421356 L0.411774901,8.02842712 C-0.0568542495,7.55979797 -0.0568542495,6.8 0.411774901,6.33137085 L6,0.743145751 C6.22504365,0.518102096 6.53026835,0.391673888 6.84852814,0.391673888 L10.8083261,0.391673888 C11.4710678,0.391673888 12.0083261,0.928932188 12.0083261,1.59167389 L12.0083261,2.83168113 C11.8790821,2.80544599 11.7453124,2.79167389 11.6083261,2.79167389 L10.3011327,2.79167389 C10.2427199,2.63854083 10.151818,2.49496379 10.0284271,2.37157288 C9.55979797,1.90294373 8.8,1.90294373 8.33137085,2.37157288 C8.20797993,2.49496379 8.11707807,2.63854083 8.05866526,2.79167389 L7.64852814,2.79167389 C7.11809516,2.79167389 6.60938733,3.00238757 6.23431458,3.37746033 L0.997561338,8.61421356 Z" id="Combined-Shape" fill="#99AABB"></path>
            <path d="M7.64852814,3.59167389 L11.6083261,3.59167389 C12.2710678,3.59167389 12.8083261,4.12893219 12.8083261,4.79167389 L12.8083261,8.75147186 C12.8083261,9.06973165 12.6818979,9.37495635 12.4568542,9.6 L6.86862915,15.1882251 C6.4,15.6568542 5.64020203,15.6568542 5.17157288,15.1882251 L1.2117749,11.2284271 C0.743145751,10.759798 0.743145751,10 1.2117749,9.53137085 L6.8,3.94314575 C7.02504365,3.7181021 7.33026835,3.59167389 7.64852814,3.59167389 Z M9.13137085,7.26862915 C9.6,7.7372583 10.359798,7.7372583 10.8284271,7.26862915 C11.2970563,6.8 11.2970563,6.04020203 10.8284271,5.57157288 C10.359798,5.10294373 9.6,5.10294373 9.13137085,5.57157288 C8.6627417,6.04020203 8.6627417,6.8 9.13137085,7.26862915 Z" id="Combined-Shape" fill="#778DA4"></path>
        </g>
    </g>
</svg>
