<svg xmlns="http://www.w3.org/2000/svg" xmlns:xlink="http://www.w3.org/1999/xlink" width="16" height="16" viewBox="0 0 16 16">
  <defs>
    <path id="icon-16-add-user-a" d="M2,7 L2,6 C2,5.44771525 2.44771525,5 3,5 C3.55228475,5 4,5.44771525 4,6 L4,7 L5,7 C5.55228475,7 6,7.44771525 6,8 C6,8.55228475 5.55228475,9 5,9 L4,9 L4,10 C4,10.5522847 3.55228475,11 3,11 C2.44771525,11 2,10.5522847 2,10 L2,9 L1,9 C0.44771525,9 0,8.55228475 0,8 C0,7.44771525 0.44771525,7 1,7 L2,7 Z M11,9 C9.34314575,9 8,7.65685425 8,6 C8,4.34314575 9.34314575,3 11,3 C12.6568542,3 14,4.34314575 14,6 C14,7.65685425 12.6568542,9 11,9 Z M15.9893876,12.7299451 C15.9899246,12.7366166 15.9901934,12.7433069 15.9901934,12.75 C15.9901934,12.8880486 15.8782829,12.9999591 15.7402343,12.9999591 L6.25981636,13 C6.25311544,13 6.24641723,12.9997307 6.23973794,12.9991928 C6.10204636,12.9881038 5.9994147,12.8674933 6.0105037,12.7298017 L6.01062317,12.7298113 C6.15718692,10.9099371 7.82031253,10 11,10 C14.1797654,10 15.8428946,10.9099817 15.9893876,12.7299451 Z"/>
  </defs>
  <g fill="none" fill-rule="evenodd">
    <use fill="#455565" xlink:href="#icon-16-add-user-a"/>
  </g>
</svg>
