<?xml version="1.0" encoding="UTF-8"?>
<svg width="24px" height="24px" viewBox="0 0 24 24" version="1.1" xmlns="http://www.w3.org/2000/svg" xmlns:xlink="http://www.w3.org/1999/xlink">
    <title>Home</title>
    <desc>Created with Sketch.</desc>
    <g id="Icon/24/home-off" stroke="none" stroke-width="1" fill="none" fill-rule="evenodd">
        <g id="noun_Home_2817905" transform="translate(4.000000, 3.000000)" fill="#778DA4">
            <path d="M0.902821317,6.62068966 C0.652037618,6.77115987 0.300940439,6.72100313 0.10031348,6.52037618 C-0.0501567398,6.26959248 -1.87350135e-16,5.9184953 0.200626959,5.71786834 C2.70846395,3.86206897 5.1661442,2.00626959 7.67398119,0.150470219 C7.87460815,0 8.12539185,0 8.32601881,0.150470219 C10.7836991,2.00626959 13.2915361,3.86206897 15.7492163,5.71786834 C16,5.9184953 16.0501567,6.26959248 15.8495298,6.52037618 C15.6990596,6.72100313 15.3479624,6.77115987 15.0971787,6.62068966 L13.8934169,5.71786834 L13.8934169,13.5423197 L9.63009404,13.5423197 L9.63009404,8.62695925 L6.36990596,8.62695925 L6.36990596,13.5423197 L2.05642633,13.5423197 L2.05642633,5.71786834 L0.902821317,6.62068966 Z" id="Path"></path>
        </g>
    </g>
</svg>