<svg xmlns="http://www.w3.org/2000/svg" xmlns:xlink="http://www.w3.org/1999/xlink" width="16" height="16" viewBox="0 0 16 16">
  <defs>
    <path id="icon-16-visibility-a" d="M8,13 C3.581722,13 1.72569756e-16,9.76142375 0,8 C0,6.23857625 3.581722,3 8,3 C12.418278,3 16,6.23857625 16,8 C16,9.76142375 12.418278,13 8,13 Z M8,11 C9.65685425,11 11,9.65685425 11,8 C11,6.34314575 9.65685425,5 8,5 C6.34314575,5 5,6.34314575 5,8 C5,9.65685425 6.34314575,11 8,11 Z M8,9 C7.44771525,9 7,8.55228475 7,8 C7,7.44771525 7.44771525,7 8,7 C8.55228475,7 9,7.44771525 9,8 C9,8.55228475 8.55228475,9 8,9 Z"/>
  </defs>
  <g fill="none" fill-rule="evenodd">
    <use fill="#455565" xlink:href="#icon-16-visibility-a"/>
  </g>
</svg>
