<svg xmlns="http://www.w3.org/2000/svg" xmlns:xlink="http://www.w3.org/1999/xlink" width="24" height="24" viewBox="0 0 24 24">
  <defs>
    <path id="icon-24-lock-a" d="M16,10 L8,10 L8,8.003 C8,5.795 9.795,4 12,4 C14.213,4 16,5.786 16,8.003 L16,10 Z M13.936,19.063 C14.138,19.588 13.849,20 13.299,20 L10.701,20 C10.146,20 9.866,19.581 10.063,19.063 L11.283,15.868 C10.533,15.58 10,14.852 10,14 C10,12.896 10.896,12 12,12 C13.104,12 14,12.896 14,14 C14,14.854 13.465,15.583 12.712,15.87 L13.936,19.063 Z M18.006,10 L18,10 L18,8.003 C18,4.678 15.313,2 12,2 C8.693,2 6,4.688 6,8.003 L6,10 L5.994,10 C4.895,10 4,10.899 4,12.009 L4,19.991 C4,21.098 4.893,22 5.994,22 L18.006,22 C19.105,22 20,21.101 20,19.991 L20,12.009 C20,10.902 19.107,10 18.006,10 L18.006,10 Z"/>
  </defs>
  <g fill="none" fill-rule="evenodd">
    <use fill="#455565" xlink:href="#icon-24-lock-a"/>
  </g>
</svg>
