<svg xmlns="http://www.w3.org/2000/svg" width="16" height="16" viewBox="0 0 16 16">
  <path fill="#455565" fill-rule="evenodd" d="M5,2 L5,2.5 C5,3.32842712 5.67157288,4 6.5,4 L9.5,4 C10.3284271,4 11,3.32842712 11,2.5 L11,2 L12,2 C13.1045695,2 14,2.8954305 14,4 L14,13 C14,14.1045695 13.1045695,15 12,15 L4,15 C2.8954305,15 2,14.1045695 2,13 L2,4 C2,2.8954305 2.8954305,2 4,2 L5,2 Z M10.1237117,6.1707477 L7.02989964,9.70653285 L5.9,8.2 C5.73431458,7.9790861 5.4209139,7.93431458 5.2,8.1 C4.9790861,8.26568542 4.93431458,8.5790861 5.1,8.8 L6.6,10.8 C6.79067063,11.0542275 7.16702586,11.0684094 7.37628835,10.8292523 L10.8762883,6.8292523 C11.0581294,6.62143399 11.0370706,6.30555268 10.8292523,6.12371165 C10.621434,5.94187063 10.3055527,5.96292938 10.1237117,6.1707477 Z M6.5,1 L9.5,1 C9.77614237,1 10,1.22385763 10,1.5 L10,2.5 C10,2.77614237 9.77614237,3 9.5,3 L6.5,3 C6.22385763,3 6,2.77614237 6,2.5 L6,1.5 C6,1.22385763 6.22385763,1 6.5,1 Z"/>
</svg>
