<?xml version="1.0" encoding="UTF-8"?>
<svg width="24px" height="24px" viewBox="0 0 24 24" version="1.1" 
    xmlns="http://www.w3.org/2000/svg" 
    xmlns:xlink="http://www.w3.org/1999/xlink">
    <defs></defs>
    <g id="icon-24-nav-companies-off" stroke="none" stroke-width="1" fill="none" fill-rule="evenodd">
        <g id="Icon/24/Nav/Companies/Off">
            <g id="Shape" transform="translate(4.000000, 5.000000)">
                <path d="M16,11.0500091 C15.838445,11.0172151 15.6712329,11 15.5,11 C15.3287671,11 15.161555,11.0172151 15,11.0500091 L15,9 C15,8.44771525 14.5522847,8 14,8 L3,8 C2.44771525,8 2,8.44771525 2,9 L2,11.0500091 C1.83844503,11.0172151 1.67123292,11 1.5,11 C1.32876708,11 1.16155497,11.0172151 1,11.0500091 L1,9 C1,7.8954305 1.8954305,7 3,7 L14,7 C15.1045695,7 16,7.8954305 16,9 L16,11.0500091 Z" id="Combined-Shape" fill="#778DA4" fill-rule="nonzero"></path>
                <path d="M8,11.0500091 L8,3.94999094 C8.16155497,3.98278487 8.32876708,4 8.5,4 C8.67123292,4 8.83844503,3.98278487 9,3.94999094 L9,11.0500091 C8.83844503,11.0172151 8.67123292,11 8.5,11 C8.32876708,11 8.16155497,11.0172151 8,11.0500091 Z" id="Combined-Shape" fill="#778DA4" fill-rule="nonzero"></path>
                <circle id="Oval-4" fill="#99AABB" cx="8.5" cy="1.5" r="1.5"></circle>
                <circle id="Oval-4" fill="#99AABB" cx="8.5" cy="13.5" r="1.5"></circle>
                <circle id="Oval-4" fill="#99AABB" cx="1.5" cy="13.5" r="1.5"></circle>
                <circle id="Oval-4" fill="#99AABB" cx="15.5" cy="13.5" r="1.5"></circle>
            </g>
        </g>
    </g>
</svg>