<svg xmlns="http://www.w3.org/2000/svg" xmlns:xlink="http://www.w3.org/1999/xlink" width="12" height="12" viewBox="0 0 12 12">
  <defs>
    <path id="icon-12-rank-a" d="M9.2198039,5 L8.8198039,7 L10,7 C10.5522847,7 11,7.44771525 11,8 C11,8.55228475 10.5522847,9 10,9 L8.4198039,9 L7.98058068,11.1961161 C7.87226873,11.7376759 7.34544362,12.0888926 6.80388386,11.9805807 C6.26232411,11.8722687 5.91110737,11.3454436 6.01941932,10.8038839 L6.3801961,9 L4.4198039,9 L3.98058068,11.1961161 C3.87226873,11.7376759 3.34544362,12.0888926 2.80388386,11.9805807 C2.26232411,11.8722687 1.91110737,11.3454436 2.01941932,10.8038839 L2.3801961,9 L1,9 C0.44771525,9 0,8.55228475 0,8 C0,7.44771525 0.44771525,7 1,7 L2.7801961,7 L3.1801961,5 L2,5 C1.44771525,5 1,4.55228475 1,4 C1,3.44771525 1.44771525,3 2,3 L3.5801961,3 L4.01941932,0.803883865 C4.12773127,0.262324112 4.65455638,-0.0888926263 5.19611614,0.0194193243 C5.73767589,0.127731275 6.08889263,0.654556382 5.98058068,1.19611614 L5.6198039,3 L7.5801961,3 L8.01941932,0.803883865 C8.12773127,0.262324112 8.65455638,-0.0888926263 9.19611614,0.0194193243 C9.73767589,0.127731275 10.0888926,0.654556382 9.98058068,1.19611614 L9.6198039,3 L11,3 C11.5522847,3 12,3.44771525 12,4 C12,4.55228475 11.5522847,5 11,5 L9.2198039,5 Z M7.1801961,5 L5.2198039,5 L4.8198039,7 L6.7801961,7 L7.1801961,5 Z"/>
  </defs>
  <g fill="none" fill-rule="evenodd">
    <use fill="#455565" fill-rule="nonzero" xlink:href="#icon-12-rank-a"/>
  </g>
</svg>
