<svg xmlns="http://www.w3.org/2000/svg" width="12" height="12" viewBox="0 0 12 12">
  <path fill="#455565" fill-rule="evenodd" d="M5,0.0829584402 L5,6.58578644 L3.70710678,5.29289322 C3.31658249,4.90236893 2.68341751,4.90236893 2.29289322,5.29289322 C1.90236893,5.68341751 1.90236893,6.31658249 2.29289322,6.70710678 L5.29289322,9.70710678 C5.68341751,10.0976311 6.31658249,10.0976311 6.70710678,9.70710678 L9.70710678,6.70710678 C10.0976311,6.31658249 10.0976311,5.68341751 9.70710678,5.29289322 C9.31658249,4.90236893 8.68341751,4.90236893 8.29289322,5.29289322 L7,6.58578644 L7,0.0829584402 C9.83771334,0.559036532 12,3.02700371 12,6 C12,9.3137085 9.3137085,12 6,12 C2.6862915,12 0,9.3137085 0,6 C0,3.02700371 2.16228666,0.559036532 5,0.0829584402 Z"/>
</svg>
