<svg xmlns="http://www.w3.org/2000/svg" xmlns:xlink="http://www.w3.org/1999/xlink" width="12" height="12" viewBox="0 0 12 12">
  <defs>
    <path id="icon-12-gear-a" d="M4.19950586,2.20441348 C4.32608132,2.14426373 4.45614247,2.09025904 4.58930376,2.04278496 L4.95475674,0.580973053 C5.03497238,0.260110496 5.3655962,0 5.69937394,0 L6.30062606,0 C6.63165115,0 6.96421051,0.256842041 7.04524326,0.580973053 L7.41069624,2.04278496 C7.54385753,2.09025904 7.67391868,2.14426373 7.80049414,2.20441348 L9.0927321,1.4290707 C9.37633721,1.25890763 9.79404946,1.30876808 10.030066,1.54478458 L10.4552154,1.96993404 C10.6892855,2.20400412 10.7428257,2.62077385 10.5709293,2.9072679 L9.79558652,4.19950586 C9.85573627,4.32608132 9.90974096,4.45614247 9.95721504,4.58930376 L11.4190269,4.95475674 C11.7398895,5.03497238 12,5.3655962 12,5.69937394 L12,6.30062606 C12,6.63165115 11.743158,6.96421051 11.4190269,7.04524326 L9.95721504,7.41069624 C9.90974096,7.54385753 9.85573627,7.67391868 9.79558652,7.80049414 L10.5709293,9.0927321 C10.7410924,9.37633721 10.6912319,9.79404946 10.4552154,10.030066 L10.030066,10.4552154 C9.79599588,10.6892855 9.37922615,10.7428257 9.0927321,10.5709293 L7.80049414,9.79558652 C7.67391868,9.85573627 7.54385753,9.90974096 7.41069624,9.95721504 L7.04524326,11.4190269 C6.96502762,11.7398895 6.6344038,12 6.30062606,12 L5.69937394,12 C5.36834885,12 5.03578949,11.743158 4.95475674,11.4190269 L4.58930376,9.95721504 C4.45614247,9.90974096 4.32608132,9.85573627 4.19950586,9.79558652 L2.9072679,10.5709293 C2.62366279,10.7410924 2.20595054,10.6912319 1.96993404,10.4552154 L1.54478458,10.030066 C1.3107145,9.79599588 1.25717427,9.37922615 1.4290707,9.0927321 L2.20441348,7.80049414 C2.14426373,7.67391868 2.09025904,7.54385753 2.04278496,7.41069624 L0.580973053,7.04524326 C0.260110496,6.96502762 -2.04379919e-17,6.6344038 0,6.30062606 L3.68160746e-17,5.69937394 C5.70855151e-17,5.36834885 0.256842041,5.03578949 0.580973053,4.95475674 L2.04278496,4.58930376 C2.09025904,4.45614247 2.14426373,4.32608132 2.20441348,4.19950586 L1.4290707,2.9072679 C1.25890763,2.62366279 1.30876808,2.20595054 1.54478458,1.96993404 L1.96993404,1.54478458 C2.20400412,1.3107145 2.62077385,1.25717427 2.9072679,1.4290707 L4.19950586,2.20441348 L4.19950586,2.20441348 Z M6,8 C7.1045695,8 8,7.1045695 8,6 C8,4.8954305 7.1045695,4 6,4 C4.8954305,4 4,4.8954305 4,6 C4,7.1045695 4.8954305,8 6,8 Z"/>
  </defs>
  <g fill="none" fill-rule="evenodd">
    <use fill="#455565" xlink:href="#icon-12-gear-a"/>
  </g>
</svg>
