<svg xmlns="http://www.w3.org/2000/svg" width="24" height="24" viewBox="0 0 24 24">
  <path fill="#778DA4" fill-rule="evenodd" d="M4.58151705,17 C4.20650713,16.0735686 4,15.0609004 4,14 C4,9.581722 7.581722,6 12,6 C16.418278,6 20,9.581722 20,14 C20,15.0609004 19.7934929,16.0735686 19.418483,17 L4.58151705,17 Z M12,10 C12.5522847,10 13,9.55228475 13,9 C13,8.44771525 12.5522847,8 12,8 C11.4477153,8 11,8.44771525 11,9 C11,9.55228475 11.4477153,10 12,10 Z M8,14 C8,13.4477153 7.55228475,13 7,13 C6.44771525,13 6,13.4477153 6,14 C6,14.5522847 6.44771525,15 7,15 C7.55228475,15 8,14.5522847 8,14 Z M9.17157288,11.1715729 C9.56209717,10.7810486 9.56209717,10.1478836 9.17157288,9.75735931 C8.78104858,9.36683502 8.1478836,9.36683502 7.75735931,9.75735931 C7.36683502,10.1478836 7.36683502,10.7810486 7.75735931,11.1715729 C8.1478836,11.5620972 8.78104858,11.5620972 9.17157288,11.1715729 Z M16,14 C16,14.5522847 16.4477153,15 17,15 C17.5522847,15 18,14.5522847 18,14 C18,13.4477153 17.5522847,13 17,13 C16.4477153,13 16,13.4477153 16,14 Z M12.7071068,14.7071068 L16.2426407,11.1715729 C16.633165,10.7810486 16.633165,10.1478836 16.2426407,9.75735931 C15.8521164,9.36683502 15.2189514,9.36683502 14.8284271,9.75735931 L11.2928932,13.2928932 C10.9023689,13.6834175 10.9023689,14.3165825 11.2928932,14.7071068 C11.6834175,15.0976311 12.3165825,15.0976311 12.7071068,14.7071068 Z"/>
</svg>
