<svg xmlns="http://www.w3.org/2000/svg" xmlns:xlink="http://www.w3.org/1999/xlink" width="12" height="12" viewBox="0 0 12 12">
  <defs>
    <path id="icon-12-lightning-a" d="M6.54344935,0.107715018 L2.04154521,6.61140401 C1.96296138,6.72493037 1.9912879,6.88066645 2.10481426,6.95925028 C2.14662087,6.98818914 2.19625751,7.00369262 2.24710287,7.00369262 L5.5,7.00369262 L5.00264156,11.7203089 C4.98816248,11.8576188 5.08773654,11.9806681 5.22504644,11.9951472 C5.31595679,12.0047335 5.40485072,11.9639364 5.45685928,11.8887586 L9.94865051,5.3959256 C10.0272036,5.28237798 9.99883496,5.12664957 9.88528734,5.04809647 C9.84349187,5.01918205 9.79387663,5.00369262 9.74305435,5.00369262 L6.5,5.00369262 L6.99763337,0.276174822 C7.01208732,0.138862273 6.91249075,0.0158312161 6.7751782,0.00137726587 C6.68430652,-0.0081881729 6.59545512,0.0325847302 6.54344935,0.107715018 Z"/>
  </defs>
  <g fill="none" fill-rule="evenodd">
    <use fill="#455565" xlink:href="#icon-12-lightning-a"/>
  </g>
</svg>
