<?xml version="1.0" encoding="UTF-8"?>
<svg width="16px" height="16px" viewBox="0 0 16 16" version="1.1" xmlns="http://www.w3.org/2000/svg" xmlns:xlink="http://www.w3.org/1999/xlink">
  <g id="icon-16-resume-grey" stroke="none" stroke-width="1" fill="none" fill-rule="evenodd">
      <path d="M1,11.5565732 L1,2 L6.96983284,2 L7.96379941,3.79185748 L13.4185487,3.79185748 C13.9708334,3.79185748 14.4185487,4.23957273 14.4185487,4.79185748 L14.4185487,6.7782866" id="Path-21" stroke="#CAD1D8" fill="#CAD1D8"></path>
      <rect id="Rectangle" stroke="#CAD1D8" fill="#778DA4" x="1" y="9.5" width="1" height="2" rx="0.5"></rect>
      <path d="M1.4,12.4710488 L3.09425079,7.4594771 C3.36894854,6.64692474 4.13117951,6.1 4.98890918,6.1 L14.006333,6.1 C14.5586177,6.1 15.006333,6.54771525 15.006333,7.1 C15.006333,7.20890974 14.9885418,7.31708808 14.9536622,7.42026145 L13.2461538,12.4710488 L1.4,12.4710488 Z" id="Path-25" stroke="#FFFFFF" transform="translate(8.140198, 9.285524) rotate(1.000000) translate(-8.140198, -9.285524) "></path>
      <path d="M1.79999995,13.3710488 L3.49425074,8.3594771 C3.76894849,7.54692474 4.53117946,7 5.38890913,7 L14.4063329,7 C14.9586177,7 15.4063329,7.44771525 15.4063329,8 C15.4063329,8.10890974 15.3885417,8.21708808 15.3536621,8.32026145 L13.6461538,13.3710488 L1.79999995,13.3710488 Z" id="Path-25" stroke="#99AABB" fill="#99AABB"></path>
  </g>
</svg>