<?xml version="1.0" encoding="UTF-8"?>
<svg width="12px" height="12px" viewBox="0 0 12 12" version="1.1" xmlns="http://www.w3.org/2000/svg" xmlns:xlink="http://www.w3.org/1999/xlink">
    <g id="Icon/12/lead-blue" stroke="none" stroke-width="1" fill="none" fill-rule="evenodd">
        <g id="Group" fill="#55ABEF">
            <g id="Icon/16/Review" transform="translate(8.000000, 0.000000)">
                <polygon id="Path-9" points="2 0 1.33333333 1.33333333 0 1.6 0.933333333 2.53333333 0.533333333 4 2 3.2 3.46666667 4 3.06666667 2.53333333 4 1.6 2.66666667 1.33333333"></polygon>
            </g>
            <path d="M5.14285714,1.71428571 C4.07772972,1.71428571 3.21428571,2.57774118 3.21428571,3.64285714 C3.21428571,4.70797311 4.07772972,5.57142857 5.14285714,5.57142857 C6.20798445,5.57142857 7.07142857,4.70797311 7.07142857,3.64285714 C7.07142857,2.57774118 6.20798434,1.71428571 5.14285714,1.71428571 Z M5.14285717,6.21428571 C2.29371434,6.21428571 0,7.81169388 0,9.79591837 L0,12 L10.2857143,12 L10.2857143,9.79591837 C10.2857143,7.81169388 7.99200001,6.21428571 5.14285717,6.21428571 Z" id="Shape" fill-rule="nonzero"></path>
        </g>
    </g>
</svg>
