<?xml version="1.0" encoding="UTF-8"?>
<svg width="24px" height="24px" viewBox="0 0 24 24" version="1.1" xmlns="http://www.w3.org/2000/svg" xmlns:xlink="http://www.w3.org/1999/xlink">
    <!-- Generator: Sketch 54.1 (76490) - https://sketchapp.com -->
    <title>Milestones on</title>
    <g id="Icon/24/milestones-on" stroke="none" stroke-width="1" fill="none" fill-rule="evenodd">
        <g id="noun_timeline_2292422" transform="translate(3.000000, 8.000000)" fill="#FFFFFF" fill-rule="nonzero">
            <polygon id="Path" points="12.1254394 5.29509713 10.746716 6.67382054 6.29084181 6.67382054 7.66956522 5.29509713 6.29084181 3.91637373 10.746716 3.91637373"></polygon>
            <path d="M6.4107308,5.29509713 L5.0120259,6.67382054 L1.57613321,6.67382054 C1.02384846,6.67382054 0.57613321,6.22610529 0.57613321,5.67382054 L0.57613321,4.91637373 C0.57613321,4.36408898 1.02384846,3.91637373 1.57613321,3.91637373 L5.0120259,3.91637373 L6.4107308,5.29509713 Z" id="Path"></path>
            <polygon id="Path" points="17.840148 5.29509713 16.4614246 6.67382054 12.0055504 6.67382054 13.4042553 5.29509713 12.0055504 3.91637373 16.4614246 3.91637373"></polygon>
            <path d="M15.0027752,0.119888992 C14.2434783,0.119888992 13.6240518,0.739315449 13.6240518,1.4986124 C13.6240518,2.13802035 14.0636448,2.67752081 14.6431082,2.8373728 L15.0027752,3.45679926 L15.3624422,2.8373728 C15.9618871,2.67752081 16.3814986,2.13802035 16.3814986,1.4986124 C16.4014801,0.739315449 15.7820537,0.119888992 15.0027752,0.119888992 Z M15.0027752,2.29787234 C14.5631822,2.29787234 14.2234968,1.93820537 14.2234968,1.51859389 C14.2234968,1.09898242 14.5831637,0.739315449 15.0027752,0.739315449 C15.4223867,0.739315449 15.7820537,1.09898242 15.7820537,1.51859389 C15.7820537,1.93820537 15.4423682,2.29787234 15.0027752,2.29787234 Z" id="Shape"></path>
        </g>
    </g>
</svg>