<?xml version="1.0" encoding="UTF-8"?>
<svg width="24px" height="24px" viewBox="0 0 24 24" version="1.1" xmlns="http://www.w3.org/2000/svg" xmlns:xlink="http://www.w3.org/1999/xlink">
    <!-- Generator: Sketch 54.1 (76490) - https://sketchapp.com -->
    <title>Icon/24/position</title>
    <desc>Created with Sketch.</desc>
    <g id="Icon/24/position" stroke="none" stroke-width="1" fill="none" fill-rule="evenodd">
        <g id="Group" transform="translate(4.000000, 4.000000)" fill="#FFFFFF">
            <g id="noun_job-interview_1659656" fill-rule="nonzero">
                <path d="M7.99184506,0 C3.58817533,0 0,3.58817533 0,8.00815494 C0,9.4108053 0.375127421,10.7971458 1.0764526,12.0040775 L1.10907238,12.0530071 L0.391437309,14.4994903 C0.293577982,14.8093782 0.391437309,15.1518858 0.619775739,15.3802243 C0.848114169,15.6085627 1.19062181,15.706422 1.50050968,15.6085627 L3.97961264,14.9072375 L4.0285423,14.9398573 C5.23547401,15.6248726 6.60550459,16 8.00815494,16 C12.4118247,16 16,12.4118247 16,8.00815494 C16,3.60448522 12.4118247,0 7.99184506,0 Z M7.94500594,15.2864424 C6.59988624,15.2864424 5.28717905,14.9136984 4.15274075,14.2330354 L4.03929692,14.1682104 L1.33285125,14.9299047 C1.23561368,14.9623172 1.12216985,14.9299047 1.0573448,14.8650796 C0.976313492,14.7840483 0.960107231,14.6868107 0.976313492,14.5895732 L1.75421404,11.8993338 L1.689389,11.7858899 C0.992519754,10.6352454 0.619775739,9.32253817 0.619775739,7.9612122 C0.619775739,3.90964683 3.90964683,0.619775739 7.94500594,0.619775739 C11.9803651,0.619775739 15.2702361,3.90964683 15.2702361,7.94500594 C15.2864424,11.9965713 11.9965713,15.2864424 7.94500594,15.2864424 Z" id="Shape"></path>
            </g>
            <g id="Combined-Shape" transform="translate(4.000000, 4.000000)">
                <path d="M2.32246967,1.33333333 C2.53760697,0.562269614 3.20724484,0 4,0 C4.79275516,0 5.46239303,0.562269614 5.67753033,1.33333333 L5.14598908,1.33333333 C4.95309992,0.862425391 4.51257976,0.533333333 4,0.533333333 C3.48742024,0.533333333 3.04690008,0.862425391 2.85401092,1.33333333 L2.32246967,1.33333333 Z" fill-rule="nonzero"></path>
                <path d="M0,5.06666667 L8,5.06666667 L8,5.73333333 C8,6.83790283 7.1045695,7.73333333 6,7.73333333 L2,7.73333333 C0.8954305,7.73333333 1.3527075e-16,6.83790283 0,5.73333333 L0,5.06666667 Z" id="Rectangle-9" fill-rule="evenodd"></path>
                <path d="M2,1.86666667 L6,1.86666667 C7.1045695,1.86666667 8,2.76209717 8,3.86666667 L8,4.53333333 L0,4.53333333 L0,3.86666667 C-1.3527075e-16,2.76209717 0.8954305,1.86666667 2,1.86666667 Z M4,4 C4.27614237,4 4.5,3.76121853 4.5,3.46666667 C4.5,3.1721148 4.27614237,2.93333333 4,2.93333333 C3.72385763,2.93333333 3.5,3.1721148 3.5,3.46666667 C3.5,3.76121853 3.72385763,4 4,4 Z" fill-rule="evenodd"></path>
            </g>
        </g>
    </g>
</svg>