<?xml version="1.0" encoding="UTF-8"?>
<svg width="16px" height="16px" viewBox="0 0 16 16" version="1.1" xmlns="http://www.w3.org/2000/svg" xmlns:xlink="http://www.w3.org/1999/xlink">
    <!-- Generator: Sketch 54.1 (76490) - https://sketchapp.com -->
    <title>Icon/16/Task</title>
    <desc>Created with Sketch.</desc>
    <defs>
        <path d="M3,2 C2.44771525,2 2,2.44771525 2,3 L2,13 C2,13.5522847 2.44771525,14 3,14 L13,14 C13.5522847,14 14,13.5522847 14,13 L14,3 C14,2.44771525 13.5522847,2 13,2 L3,2 Z M3,0 L13,0 C14.6568542,1.22124533e-15 16,1.34314575 16,3 L16,13 C16,14.6568542 14.6568542,16 13,16 L3,16 C1.34314575,16 1.66533454e-15,14.6568542 0,13 L0,3 C-2.22044605e-16,1.34314575 1.34314575,3.33066907e-16 3,0 Z M7,8.58578644 L10.2928932,5.29289322 C10.6834175,4.90236893 11.3165825,4.90236893 11.7071068,5.29289322 C12.0976311,5.68341751 12.0976311,6.31658249 11.7071068,6.70710678 L7.70710678,10.7071068 C7.31658249,11.0976311 6.68341751,11.0976311 6.29289322,10.7071068 L4.29289322,8.70710678 C3.90236893,8.31658249 3.90236893,7.68341751 4.29289322,7.29289322 C4.68341751,6.90236893 5.31658249,6.90236893 5.70710678,7.29289322 L7,8.58578644 Z" id="path-1"></path>
    </defs>
    <g id="Icon/16/Task" stroke="none" stroke-width="1" fill="none" fill-rule="evenodd">
        <mask id="mask-2" fill="white">
            <use xlink:href="#path-1"></use>
        </mask>
        <use id="Mask" fill="#455565" fill-rule="nonzero" xlink:href="#path-1"></use>
        <g id="Color/Slate-1" mask="url(#mask-2)" fill="#455565">
            <rect x="0" y="0" width="12" height="12"></rect>
        </g>
    </g>
</svg>