<?xml version="1.0" encoding="UTF-8"?>
<svg width="16px" height="16px" viewBox="0 0 16 16" version="1.1" xmlns="http://www.w3.org/2000/svg" xmlns:xlink="http://www.w3.org/1999/xlink">
    <!-- Generator: Sketch 61.2 (89653) - https://sketch.com -->
    <title>Thumb Up</title>
    <desc>Created with Sketch.</desc>
    <g id="Icon/16/thumb-up-green" stroke="none" stroke-width="1" fill="none" fill-rule="evenodd">
        <g id="noun_like_576529">
            <g id="Group">
                <g id="Line" transform="translate(0.010500, 0.000000)">
                    <g id="Mask" fill="#50D087" fill-rule="nonzero">
                        <path d="M3.7385,16 L1.2505,16 C0.561,16 -1.97886152e-12,15.439 -1.97886152e-12,14.749 L-1.97886152e-12,7.251 C-1.97886152e-12,6.5615 0.561,6 1.2505,6 L3.7385,6 C4.428,6 4.9895,6.5615 4.9895,7.251 L4.9895,14.749 C4.9895,15.439 4.428,16 3.7385,16 Z M1.2505,7 C1.1125,7 1,7.1125 1,7.251 L1,14.749 C1,14.887 1.1125,15 1.2505,15 L3.7385,15 C3.877,15 3.9895,14.887 3.9895,14.749 L3.9895,7.251 C3.9895,7.1125 3.877,7 3.7385,7 L1.2505,7 Z" id="Shape"></path>
                        <path d="M12.903,16 L6.843,16 C6.5345,16 6.226,15.927 5.9495,15.789 L4.2655,14.947 C4.0185,14.8235 3.9185,14.523 4.042,14.276 C4.1655,14.029 4.4655,13.929 4.713,14.0525 L6.397,14.8945 C6.535,14.9635 6.689,15 6.843,15 L12.903,15 C13.0855,15 13.2555,14.9015 13.3465,14.7425 L13.911,13.7545 C14.6165,12.52 14.9895,11.115 14.9895,9.693 L14.9895,8.001 C14.9895,7.449 14.5405,7 13.9885,7 L10.225,7 C9.8935,7 9.5845,6.836 9.3985,6.5615 C9.213,6.287 9.1755,5.939 9.2985,5.6315 C9.757,4.4855 9.9895,3.278 9.9895,2.0425 L9.9895,1.463 C9.9895,1.208 9.782,1 9.5265,1 L9.2155,1 C9.01,1 8.827,1.138 8.7705,1.3355 L8.5745,2.021 C8.1545,3.4895 7.458,4.8385 6.504,6.0315 C6.012,6.647 5.278,7 4.4895,7 L2.9895,7 C2.7135,7 2.4895,6.776 2.4895,6.5 C2.4895,6.224 2.7135,6 2.9895,6 L4.4895,6 C4.972,6 5.422,5.7835 5.7235,5.4065 C6.594,4.3175 7.23,3.086 7.613,1.746 L7.809,1.0605 C7.9875,0.4365 8.566,0 9.2155,0 L9.5265,0 C10.3335,0 10.9895,0.656 10.9895,1.463 L10.9895,2.0425 C10.9895,3.406 10.7325,4.7385 10.227,6.003 L13.9885,6 C15.092,6 15.9895,6.8975 15.9895,8.001 L15.9895,9.693 C15.9895,11.289 15.571,12.8655 14.779,14.251 L14.2145,15.239 C13.946,15.7085 13.4435,16 12.903,16 Z" id="Path"></path>
                    </g>
                    <rect id="Rectangle" fill="#FFFFFF" x="4" y="5" width="1" height="11"></rect>
                </g>
            </g>
        </g>
        <rect id="Rectangle" fill="#50D087" x="1" y="7" width="3" height="8"></rect>
        <polygon id="Path-2" fill="#50D087" points="5 7 5 15 8 16 13.5 15.5 15 13 15.5 9 15 7 10.5 7 10 6.5 11 2 10 1 8.5 1 8 3.5 6.5 6"></polygon>
        <circle id="Oval" fill="#FFFFFF" fill-rule="nonzero" cx="2.5" cy="13.5" r="1"></circle>
    </g>
</svg>