<?xml version="1.0" encoding="UTF-8"?>
<svg width="24px" height="24px" viewBox="0 0 24 24" version="1.1" xmlns="http://www.w3.org/2000/svg" xmlns:xlink="http://www.w3.org/1999/xlink">
    <!-- Generator: Sketch 54.1 (76490) - https://sketchapp.com -->
    <title>Icon/24/assessment on</title>
    <desc>Created with Sketch.</desc>
    <g id="Icon/24/assessment-on" stroke="none" stroke-width="1" fill="none" fill-rule="evenodd">
        <g id="Group" transform="translate(2.000000, 4.000000)" fill="#FFFFFF" fill-rule="nonzero">
            <path d="M19.3025641,3.52820513 L17.7025641,1.94871795 C17.5179487,1.76410256 17.3128205,1.64102564 17.025641,1.68205128 C16.7794872,1.68205128 16.5333333,1.78461538 16.3487179,1.96923077 L14.7692308,3.54871795 C14.4410256,3.11794872 13.9487179,2.83076923 13.374359,2.83076923 L8.94358974,2.83076923 C8.22564103,1.21025641 6.60512821,0.0820512821 4.71794872,0.0820512821 C2.17435897,0.0820512821 0.102564103,2.15384615 0.102564103,4.6974359 C0.102564103,6.56410256 1.23076923,8.16410256 2.83076923,8.88205128 L2.83076923,13.7435897 C2.83076923,14.7076923 3.61025641,15.5076923 4.59487179,15.5076923 L13.3948718,15.5076923 C14.3589744,15.5076923 15.1589744,14.7076923 15.1589744,13.7435897 L15.1589744,9.08717949 L19.3435897,4.86153846 C19.6923077,4.49230769 19.6717949,3.8974359 19.3025641,3.52820513 Z M10.4820513,9.78461538 L11.5076923,10.8102564 L9.96923077,11.5282051 C9.88717949,11.5692308 9.82564103,11.5282051 9.78461538,11.5076923 C9.74358974,11.4666667 9.72307692,11.4051282 9.74358974,11.3230769 L10.4820513,9.78461538 Z M12.6358974,10.0307692 C12.574359,10.0923077 12.5128205,10.1333333 12.4512821,10.1948718 L11.0974359,8.86153846 C11.1589744,8.8 11.2,8.71794872 11.2615385,8.67692308 L15.2615385,4.65641026 L16.6358974,6.03076923 L12.6358974,10.0307692 Z M1.21025641,4.6974359 C1.21025641,2.76923077 2.78974359,1.18974359 4.71794872,1.18974359 C6.64615385,1.18974359 8.22564103,2.76923077 8.22564103,4.6974359 C8.22564103,6.62564103 6.64615385,8.20512821 4.71794872,8.20512821 C2.76923077,8.20512821 1.21025641,6.62564103 1.21025641,4.6974359 Z M14.0307692,13.7435897 C14.0307692,14.1128205 13.7230769,14.4205128 13.374359,14.4205128 L4.57435897,14.4205128 C4.20512821,14.4205128 3.91794872,14.1128205 3.91794872,13.7435897 L3.91794872,9.21025641 C4.18461538,9.25128205 4.43076923,9.29230769 4.71794872,9.29230769 C7.26153846,9.29230769 9.33333333,7.22051282 9.33333333,4.67692308 C9.33333333,4.43076923 9.29230769,4.18461538 9.25128205,3.93846154 L13.374359,3.93846154 C13.6410256,3.93846154 13.8871795,4.1025641 13.9897436,4.34871795 L10.5025641,7.87692308 C10.0923077,8.28717949 9.76410256,8.75897436 9.51794872,9.27179487 L8.77948718,10.8717949 C8.55384615,11.3641026 8.65641026,11.9179487 9.02564103,12.2871795 C9.27179487,12.5333333 9.57948718,12.6564103 9.90769231,12.6564103 C10.0923077,12.6564103 10.2769231,12.6153846 10.4410256,12.5333333 L12.0205128,11.7948718 C12.5333333,11.5487179 13.0051282,11.2205128 13.4153846,10.8102564 L14.0307692,10.1948718 L14.0307692,13.7435897 Z M17.4153846,5.23076923 L16.0410256,3.85641026 L17.0666667,2.83076923 L18.4410256,4.20512821 L17.4153846,5.23076923 Z" id="Shape"></path>
            <path d="M6.35897436,3.50769231 C6.13333333,3.3025641 5.78461538,3.32307692 5.57948718,3.52820513 L4.22564103,4.98461538 L3.69230769,4.43076923 C3.48717949,4.20512821 3.13846154,4.20512821 2.91282051,4.41025641 C2.68717949,4.61538462 2.68717949,4.96410256 2.89230769,5.18974359 L3.81538462,6.19487179 C3.91794872,6.2974359 4.06153846,6.37948718 4.22564103,6.37948718 C4.36923077,6.37948718 4.53333333,6.31794872 4.63589744,6.19487179 L6.4,4.30769231 C6.60512821,4.06153846 6.58461538,3.71282051 6.35897436,3.50769231 Z" id="Path"></path>
        </g>
    </g>
</svg>