<?xml version="1.0" encoding="UTF-8"?>
<svg width="12px" height="12px" viewBox="0 0 12 12" version="1.1" xmlns="http://www.w3.org/2000/svg" xmlns:xlink="http://www.w3.org/1999/xlink">
    <!-- Generator: Sketch 53 (72520) - https://sketchapp.com -->
    <title>Icon/12/filter</title>
    <desc>Created with Sketch.</desc>
    <g id="Icon/12/filter" stroke="none" stroke-width="1" fill="none" fill-rule="evenodd">
        <g id="Component/Button/Floating-Action" fill="#455565" fill-rule="nonzero">
            <g id="noun_filters_2161054">
                <path d="M3.48947368,8.41578947 C3.48867397,7.69027597 3.00650459,7.05339983 2.30842105,6.85578947 L2.30842105,0.442105263 C2.30842105,0.197937268 2.11048378,0 1.86631579,0 C1.62214779,0 1.42421053,0.197937268 1.42421053,0.442105263 L1.42421053,6.85578947 C0.724642273,7.05167154 0.24101712,7.68931475 0.24101712,8.41578947 C0.24101712,9.1422642 0.724642273,9.77990741 1.42421053,9.97578947 L1.42421053,10.9231579 C1.42421053,11.1673259 1.62214779,11.3652632 1.86631579,11.3652632 C2.11048378,11.3652632 2.30842105,11.1673259 2.30842105,10.9231579 L2.30842105,9.97578947 C3.00650459,9.77817911 3.48867397,9.14130297 3.48947368,8.41578947 Z M1.86631579,9.15789474 C1.45820643,9.15789474 1.12736842,8.82705673 1.12736842,8.41894737 C1.12736842,8.01083801 1.45820643,7.68 1.86631579,7.68 C2.27442515,7.68 2.60526316,8.01083801 2.60526316,8.41894737 C2.60526316,8.82705673 2.27442515,9.15789474 1.86631579,9.15789474 Z" id="Shape"></path>
                <path d="M11.7568421,8.41578947 C11.7560424,7.69027597 11.273873,7.05339983 10.5757895,6.85578947 L10.5757895,0.442105263 C10.5757895,0.197937268 10.3778522,0 10.1336842,0 C9.88951622,0 9.69157895,0.197937268 9.69157895,0.442105263 L9.69157895,6.85578947 C8.99201069,7.05167154 8.50838554,7.68931475 8.50838554,8.41578947 C8.50838554,9.1422642 8.99201069,9.77990741 9.69157895,9.97578947 L9.69157895,10.9231579 C9.69157894,11.0811069 9.77584372,11.2270578 9.91263157,11.3060323 C10.0494194,11.3850068 10.217949,11.3850068 10.3547368,11.3060323 C10.4915247,11.2270578 10.5757895,11.0811069 10.5757895,10.9231579 L10.5757895,9.97578947 C11.273873,9.77817911 11.7560424,9.14130297 11.7568421,8.41578947 Z M10.1336842,9.15789474 C9.72557485,9.15789474 9.39473684,8.82705673 9.39473684,8.41894737 C9.39473684,8.01083801 9.72557485,7.68 10.1336842,7.68 C10.5417936,7.68 10.8726316,8.01083801 10.8726316,8.41894737 C10.8726316,8.82705673 10.5417936,9.15789474 10.1336842,9.15789474 Z" id="Shape"></path>
                <path d="M4.37684211,2.95263158 C4.37764182,3.67814508 4.8598112,4.31502122 5.55789474,4.51263158 L5.55789474,10.9263158 C5.55789474,11.1704838 5.75583201,11.3684211 6,11.3684211 C6.24416799,11.3684211 6.44210526,11.1704838 6.44210526,10.9263158 L6.44210526,4.51263158 C7.14167352,4.31674951 7.62529867,3.6791063 7.62529867,2.95263158 C7.62529867,2.22615685 7.14167352,1.58851365 6.44210526,1.39263158 L6.44210526,0.445263158 C6.44210526,0.201095163 6.24416799,0.00315789474 6,0.00315789474 C5.75583201,0.00315789474 5.55789474,0.201095163 5.55789474,0.445263158 L5.55789474,1.39263158 C4.8598112,1.59024194 4.37764182,2.22711808 4.37684211,2.95263158 Z M6,2.21052632 C6.40810936,2.21052632 6.73894737,2.54136432 6.73894737,2.94947368 C6.73894737,3.35758305 6.40810936,3.68842105 6,3.68842105 C5.59189064,3.68842105 5.26105263,3.35758305 5.26105263,2.94947368 C5.26105263,2.54136432 5.59189064,2.21052632 6,2.21052632 Z" id="Shape"></path>
            </g>
        </g>
    </g>
</svg>