<?xml version="1.0" encoding="UTF-8"?>
<svg width="24px" height="24px" viewBox="0 0 24 24" version="1.1" xmlns="http://www.w3.org/2000/svg" xmlns:xlink="http://www.w3.org/1999/xlink">
    <!-- Generator: Sketch 54.1 (76490) - https://sketchapp.com -->
    <title>Grid View On</title>
    <g id="Icon/24/grid-view-on" stroke="none" stroke-width="1" fill="none" fill-rule="evenodd">
        <g id="Group" transform="translate(5.000000, 4.000000)" fill="#FFFFFF" fill-rule="nonzero">
            <path d="M3.53333333,0.0833333333 L0.55,0.0833333333 C0.283333333,0.0833333333 0.0666666667,0.3 0.0666666667,0.566666667 L0.0666666667,3.55 C0.0666666667,3.81666667 0.283333333,4.03333333 0.55,4.03333333 L3.53333333,4.03333333 C3.8,4.03333333 4.01666667,3.81666667 4.01666667,3.55 L4.01666667,0.566666667 C4.01666667,0.3 3.8,0.0833333333 3.53333333,0.0833333333 Z M3.05,3.06666667 L1.03333333,3.06666667 L1.03333333,1.03333333 L3.05,1.03333333 L3.05,3.06666667 Z" id="Shape"></path>
            <path d="M6.05,1.03333333 L14.1,1.03333333 C14.3666667,1.03333333 14.5833333,0.816666667 14.5833333,0.55 C14.5833333,0.283333333 14.3666667,0.0666666667 14.1,0.0666666667 L6.05,0.0666666667 C5.78333333,0.0666666667 5.56666667,0.283333333 5.56666667,0.55 C5.56666667,0.816666667 5.8,1.03333333 6.05,1.03333333 Z" id="Path"></path>
            <path d="M6.05,4.01666667 L12.45,4.01666667 C12.7166667,4.01666667 12.9333333,3.8 12.9333333,3.53333333 C12.9333333,3.26666667 12.7166667,3.05 12.45,3.05 L6.05,3.05 C5.78333333,3.05 5.56666667,3.26666667 5.56666667,3.53333333 C5.58333333,3.8 5.8,4.01666667 6.05,4.01666667 Z" id="Path"></path>
            <path d="M3.53333333,6.03333333 L0.55,6.03333333 C0.283333333,6.03333333 0.0666666667,6.25 0.0666666667,6.51666667 L0.0666666667,9.5 C0.0666666667,9.76666667 0.283333333,9.98333333 0.55,9.98333333 L3.53333333,9.98333333 C3.8,9.98333333 4.01666667,9.76666667 4.01666667,9.5 L4.01666667,6.51666667 C4.01666667,6.25 3.8,6.03333333 3.53333333,6.03333333 Z M3.05,9.01666667 L1.03333333,9.01666667 L1.03333333,6.98333333 L3.05,6.98333333 L3.05,9.01666667 Z" id="Shape"></path>
            <path d="M14.1166667,6.03333333 L6.05,6.03333333 C5.78333333,6.03333333 5.56666667,6.25 5.56666667,6.51666667 C5.56666667,6.78333333 5.78333333,7 6.05,7 L14.1,7 C14.3666667,7 14.5833333,6.78333333 14.5833333,6.51666667 C14.5833333,6.25 14.3666667,6.03333333 14.1166667,6.03333333 Z" id="Path"></path>
            <path d="M6.05,9.96666667 L12.45,9.96666667 C12.7166667,9.96666667 12.9333333,9.75 12.9333333,9.48333333 C12.9333333,9.21666667 12.7166667,9 12.45,9 L6.05,9 C5.78333333,9 5.56666667,9.21666667 5.56666667,9.48333333 C5.56666667,9.75 5.8,9.96666667 6.05,9.96666667 Z" id="Path"></path>
            <path d="M3.53333333,11.9833333 L0.55,11.9833333 C0.283333333,11.9833333 0.0666666667,12.2 0.0666666667,12.4666667 L0.0666666667,15.45 C0.0666666667,15.7166667 0.283333333,15.9333333 0.55,15.9333333 L3.53333333,15.9333333 C3.8,15.9333333 4.01666667,15.7166667 4.01666667,15.45 L4.01666667,12.4666667 C4.01666667,12.2 3.8,11.9833333 3.53333333,11.9833333 Z M3.05,14.9666667 L1.03333333,14.9666667 L1.03333333,12.9333333 L3.05,12.9333333 L3.05,14.9666667 Z" id="Shape"></path>
            <path d="M14.1166667,11.9833333 L6.05,11.9833333 C5.78333333,11.9833333 5.56666667,12.2 5.56666667,12.4666667 C5.56666667,12.7333333 5.78333333,12.95 6.05,12.95 L14.1,12.95 C14.3666667,12.95 14.5833333,12.7333333 14.5833333,12.4666667 C14.5833333,12.2 14.3666667,11.9833333 14.1166667,11.9833333 Z" id="Path"></path>
            <path d="M12.4666667,14.9666667 L6.05,14.9666667 C5.78333333,14.9666667 5.56666667,15.1833333 5.56666667,15.45 C5.56666667,15.7166667 5.78333333,15.9333333 6.05,15.9333333 L12.45,15.9333333 C12.7166667,15.9333333 12.9333333,15.7166667 12.9333333,15.45 C12.9333333,15.1833333 12.7333333,14.9666667 12.4666667,14.9666667 Z" id="Path"></path>
        </g>
    </g>
</svg>