<svg xmlns="http://www.w3.org/2000/svg" xmlns:xlink="http://www.w3.org/1999/xlink" width="12" height="12" viewBox="0 0 12 12">
  <defs>
    <path id="icon-12-export-a" d="M7.58578644,3 L3,3 C2.44771525,3 2,2.55228475 2,2 C2,1.44771525 2.44771525,1 3,1 L10,1 C10.5522847,1 11,1.44771525 11,2 L11,9.02079729 C11,9.57308204 10.5522847,10.0207973 10,10.0207973 C9.44771525,10.0207973 9,9.57308204 9,9.02079729 L9,4.41421356 L2.70710678,10.7071068 C2.31658249,11.0976311 1.68341751,11.0976311 1.29289322,10.7071068 C0.902368927,10.3165825 0.902368927,9.68341751 1.29289322,9.29289322 L7.58578644,3 Z"/>
  </defs>
  <g fill="none" fill-rule="evenodd">
    <mask id="icon-12-export-b" fill="#fff">
      <use xlink:href="#icon-12-export-a"/>
    </mask>
    <use fill="#455565" fill-rule="nonzero" xlink:href="#icon-12-export-a"/>
    <g fill="#455565" mask="url(#icon-12-export-b)">
      <rect width="12" height="12" transform="translate(1 1)"/>
    </g>
  </g>
</svg>
