<svg xmlns="http://www.w3.org/2000/svg" width="16" height="16" viewBox="0 0 16 16">
  <path fill="#455565" d="M1,0 L6,0 C6.55228475,-1.01453063e-16 7,0.44771525 7,1 L7,6 C7,6.55228475 6.55228475,7 6,7 L1,7 C0.44771525,7 6.76353751e-17,6.55228475 0,6 L0,1 C-6.76353751e-17,0.44771525 0.44771525,1.01453063e-16 1,0 Z M10,9 L15,9 C15.5522847,9 16,9.44771525 16,10 L16,15 C16,15.5522847 15.5522847,16 15,16 L10,16 C9.44771525,16 9,15.5522847 9,15 L9,10 C9,9.44771525 9.44771525,9 10,9 Z M1,9 L6,9 C6.55228475,9 7,9.44771525 7,10 L7,15 C7,15.5522847 6.55228475,16 6,16 L1,16 C0.44771525,16 6.76353751e-17,15.5522847 0,15 L0,10 C-6.76353751e-17,9.44771525 0.44771525,9 1,9 Z M10,0 L15,0 C15.5522847,-1.01453063e-16 16,0.44771525 16,1 L16,6 C16,6.55228475 15.5522847,7 15,7 L10,7 C9.44771525,7 9,6.55228475 9,6 L9,1 C9,0.44771525 9.44771525,1.01453063e-16 10,0 Z M2,2 L2,5 L5,5 L5,2 L2,2 Z M2,11 L2,14 L5,14 L5,11 L2,11 Z M11,2 L11,5 L14,5 L14,2 L11,2 Z M11,11 L11,14 L14,14 L14,11 L11,11 Z"/>
</svg>
