<?xml version="1.0" encoding="UTF-8"?>
<svg width="16px" height="16px" viewBox="0 0 16 16" version="1.1" xmlns="http://www.w3.org/2000/svg" xmlns:xlink="http://www.w3.org/1999/xlink">
    <defs>
        <path d="M4.52308498,11.476923 C1.60532656,8.55916462 0.0699198256,4.25905453 1.60532656,2.72364779 L3.02682256,1.30215179 C3.0389704,1.29000395 3.05141981,1.27816146 3.06415913,1.26663541 C3.48663265,0.884397459 4.1389802,0.917014836 4.52121815,1.33948836 L6.5376216,3.5681448 C6.5470118,3.57852345 6.5561898,3.58909212 6.56514992,3.59984425 C6.92988075,4.03752125 6.8707462,4.68800131 6.4330692,5.05273214 L5.53628838,5.80004949 C5.22368719,6.06055048 5.09343249,6.48047748 5.20373754,6.87215728 L5.20372455,6.87216094 C5.44122812,7.7155072 5.94378786,8.5209883 6.71140379,9.28860423 C7.47900979,10.0562102 8.28447999,10.5587669 9.12781437,10.7962743 C9.51949181,10.9065819 9.93941812,10.7763293 10.1999181,10.4637293 L10.9472759,9.56693882 C10.956236,9.55618668 10.965414,9.54561801 10.9748042,9.53523937 C11.3570421,9.11276584 12.0093897,9.08014847 12.4318632,9.46238642 L14.6605197,11.4787899 C14.673259,11.4903159 14.6857084,11.5021584 14.6978562,11.5143062 C15.1007146,11.9171646 15.1007146,12.5703271 14.6978562,12.9731855 L13.2763602,14.3946815 C11.7409535,15.9300882 7.44084339,14.3946815 4.52308498,11.476923 Z" id="path-phone-icon"></path>
    </defs>
    <g id="icon-16-Phone" stroke="none" stroke-width="1" fill="none" fill-rule="evenodd">
        <use id="Path-10" fill="#455565" xlink:href="#path-phone-icon"></use>
    </g>
</svg>
