<?xml version="1.0" encoding="UTF-8"?>
<svg width="16px" height="16px" viewBox="0 0 16 16" version="1.1" xmlns="http://www.w3.org/2000/svg" xmlns:xlink="http://www.w3.org/1999/xlink">
    <!-- Generator: Sketch 51.3 (57544) - http://www.bohemiancoding.com/sketch -->
    <desc>Created with Sketch.</desc>
    <defs></defs>
    <g id="Icon/16/Multiple-Projects" stroke="none" stroke-width="1" fill="none" fill-rule="evenodd">
        <g id="Group" transform="translate(3.000000, 1.000000)" fill="#FB657E">
            <path d="M0,7.5 L12,7.5 L12,9.75 C12,10.5784271 11.3284271,11.25 10.5,11.25 L1.5,11.25 C0.671572875,11.25 0,10.5784271 0,9.75 L0,7.5 Z M1.5,3 L10.5,3 C11.3284271,3 12,3.67157288 12,4.5 L12,6.75 L0,6.75 L0,4.5 C0,3.67157288 0.671572875,3 1.5,3 Z M6,6 C6.41421356,6 6.75,5.66421356 6.75,5.25 C6.75,4.83578644 6.41421356,4.5 6,4.5 C5.58578644,4.5 5.25,4.83578644 5.25,5.25 C5.25,5.66421356 5.58578644,6 6,6 Z" id="icon-24-projects-2"></path>
            <path d="M3.64493934,1.86285753 C3.96555545,0.785571137 4.96350741,0 6.14493934,0 C7.32637127,0 8.32432323,0.785571137 8.64493934,1.86285753 L7.85279084,1.86285753 C7.56533083,1.20493172 6.90882979,0.74514301 6.14493934,0.74514301 C5.38104889,0.74514301 4.72454785,1.20493172 4.43708784,1.86285753 L3.64493934,1.86285753 Z" id="icon-24-projects-1" fill-rule="nonzero"></path>
        </g>
        <rect id="Rectangle-13" stroke="#FFFFFF" fill-rule="nonzero" x="2.5" y="3.5" width="13" height="9" rx="3"></rect>
        <rect id="Rectangle-14" stroke="#FFFFFF" fill="#D8D8D8" fill-rule="nonzero" x="3.5" y="8.2" width="11" height="1"></rect>
        <rect id="Rectangle-11" fill="#FB657E" fill-rule="nonzero" x="1" y="7" width="11" height="8" rx="2"></rect>
        <path d="M3,8.5 L15,8.5 L15,10.75 C15,11.5784271 14.3284271,12.25 13.5,12.25 L4.5,12.25 C3.67157288,12.25 3,11.5784271 3,10.75 L3,8.5 Z M4.5,4 L13.5,4 C14.3284271,4 15,4.67157288 15,5.5 L15,7.75 L3,7.75 L3,5.5 C3,4.67157288 3.67157288,4 4.5,4 Z M9,7 C9.41421356,7 9.75,6.66421356 9.75,6.25 C9.75,5.83578644 9.41421356,5.5 9,5.5 C8.58578644,5.5 8.25,5.83578644 8.25,6.25 C8.25,6.66421356 8.58578644,7 9,7 Z" id="icon-24-projects-2" fill="#FB657E"></path>
        <rect id="Rectangle-13" stroke="#FFFFFF" fill-rule="nonzero" x="2.5" y="3.5" width="13" height="9" rx="3"></rect>
        <rect id="Rectangle-14" stroke="#FFFFFF" fill="#D8D8D8" fill-rule="nonzero" x="3.5" y="8.2" width="11" height="1"></rect>
    </g>
</svg>