<?xml version="1.0" encoding="UTF-8"?>
<svg width="24px" height="24px" viewBox="0 0 24 24" version="1.1" 
    xmlns="http://www.w3.org/2000/svg" 
    xmlns:xlink="http://www.w3.org/1999/xlink">
    <defs></defs>
    <g id="icon-24-nav-deals-off" stroke="none" stroke-width="1" fill="none" fill-rule="evenodd">
        <g id="Icon/24/Nav/Deals/Off">
            <path d="M5.24695167,12.767767 L4.51471863,12.0355339 C3.92893219,11.4497475 3.92893219,10.5 4.51471863,9.91421356 L11.5,2.92893219 C11.7813046,2.64762762 12.1628354,2.48959236 12.5606602,2.48959236 L17.5104076,2.48959236 C18.3388348,2.48959236 19.0104076,3.16116524 19.0104076,3.98959236 L19.0104076,5.53960142 C18.8488527,5.50680749 18.6816406,5.48959236 18.5104076,5.48959236 L16.8764159,5.48959236 C16.8033999,5.29817603 16.6897726,5.11870474 16.5355339,4.96446609 C15.9497475,4.37867966 15,4.37867966 14.4142136,4.96446609 C14.2599749,5.11870474 14.1463476,5.29817603 14.0733316,5.48959236 L13.5606602,5.48959236 C12.8976189,5.48959236 12.2617342,5.75298446 11.7928932,6.22182541 L5.24695167,12.767767 Z" id="Combined-Shape" fill="#99AABB"></path>
            <path d="M13.5606602,6.48959236 L18.5104076,6.48959236 C19.3388348,6.48959236 20.0104076,7.16116524 20.0104076,7.98959236 L20.0104076,12.9393398 C20.0104076,13.3371646 19.8523724,13.7186954 19.5710678,14 L12.5857864,20.9852814 C12,21.5710678 11.0502525,21.5710678 10.4644661,20.9852814 L5.51471863,16.0355339 C4.92893219,15.4497475 4.92893219,14.5 5.51471863,13.9142136 L12.5,6.92893219 C12.7813046,6.64762762 13.1628354,6.48959236 13.5606602,6.48959236 Z M15.4142136,11.0857864 C16,11.6715729 16.9497475,11.6715729 17.5355339,11.0857864 C18.1213203,10.5 18.1213203,9.55025253 17.5355339,8.96446609 C16.9497475,8.37867966 16,8.37867966 15.4142136,8.96446609 C14.8284271,9.55025253 14.8284271,10.5 15.4142136,11.0857864 Z" id="Combined-Shape" fill="#778DA4"></path>
        </g>
    </g>
</svg>