<svg xmlns="http://www.w3.org/2000/svg" xmlns:xlink="http://www.w3.org/1999/xlink" width="24" height="24" viewBox="0 0 24 24">
  <defs>
    <path id="icon-24-search-a" d="M17.3198574,15.9056439 L20.7071068,19.2928932 C21.0976311,19.6834175 21.0976311,20.3165825 20.7071068,20.7071068 C20.3165825,21.0976311 19.6834175,21.0976311 19.2928932,20.7071068 L15.9056439,17.3198574 C14.5509601,18.3729184 12.8487115,19 11,19 C6.581722,19 3,15.418278 3,11 C3,6.581722 6.581722,3 11,3 C15.418278,3 19,6.581722 19,11 C19,12.8487115 18.3729184,14.5509601 17.3198574,15.9056439 Z M11,17 C14.3137085,17 17,14.3137085 17,11 C17,7.6862915 14.3137085,5 11,5 C7.6862915,5 5,7.6862915 5,11 C5,14.3137085 7.6862915,17 11,17 Z"/>
  </defs>
  <g fill="none" fill-rule="evenodd">
    <use fill="#455565" fill-rule="nonzero" xlink:href="#icon-24-search-a"/>
  </g>
</svg>
