<svg xmlns="http://www.w3.org/2000/svg" width="24" height="24" viewBox="0 0 24 24">
  <g fill="none" fill-rule="evenodd">
    <path fill="#778DA4" d="M4,14 L20,14 L20,17 C20,18.1045695 19.1045695,19 18,19 L6,19 C4.8954305,19 4,18.1045695 4,17 L4,14 Z M6,8 L18,8 C19.1045695,8 20,8.8954305 20,10 L20,13 L4,13 L4,10 C4,8.8954305 4.8954305,8 6,8 Z M12,12 C12.5522847,12 13,11.5522847 13,11 C13,10.4477153 12.5522847,10 12,10 C11.4477153,10 11,10.4477153 11,11 C11,11.5522847 11.4477153,12 12,12 Z"/>
    <path fill="#9AB" fill-rule="nonzero" d="M8.64493934,7 C9.07521393,5.55425553 10.4144897,4.5 12,4.5 C13.5855103,4.5 14.9247861,5.55425553 15.3550607,7 L14.2919782,7 C13.9061998,6.11704761 13.0251595,5.5 12,5.5 C10.9748405,5.5 10.0938002,6.11704761 9.70802184,7 L8.64493934,7 Z"/>
  </g>
</svg>
