<svg xmlns="http://www.w3.org/2000/svg" xmlns:xlink="http://www.w3.org/1999/xlink" width="12" height="12" viewBox="0 0 12 12">
  <defs>
    <path id="icon-12-merge-a" d="M6,10.0004875 C5.08777121,11.2146569 3.63559896,12 2,12 L1,12 C0.44771525,12 0,11.5522847 0,11 C0,10.4477153 0.44771525,10 1,10 L2,10 C3.65685425,10 5,8.65685425 5,7 L5,3.41421356 L3.70710678,4.70710678 C3.31658249,5.09763107 2.68341751,5.09763107 2.29289322,4.70710678 C1.90236893,4.31658249 1.90236893,3.68341751 2.29289322,3.29289322 L5.29289322,0.292893219 C5.68341751,-0.0976310729 6.31658249,-0.0976310729 6.70710678,0.292893219 L9.70710678,3.29289322 C10.0976311,3.68341751 10.0976311,4.31658249 9.70710678,4.70710678 C9.31658249,5.09763107 8.68341751,5.09763107 8.29289322,4.70710678 L7,3.41421356 L7,7 C7,8.65685425 8.34314575,10 10,10 L11,10 C11.5522847,10 12,10.4477153 12,11 C12,11.5522847 11.5522847,12 11,12 L10,12 C8.36440104,12 6.91222879,11.2146569 6,10.0004875 Z"/>
  </defs>
  <g fill="none" fill-rule="evenodd">
    <use fill="#455565" fill-rule="nonzero" xlink:href="#icon-12-merge-a"/>
  </g>
</svg>
