<?xml version="1.0" encoding="UTF-8"?>
<svg width="16px" height="16px" viewBox="0 0 16 16" version="1.1" xmlns="http://www.w3.org/2000/svg" xmlns:xlink="http://www.w3.org/1999/xlink">
    <title>Resume</title>
    <defs></defs>
    <g id="icon-16-resume-grey2" stroke="none" stroke-width="1" fill="none" fill-rule="evenodd">
        <path d="M1,12.5565732 L1,3 L6.96983284,3 L7.96379941,4.79185748 L13.4185487,4.79185748 C13.9708334,4.79185748 14.4185487,5.23957273 14.4185487,5.79185748 L14.4185487,7.7782866" id="Path-21" stroke="#99AABB" fill="#99AABB"></path>
        <rect id="Rectangle" stroke="#99AABB" fill="#778DA4" x="1" y="10.5" width="1" height="2" rx="0.5"></rect>
        <path d="M1.4,13.4710488 L3.09425079,8.4594771 C3.36894854,7.64692474 4.13117951,7.1 4.98890918,7.1 L14.006333,7.1 C14.5586177,7.1 15.006333,7.54771525 15.006333,8.1 C15.006333,8.20890974 14.9885418,8.31708808 14.9536622,8.42026145 L13.2461538,13.4710488 L1.4,13.4710488 Z" id="Path-25" stroke="#FFFFFF" transform="translate(8.140198, 10.285524) rotate(1.000000) translate(-8.140198, -10.285524) "></path>
        <path d="M1.79999995,14.3710488 L3.49425074,9.3594771 C3.76894849,8.54692474 4.53117946,8 5.38890913,8 L14.4063329,8 C14.9586177,8 15.4063329,8.44771525 15.4063329,9 C15.4063329,9.10890974 15.3885417,9.21708808 15.3536621,9.32026145 L13.6461538,14.3710488 L1.79999995,14.3710488 Z" id="Path-25" stroke="#778DA4" fill="#778DA4"></path>
    </g>
</svg>