<svg xmlns="http://www.w3.org/2000/svg" xmlns:xlink="http://www.w3.org/1999/xlink" width="12" height="12" viewBox="0 0 12 12">
  <defs>
    <path id="icon-12-reply-a" d="M3.41421356,4 L7,4 C9.76142375,4 12,6.23857625 12,9 L12,10 C12,10.5522847 11.5522847,11 11,11 C10.4477153,11 10,10.5522847 10,10 L10,9 C10,7.34314575 8.65685425,6 7,6 L3.41421356,6 L4.70710678,7.29289322 C5.09763107,7.68341751 5.09763107,8.31658249 4.70710678,8.70710678 C4.31658249,9.09763107 3.68341751,9.09763107 3.29289322,8.70710678 L0.292893219,5.70710678 C-0.0976310729,5.31658249 -0.0976310729,4.68341751 0.292893219,4.29289322 L3.29289322,1.29289322 C3.68341751,0.902368927 4.31658249,0.902368927 4.70710678,1.29289322 C5.09763107,1.68341751 5.09763107,2.31658249 4.70710678,2.70710678 L3.41421356,4 Z"/>
  </defs>
  <g fill="none" fill-rule="evenodd">
    <use fill="#455565" fill-rule="nonzero" xlink:href="#icon-12-reply-a"/>
  </g>
</svg>
