<?xml version="1.0" encoding="UTF-8"?>
<svg width="16px" height="16px" viewBox="0 0 16 16" version="1.1" xmlns="http://www.w3.org/2000/svg" xmlns:xlink="http://www.w3.org/1999/xlink">
    <!-- Generator: Sketch 51.2 (57519) - http://www.bohemiancoding.com/sketch -->
    <title>Icon/16/Pin</title>
    <desc>Created with Sketch.</desc>
    <defs></defs>
    <g id="Icon/16/Pin" stroke="none" stroke-width="1" fill="none" fill-rule="evenodd">
        <g id="Group" transform="translate(6.844109, 8.942820) rotate(43.000000) translate(-6.844109, -8.942820) translate(0.844109, 0.942820)" fill-rule="nonzero">
            <rect id="Rectangle-6" fill="#455565" x="2" y="0" width="8" height="2" rx="1"></rect>
            <path d="M11.5,8.5 C11.5,7.94771525 11.0522847,7.5 10.5,7.5 L1.5,7.5 C0.94771525,7.5 0.5,7.94771525 0.5,8.5 L11.5,8.5 Z" id="Combined-Shape" stroke="#455565" fill="#455565"></path>
            <polygon id="Rectangle-7" fill="#455565" points="3.75 2 8.25 2 9 8 3 8"></polygon>
            <path d="M5,9 L7,9 L7,15 C7,15.5522847 6.55228475,16 6,16 L6,16 C5.44771525,16 5,15.5522847 5,15 L5,9 Z" id="Rectangle-9" fill="#455565"></path>
            <rect id="Rectangle-12" fill="#FFFFFF" x="4" y="9" width="4" height="1"></rect>
        </g>
    </g>
</svg>