<?xml version="1.0" encoding="UTF-8"?>
<svg width="16px" height="16px" viewBox="0 0 16 16" version="1.1" xmlns="http://www.w3.org/2000/svg" xmlns:xlink="http://www.w3.org/1999/xlink">
    <!-- Generator: Sketch 51.1 (57501) - http://www.bohemiancoding.com/sketch -->
    <title>Attachment</title>
    <desc>Created with Sketch.</desc>
    <defs>
        <path d="M2.87867965,8.87867966 C1.70710678,10.0502525 1.70710678,11.9497475 2.87867966,13.1213203 C4.05025253,14.2928932 5.94974747,14.2928932 7.12132034,13.1213203 C7.51184464,12.7307961 8.14500961,12.7307961 8.53553391,13.1213203 C8.9260582,13.5118446 8.9260582,14.1450096 8.53553391,14.5355339 C6.58291245,16.4881554 3.41708755,16.4881554 1.46446609,14.5355339 C-0.482737282,12.5883305 -0.488140331,9.43464711 1.44825695,7.48074831 C1.45065096,7.47830563 1.45306001,7.47587217 1.45548412,7.47344807 L7.46446609,1.46446609 C9.41708755,-0.488155365 12.5829124,-0.488155365 14.5355339,1.46446609 C16.4881554,3.41708755 16.4881554,6.58291245 14.5355339,8.53553391 L11.9448453,11.1262225 C10.7732724,12.2977954 8.87377745,12.2977954 7.70220458,11.1262225 L7.67446713,11.0984851 C7.66309852,11.0870757 7.66309852,11.0870757 7.65181186,11.0755853 C6.49288622,9.89150022 6.51328195,7.99211478 7.69736698,6.83318914 L10.3005265,4.28534146 C10.6952215,3.89903292 11.32835,3.90583149 11.7146585,4.3005265 C12.1009671,4.69522151 12.0941685,5.32834999 11.6994735,5.71465854 L9.09631398,8.26250622 C8.70161896,8.64881477 8.69482039,9.28194324 9.08112894,9.67663826 C9.08363708,9.67919169 9.09540015,9.69098194 9.11641814,9.71200898 C9.50694243,10.1025333 10.1401074,10.1025333 10.5306317,9.71200898 L13.1213203,7.12132034 C14.2928932,5.94974747 14.2928932,4.05025253 13.1213203,2.87867966 C11.9497475,1.70710678 10.0502525,1.70710678 8.87867966,2.87867966 L2.87867953,8.87867979 Z" id="icon-16-attachment-path"></path>
    </defs>
    <g id="Icon/16/Attachment" stroke="none" stroke-width="1" fill="none" fill-rule="evenodd">
        <mask id="icon-attachment-mask-2" fill="white">
            <use xlink:href="#icon-16-attachment-path"></use>
        </mask>
        <use id="icon-16-attachment" fill="#455565" fill-rule="nonzero" xlink:href="#icon-16-attachment-path"></use>
        <g id="Color/Slate-1" mask="url(#icon-attachment-mask-2)" fill="#455565">
            <rect x="0" y="0" width="16" height="16"></rect>
        </g>
    </g>
</svg>
