<svg xmlns="http://www.w3.org/2000/svg" xmlns:xlink="http://www.w3.org/1999/xlink" width="16" height="16" viewBox="0 0 16 16">
  <defs>
    <path id="icon-16-task-a" d="M4,1 L4,2 C4,2.36428714 4.09739429,2.70582663 4.26756439,3 L3,3 L3,14 L13,14 L13,3 L11.7324356,3 C11.9026057,2.70582663 12,2.36428714 12,2 L12,1 L13,1 C14.1045695,1 15,1.8954305 15,3 L15,14 C15,15.1045695 14.1045695,16 13,16 L3,16 C1.8954305,16 1,15.1045695 1,14 L1,3 C1,1.8954305 1.8954305,1 3,1 L4,1 Z M6,0 L10,0 C10.5522847,-1.11022302e-16 11,0.44771525 11,1 L11,2 C11,2.55228475 10.5522847,3 10,3 L6,3 C5.44771525,3 5,2.55228475 5,2 L5,1 C5,0.44771525 5.44771525,0 6,0 Z M10.1237117,6.1707477 C10.3055527,5.96292938 10.621434,5.94187063 10.8292523,6.12371165 C11.0370706,6.30555268 11.0581294,6.62143399 10.8762883,6.8292523 L7.37628835,10.8292523 C7.16702586,11.0684094 6.79067063,11.0542275 6.6,10.8 L5.1,8.8 C4.93431458,8.5790861 4.9790861,8.26568542 5.2,8.1 C5.4209139,7.93431458 5.73431458,7.9790861 5.9,8.2 L7.02989964,9.70653285 L10.1237117,6.1707477 Z"/>
  </defs>
  <g fill="none" fill-rule="evenodd">
    <use fill="#455565" fill-rule="nonzero" xlink:href="#icon-16-task-a"/>
  </g>
</svg>
