<svg xmlns="http://www.w3.org/2000/svg" xmlns:xlink="http://www.w3.org/1999/xlink" width="16" height="16" viewBox="0 0 16 16">
  <defs>
    <path id="icon-16-fullscreen-a" d="M4,3 L8.58578644,3 C9.13807119,3 9.58578644,3.44771525 9.58578644,4 C9.58578644,4.26521649 9.4804296,4.5195704 9.29289322,4.70710678 L4.70710678,9.29289322 C4.31658249,9.68341751 3.68341751,9.68341751 3.29289322,9.29289322 C3.10535684,9.10535684 3,8.85100293 3,8.58578644 L3,4 C3,3.44771525 3.44771525,3 4,3 Z M13,7.41421356 L13,12 C13,12.5522847 12.5522847,13 12,13 L7.41421356,13 C6.86192881,13 6.41421356,12.5522847 6.41421356,12 C6.41421356,11.7347835 6.5195704,11.4804296 6.70710678,11.2928932 L11.2928932,6.70710678 C11.6834175,6.31658249 12.3165825,6.31658249 12.7071068,6.70710678 C12.8946432,6.89464316 13,7.14899707 13,7.41421356 Z"/>
  </defs>
  <g fill="none" fill-rule="evenodd">
    <use fill="#455565" xlink:href="#icon-16-fullscreen-a"/>
  </g>
</svg>
