<?xml version="1.0" standalone="no"?>
<svg version="1.1" preserveAspectRatio="xMidYMid meet" viewBox="0 0 12 12" class="ng-element" data-id="d13bb73b076f44bf9d6c5e54b2954fc9" style="overflow: visible; width: 12px; height: 12px; pointer-events: all; filter: none;" 
    xmlns="http://www.w3.org/2000/svg">
    <defs/>
    <g id="Symbols_1518674795327" stroke="none" stroke-width="1" fill="none" fill-rule="evenodd">
        <g id="icon-chevron-up-down_1518674795327" fill="#99AABB" fill-rule="nonzero">
            <path d="M8.29289322,7.29289322 C8.68341751,6.90236893 9.31658249,6.90236893 9.70710678,7.29289322 C10.0976311,7.68341751 10.0976311,8.31658249 9.70710678,8.70710678 L6.70710678,11.7071068 C6.31658249,12.0976311 5.68341751,12.0976311 5.29289322,11.7071068 L2.29289322,8.70710678 C1.90236893,8.31658249 1.90236893,7.68341751 2.29289322,7.29289322 C2.68341751,6.90236893 3.31658249,6.90236893 3.70710678,7.29289322 L6,9.58578644 L8.29289322,7.29289322 Z" id="Border_1518674795327" vector-effect="non-scaling-stroke"/>
            <path d="M6,2.41421356 L3.70710678,4.70710678 C3.31658249,5.09763107 2.68341751,5.09763107 2.29289322,4.70710678 C1.90236893,4.31658249 1.90236893,3.68341751 2.29289322,3.29289322 L5.29289322,0.292893219 C5.68341751,-0.0976310729 6.31658249,-0.0976310729 6.70710678,0.292893219 L9.70710678,3.29289322 C10.0976311,3.68341751 10.0976311,4.31658249 9.70710678,4.70710678 C9.31658249,5.09763107 8.68341751,5.09763107 8.29289322,4.70710678 L6,2.41421356 Z" id="Border_1518674795327" vector-effect="non-scaling-stroke"/>
        </g>
    </g>
</svg>