<svg xmlns="http://www.w3.org/2000/svg" xmlns:xlink="http://www.w3.org/1999/xlink" width="16" height="16" viewBox="0 0 16 16">
  <defs>
    <path id="icon-16-linkedin-a" d="M12.9302758,12.9298869 L10.8539404,12.9298869 L10.8539404,9.68063002 C10.8539404,8.90594183 10.8407178,7.90919192 9.77513264,7.90919192 C8.6943804,7.90919192 8.52948693,8.75349315 8.52948693,9.62540626 L8.52948693,12.9298869 L6.45548487,12.9298869 L6.45548487,6.24859024 L8.4458735,6.24859024 L8.4458735,7.16211561 L8.47465207,7.16211561 C8.75154865,6.63671213 9.42901192,6.08291897 10.4389844,6.08291897 C12.541765,6.08291897 12.9302758,7.46623517 12.9302758,9.26567405 L12.9302758,12.9298869 Z M4.11430873,5.33584266 C3.44734576,5.33584266 2.90949749,4.79643879 2.90949749,4.13142032 C2.90949749,3.46679074 3.44734576,2.92738687 4.11430873,2.92738687 C4.7785494,2.92738687 5.31756438,3.46679074 5.31756438,4.13142032 C5.31756438,4.79643879 4.7785494,5.33584266 4.11430873,5.33584266 Z M3.07439096,12.9298869 L5.15305981,12.9298869 L5.15305981,6.24859024 L3.07439096,6.24859024 L3.07439096,12.9298869 Z M13.9643601,1 L2.03252868,1 C1.46279063,1 1,1.45190144 1,2.0095836 L1,13.9900275 C1,14.5477097 1.46279063,15.0003889 2.03252868,15.0003889 L13.9643601,15.0003889 C14.5352649,15.0003889 15,14.5477097 15,13.9900275 L15,2.0095836 C15,1.45190144 14.5352649,1 13.9643601,1 L13.9643601,1 Z"/>
  </defs>
  <g fill="none" fill-rule="evenodd">
    <use fill="#455565" xlink:href="#icon-16-linkedin-a"/>
  </g>
</svg>
