<svg xmlns="http://www.w3.org/2000/svg" width="24" height="24" viewBox="0 0 24 24">
  <path fill="#778DA4" fill-rule="evenodd" d="M12,21 C7.02943725,21 3,16.9705627 3,12 C3,7.02943725 7.02943725,3 12,3 C16.9705627,3 21,7.02943725 21,12 C21,16.9705627 16.9705627,21 12,21 Z M6.53903238,17.8462205 C7.96870741,19.1822479 9.88885559,20 12,20 C14.1111446,20 16.0312928,19.1822478 17.4609679,17.8462203 C16.2988166,17.2820734 14.4784939,17 12,17 C9.52150626,17 7.70118372,17.2820735 6.53903238,17.8462205 Z M12,15 C14.209139,15 16,13.209139 16,11 C16,8.790861 14.209139,7 12,7 C9.790861,7 8,8.790861 8,11 C8,13.209139 9.790861,15 12,15 Z"/>
</svg>
