<?xml version="1.0" encoding="UTF-8"?>
<svg width="16px" height="16px" viewBox="0 0 16 16" version="1.1" xmlns="http://www.w3.org/2000/svg" xmlns:xlink="http://www.w3.org/1999/xlink">
    <!-- Generator: Sketch 51.2 (57519) - http://www.bohemiancoding.com/sketch -->
    <title>OutGoing</title>
    <defs>
        <path d="M2.60365948,8 L5,8 C5,9.65685425 6.34314575,11 8,11 C9.65685425,11 11,9.65685425 11,8 L13.3963405,8 L11.2233915,4 L4.77660848,4 L2.60365948,8 Z M0.121286653,8.37979303 L3.30310483,2.52265018 C3.47808094,2.2005513 3.81526079,2 4.18181818,2 L11.8181818,2 C12.1847392,2 12.5219191,2.2005513 12.6968952,2.52265018 L15.8787133,8.37979303 C15.9583066,8.5263096 16,8.69040297 16,8.85714286 L16,13 C16,13.5522847 15.5522847,14 15,14 L1,14 C0.44771525,14 0,13.5522847 0,13 L0,8.85714286 C0,8.69040297 0.0416933972,8.5263096 0.121286653,8.37979303 Z" id="path-incoming"></path>
    </defs>
    <g id="Icon/16/Incoming" stroke="none" stroke-width="1" fill="none" fill-rule="evenodd">
        <use id="icon-16-incoming" fill="#455565" fill-rule="nonzero" xlink:href="#path-incoming"></use>
    </g>
</svg>
