<svg xmlns="http://www.w3.org/2000/svg" width="16" height="16" viewBox="0 0 16 16">
  <path fill="#455565" d="M8,6 C7.66564681,6 7.35341548,5.83289886 7.16794971,5.5547002 L5.46481624,3 L3,3 C2.44771525,3 2,3.44771525 2,4 L2,12 C2,12.5522847 2.44771525,13 3,13 L13,13 C13.5522847,13 14,12.5522847 14,12 L14,7 C14,6.44771525 13.5522847,6 13,6 L8,6 Z M8.53518376,4 L13,4 C14.6568542,4 16,5.34314575 16,7 L16,12 C16,13.6568542 14.6568542,15 13,15 L3,15 C1.34314575,15 0,13.6568542 0,12 L0,4 C0,2.34314575 1.34314575,1 3,1 L5.46481624,1 C6.13352262,1 6.75798527,1.33420227 7.12891683,1.89059961 L8.53518376,4 Z"/>
</svg>
