<?xml version="1.0" encoding="UTF-8"?>
<svg width="12px" height="12px" viewBox="0 0 12 12" version="1.1" xmlns="http://www.w3.org/2000/svg" xmlns:xlink="http://www.w3.org/1999/xlink">
  <title>Internal</title>
    <g id="Icon/12/internal" stroke="none" stroke-width="1" fill="none" fill-rule="evenodd">
        <g id="noun_internal_1243653" transform="translate(0.000000, 1.000000)" fill="#009CF6" fill-rule="nonzero">
            <path d="M10.9928205,4.75846154 C10.652953,4.75846154 10.3774359,5.03397862 10.3774359,5.37384615 C10.3774359,7.59318118 8.57830938,9.39230769 6.35897436,9.39230769 C4.13963933,9.39230769 2.34051282,7.59318118 2.34051282,5.37384615 C2.34051282,3.15451113 4.13963933,1.35538462 6.35897436,1.35538462 C6.6988419,1.35538462 6.97435897,1.07986754 6.97435897,0.74 C6.97435897,0.400132462 6.6988419,0.124615385 6.35897436,0.124615385 C3.45990426,0.124615385 1.10974359,2.47477605 1.10974359,5.37384615 C1.10974359,8.27291626 3.45990426,10.6230769 6.35897436,10.6230769 C9.25804446,10.6230769 11.6082051,8.27291626 11.6082051,5.37384615 C11.6082051,5.21063601 11.5433701,5.05411052 11.4279631,4.93870352 C11.3125561,4.82329652 11.1560307,4.75846154 10.9928205,4.75846154 Z" id="Path"></path>
            <path d="M11.2097436,0.523076923 C11.094317,0.40752182 10.9376877,0.342592827 10.774359,0.342592827 C10.6110302,0.342592827 10.454401,0.40752182 10.3389744,0.523076923 L5.77128205,5.09076923 L5.82358974,3.22153846 C5.8329361,2.88167092 5.56499574,2.59857713 5.22512821,2.58923077 C4.88526067,2.57988441 4.60216687,2.84782477 4.59282051,3.18769231 L4.4974359,6.60307692 C4.4928658,6.76919911 4.5556776,6.93010768 4.67158365,7.04920114 C4.78748969,7.16829461 4.94663549,7.23544747 5.11282051,7.23538462 L5.12820513,7.23538462 L8.54358974,7.14 C8.7634455,7.13395398 8.96337508,7.01107557 9.06806694,6.81765188 C9.1727588,6.6242282 9.16630776,6.3896449 9.05114386,6.20226725 C8.93597996,6.0148896 8.72959934,5.90318473 8.50974359,5.90923077 L6.64051282,5.96153846 L11.2097436,1.39384615 C11.3252987,1.27841953 11.3902277,1.12179031 11.3902277,0.958461538 C11.3902277,0.79513277 11.3252987,0.638503543 11.2097436,0.523076923 Z" id="Path"></path>
        </g>
    </g>
</svg>
