<?xml version="1.0" encoding="UTF-8"?>
<svg width="24px" height="24px" viewBox="0 0 24 24" version="1.1" xmlns="http://www.w3.org/2000/svg" xmlns:xlink="http://www.w3.org/1999/xlink">
    <!-- Generator: Sketch 54.1 (76490) - https://sketchapp.com -->
    <title>Icon/24/internal on</title>
    <desc>Created with Sketch.</desc>
    <g id="Icon/24/internal-on" stroke="none" stroke-width="1" fill="none" fill-rule="evenodd">
        <g id="noun_internal_1243653" transform="translate(4.000000, 4.000000)">
            <path d="M15.5355897,0.836923077 C15.3509072,0.652034911 15.1003004,0.548148523 14.8389744,0.548148523 C14.5776483,0.548148523 14.3270416,0.652034911 14.142359,0.836923077 L6.83405128,8.14523077 L6.91774359,5.15446154 C6.93269776,4.61067348 6.50399319,4.1577234 5.96020513,4.14276923 C5.41641707,4.12781506 4.96346699,4.55651963 4.94851282,5.10030769 L4.79589744,10.5649231 C4.78858528,10.8307186 4.88908416,11.0881723 5.07453383,11.2787218 C5.25998351,11.4692714 5.51461679,11.5767159 5.78051282,11.5766154 L5.80512821,11.5766154 L11.2697436,11.424 C11.6215128,11.4143264 11.9414001,11.2177209 12.1089071,10.908243 C12.2764141,10.5987651 12.2660924,10.2234318 12.0818302,9.92362761 C11.8975679,9.62382337 11.5673589,9.44509556 11.2155897,9.45476923 L8.22482051,9.53846154 L15.5355897,2.23015385 C15.7204779,2.04547125 15.8243643,1.79486449 15.8243643,1.53353846 C15.8243643,1.27221243 15.7204779,1.02160567 15.5355897,0.836923077 Z" id="Path" fill="#FFFFFF" fill-rule="nonzero"></path>
            <path d="M7.91153324,1.23467928 C3.41880509,1.62520768 0.914960676,3.88031459 0.4,8 C-0.4,14.4 7.2,18 12,14.8 C14.4,12.9333333 15.4666667,10.8 15.2,8.4" id="Path-2" stroke="#FFFFFF" stroke-width="1.5" stroke-linecap="round" stroke-linejoin="round"></path>
        </g>
    </g>
</svg>