<?xml version="1.0" encoding="UTF-8"?>
<svg width="24px" height="24px" viewBox="0 0 24 24" version="1.1" xmlns="http://www.w3.org/2000/svg" xmlns:xlink="http://www.w3.org/1999/xlink">
    <!-- Generator: Sketch 54.1 (76490) - https://sketchapp.com -->
    <title>Icon/24/long list on</title>
    <desc>Created with Sketch.</desc>
    <g id="Icon/24/long-list-on" stroke="none" stroke-width="1" fill="none" fill-rule="evenodd">
        <g id="noun_List_9866" transform="translate(4.000000, 5.000000)" fill="#FFFFFF" fill-rule="nonzero">
            <g id="Group">
                <path d="M7.04837383,2.69065258 L14.7477221,2.69065258 C15.2200374,2.69065258 15.6034132,2.30790085 15.6034132,1.83511743 C15.6034132,1.36233401 15.2198813,0.979426249 14.7477221,0.979426249 L7.04837383,0.979426249 C6.57574644,0.979426249 6.19283868,1.36233401 6.19283868,1.83511743 C6.19283868,2.30805689 6.57605851,2.69065258 7.04837383,2.69065258 Z" id="Path"></path>
                <path d="M14.7477221,6.11263714 L7.04837383,6.11263714 C6.57574644,6.11263714 6.19283868,6.49538887 6.19283868,6.96801625 C6.19283868,7.44111174 6.57605851,7.82370744 7.04837383,7.82370744 L14.7477221,7.82370744 C15.2200374,7.82370744 15.6034132,7.44095571 15.6034132,6.96801625 C15.6034132,6.49523283 15.2200374,6.11263714 14.7477221,6.11263714 Z" id="Path"></path>
                <path d="M14.7477221,11.245536 L7.04837383,11.245536 C6.57574644,11.245536 6.19283868,11.6279756 6.19283868,12.1012271 C6.19283868,12.5740106 6.57605851,12.9564502 7.04837383,12.9564502 L14.7477221,12.9564502 C15.2200374,12.9564502 15.6034132,12.5740106 15.6034132,12.1012271 C15.6034132,11.6279756 15.2200374,11.245536 14.7477221,11.245536 Z" id="Path"></path>
                <path d="M3.54478342,1.183987 L2.50684437,1.183987 L2.1865063,0.197227143 C2.14827794,0.0794213734 2.03905404,0 1.91531898,0 C1.79173994,0 1.68251605,0.0794213734 1.64413165,0.197227143 L1.32270134,1.183987 L0.285542462,1.183987 C0.16196343,1.183987 0.0522714344,1.26372044 0.0137310037,1.38121414 C-0.0240292564,1.49886388 0.017631857,1.627436 0.117337668,1.69983584 L0.957425437,2.31008533 L0.63661926,3.29684518 C0.598859,3.41387078 0.640052011,3.54306705 0.740225924,3.61546688 C0.839931735,3.68817879 0.975369362,3.68817879 1.07569931,3.61546688 L1.91547501,3.00537343 L2.75540675,3.61546688 C2.8054937,3.6521349 2.8644746,3.67007883 2.9229874,3.67007883 C2.98134417,3.67007883 3.04048111,3.6521349 3.09056806,3.61546688 C3.19089801,3.54306705 3.23209102,3.41387078 3.19433076,3.29684518 L2.87336855,2.31008533 L3.71345632,1.69983584 C3.8130061,1.627436 3.85466721,1.49870784 3.81706298,1.38121414 C3.77836652,1.26372044 3.66867452,1.183987 3.54478342,1.183987 Z" id="Path"></path>
                <path d="M2.87149614,5.7266087 L0.959141812,5.7266087 C0.801547338,5.7266087 0.673911418,5.85408858 0.673911418,6.01183909 L0.673911418,7.92434945 C0.673911418,8.08209996 0.801547338,8.20926778 0.959141812,8.20926778 L2.87149614,8.20926778 C3.02924665,8.20926778 3.1565705,8.08209996 3.1565705,7.92434945 L3.1565705,6.01183909 C3.1565705,5.85424462 3.02924665,5.7266087 2.87149614,5.7266087 Z" id="Path"></path>
                <path d="M2.87149614,10.8596636 L0.959141812,10.8596636 C0.801547338,10.8596636 0.673911418,10.9871434 0.673911418,11.1447379 L0.673911418,13.0572483 C0.673911418,13.2153108 0.801547338,13.3426347 0.959141812,13.3426347 L2.87149614,13.3426347 C3.02924665,13.3426347 3.1565705,13.2153108 3.1565705,13.0572483 L3.1565705,11.1447379 C3.1565705,10.9871434 3.02924665,10.8596636 2.87149614,10.8596636 Z" id="Path"></path>
            </g>
        </g>
    </g>
</svg>