<?xml version="1.0" standalone="no"?>
<!DOCTYPE svg PUBLIC "-//W3C//DTD SVG 20010904//EN"
 "http://www.w3.org/TR/2001/REC-SVG-20010904/DTD/svg10.dtd">
<svg version="1.0" xmlns="http://www.w3.org/2000/svg"
 width="22" height="22" viewBox="0 0 272.000000 248.000000"
 preserveAspectRatio="xMidYMid meet">
<title>Sort</title>
<g transform="translate(0.000000,248.000000) scale(0.100000,-0.100000)"
fill="#455565" stroke="none" stroke-linecap="square">
<path d="M2004 2068 c-142 -143 -163 -179 -142 -239 19 -54 69 -63 133 -24 75
47 72 59 80 -254 6 -248 9 -283 26 -310 14 -23 26 -31 48 -31 44 0 60 9 79 44
14 26 18 72 22 308 l5 278 63 -30 c75 -35 91 -37 120 -10 25 24 30 90 9 126
-7 12 -58 71 -115 132 -94 100 -147 142 -183 142 -8 0 -73 -60 -145 -132z"/>
<path d="M1183 1711 c-163 -5 -184 -8 -210 -27 -58 -43 -61 -90 -9 -129 27
-19 41 -20 431 -20 388 0 404 1 425 20 56 51 46 101 -29 137 -42 21 -61 22
-236 24 -104 1 -272 -2 -372 -5z"/>
<path d="M990 1287 c-23 -8 -41 -23 -52 -46 -20 -40 -12 -67 26 -96 27 -19 41
-20 426 -20 389 0 399 0 427 21 42 32 52 68 27 102 -12 15 -36 32 -55 39 -48
17 -750 17 -799 0z"/>
<path d="M579 1197 c-45 -35 -47 -54 -49 -525 l0 -134 -26 32 c-73 86 -195 79
-194 -12 1 -18 6 -43 13 -56 23 -41 230 -254 262 -269 29 -14 35 -14 68 2 20
9 85 70 146 138 124 135 146 177 117 222 -31 47 -96 53 -132 14 -9 -10 -25
-19 -34 -19 -38 0 -40 17 -40 277 0 206 -3 259 -15 283 -27 53 -80 75 -116 47z"/>
<path d="M1140 881 c-166 -6 -194 -14 -210 -57 -14 -36 12 -82 58 -101 32 -14
89 -16 392 -16 364 1 421 6 453 40 49 56 17 120 -69 134 -53 9 -378 8 -624 0z"/>
</g>
</svg>
