<?xml version="1.0" encoding="UTF-8"?>
<svg width="24px" height="24px" viewBox="0 0 24 24" version="1.1" xmlns="http://www.w3.org/2000/svg" xmlns:xlink="http://www.w3.org/1999/xlink">
    <!-- Generator: Sketch 54.1 (76490) - https://sketchapp.com -->
    <title>Icon/24/status report off</title>
    <desc>Created with Sketch.</desc>
    <g id="Icon/24/status-report-off" stroke="none" stroke-width="1" fill="none" fill-rule="evenodd">
        <g id="Group-2" transform="translate(4.000000, 4.000000)" fill="#778DA4">
            <g id="Group">
                <path d="M3.29411765,5.32907052e-14 C2.61187917,5.32907052e-14 2.05882353,0.553062976 2.05882353,1.23529412 C2.05882353,1.91752526 2.61187917,2.47058824 3.29411765,2.47058824 C3.97635606,2.47058824 4.52941176,1.91752526 4.52941176,1.23529412 C4.52941176,0.553062976 3.97635598,5.32907052e-14 3.29411765,5.32907052e-14 Z M3.29411767,2.88235294 C1.4691765,2.88235294 -8.56203997e-13,3.90552941 -8.56203997e-13,5.17647059 L-8.56203997e-13,6.58823529 L6.58823529,6.58823529 L6.58823529,5.17647059 C6.58823529,3.90552941 5.11905883,2.88235294 3.29411767,2.88235294 Z" id="Shape" fill-rule="nonzero"></path>
                <rect id="Rectangle" x="7.33333333" y="3.88235294" width="8.47058824" height="1" rx="0.5"></rect>
                <rect id="Rectangle" x="7.33333333" y="2" width="3.76470588" height="1" rx="0.5"></rect>
                <rect id="Rectangle" x="7.33333333" y="5.76470588" width="2.82352941" height="1" rx="0.5"></rect>
                <rect id="Rectangle" x="11.0980392" y="5.76470588" width="4.70588235" height="1" rx="0.5"></rect>
            </g>
            <g id="Group" transform="translate(0.000000, 8.000000)">
                <path d="M3.29411765,5.32907052e-14 C2.61187917,5.32907052e-14 2.05882353,0.553062976 2.05882353,1.23529412 C2.05882353,1.91752526 2.61187917,2.47058824 3.29411765,2.47058824 C3.97635606,2.47058824 4.52941176,1.91752526 4.52941176,1.23529412 C4.52941176,0.553062976 3.97635598,5.32907052e-14 3.29411765,5.32907052e-14 Z M3.29411767,2.88235294 C1.4691765,2.88235294 -8.56203997e-13,3.90552941 -8.56203997e-13,5.17647059 L-8.56203997e-13,6.58823529 L6.58823529,6.58823529 L6.58823529,5.17647059 C6.58823529,3.90552941 5.11905883,2.88235294 3.29411767,2.88235294 Z" id="Shape" fill-rule="nonzero"></path>
                <rect id="Rectangle" x="7.33333333" y="3.88235294" width="8.47058824" height="1" rx="0.5"></rect>
                <rect id="Rectangle" x="7.33333333" y="2" width="3.76470588" height="1" rx="0.5"></rect>
                <rect id="Rectangle" x="7.33333333" y="5.76470588" width="2.82352941" height="1" rx="0.5"></rect>
                <rect id="Rectangle" x="11.0980392" y="5.76470588" width="4.70588235" height="1" rx="0.5"></rect>
            </g>
        </g>
    </g>
</svg>