<?xml version="1.0" encoding="UTF-8"?>
<svg width="24px" height="24px" viewBox="0 0 24 24" version="1.1" xmlns="http://www.w3.org/2000/svg" xmlns:xlink="http://www.w3.org/1999/xlink">
    <!-- Generator: Sketch 54.1 (76490) - https://sketchapp.com -->
    <title>Icon/24/strategy on</title>
    <desc>Created with Sketch.</desc>
    <g id="Icon/24/strategy-on" stroke="none" stroke-width="1" fill="none" fill-rule="evenodd">
        <g id="noun_strategy_1212713" transform="translate(4.000000, 4.000000)" fill="#FFFFFF" fill-rule="nonzero" stroke="#FFFFFF" stroke-width="0.2">
            <g id="Group">
                <path d="M8.07222222,5.86666667 C8.21029341,5.86666667 8.32222222,5.78707284 8.32222222,5.68888889 L8.32222222,0.177777778 C8.32222222,0.0795938223 8.21029341,6.01203334e-18 8.07222222,0 C7.93415103,-6.01203334e-18 7.82222222,0.0795938223 7.82222222,0.177777778 L7.82222222,5.68888889 C7.82222222,5.78707284 7.93415103,5.86666667 8.07222222,5.86666667 Z" id="Path"></path>
                <path d="M8.07222222,10.1333333 C7.93415103,10.1333333 7.82222222,10.2129272 7.82222222,10.3111111 L7.82222222,15.8222222 C7.82222222,15.9204062 7.93415103,16 8.07222222,16 C8.21029341,16 8.32222222,15.9204062 8.32222222,15.8222222 L8.32222222,10.3111111 C8.32222222,10.2129272 8.21029341,10.1333333 8.07222222,10.1333333 Z" id="Path"></path>
                <path d="M5.86666667,8.05 C5.86666667,7.91192881 5.78707284,7.8 5.68888889,7.8 L0.177777778,7.8 C0.0795938223,7.8 1.20240667e-17,7.91192881 0,8.05 C-1.20240667e-17,8.18807119 0.0795938223,8.3 0.177777778,8.3 L5.68888889,8.3 C5.78707284,8.3 5.86666667,8.18807119 5.86666667,8.05 Z" id="Path"></path>
                <path d="M15.8222222,7.8 L10.3111111,7.8 C10.2129272,7.8 10.1333333,7.91192881 10.1333333,8.05 C10.1333333,8.18807119 10.2129272,8.3 10.3111111,8.3 L15.8222222,8.3 C15.9204062,8.3 16,8.18807119 16,8.05 C16,7.91192881 15.9204062,7.8 15.8222222,7.8 Z" id="Path"></path>
                <path d="M8.56533333,12.8586667 C8.57862568,12.9463179 8.6544634,13.0107799 8.74311111,13.0097778 L8.76977778,13.0097778 C10.9630645,12.664508 12.6799811,10.9382408 13.0133333,8.74311111 C13.02757,8.64492716 12.9595173,8.55379223 12.8613333,8.53955556 C12.7631494,8.52531888 12.6720145,8.5933716 12.6577778,8.69155556 C12.3465667,10.7318154 10.7499516,12.3356224 8.71111111,12.656 C8.61528006,12.6723354 8.55034116,12.7626163 8.56533333,12.8586667 L8.56533333,12.8586667 Z" id="Path"></path>
                <path d="M7.32088889,12.6631111 C5.26781833,12.3557745 3.65420834,10.7472093 3.34044444,8.69511111 C3.32620777,8.59692716 3.23507284,8.52887444 3.13688889,8.54311111 C3.03870493,8.55734778 2.97065222,8.64848271 2.98488889,8.74666667 C3.32283479,10.953906 5.05906677,12.6836514 7.26755556,13.0133333 L7.28888889,13.0133333 C7.35240277,13.0177793 7.41346392,12.9880033 7.44907118,12.9352216 C7.48467845,12.88244 7.48942224,12.8146715 7.46151563,12.7574439 C7.43360901,12.7002162 7.37729166,12.6622237 7.31377778,12.6577778 L7.32088889,12.6631111 Z" id="Path"></path>
                <path d="M12.6595556,7.30488889 C12.6728479,7.3925401 12.7486856,7.45700217 12.8373333,7.456 L12.864,7.456 C12.9107059,7.44898545 12.9527009,7.42367402 12.9807175,7.38565149 C13.0087341,7.34762895 13.0204693,7.30002082 13.0133333,7.25333333 C12.6799811,5.05820368 10.9630645,3.33193647 8.76977778,2.98666667 C8.67159382,2.97193907 8.58006093,3.03959382 8.56533333,3.13777778 C8.55060574,3.23596173 8.61826049,3.32749463 8.71644444,3.34222222 C10.7533527,3.66379768 12.3480609,5.26641466 12.6595556,7.30488889 L12.6595556,7.30488889 Z" id="Path"></path>
                <path d="M7.46666667,3.136 C7.45290719,3.03880599 7.36297592,2.97115857 7.26577778,2.98488889 C5.05728899,3.3145708 3.32105702,5.04431623 2.98311111,7.25155556 C2.97597515,7.29824304 2.98771034,7.34585117 3.01572695,7.38387371 C3.04374355,7.42189625 3.08573856,7.44720767 3.13244444,7.45422222 L3.15911111,7.45422222 C3.24775882,7.45522439 3.32359655,7.39076232 3.33688889,7.30311111 C3.65177634,5.25059811 5.26698816,3.64259384 7.32088889,3.33688889 C7.41592183,3.32054341 7.48059781,3.23141676 7.46666667,3.136 Z" id="Path"></path>
                <path d="M10.6151111,8.55111111 C10.5208891,8.52489058 10.4231828,8.57970145 10.3964444,8.67377778 C10.1613242,9.50071035 9.51828209,10.1491224 8.69333333,10.3911111 C8.62925877,10.4058629 8.57855828,10.4547754 8.56151663,10.5182793 C8.54447497,10.5817832 8.56387521,10.6495077 8.61195551,10.6943569 C8.66003581,10.739206 8.72894419,10.7538556 8.79111111,10.7324444 C9.73552777,10.4596586 10.4738809,9.72130555 10.7466667,8.77688889 C10.7612374,8.72944684 10.7553136,8.67807386 10.7303279,8.63519301 C10.7053422,8.59231215 10.6635694,8.56182758 10.6151111,8.55111111 L10.6151111,8.55111111 Z" id="Path"></path>
                <path d="M7.34222222,10.4017778 C6.50062091,10.169012 5.84149592,9.51393076 5.60355556,8.67377778 C5.58640681,8.61248688 5.53786241,8.56500051 5.47620856,8.54920631 C5.41455471,8.53341211 5.3491581,8.55170961 5.304653,8.59720631 C5.2601479,8.64270301 5.2432957,8.70848688 5.26044444,8.76977778 C5.53297186,9.72946701 6.28637843,10.4774825 7.248,10.7431111 C7.34274751,10.7691299 7.44064791,10.7134142 7.46666666,10.6186667 C7.4926854,10.5239192 7.43696973,10.4260188 7.34222222,10.4 L7.34222222,10.4017778 Z" id="Path"></path>
                <path d="M10.5671111,7.456 C10.6238945,7.45812151 10.6782708,7.43297113 10.7134239,7.38832677 C10.7485769,7.34368241 10.7602707,7.28492373 10.7448889,7.23022222 C10.4721031,6.28580557 9.73374999,5.54745246 8.78933333,5.27466667 C8.69719895,5.25345477 8.60457934,5.30806638 8.57854341,5.39895543 C8.55250748,5.48984449 8.60216423,5.58521235 8.69155556,5.616 C9.51650431,5.85798875 10.1595464,6.50640076 10.3946667,7.33333333 C10.4189014,7.40770748 10.4889026,7.45750214 10.5671111,7.456 L10.5671111,7.456 Z" id="Path"></path>
                <path d="M7.46666667,5.38133333 C7.45420224,5.3358148 7.42415013,5.29712037 7.38313305,5.27377732 C7.34211598,5.25043427 7.29350041,5.24435848 7.248,5.25688889 C6.28706147,5.52305365 5.53442259,6.2709759 5.26222222,7.23022222 C5.23571255,7.32496974 5.29103026,7.42326811 5.38577778,7.44977778 C5.48052529,7.47628745 5.57882367,7.42096974 5.60533333,7.32622222 C5.8432737,6.48606924 6.50239869,5.83098796 7.344,5.59822222 C7.43718999,5.57147021 7.49176034,5.47498349 7.46666667,5.38133333 L7.46666667,5.38133333 Z" id="Path"></path>
                <path d="M15.0915556,8.544 C15.0443576,8.53904173 14.9971364,8.55316042 14.9604061,8.58321243 C14.9236759,8.61326444 14.900486,8.6567548 14.896,8.704 C14.5591995,11.9667731 11.985247,14.5488804 8.72355556,14.896 C8.6253716,14.9009092 8.54975747,14.9844827 8.55466667,15.0826667 C8.55957586,15.1808506 8.64314938,15.2564648 8.74133333,15.2515556 L8.75911111,15.2515556 C12.1900277,14.8875038 14.897824,12.1715515 15.2515556,8.73955556 C15.2565138,8.69235758 15.2423951,8.64513636 15.2123431,8.60840613 C15.1822911,8.5716759 15.1388008,8.54848604 15.0915556,8.544 Z" id="Path"></path>
                <path d="M7.31377778,14.8995556 C4.03841854,14.5699383 1.4448869,11.9853166 1.104,8.71111111 C1.0941816,8.61292716 1.0066284,8.54129272 0.908444445,8.55111111 C0.810260491,8.56092951 0.738626051,8.64848271 0.748444444,8.74666667 C1.10625789,12.1900985 3.83363794,14.9085679 7.27822222,15.2551111 L7.28888889,15.2551111 C7.38707284,15.2600203 7.47064635,15.1844062 7.47555554,15.0862222 C7.48046474,14.9880383 7.40485062,14.9044648 7.30666667,14.8995556 L7.31377778,14.8995556 Z" id="Path"></path>
                <path d="M8.72355556,1.104 C11.9828677,1.45051026 14.556055,4.02888549 14.896,7.28888889 C14.905163,7.38007134 14.9821372,7.44934813 15.0737778,7.44888889 L15.0915556,7.44888889 C15.1388008,7.44440284 15.1822911,7.42121299 15.2123431,7.38448276 C15.2423951,7.34775252 15.2565138,7.30053131 15.2515556,7.25333333 C14.8931066,3.82549229 12.1864585,1.11513851 8.75911111,0.752 C8.66092716,0.741690687 8.57297599,0.812927157 8.56266667,0.911111112 C8.55235736,1.00929507 8.62359382,1.09724624 8.72177778,1.10755556 L8.72355556,1.104 Z" id="Path"></path>
                <path d="M0.908444444,7.456 L0.926222222,7.456 C1.01786277,7.45645924 1.09483698,7.38718245 1.104,7.296 C1.4417287,4.01902228 4.03603429,1.43065841 7.31377778,1.10044444 C7.37729166,1.09409306 7.43259249,1.05433988 7.45884896,0.996159549 C7.48510544,0.937979219 7.47832859,0.870210711 7.44107119,0.818381769 C7.40381378,0.766552827 7.34173611,0.738537499 7.27822222,0.744888889 C3.83125316,1.09202824 1.10309884,3.81424049 0.748444444,7.26044444 C0.743486172,7.30764242 0.757604867,7.35486364 0.787656876,7.39159387 C0.817708885,7.4283241 0.861199247,7.45151396 0.908444444,7.456 L0.908444444,7.456 Z" id="Path"></path>
                <circle id="Oval" cx="8" cy="8" r="1"></circle>
            </g>
        </g>
    </g>
</svg>