<?xml version="1.0" encoding="UTF-8"?>
<svg width="16px" height="16px" viewBox="0 0 16 16" version="1.1" xmlns="http://www.w3.org/2000/svg" xmlns:xlink="http://www.w3.org/1999/xlink">
    <!-- Generator: Sketch 61.2 (89653) - https://sketch.com -->
    <title>Thumb Up</title>
    <desc>Created with Sketch.</desc>
    <g id="Icon/16/thumb-up" stroke="none" stroke-width="1" fill="none" fill-rule="evenodd">
        <g id="noun_like_576529" fill="#99AABB" fill-rule="nonzero">
            <g id="Group">
                <path d="M3.749,16 L1.261,16 C0.5715,16 0.0105,15.439 0.0105,14.749 L0.0105,7.251 C0.0105,6.5615 0.5715,6 1.261,6 L3.749,6 C4.4385,6 5,6.5615 5,7.251 L5,14.749 C5,15.439 4.4385,16 3.749,16 Z M1.261,7 C1.123,7 1.0105,7.1125 1.0105,7.251 L1.0105,14.749 C1.0105,14.887 1.123,15 1.261,15 L3.749,15 C3.8875,15 4,14.887 4,14.749 L4,7.251 C4,7.1125 3.8875,7 3.749,7 L1.261,7 Z" id="Shape"></path>
                <path d="M12.9135,16 L6.8535,16 C6.545,16 6.2365,15.927 5.96,15.789 L4.276,14.947 C4.029,14.8235 3.929,14.523 4.0525,14.276 C4.176,14.029 4.476,13.929 4.7235,14.0525 L6.4075,14.8945 C6.5455,14.9635 6.6995,15 6.8535,15 L12.9135,15 C13.096,15 13.266,14.9015 13.357,14.7425 L13.9215,13.7545 C14.627,12.52 15,11.115 15,9.693 L15,8.001 C15,7.449 14.551,7 13.999,7 L10.2355,7 C9.904,7 9.595,6.836 9.409,6.5615 C9.2235,6.287 9.186,5.939 9.309,5.6315 C9.7675,4.4855 10,3.278 10,2.0425 L10,1.463 C10,1.208 9.7925,1 9.537,1 L9.226,1 C9.0205,1 8.8375,1.138 8.781,1.3355 L8.585,2.021 C8.165,3.4895 7.4685,4.8385 6.5145,6.0315 C6.0225,6.647 5.2885,7 4.5,7 L3,7 C2.724,7 2.5,6.776 2.5,6.5 C2.5,6.224 2.724,6 3,6 L4.5,6 C4.9825,6 5.4325,5.7835 5.734,5.4065 C6.6045,4.3175 7.2405,3.086 7.6235,1.746 L7.8195,1.0605 C7.998,0.4365 8.5765,0 9.226,0 L9.537,0 C10.344,0 11,0.656 11,1.463 L11,2.0425 C11,3.406 10.743,4.7385 10.2375,6.003 L13.999,6 C15.1025,6 16,6.8975 16,8.001 L16,9.693 C16,11.289 15.5815,12.8655 14.7895,14.251 L14.225,15.239 C13.9565,15.7085 13.454,16 12.9135,16 Z" id="Path"></path>
                <circle id="Oval" cx="2.5" cy="13.5" r="1"></circle>
            </g>
        </g>
    </g>
</svg>
