<?xml version="1.0" encoding="UTF-8"?>
<svg width="24px" height="24px" viewBox="0 0 24 24" version="1.1" xmlns="http://www.w3.org/2000/svg" xmlns:xlink="http://www.w3.org/1999/xlink">
    <!-- Generator: Sketch 54.1 (76490) - https://sketchapp.com -->
    <title>Win List On</title>
    <g id="Icon/24/win-list-on" stroke="none" stroke-width="1" fill="none" fill-rule="evenodd">
        <g id="noun_Medal_1443808" transform="translate(6.000000, 4.000000)" fill="#FFFFFF" fill-rule="nonzero">
            <path d="M9.00464,9.98992 C9.8296,9.50304 10.38336,8.60544 10.38368,7.5784 C10.38368,7.57424 10.3824,7.56944 10.3824,7.56512 C10.79952,7.14656 11.09488,6.60096 11.1792,5.96976 C11.29888,5.07392 10.97328,4.22832 10.3824,3.63312 C10.38592,2.91216 10.11328,2.19008 9.56352,1.63984 C9.01728,1.09312 8.30048,0.81968 7.58432,0.81968 C7.07792,0.3136 6.37808,0 5.6048,0 C4.83152,0 4.13168,0.3136 3.62512,0.81968 C2.9088,0.81968 2.19264,1.09312 1.64592,1.63984 C1.0992,2.18624 0.82576,2.90288 0.82576,3.61904 C0.31968,4.12592 0.00592,4.82576 0.00592,5.59872 C0.00592,6.37152 0.31952,7.07136 0.82576,7.57824 C0.82576,8.75984 1.5448,9.60192 2.2048,9.99088 L-5.72875081e-13,14.40032 L2.39952,13.60064 L3.19936,16 L5.6048,11.19728 C5.6048,11.19728 5.60496,11.19728 5.60512,11.19728 L8.01056,16 L8.8104,13.60064 L11.20992,14.40032 L9.00464,9.98992 Z M3.34736,13.91536 L2.90528,12.58912 L1.57888,13.03136 L2.94736,10.29424 C3.16976,10.3496 3.39744,10.37744 3.62512,10.37744 C3.94128,10.69376 4.33248,10.93424 4.7696,11.07088 L3.34736,13.91536 Z M5.60496,10.39728 C4.56896,10.39712 3.9568,9.5776 3.9568,9.5776 C3.9568,9.5776 2.97184,9.75184 2.212,8.99184 C1.45744,8.23728 1.62608,7.24736 1.62608,7.24736 C1.62608,7.24736 0.8064,6.64272 0.8064,5.59872 C0.8064,4.55472 1.62608,3.94992 1.62608,3.94992 C1.62608,3.94992 1.45744,2.95984 2.212,2.20544 C2.972,1.44544 3.9568,1.61968 3.9568,1.61968 C3.9568,1.61968 4.56896,0.80016 5.60496,0.8 C6.64096,0.80016 7.25328,1.61968 7.25328,1.61968 C7.25328,1.61968 8.23808,1.4456 8.99808,2.20544 C9.75264,2.96 9.58384,3.94992 9.58384,3.94992 C9.58384,3.94992 10.40368,4.55456 10.40368,5.59872 C10.40368,6.64256 9.58384,7.24736 9.58384,7.24736 C9.58384,7.24736 9.75264,8.23744 8.99808,8.99184 C8.23808,9.75184 7.25328,9.5776 7.25328,9.5776 C7.25328,9.5776 6.64096,10.39712 5.60496,10.39728 Z M8.30464,12.58912 L7.86256,13.91536 L6.44016,11.07072 C6.87728,10.93408 7.26848,10.6936 7.58416,10.37728 C7.81824,10.37728 8.04512,10.34816 8.26224,10.29408 L9.63072,13.0312 L8.30464,12.58912 Z M9.10416,5.60256 C9.10416,3.67024 7.53728,2.10336 5.60496,2.10336 C3.67264,2.10336 2.10576,3.67024 2.10576,5.60256 C2.10576,7.53488 3.67264,9.1016 5.60496,9.1016 C7.53728,9.1016 9.10416,7.53488 9.10416,5.60256 Z M5.6,8.07272727 C4.19623561,8.07272727 3.05454545,6.93073537 3.05454545,5.52727273 C3.05454545,4.12381009 4.19623561,2.98181818 5.6,2.98181818 C7.00391527,2.98181818 8.14545455,4.12381009 8.14545455,5.52727273 C8.14545455,6.93058449 7.00391527,8.07272727 5.6,8.07272727 Z" id="Shape"></path>
        </g>
    </g>
</svg>