<svg xmlns="http://www.w3.org/2000/svg" width="16" height="16" viewBox="0 0 16 16">
  <g fill="none" fill-rule="evenodd">
    <path fill="#FFF" fill-rule="nonzero" d="M4,2 C2.8954305,2 2,2.8954305 2,4 L2,12 C2,13.1045695 2.8954305,14 4,14 L12,14 C13.1045695,14 14,13.1045695 14,12 L14,4 C14,2.8954305 13.1045695,2 12,2 L4,2 Z"/>
    <path fill="#9AB" fill-rule="nonzero" d="M4,2 C2.8954305,2 2,2.8954305 2,4 L2,12 C2,13.1045695 2.8954305,14 4,14 L12,14 C13.1045695,14 14,13.1045695 14,12 L14,4 C14,2.8954305 13.1045695,2 12,2 L4,2 Z M4,0 L12,0 C14.209139,-4.05812251e-16 16,1.790861 16,4 L16,12 C16,14.209139 14.209139,16 12,16 L4,16 C1.790861,16 2.705415e-16,14.209139 0,12 L0,4 C-2.705415e-16,1.790861 1.790861,4.05812251e-16 4,0 Z M6,7 L10,7 C10.5522847,7 11,7.44771525 11,8 L11,8 C11,8.55228475 10.5522847,9 10,9 L6,9 C5.44771525,9 5,8.55228475 5,8 L5,8 C5,7.44771525 5.44771525,7 6,7 Z"/>
  </g>
</svg>
