<svg id="Layer_1" data-name="Layer 1" xmlns="http://www.w3.org/2000/svg" viewBox="0 0 137.75 129.91">
  <defs>
    <style>
      .cls-1, .cls-14, .cls-17, .cls-9 {
        fill: #eff6f9;
      }

      .cls-13, .cls-16, .cls-19, .cls-2 {
        fill: #a8d2ef;
      }

      .cls-12, .cls-15, .cls-18, .cls-3, .cls-4, .cls-5, .cls-6, .cls-7 {
        fill: none;
      }

      .cls-11, .cls-3 {
        stroke: #009cf6;
      }

      .cls-3, .cls-4, .cls-5, .cls-6, .cls-7 {
        stroke-linecap: round;
        stroke-linejoin: round;
      }

      .cls-3 {
        stroke-width: 2.12px;
      }

      .cls-12, .cls-14, .cls-15, .cls-17, .cls-18, .cls-20, .cls-4, .cls-9 {
        stroke: #a8d2ef;
      }

      .cls-4 {
        stroke-width: 0.94px;
      }

      .cls-5, .cls-6 {
        stroke: #d7ecfa;
      }

      .cls-5 {
        stroke-width: 0.77px;
      }

      .cls-6 {
        stroke-width: 0.49px;
      }

      .cls-7 {
        stroke: #3d9cd1;
        stroke-width: 0.6px;
      }

      .cls-8 {
        fill: #009cf6;
      }

      .cls-11, .cls-12, .cls-14, .cls-15, .cls-17, .cls-18, .cls-20, .cls-9 {
        stroke-miterlimit: 10;
      }

      .cls-12, .cls-9 {
        stroke-width: 0.43px;
      }

      .cls-10 {
        fill: #d7ecfa;
      }

      .cls-11, .cls-20 {
        fill: #fff;
      }

      .cls-11 {
        stroke-width: 0.44px;
      }

      .cls-13 {
        font-size: 9.38px;
      }

      .cls-13, .cls-16, .cls-19 {
        font-family: Sathu, Sathu;
      }

      .cls-14, .cls-15 {
        stroke-width: 0.37px;
      }

      .cls-16 {
        font-size: 8.13px;
      }

      .cls-17, .cls-18 {
        stroke-width: 0.44px;
      }

      .cls-19 {
        font-size: 9.72px;
      }

      .cls-20 {
        stroke-width: 1.41px;
      }
    </style>
  </defs>
  <title>CW Strategy tab</title>
  <rect class="cls-1" x="21.26" y="95.98" width="21.34" height="3.73" rx="1.15" ry="1.15"/>
  <rect class="cls-1" x="97.7" y="100.06" width="21.34" height="3.73" rx="1.15" ry="1.15"/>
  <ellipse class="cls-1" cx="82.59" cy="108.44" rx="32.22" ry="8.37"/>
  <circle class="cls-2" cx="46.99" cy="29.62" r="8.05"/>
  <circle class="cls-2" cx="106.02" cy="71.49" r="7.37"/>
  <polyline class="cls-3" points="39.19 10.39 39.92 13.9 40.65 17.41"/>
  <polyline class="cls-3" points="29.58 15.14 32.35 17.41 35.13 19.68"/>
  <polyline class="cls-3" points="27.01 25.16 30.59 25.14 34.18 25.13"/>
  <g>
    <polyline class="cls-4" points="116.5 54.3 116.51 55.74 116.51 57.19"/>
    <polyline class="cls-4" points="116.52 59.37 116.53 60.82 116.53 62.27"/>
    <polyline class="cls-4" points="112.53 58.29 113.98 58.29 115.42 58.28"/>
    <polyline class="cls-4" points="117.61 58.28 119.06 58.27 120.5 58.27"/>
  </g>
  <g>
    <polyline class="cls-5" points="109.26 46.86 109.26 48.05 109.27 49.23"/>
    <polyline class="cls-5" points="109.27 51.02 109.28 52.2 109.28 53.39"/>
    <polyline class="cls-5" points="106.01 50.13 107.19 50.13 108.38 50.13"/>
    <polyline class="cls-5" points="110.16 50.12 111.35 50.12 112.53 50.11"/>
  </g>
  <g>
    <polyline class="cls-6" points="42.6 58.74 42.6 59.5 42.6 60.25"/>
    <polyline class="cls-6" points="42.61 61.39 42.61 62.14 42.61 62.9"/>
    <polyline class="cls-6" points="40.53 60.83 41.28 60.83 42.04 60.82"/>
    <polyline class="cls-6" points="43.18 60.82 43.93 60.82 44.68 60.81"/>
  </g>
  <g>
    <polyline class="cls-6" points="42.6 40.56 42.6 41.31 42.6 42.07"/>
    <polyline class="cls-6" points="42.61 43.21 42.61 43.96 42.61 44.72"/>
    <polyline class="cls-6" points="40.53 42.65 41.28 42.64 42.04 42.64"/>
    <polyline class="cls-6" points="43.18 42.64 43.93 42.63 44.68 42.63"/>
  </g>
  <g>
    <polyline class="cls-7" points="35.1 64.23 35.1 65.56 35.11 66.88"/>
    <polyline class="cls-7" points="35.11 68.89 35.12 70.22 35.12 71.54"/>
    <polyline class="cls-7" points="31.45 67.9 32.78 67.89 34.11 67.89"/>
    <polyline class="cls-7" points="36.11 67.88 37.44 67.88 38.77 67.87"/>
  </g>
  <rect class="cls-8" x="17.25" y="93.77" width="21.34" height="3.73" rx="1.15" ry="1.15"/>
  <rect class="cls-2" x="21.26" y="93.99" width="2.13" height="3.28"/>
  <rect class="cls-8" x="95.82" y="98.2" width="21.34" height="3.73" rx="1.15" ry="1.15"/>
  <rect class="cls-8" x="91.82" y="94.47" width="21.34" height="3.73" rx="1.15" ry="1.15"/>
  <rect class="cls-2" x="98.83" y="101.51" width="2.13" height="3.28"/>
  <rect class="cls-9" x="28.52" y="82.59" width="21.34" height="3.73" rx="1.15" ry="1.15"/>
  <rect class="cls-10" x="34.66" y="82.81" width="2.13" height="3.28"/>
  <rect class="cls-9" x="88.89" y="90.47" width="21.34" height="3.73" rx="1.15" ry="1.15"/>
  <rect class="cls-10" x="95.03" y="94.7" width="2.13" height="3.28"/>
  <rect class="cls-10" x="37.83" y="82.81" width="0.63" height="3.28"/>
  <rect class="cls-11" x="23.39" y="78.64" width="21.34" height="3.73" rx="1.15" ry="1.15"/>
  <rect class="cls-10" x="29.53" y="78.86" width="2.13" height="3.28"/>
  <rect class="cls-11" x="91.95" y="86.3" width="21.34" height="3.73" rx="1.15" ry="1.15" transform="translate(205.23 176.33) rotate(-180)"/>
  <rect class="cls-10" x="105.02" y="86.52" width="2.13" height="3.28" transform="translate(212.17 176.33) rotate(180)"/>
  <rect class="cls-10" x="32.7" y="78.86" width="0.63" height="3.28"/>
  <rect class="cls-8" x="27.92" y="90.04" width="21.34" height="3.73" rx="1.15" ry="1.15"/>
  <rect class="cls-2" x="31.94" y="90.26" width="2.13" height="3.28"/>
  <rect class="cls-2" x="109.01" y="94.7" width="1.84" height="3.28"/>
  <rect class="cls-2" x="35.11" y="90.26" width="0.63" height="3.28"/>
  <rect class="cls-8" x="25.52" y="86.32" width="21.34" height="3.73" rx="1.15" ry="1.15"/>
  <rect class="cls-2" x="29.54" y="86.54" width="2.13" height="3.28"/>
  <circle class="cls-9" cx="44.69" cy="27.75" r="8.05"/>
  <circle class="cls-12" cx="44.69" cy="27.65" r="6.7"/>
  <text class="cls-13" transform="matrix(0.96, -0.27, 0.27, 0.96, 42.65, 31.92)">$</text>
  <circle class="cls-14" cx="51.44" cy="49.62" r="6.98"/>
  <circle class="cls-15" cx="51.46" cy="49.54" r="5.81"/>
  <text class="cls-16" transform="matrix(1, -0.03, 0.03, 1, 48.87, 52.64)">$</text>
  <circle class="cls-17" cx="102.27" cy="68.16" r="8.34"/>
  <circle class="cls-18" cx="102.33" cy="68.08" r="6.94"/>
  <text class="cls-19" transform="matrix(0.96, 0.28, -0.28, 0.96, 98.17, 70.65)">$</text>
  <path class="cls-20" d="M60,22.91l5.82,9.19a1.38,1.38,0,0,1,0,1.5C62.06,39.57,37,79.82,37,96c0,17.47,64.15,17.46,68,4.09C110.59,80.9,82.33,40.41,78.16,34a1.37,1.37,0,0,1,0-1.55c2-2.78,8.7-12.28,6.57-13.14-2.49-1-7.44,5.44-14,2.72-4.19-1.75-5.42-1-5.77-.28a.88.88,0,0,1-1.16.35l-2.27-1A1.29,1.29,0,0,0,60,22.91Z"/>
  <path class="cls-8" d="M65.24,32.53s6.75,3.23,13.4.73l.48.9s-7.66,2.41-13.93-.86Z"/>
</svg>
