<svg id="Layer_1" data-name="Layer 1" xmlns="http://www.w3.org/2000/svg" viewBox="0 0 137.75 129.91">
  <defs>
    <style>
      .cls-1, .cls-4, .cls-7 {
        fill: #eff6f9;
      }

      .cls-2, .cls-8, .cls-9 {
        fill: #fff;
      }

      .cls-10, .cls-11, .cls-12, .cls-13, .cls-14, .cls-16, .cls-3, .cls-5 {
        fill: none;
      }

      .cls-3 {
        stroke: #3d9cd1;
        stroke-width: 0.57px;
      }

      .cls-14, .cls-3, .cls-4, .cls-7, .cls-8, .cls-9 {
        stroke-miterlimit: 10;
      }

      .cls-10, .cls-11, .cls-14, .cls-4, .cls-9 {
        stroke: #a8d2ef;
      }

      .cls-16, .cls-5, .cls-7, .cls-8 {
        stroke: #009cf6;
      }

      .cls-10, .cls-11, .cls-12, .cls-13, .cls-16, .cls-5 {
        stroke-linecap: round;
        stroke-linejoin: round;
      }

      .cls-5 {
        stroke-width: 0.61px;
      }

      .cls-6 {
        fill: #d7ecfa;
      }

      .cls-10 {
        stroke-width: 1.17px;
      }

      .cls-11 {
        stroke-width: 0.32px;
      }

      .cls-12, .cls-13 {
        stroke: #d7ecfa;
      }

      .cls-12 {
        stroke-width: 0.78px;
      }

      .cls-13 {
        stroke-width: 0.64px;
      }

      .cls-14 {
        stroke-width: 0.93px;
      }

      .cls-15 {
        fill: #3d9cd1;
      }

      .cls-16 {
        stroke-width: 2.18px;
      }
    </style>
  </defs>
  <title>CW Strategy tab</title>
  <path class="cls-1" d="M95.17,57.09l11.74,3.38,11.73,3.37a5.6,5.6,0,0,1,3.16,2.3,4.28,4.28,0,0,1,.57,3.51l-2.55,8.85-2.54,8.86A4.29,4.29,0,0,1,114.93,90a5.56,5.56,0,0,1-3.9.26l-6.26-1.8-6.27-1.8-.81.69-.8.68-1.43,1.23L94,90.52l-.56-1.8-.56-1.8-.32-1-.31-1-2.35-.67-2.36-.68a5.52,5.52,0,0,1-3.15-2.29,4.29,4.29,0,0,1-.58-3.51l2.55-8.86L88.93,60a4.24,4.24,0,0,1,2.35-2.67A5.59,5.59,0,0,1,95.17,57.09Z"/>
  <path class="cls-1" d="M61.89,17.81,43.76,19.1,25.63,20.39a8.25,8.25,0,0,0-5.3,2.36,6.38,6.38,0,0,0-1.92,4.94l1,13.68,1,13.68A6.34,6.34,0,0,0,23,59.66a8.19,8.19,0,0,0,5.59,1.59l9.68-.68,9.68-.69,1,1.25,1,1.25,1.71,2.23,1.7,2.23,1.38-2.45L56,62l.78-1.38.77-1.37,3.63-.26,3.64-.26a8.25,8.25,0,0,0,5.3-2.36A6.38,6.38,0,0,0,72,51.38l-1-13.68L70.08,24a6.37,6.37,0,0,0-2.6-4.61A8.25,8.25,0,0,0,61.89,17.81Z"/>
  <rect class="cls-1" x="39.62" y="32.97" width="67.12" height="86.35" rx="2.13" ry="2.13"/>
  <g>
    <rect class="cls-2" x="37.1" y="29.99" width="65.39" height="85.36" rx="2.09" ry="2.09"/>
    <rect class="cls-3" x="37.1" y="29.99" width="65.39" height="85.36" rx="2.09" ry="2.09"/>
  </g>
  <rect class="cls-1" x="62.7" y="41.39" width="31.84" height="3.77" rx="0.77" ry="0.77"/>
  <rect class="cls-1" x="62.7" y="46.74" width="31.84" height="3.77" rx="0.77" ry="0.77"/>
  <rect class="cls-1" x="44.93" y="80.38" width="12.96" height="22.74" rx="1.83" ry="1.83"/>
  <rect class="cls-1" x="62.7" y="80.38" width="31.84" height="3.77" rx="0.77" ry="0.77"/>
  <rect class="cls-4" x="62.7" y="85.72" width="31.84" height="3.77" rx="0.77" ry="0.77"/>
  <rect class="cls-1" x="62.7" y="56.52" width="31.84" height="3.77" rx="0.77" ry="0.77"/>
  <rect class="cls-1" x="62.7" y="61.87" width="31.84" height="3.77" rx="0.77" ry="0.77"/>
  <rect class="cls-1" x="62.7" y="67.21" width="31.84" height="3.77" rx="0.77" ry="0.77"/>
  <g>
    <polyline class="cls-5" points="72.2 19.54 72.21 20.47 72.21 21.41"/>
    <polyline class="cls-5" points="72.22 22.82 72.22 23.75 72.22 24.68"/>
    <polyline class="cls-5" points="69.64 22.12 70.57 22.12 71.51 22.11"/>
    <polyline class="cls-5" points="72.92 22.11 73.85 22.11 74.78 22.1"/>
  </g>
  <g>
    <polyline class="cls-5" points="114.32 89.18 114.32 90.11 114.33 91.04"/>
    <polyline class="cls-5" points="114.33 92.45 114.33 93.39 114.34 94.32"/>
    <polyline class="cls-5" points="111.75 91.76 112.69 91.75 113.62 91.75"/>
    <polyline class="cls-5" points="115.03 91.75 115.97 91.74 116.9 91.74"/>
  </g>
  <rect class="cls-6" x="44.93" y="41.39" width="12.96" height="9.11" rx="1.16" ry="1.16"/>
  <rect class="cls-1" x="62.7" y="94.01" width="31.84" height="3.77" rx="0.77" ry="0.77"/>
  <rect class="cls-1" x="62.7" y="99.35" width="31.84" height="3.77" rx="0.77" ry="0.77"/>
  <rect class="cls-7" x="44.93" y="56.52" width="12.96" height="14.46" rx="1.46" ry="1.46"/>
  <path class="cls-8" d="M57.94,13.88,39.81,15.17,21.68,16.46a8.25,8.25,0,0,0-5.3,2.36,6.36,6.36,0,0,0-1.92,4.94l1,13.68,1,13.68A6.35,6.35,0,0,0,19,55.73a8.3,8.3,0,0,0,5.59,1.59l9.68-.69L44,56l1,1.25,1,1.25,1.71,2.23,1.7,2.23,1.38-2.45L52,58l.77-1.37.78-1.38L57.21,55l3.63-.25a8.29,8.29,0,0,0,5.31-2.37,6.36,6.36,0,0,0,1.92-4.93l-1-13.68-1-13.68a6.41,6.41,0,0,0-2.6-4.62A8.3,8.3,0,0,0,57.94,13.88Z"/>
  <path class="cls-9" d="M91.7,54.64,103.43,58l11.74,3.38a5.52,5.52,0,0,1,3.15,2.29,4.28,4.28,0,0,1,.58,3.51l-2.55,8.86L113.8,84.9a4.27,4.27,0,0,1-2.35,2.67,5.59,5.59,0,0,1-3.89.27L101.29,86,95,84.23l-.8.69-.81.69L92,86.84l-1.43,1.22L90,86.26l-.57-1.8-.31-1-.32-1-2.35-.68-2.35-.67a5.57,5.57,0,0,1-3.16-2.3,4.24,4.24,0,0,1-.57-3.51l2.54-8.85,2.55-8.86A4.27,4.27,0,0,1,87.8,54.9,5.56,5.56,0,0,1,91.7,54.64Z"/>
  <g>
    <polyline class="cls-10" points="23.7 62.16 23.71 63.95 23.72 65.74"/>
    <polyline class="cls-10" points="23.73 68.44 23.73 70.23 23.74 72.03"/>
    <polyline class="cls-10" points="18.79 67.11 20.58 67.1 22.37 67.1"/>
    <polyline class="cls-10" points="25.07 67.09 26.86 67.08 28.66 67.08"/>
  </g>
  <g>
    <polyline class="cls-11" points="118.1 87.07 118.1 87.56 118.1 88.05"/>
    <polyline class="cls-11" points="118.11 88.79 118.11 89.28 118.11 89.77"/>
    <polyline class="cls-11" points="116.75 88.42 117.24 88.42 117.73 88.42"/>
    <polyline class="cls-11" points="118.47 88.42 118.97 88.42 119.46 88.42"/>
  </g>
  <g>
    <polyline class="cls-12" points="14.12 57.56 14.13 58.77 14.13 59.96"/>
    <polyline class="cls-12" points="14.13 61.77 14.14 62.98 14.14 64.17"/>
    <polyline class="cls-12" points="10.83 60.88 12.03 60.88 13.23 60.87"/>
    <polyline class="cls-12" points="15.04 60.87 16.24 60.86 17.44 60.86"/>
  </g>
  <g>
    <polyline class="cls-13" points="122.75 55.1 122.75 56.08 122.75 57.06"/>
    <polyline class="cls-13" points="122.76 58.54 122.76 59.53 122.77 60.51"/>
    <polyline class="cls-13" points="120.05 57.81 121.03 57.81 122.02 57.8"/>
    <polyline class="cls-13" points="123.5 57.8 124.48 57.8 125.46 57.79"/>
  </g>
  <rect class="cls-14" x="20.11" y="24.22" width="9.51" height="9.51" rx="1.01" ry="1.01" transform="translate(-2.44 2.28) rotate(-5.02)"/>
  <rect class="cls-14" x="21.39" y="38.8" width="9.51" height="9.51" rx="1.01" ry="1.01" transform="translate(-3.71 2.45) rotate(-5.02)"/>
  <g>
    <rect class="cls-15" x="89.25" y="63.58" width="24.96" height="1.93" rx="0.84" ry="0.84" transform="matrix(0.96, 0.27, -0.27, 0.96, 21.09, -24.97)"/>
    <rect class="cls-15" x="87.86" y="68.47" width="24.96" height="1.93" rx="0.84" ry="0.84" transform="translate(22.36 -24.41) rotate(15.59)"/>
    <rect class="cls-15" x="86.5" y="73.22" width="24.96" height="1.93" rx="0.84" ry="0.84" transform="translate(23.58 -23.88) rotate(15.59)"/>
  </g>
  <rect class="cls-1" x="32.46" y="24.26" width="28.88" height="1.88" transform="translate(-2.05 4.27) rotate(-5.1)"/>
  <rect class="cls-1" x="32.84" y="28.54" width="28.88" height="1.88" transform="translate(-2.43 4.32) rotate(-5.1)"/>
  <rect class="cls-1" x="33.81" y="39.35" width="28.88" height="1.88" transform="translate(-3.39 4.45) rotate(-5.1)"/>
  <polyline class="cls-16" points="22.61 26.41 24.79 28.7 26.98 31 30.53 25.85 34.08 20.7"/>
</svg>
