<svg id="Layer_1" data-name="Layer 1" xmlns="http://www.w3.org/2000/svg" viewBox="0 0 205.69 129.91">
  <defs>
    <style>
      .cls-1 {
        fill: #d7ecfa;
      }

      .cls-11, .cls-12, .cls-13, .cls-2, .cls-4, .cls-7, .cls-8 {
        fill: none;
      }

      .cls-11, .cls-13, .cls-2, .cls-4, .cls-7, .cls-8 {
        stroke: #1a5784;
      }

      .cls-12, .cls-2, .cls-7, .cls-8 {
        stroke-linecap: round;
        stroke-linejoin: round;
      }

      .cls-2 {
        stroke-width: 1.66px;
      }

      .cls-3 {
        fill: #a8d2ef;
      }

      .cls-10, .cls-11, .cls-13, .cls-14, .cls-4, .cls-6 {
        stroke-miterlimit: 10;
      }

      .cls-4 {
        stroke-width: 0.83px;
      }

      .cls-5, .cls-6 {
        fill: #3d9cd1;
      }

      .cls-12, .cls-6 {
        stroke: #fff;
      }

      .cls-10, .cls-11, .cls-12, .cls-6 {
        stroke-width: 1.32px;
      }

      .cls-13, .cls-7 {
        stroke-width: 1.11px;
      }

      .cls-8 {
        stroke-width: 0.99px;
      }

      .cls-9 {
        fill: #009cf6;
      }

      .cls-10, .cls-14 {
        fill: #fff;
      }

      .cls-10 {
        stroke: #009cf6;
      }

      .cls-14 {
        stroke: #d7ecfa;
        stroke-width: 0.56px;
      }
    </style>
  </defs>
  <title>CW Strategy tab</title>
  <path class="cls-1" d="M50.05,85a12.31,12.31,0,0,0,4.44-9c.16-5.48-.38-5.47-.38-5.47S45.92,77.43,50.05,85Z"/>
  <path class="cls-2" d="M54.16,112.09S55.92,85.5,38.89,70.68"/>
  <path class="cls-3" d="M133.78,99.77s2.12-6.65,10.6-6.48C144.38,93.29,142.92,101.35,133.78,99.77Z"/>
  <path class="cls-3" d="M133.52,100s-7,.28-9.71-7.74C123.81,92.23,131.88,90.84,133.52,100Z"/>
  <path class="cls-4" d="M134.21,112.85s-.35-15.94-1.38-31.87"/>
  <path class="cls-5" d="M133,77.93a32.59,32.59,0,0,0,9.36-2.08l.49,6.31a34.38,34.38,0,0,1-18.91,1.48l-.5-6.3A33.14,33.14,0,0,0,133,77.93Z"/>
  <polygon class="cls-6" points="150.14 73.77 132.65 71.45 115.69 76.47 133.23 79.16 150.14 73.77"/>
  <g>
    <path class="cls-5" d="M35.24,52.78A10.28,10.28,0,1,0,45.51,63.07,10.29,10.29,0,0,0,35.24,52.78Zm0,16.51a6.23,6.23,0,1,1,6.23-6.22A6.22,6.22,0,0,1,35.22,69.29Z"/>
    <polygon class="cls-5" points="36.84 53.58 33.63 53.57 34.04 50.37 36.44 50.37 36.84 53.58"/>
    <polygon class="cls-5" points="33.61 72.43 36.82 72.43 36.41 75.63 34.02 75.63 33.61 72.43"/>
    <polygon class="cls-5" points="44.65 64.61 44.65 61.41 47.86 61.82 47.85 64.21 44.65 64.61"/>
    <polygon class="cls-5" points="25.8 61.39 25.8 64.59 22.59 64.19 22.6 61.79 25.8 61.39"/>
    <polygon class="cls-5" points="42.93 57.13 40.67 54.87 43.22 52.89 44.91 54.58 42.93 57.13"/>
    <polygon class="cls-5" points="27.32 68.18 29.59 70.45 27.03 72.43 25.34 70.73 27.32 68.18"/>
    <polygon class="cls-5" points="40.82 70.22 43.09 67.96 45.06 70.51 43.37 72.2 40.82 70.22"/>
    <polygon class="cls-5" points="29.77 54.61 27.5 56.87 25.53 54.32 27.22 52.63 29.77 54.61"/>
  </g>
  <path class="cls-7" d="M58.41,112.09S56,87.46,59.81,81"/>
  <path class="cls-8" d="M65.39,112.09s-1.2-4.83,4.39-11.61"/>
  <path class="cls-1" d="M50,86.78a18.12,18.12,0,0,0-14.73,0c-7.31,3.36-6.95,4.06-6.95,4.06S42.7,97.11,50,86.78Z"/>
  <g>
    <path class="cls-9" d="M71.56,93.93A3.86,3.86,0,1,0,75,98.14,3.86,3.86,0,0,0,71.56,93.93ZM71,100.09A2.33,2.33,0,1,1,73.52,98,2.33,2.33,0,0,1,71,100.09Z"/>
    <path class="cls-9" d="M72.46,94.13,70.65,94l.25-1.13a.77.77,0,0,1,.83-.6h0a.79.79,0,0,1,.7.75Z"/>
    <path class="cls-9" d="M70,101.26l1.82.18-.26,1.13a.77.77,0,0,1-.82.6h0a.78.78,0,0,1-.7-.75Z"/>
    <path class="cls-9" d="M69.57,94.29l-1.41,1.16-.62-1a.78.78,0,0,1,.16-1h0a.78.78,0,0,1,1,0Z"/>
    <path class="cls-9" d="M72.84,101.1l1.41-1.16.62,1a.77.77,0,0,1-.16,1h0a.78.78,0,0,1-1,0Z"/>
    <path class="cls-9" d="M74.37,96l-1.16-1.41,1-.62a.78.78,0,0,1,1,.16h0a.79.79,0,0,1,0,1Z"/>
    <path class="cls-9" d="M67.77,99.14l1.16,1.41-1,.62a.77.77,0,0,1-1-.16h0a.78.78,0,0,1,0-1Z"/>
    <path class="cls-9" d="M74.51,98.92l.17-1.81,1.13.25a.77.77,0,0,1,.6.83h0a.78.78,0,0,1-.75.7Z"/>
    <path class="cls-9" d="M67.87,96.47l-.17,1.82L66.57,98a.76.76,0,0,1-.6-.82h0a.76.76,0,0,1,.74-.7Z"/>
  </g>
  <path class="cls-3" d="M66.49,105.71s-.34-4.36-4-5.23C62.44,100.48,61.72,105.65,66.49,105.71Z"/>
  <path class="cls-10" d="M98.09,85.8S82.77,87.33,73.62,75.54a5.42,5.42,0,0,1,4.81-8.73C86.07,67.59,96,71.45,98.09,85.8Z"/>
  <path class="cls-10" d="M98.21,86.46s11.76-1.1,16.92-11.34a4.16,4.16,0,0,0-4.91-5.86C104.59,71,97.69,75.34,98.21,86.46Z"/>
  <path class="cls-11" d="M98.23,57.55s-3.83,32.67,4.88,55.54"/>
  <path class="cls-3" d="M77.21,26.46,111,20.6a6.71,6.71,0,0,1,7.73,5.45l3.69,21.25A6.71,6.71,0,0,1,116.93,55l-6,1,1.22,7-10.39-5.44L83.19,60.89a6.71,6.71,0,0,1-7.74-5.45L71.76,34.19A6.71,6.71,0,0,1,77.21,26.46Z"/>
  <line class="cls-12" x1="112.16" y1="29.78" x2="78.55" y2="35.47"/>
  <line class="cls-12" x1="113.19" y1="35.82" x2="79.57" y2="41.52"/>
  <line class="cls-12" x1="114.21" y1="41.87" x2="80.6" y2="47.56"/>
  <path class="cls-9" d="M168.58,90.73s-.83-6.06-5.75-9a2.63,2.63,0,0,0-3.75,3.27C160.3,88.11,162.92,91.4,168.58,90.73Z"/>
  <path class="cls-9" d="M169.15,90.82s6.6-.11,10.33-5a2.84,2.84,0,0,0-3-4.44C173,82.27,169.15,84.67,169.15,90.82Z"/>
  <path class="cls-13" d="M162.61,112.71s10.33-27.41,7.09-41"/>
  <circle class="cls-14" cx="169.12" cy="62.67" r="10.24"/>
  <path class="cls-1" d="M161.43,69.42l2.31,1.94,2.8,1.22,3.78.5,5-2.27,1.16-1.11c-.66-2.32-3.73-4.3-7.6-4.69s-7.34,1-8.42,3.14Z"/>
  <circle class="cls-1" cx="169.34" cy="60.35" r="3.29"/>
  <polyline class="cls-7" points="51.89 112.71 43.56 112.71 35.23 112.71"/>
  <polyline class="cls-7" points="28.27 112.71 22.99 112.71 17.71 112.71"/>
  <polyline class="cls-7" points="14.21 112.71 11.56 112.71 8.92 112.71"/>
  <polyline class="cls-7" points="198.14 112.71 195.5 112.71 192.86 112.71"/>
  <polyline class="cls-7" points="189.93 112.71 184.64 112.71 179.36 112.71"/>
  <polyline class="cls-7" points="172.63 112.71 91.83 112.71 62.01 112.71"/>
</svg>
