<?xml version="1.0" encoding="utf-8"?>
<!-- Generator: Adobe Illustrator 22.0.1, SVG Export Plug-In . SVG Version: 6.00 Build 0)  -->
<svg version="1.1" id="Layer_1" xmlns="http://www.w3.org/2000/svg" xmlns:xlink="http://www.w3.org/1999/xlink" x="0px" y="0px"
	 viewBox="0 0 834.8 161.2" style="enable-background:new 0 0 834.8 161.2;" xml:space="preserve">
<style type="text/css">
	.st0{fill:#FFFFFF;}
</style>
<title>12x6_Gray_Logo</title>
<path class="st0" d="M606,107.5h-8.3l-13-38l-13,38h-8.4l-18.5-53.6h10.3l12.4,38.5l0.5,0.1l12.8-38.7h8.1l12.8,38.6l0.5,0.1
	l12.5-38.6h10L606,107.5z"/>
<path class="st0" d="M717.9,54.2c9.2,0,18.2-0.3,27.3,0.1c8.2,0.3,14.3,5.3,15.7,12.6c1.8,8.9-1.4,16.4-10.3,19.8
	c-0.5,0.2-1,0.3-1.8,0.6l14.3,20.2c-3.8,0-7.1,0.1-10.4-0.1c-0.7,0-1.4-0.9-1.9-1.5c-3.6-5-7.3-10.1-10.7-15.2
	c-0.7-1.3-2.1-2-3.6-1.8c-3,0.1-6,0-9.3,0v18.5h-9.2V54.2z M727.3,80.2c5.5,0,11,0.3,16.3-0.1c4.5-0.1,8.2-3.9,8.1-8.4
	c0,0,0-0.1,0-0.1c0-5-2.7-8.2-8-8.6s-10.7-0.3-16-0.3c-0.1,0-0.3,0.2-0.3,0.3L727.3,80.2z"/>
<path class="st0" d="M642.5,80.7c-0.1-15.1,12-27.5,27.1-27.6c0.2,0,0.3,0,0.5,0c15.3-0.1,27.8,12.3,27.9,27.6s-12.3,27.8-27.6,27.9
	c-15.3,0.1-27.8-12.3-27.9-27.6C642.5,80.9,642.5,80.8,642.5,80.7z M651.3,80.7c0,10.4,8.4,18.9,18.8,19c10.3,0,19.1-8.9,19-19.1
	c-0.1-10.4-8.5-18.7-18.9-18.8c-10.3-0.1-18.8,8.1-19,18.4C651.3,80.4,651.3,80.5,651.3,80.7L651.3,80.7z"/>
<path class="st0" d="M364.6,53.1c15.6,0,27.8,12.2,27.8,28c0,15-12.5,27.4-27.7,27.5c-15.4,0-27.8-12.5-27.8-27.9
	c0-15.2,12.3-27.6,27.6-27.6C364.5,53.1,364.5,53.1,364.6,53.1z M364.6,61.9c-10.4,0-18.9,8.5-18.9,18.9c0,0,0,0.1,0,0.1
	c0,10.5,8.5,18.9,19,18.9c10.5,0,18.9-8.5,18.9-19l0,0C383.6,70.3,375.1,61.9,364.6,61.9C364.7,61.9,364.6,61.9,364.6,61.9
	L364.6,61.9z"/>
<path class="st0" d="M811.6,77l23.2,30.5c-4,0-7.4,0.1-10.8-0.1c-0.7,0-1.4-0.9-1.9-1.5c-5.3-6.9-10.5-13.7-15.7-20.6
	c-0.4-0.5-0.8-1.1-1.3-1.6c-2.6,2.6-5.1,5-7.5,7.6c-0.5,0.7-0.7,1.5-0.7,2.3c-0.1,3.6,0,7.3,0,10.9v2.9h-9.5V54.1h9.3V80l0.5,0.2
	l9.7-10.2c4.7-5,9.3-9.9,14-14.9c0.5-0.6,1.2-1,1.9-1.1c3.4-0.1,6.8-0.1,11-0.1L811.6,77z"/>
<path class="st0" d="M527.6,107.5c-3.8,0-7.1,0.1-10.3-0.1c-1-0.2-2-0.8-2.6-1.7c-5.1-6.6-10-13.2-15-19.8c-0.6-0.7-1.2-1.4-1.8-2.2
	c-2.6,2.6-5.2,5-7.6,7.6c-0.5,0.7-0.7,1.5-0.6,2.4c-0.1,4.5,0,9,0,13.6h-9.2V54.1h9.3v26.6l19-20c2-2.1,3.7-5,6.2-6.1
	s5.7-0.4,8.7-0.5c0.9,0,1.8,0,3.2,0L504.4,77L527.6,107.5z"/>
<path class="st0" d="M258.7,61.6l-6,6.9c-5.1-4.7-10.8-7.4-17.7-6.4c-4.2,0.6-7.9,2.8-10.5,6.1c-6.1,7.4-5.6,19.4,1.1,26.4
	c7,7.4,16.1,6.8,27.3-1.5l6.3,5.7c-10.2,12.1-29,13-40.5,2.3c-11.2-10.4-11.1-29.6,0.2-40.7C229.3,50.2,249,50.7,258.7,61.6z"/>
<path class="st0" d="M457,61.6l-6.1,6.9c-5.1-4.8-10.9-7.5-17.9-6.4c-3.9,0.6-7.4,2.6-9.9,5.6c-6.3,7.5-6.2,19.3,0.3,26.4
	c3.6,4,8.8,6,14.2,5.5c5.5-0.4,9.7-3.2,13.6-6.8l6.1,6.1c-10.4,12.4-29.8,11.9-39.9,2.5c-11.5-10.8-11.9-29.7-0.9-40.7
	C427.2,50.2,446.8,50.4,457,61.6z"/>
<path class="st0" d="M283.5,54.1h9.3v44.6h28.1v8.7h-37.3V54.1z"/>
<path class="st0" d="M156.3,107.5h-35.1c-0.3,0.7-0.7,1.5-1.1,2.4c-2.3,5.5-5.5,10.7-9.4,15.3c-4.3,5.1-9.7,9.2-15.8,11.9
	c-3.3,1.5-6.8,2.4-10.3,2.7c-1.1,0.1-2.3,0.3-3.6,0.5c2.8,1.4,5.8,2.6,8.9,3.4c4.5,1.4,9.2,2.2,14,2.4c2.2,0.1,4.4,0.3,6.6,0.3
	c7.2-0.1,14.4-1.3,21.2-3.6c1.2-0.5,2.3-1.2,3.2-2.1c9.3-8.6,16.5-19.3,21-31.2C156,108.7,156.2,108.1,156.3,107.5z"/>
<path class="st0" d="M121.7,11.4c-24.1-3.9-45.2,2.1-62.7,19C45.9,42.8,38.4,60,38.1,78c-0.7,22.4,7.5,41.3,24.5,55.9
	s36.7,19.5,58.8,15.9c-3.2,3.6-22.1,9.9-30.4,10.8c-10.8,1.3-21.7,0.5-32.1-2.4c-10.5-2.9-20.3-8-28.8-14.9
	C-4.6,115.5-10.1,64.8,17.9,30.1c0.1-0.2,0.3-0.3,0.4-0.5C46.1-4.3,91.8-7.2,121.7,11.4z"/>
<path class="st0" d="M156.6,54.2h-35.1c-0.3-0.7-0.7-1.5-1.1-2.4c-2.3-5.5-5.5-10.7-9.4-15.3c-4.3-5.1-9.7-9.2-15.8-11.9
	c-3.3-1.5-6.8-2.4-10.3-2.7c-1.1-0.1-2.3-0.3-3.6-0.4c2.8-1.4,5.8-2.6,8.9-3.4c4.5-1.4,9.2-2.2,14-2.4c2.2-0.1,4.4-0.3,6.6-0.3
	c7.2,0.1,14.4,1.3,21.3,3.6c1.2,0.5,2.3,1.2,3.2,2.1c9.3,8.6,16.5,19.3,21,31.2C156.4,53,156.5,53.6,156.6,54.2z"/>
</svg>
