<?xml version="1.0" encoding="utf-8"?>
<!-- Generator: Adobe Illustrator 21.1.0, SVG Export Plug-In . SVG Version: 6.00 Build 0)  -->
<svg version="1.1" id="Layer_1" xmlns="http://www.w3.org/2000/svg" xmlns:xlink="http://www.w3.org/1999/xlink" x="0px" y="0px"
	 viewBox="0 0 256 256" style="enable-background:new 0 0 256 256;" xml:space="preserve">
<style type="text/css">
	.st0{fill:#29AAE1;}
</style>
<title>Artboard 1</title>
<path class="st0" d="M245.8,181.7h-184V24.1c0.2-5.5-4.2-10.2-9.7-10.3c-0.1,0-0.1,0-0.2,0l0,0c-5.5,0.1-10,4.6-9.9,10.2
	c0,0,0,0,0,0l0,0v157.8H10.8c-5.5,0-10,4.5-10,10c0,0.1,0,0.1,0,0.2l0,0c-0.1,5.5,4.3,10.1,9.9,10.2c0,0,0,0,0,0h31.2v26.4
	c0,5.5,4.5,10,10,10s10-4.5,10-10l0,0V202h184c5.5-0.1,10-4.6,9.9-10.2c0,0,0,0,0,0l0,0C255.7,186.3,251.3,181.8,245.8,181.7z"/>
<path class="st0" d="M86.4,164.5c7.4-0.1,13.3-6.1,13.3-13.5c0-3-0.9-5.9-2.7-8.2l23.7-59.1l24.7,51.7c-1.2,2.1-1.8,4.5-1.8,6.9
	c-0.8,7.3,4.5,13.9,11.9,14.7c7.3,0.8,13.9-4.5,14.7-11.9c0.1-0.9,0.1-1.9,0-2.8c0-1.8-0.4-3.6-1-5.2l9.3-12.1
	c1.4,0.2,2.8,0.2,4.2,0l8.5,11.8c-0.8,1.7-1.2,3.6-1.2,5.5c-0.8,7.3,4.5,13.9,11.9,14.7c7.3,0.8,13.9-4.5,14.7-11.9
	c0.1-0.9,0.1-1.9,0-2.8c0-2.7-0.8-5.4-2.2-7.6l18-36.7c7.4-0.8,12.7-7.5,11.9-14.9c-0.8-7.4-7.5-12.7-14.9-11.9
	c-6.8,0.8-12,6.5-12,13.3c0,2.7,0.8,5.4,2.2,7.6l-18,36.9l0,0l-9-12.4c0.6-1.5,0.9-3.2,0.9-4.8c0.8-7.3-4.5-13.9-11.9-14.7
	c-7.3-0.8-13.9,4.5-14.7,11.9c-0.1,0.9-0.1,1.9,0,2.8c0,1.6,0.3,3.2,0.9,4.6l-9.6,12.6h-1.3l-25.2-53.8c1.7-2.3,2.6-5.1,2.5-7.9
	c0.8-7.3-4.5-13.9-11.9-14.7c-7.3-0.8-13.9,4.5-14.7,11.9c-0.1,0.9-0.1,1.9,0,2.8c0,2.9,0.9,5.6,2.5,7.9l-25.6,62.5
	c-7.5,0.5-13.1,6.9-12.6,14.4s6.9,13.1,14.4,12.6V164.5z"/>
</svg>
