<?xml version="1.0" encoding="utf-8"?>
<!-- Generator: Adobe Illustrator 21.1.0, SVG Export Plug-In . SVG Version: 6.00 Build 0)  -->
<svg version="1.1" id="Layer_1" xmlns="http://www.w3.org/2000/svg" xmlns:xlink="http://www.w3.org/1999/xlink" x="0px" y="0px"
	 viewBox="0 0 256 256" style="enable-background:new 0 0 256 256;" xml:space="preserve">
<style type="text/css">
	.st0{fill:#838383;}
</style>
<title>Artboard 1</title>
<path class="st0" d="M245.9,182H62V27.2c0.2-5.4-4.2-10-9.7-10.2c-0.1,0-0.1,0-0.2,0l0,0c-5.5,0.1-10,4.6-9.9,10c0,0,0,0,0,0l0,0
	v155H11c-5.5,0-10,4.4-10,9.9c0,0,0,0.1,0,0.1l0,0c-0.1,5.5,4.3,9.9,9.9,10c0,0,0,0,0,0h31.2V228c0,5.4,4.5,9.8,10,9.8
	s10-4.4,10-9.8l0,0v-26.1h183.9c5.5-0.1,10-4.6,9.9-10c0,0,0,0,0,0l0,0C255.8,186.5,251.4,182.1,245.9,182z"/>
<path class="st0" d="M86.6,165.1c7.4-0.1,13.3-6,13.3-13.3c0-2.9-0.9-5.8-2.7-8.1l23.7-58l24.7,50.8c-1.2,2.1-1.8,4.4-1.8,6.8
	c-0.8,7.2,4.5,13.7,11.9,14.4c7.3,0.8,13.9-4.4,14.7-11.6c0.1-0.9,0.1-1.9,0-2.8c0-1.8-0.4-3.5-1-5.2l9.3-11.9
	c1.4,0.2,2.8,0.2,4.2,0l8.5,11.6c-0.8,1.7-1.2,3.6-1.2,5.5c-0.8,7.2,4.5,13.7,11.9,14.4c7.3,0.8,13.9-4.4,14.7-11.6
	c0.1-0.9,0.1-1.9,0-2.8c0-2.7-0.8-5.3-2.2-7.5l18-36.1c7.4-0.8,12.7-7.4,11.9-14.7s-7.5-12.5-14.9-11.7c-6.8,0.7-11.9,6.4-12,13.1
	c0,2.7,0.8,5.3,2.2,7.5l-18,36.2l0,0l-9-12.2c0.6-1.5,0.9-3.1,0.9-4.7c0.8-7.2-4.5-13.7-11.9-14.4c-7.3-0.8-13.9,4.4-14.7,11.6
	c-0.1,0.9-0.1,1.9,0,2.8c0,1.6,0.3,3.1,0.9,4.6l-9.6,12.4H157l-25.2-52.9c1.7-2.3,2.5-5,2.5-7.8c0.8-7.2-4.5-13.7-11.9-14.4
	c-7.3-0.8-13.9,4.4-14.7,11.6c-0.1,0.9-0.1,1.9,0,2.8c0,2.8,0.9,5.5,2.5,7.8l-25.6,61.4c-7.4,0.5-13.1,6.8-12.6,14.1
	s6.9,12.9,14.4,12.4V165.1z"/>
</svg>
