<svg id="Capa_1" data-name="Capa 1" xmlns="http://www.w3.org/2000/svg" viewBox="0 0 256 256"><defs><style>.cls-1{fill:#838383;}.cls-2{fill:none;stroke:#838383;stroke-miterlimit:10;stroke-width:5px;}</style></defs><title>Artboard 1</title><path class="cls-1" d="M195.15,53.44H80.8a3.32,3.32,0,0,0-3.32,3.32v66H47.16a3.32,3.32,0,0,0-3.32,3.32v56.3A20.16,20.16,0,0,0,64,202.56H178.33a20.17,20.17,0,0,0,20.14-20.14V56.76A3.32,3.32,0,0,0,195.15,53.44Zm-144.67,129v-53h27v53a13.5,13.5,0,1,1-27,0Zm141.35,0a13.51,13.51,0,0,1-13.5,13.5H78.91a20.07,20.07,0,0,0,5.2-13.5V60.08H191.83V182.42Z"/><path class="cls-1" d="M133.31,91.81h42.57a3.32,3.32,0,1,0,0-6.64H133.31a3.32,3.32,0,1,0,0,6.64Z"/><path class="cls-1" d="M133.31,128.3h42.57a3.32,3.32,0,1,0,0-6.64H133.31a3.32,3.32,0,1,0,0,6.64Z"/><path class="cls-1" d="M133.31,164.79h42.57a3.32,3.32,0,0,0,0-6.64H133.31a3.32,3.32,0,1,0,0,6.64Z"/><path class="cls-1" d="M102.66,95.54a3.32,3.32,0,0,0,2.42,1h0a3.32,3.32,0,0,0,2.43-1.08l18.25-20A3.32,3.32,0,1,0,120.87,71L105,88.38l-4.93-5.22a3.32,3.32,0,0,0-4.83,4.56Z"/><path class="cls-1" d="M120.87,109.12,105,126.46l-4.93-5.22a3.32,3.32,0,0,0-4.83,4.56l7.39,7.82a3.32,3.32,0,0,0,2.42,1h0a3.32,3.32,0,0,0,2.43-1.08l18.25-20a3.32,3.32,0,0,0-4.91-4.48Z"/><path class="cls-1" d="M120.87,147.19,105,164.53l-4.93-5.22a3.32,3.32,0,0,0-4.83,4.56l7.39,7.82a3.32,3.32,0,0,0,2.42,1h0a3.32,3.32,0,0,0,2.43-1.08l18.25-20a3.32,3.32,0,0,0-4.91-4.48Z"/><circle class="cls-2" cx="128.78" cy="128.36" r="124.36"/></svg>