<?xml version="1.0" encoding="utf-8"?>
<!-- Generator: Adobe Illustrator 22.0.1, SVG Export Plug-In . SVG Version: 6.00 Build 0)  -->
<svg version="1.1" id="C_Logo" xmlns="http://www.w3.org/2000/svg" xmlns:xlink="http://www.w3.org/1999/xlink" x="0px" y="0px"
	 viewBox="0 0 256 256" style="enable-background:new 0 0 256 256;" xml:space="preserve">
<style type="text/css">
	.st0{fill:#FFFFFF;}
</style>
<path class="st0" d="M248.1,169.7h-54.3c-0.5,1.1-1.1,2.4-1.7,3.7c-3.6,8.6-8.5,16.5-14.5,23.6c-6.6,8-15,14.2-24.5,18.4
	c-5,2.3-10.4,3.7-16,4.1c-1.8,0.1-3.5,0.4-5.6,0.7c4.4,2.2,9,3.9,13.8,5.2c7,2.2,14.3,3.5,21.6,3.8c3.4,0.1,6.8,0.5,10.3,0.4
	c11.2-0.1,22.2-2,32.8-5.5c1.9-0.7,3.6-1.9,5-3.3c14.4-13.3,25.6-29.9,32.5-48.3C247.7,171.5,247.9,170.6,248.1,169.7z"/>
<path class="st0" d="M194.7,21.2c-37.2-6-69.9,3.3-96.9,29.4c-20.3,19.2-32,45.7-32.5,73.6c-1.1,34.6,11.7,63.8,37.9,86.4
	s56.7,30.1,90.8,24.6c-5,5.6-34.1,15.3-46.9,16.7c-16.6,2-33.5,0.7-49.6-3.7c-16.3-4.5-31.4-12.3-44.5-23
	C-0.6,182-9.1,103.6,34.1,50c0.2-0.3,0.4-0.5,0.6-0.8C77.8-3.2,148.4-7.6,194.7,21.2z"/>
<path class="st0" d="M248.5,87.2h-54.3c-0.5-1.1-1.1-2.4-1.7-3.7C188.9,75,184,67.1,178,60c-6.6-8-15-14.2-24.5-18.4
	c-5-2.3-10.4-3.7-16-4.1c-1.8-0.1-3.5-0.4-5.6-0.7c4.4-2.2,9-3.9,13.8-5.2c7-2.2,14.3-3.5,21.6-3.8c3.4-0.1,6.8-0.5,10.3-0.4
	c11.2,0.1,22.3,2,32.9,5.5c1.9,0.7,3.6,1.9,5,3.3c14.4,13.3,25.6,29.9,32.5,48.3C248.2,85.4,248.4,86.3,248.5,87.2z"/>
</svg>
