<?xml version="1.0" encoding="utf-8"?>
<!-- Generator: Adobe Illustrator 21.1.0, SVG Export Plug-In . SVG Version: 6.00 Build 0)  -->
<svg version="1.1" id="Layer_1" xmlns="http://www.w3.org/2000/svg" xmlns:xlink="http://www.w3.org/1999/xlink" x="0px" y="0px"
	 viewBox="0 0 256 256" style="enable-background:new 0 0 256 256;" xml:space="preserve">
<style type="text/css">
	.st0{fill:#838383;}
</style>
<title>Artboard 1</title>
<path class="st0" d="M234.7,24H200V8c0-4.4-3.6-8-8-8s-8,3.6-8,8v16h-48V8c0-4.4-3.6-8-8-8c-4.4,0-8,3.6-8,8v16H72V8
	c0-4.4-3.6-8-8-8s-8,3.6-8,8v16H21.3C9.5,24,0,33.5,0,45.3v189.4C0,246.5,9.5,256,21.3,256h213.4c11.8,0,21.3-9.5,21.3-21.3V45.3
	C256,33.5,246.5,24,234.7,24z M240,234.7c0,2.9-2.4,5.3-5.3,5.3H21.3c-2.9,0-5.3-2.4-5.3-5.3V45.3c0-2.9,2.4-5.3,5.3-5.3H56v16
	c0,4.4,3.6,8,8,8s8-3.6,8-8V40h48v16c0,4.4,3.6,8,8,8c4.4,0,8-3.6,8-8V40h48v16c0,4.4,3.6,8,8,8s8-3.6,8-8V40h34.7
	c2.9,0,5.3,2.4,5.3,5.3V234.7z"/>
<path class="st0" d="M56,96h32v24H56V96z M56,136h32v24H56V136z M56,176h32v24H56V176z M112,176h32v24h-32V176z M112,136h32v24h-32
	V136z M112,96h32v24h-32V96z M168,176h32v24h-32V176z M168,136h32v24h-32V136z M168,96h32v24h-32V96z"/>
</svg>
