<svg id="Layer_1" data-name="Layer 1" xmlns="http://www.w3.org/2000/svg" viewBox="0 0 256 256"><defs><style>.cls-1{fill:none;stroke:#838383;stroke-width:5px;}.cls-2{fill:#838383;}</style></defs><title>Artboard 1</title><circle class="cls-1" cx="127.75" cy="127.25" r="125.25"/><path class="cls-2" d="M173.8,167,155,162.46,149.41,157a5.11,5.11,0,0,0-3.6-1.42v-4.41c.85-.58,1.68-1.2,2.49-1.85a115.64,115.64,0,0,0,15-4.09c11-3.89,16.36-8.31,16.36-13.51,0-30.26-7.23-51.95-21.48-64.47a46.7,46.7,0,0,0-60.89,0c-14.25,12.52-21.48,34.21-21.48,64.47,0,5.19,5.36,9.62,16.36,13.51a115.49,115.49,0,0,0,15,4.09c.81.66,1.63,1.28,2.49,1.85v4.41a5.11,5.11,0,0,0-3.6,1.43l-5.63,5.46L81.7,167A17.64,17.64,0,0,0,68,184V195a7.55,7.55,0,0,0,7.65,7.43H179.83a7.55,7.55,0,0,0,7.65-7.43V184a17.64,17.64,0,0,0-13.69-17ZM146,160.35l4.64,4.51-10.22,13.9a.15.15,0,0,1-.11.07.15.15,0,0,1-.12,0l-8.57-6.67,14.16-11.79A.17.17,0,0,1,146,160.35ZM96.34,114a44.89,44.89,0,0,1,3-16.11c5.51,2.52,14.68,5.37,25.4,7.86a225.84,225.84,0,0,0,34.43,5.43c0,1.12,0,2.33,0,2.82,0,11.44-4.18,21.72-10.78,28.71a32.79,32.79,0,0,1-8.15-1.12,7.21,7.21,0,0,0,.37-2.29,7.65,7.65,0,1,0-7.65,7.44,7.75,7.75,0,0,0,4-1.12,46.9,46.9,0,0,0,6.39,1.44,27.13,27.13,0,0,1-15.61,5C110.43,152.11,96.34,135,96.34,114Zm-3.83,10.28H88.69a.16.16,0,0,1-.16-.16V111.46a.16.16,0,0,1,.16-.16h2.84A50,50,0,0,0,92.51,124.27Zm65.06,15.87a13,13,0,0,1-1.77,1A45.29,45.29,0,0,0,161.74,129h2.34C163.53,132,162,137.11,157.57,140.14Zm9.4-16a.16.16,0,0,1-.16.15H163A50.18,50.18,0,0,0,164,114c0-.42,0-1.5,0-2.59h2.8a.16.16,0,0,1,.16.16ZM133,142a2.69,2.69,0,1,1,2.77-2.69A2.73,2.73,0,0,1,133,142ZM80.71,131.71c0-28.87,6.69-49.37,19.87-60.95a41.73,41.73,0,0,1,54.34,0c13.18,11.58,19.87,32.08,19.87,60.95,0,2.67-4.22,5.42-9.82,7.76a25,25,0,0,0,4.13-11,4.89,4.89,0,0,0,2.76-4.37V111.56a5,5,0,0,0-5-4.91h-4.62a2.52,2.52,0,0,0-.56-.09c-21.11-1-53-8.73-62.33-14a2.51,2.51,0,0,0-2-.21,2.42,2.42,0,0,0-1.48,1.29A48.24,48.24,0,0,0,92,106.56H88.69a5,5,0,0,0-5,4.9v12.65a5,5,0,0,0,5,4.9h5.07a44.81,44.81,0,0,0,7.29,14c-9.87-2.67-20.34-7.08-20.34-11.29Zm47,25.14a31.26,31.26,0,0,0,13.18-2.93v4.17l-13.18,11-13.18-11v-4.16a31.3,31.3,0,0,0,13.18,2.93Zm-18.21,3.5a.17.17,0,0,1,.22,0l14.16,11.79-8.57,6.66a.17.17,0,0,1-.24,0L104.9,164.86l4.64-4.51ZM82.88,171.62l17.8-4.32,10.46,14.22a5.09,5.09,0,0,0,4.1,2.05,5.16,5.16,0,0,0,3.16-1.08l6.9-5.36V189.9a2.44,2.44,0,0,0,4.89,0V177.13l6.91,5.37a5.16,5.16,0,0,0,3.85,1,5.1,5.1,0,0,0,3.41-2l10.46-14.22,17.8,4.32a13.23,13.23,0,0,1,1.53.47l-9.4,11a12.3,12.3,0,0,0-3,8v6.62h-68V191a12.31,12.31,0,0,0-3-8l-9.4-11a13.23,13.23,0,0,1,1.53-.47ZM72.9,195V184a12.63,12.63,0,0,1,4.27-9.44L87,186.08a7.61,7.61,0,0,1,1.85,5v6.62H75.67A2.73,2.73,0,0,1,72.9,195Zm109.7,0a2.73,2.73,0,0,1-2.77,2.69H166.65V191a7.61,7.61,0,0,1,1.85-5l9.84-11.47A12.63,12.63,0,0,1,182.6,184Z"/></svg>