<svg id="Layer_1" data-name="Layer 1" xmlns="http://www.w3.org/2000/svg" viewBox="0 0 256 256"><defs><style>.cls-1{fill:#29aae1;}</style></defs><title>Artboard 1</title><path class="cls-1" d="M128,177.36a12.71,12.71,0,1,0,12.56,12.71A12.65,12.65,0,0,0,128,177.36Zm0,17.3a4.6,4.6,0,1,1,4.54-4.6A4.57,4.57,0,0,1,128,194.66Z"/><path class="cls-1" d="M247.72,220.61H196.24V162.37a21.3,21.3,0,0,0-13-19.71l-27.53-11.6a101.71,101.71,0,0,0,23.57-7.45,9.84,9.84,0,0,0,5.61-8.94c-.23-32-3.7-54.53-10.91-70.77C164.9,23.4,149.42,13,128,13S91.1,23.4,82,43.9c-7.21,16.24-10.67,38.73-10.91,70.77a9.84,9.84,0,0,0,5.61,8.94,101.76,101.76,0,0,0,23.58,7.45l-27.53,11.6a21.3,21.3,0,0,0-13,19.71v58.24H8.28A8.34,8.34,0,0,0,0,229v8.65A8.34,8.34,0,0,0,8.28,246H247.72a8.34,8.34,0,0,0,8.28-8.38V229A8.34,8.34,0,0,0,247.72,220.61Zm-86.55-78.48,19,8a13.21,13.21,0,0,1,8.06,12.23v58.24h-10A12.77,12.77,0,0,0,179,216v-51.9a12.65,12.65,0,0,0-12.56-12.71H152.86A105.09,105.09,0,0,0,161.17,142.13Zm-48.05-15.51v-2.45l5.6,3.15a18.82,18.82,0,0,0,18.57,0l5.6-3.15v2.45a11.67,11.67,0,0,0,7.12,10.8l3.44,1.45a91.37,91.37,0,0,1-12.65,12.53H115.21a91.31,91.31,0,0,1-12.65-12.53l3.44-1.45A11.67,11.67,0,0,0,113.12,126.63Zm-10.19-17.46a11.24,11.24,0,0,1-5.67-8.8l-2.7-30c10.22-1.19,37.47-5,54.28-13.3a29.48,29.48,0,0,0,12.67,12.32l-2.79,31a11.23,11.23,0,0,1-5.67,8.8l-19.68,11.06a10.93,10.93,0,0,1-10.79,0Zm63.55,50.35a4.57,4.57,0,0,1,4.54,4.6V216a4.57,4.57,0,0,1-4.54,4.6h-77A4.57,4.57,0,0,1,85,216v-51.9a4.57,4.57,0,0,1,4.54-4.6h77ZM80.1,116.25a1.7,1.7,0,0,1-1-1.53c.23-30.88,3.47-52.33,10.2-67.5,7.8-17.57,20.45-26.11,38.69-26.11s30.89,8.54,38.69,26.11c6.74,15.18,10,36.63,10.2,67.5a1.7,1.7,0,0,1-1,1.53,97,97,0,0,1-25,7.44v-4l6.06-3.41a19.34,19.34,0,0,0,9.76-15.16l3.05-34a4.06,4.06,0,0,0-2.72-4.21c-9.21-3.11-12.55-12.65-12.58-12.72a4,4,0,0,0-2.41-2.52,4,4,0,0,0-3.45.33C130.73,58.83,90.26,62.67,89.85,62.71a4,4,0,0,0-3.63,4.41l3.06,34A19.34,19.34,0,0,0,99,116.26l6.06,3.41v4A97,97,0,0,1,80.1,116.25ZM67.78,162.37a13.21,13.21,0,0,1,8.06-12.23l19-8a105.1,105.1,0,0,0,8.31,9.27H89.52A12.65,12.65,0,0,0,77,164.11V216a12.77,12.77,0,0,0,.85,4.6h-10ZM248,237.64a.27.27,0,0,1-.27.27H8.28a.27.27,0,0,1-.27-.27V229a.27.27,0,0,1,.27-.27H247.72a.27.27,0,0,1,.27.27v8.65Z"/></svg>