<?xml version="1.0" encoding="utf-8"?>
<!-- Generator: Adobe Illustrator 21.1.0, SVG Export Plug-In . SVG Version: 6.00 Build 0)  -->
<svg version="1.1" id="Layer_1" xmlns="http://www.w3.org/2000/svg" xmlns:xlink="http://www.w3.org/1999/xlink" x="0px" y="0px"
	 viewBox="0 0 256 256" style="enable-background:new 0 0 256 256;" xml:space="preserve">
<style type="text/css">
	.st0{fill:#FFFFFF;}
</style>
<title>Artboard 1</title>
<path class="st0" d="M218.8,42.5C173.3-9.3,94.3-14.5,42.5,31.1s-57,124.5-11.4,176.3c3.6,4.1,7.4,7.9,11.4,11.4
	c48.8,48.8,127.9,48.9,176.7,0.1c23.4-23.3,36.5-55,36.6-88c0.1-33.1-13.1-64.9-36.5-88.2L218.8,42.5z M208.9,208.9
	c-45.3,41-115.2,37.4-156.2-7.9C14.7,159,14.7,94.9,52.8,52.8C93.7,7.5,163.7,4,208.9,44.9s48.8,110.9,7.9,156.2
	C214.3,203.8,211.7,206.5,208.9,208.9z"/>
<path class="st0" d="M185.7,75.8c-2.7-2.8-7.2-2.8-9.9-0.1c0,0,0,0-0.1,0.1l0,0l-44.8,44.8L85.7,75.8C83,73,78.6,73,75.8,75.7
	c0,0,0,0-0.1,0.1l0,0c-2.8,2.7-2.8,7.2-0.1,9.9c0,0,0,0,0.1,0.1l0,0l45,45.1l-45,44.7c-4-0.1-7.3,3.1-7.3,7s3.1,7.3,7,7.3
	c2,0,3.9-0.7,5.3-2.2c1.9,0,3.7-0.7,5-2l45.1-45l45,45c1.3,1.3,3.1,2,5,2c1.9,0,3.7-0.7,5-2c2.8-2.7,2.8-7.2,0.1-9.9
	c0,0,0,0-0.1-0.1l0,0l-45.1-44.8l45-45c2.8-2.7,2.8-7.2,0.1-9.9c0,0,0,0-0.1-0.1l0,0V75.8z"/>
</svg>
