<?xml version="1.0" encoding="utf-8"?>
<!-- Generator: Adobe Illustrator 22.0.1, SVG Export Plug-In . SVG Version: 6.00 Build 0)  -->
<svg version="1.1" id="Layer_1" xmlns="http://www.w3.org/2000/svg" xmlns:xlink="http://www.w3.org/1999/xlink" x="0px" y="0px"
	 viewBox="0 0 256 256" style="enable-background:new 0 0 256 256;" xml:space="preserve">
<style type="text/css">
	.st0{fill:#455565;}
</style>
<title>icon-close</title>
<desc>Created with Sketch.</desc>
<g id="Icons-256">
	<g id="icon-close">
		<g id="Combined-Shape" transform="translate(88.000000, 88.000000)">
			<path class="st0" d="M12,41l-88,88c-8,8-8,21,0,29s21,8,29,0l88-88l88,88c8,8,21,8,29,0s8-21,0-29L70,41l88-88c8-8,8-21,0-29
				s-21-8-29,0L41,12l-88-88c-8-8-21-8-29,0s-8,21,0,29L12,41z"/>
		</g>
	</g>
</g>
</svg>
