<?xml version="1.0" encoding="utf-8"?>
<!-- Generator: Adobe Illustrator 22.0.1, SVG Export Plug-In . SVG Version: 6.00 Build 0)  -->
<svg version="1.1" xmlns="http://www.w3.org/2000/svg" xmlns:xlink="http://www.w3.org/1999/xlink" x="0px" y="0px"
	 viewBox="0 0 256 256" style="enable-background:new 0 0 256 256;" xml:space="preserve">
<style type="text/css">
	.st0{display:none;}
	.st1{display:inline;}
	.st2{fill:none;stroke:#99AABA;stroke-width:31.4286;}
	.st3{fill:#99AABA;}
	.st4{fill:#778DA4;}
	.st5{display:inline;fill:#778DA4;}
	.st6{fill:#FFFFFF;}
</style>
<g id="Unchecked_Circle" class="st0">
	<title>icon-checkbox-circle</title>
	<desc>Created with Sketch.</desc>
	<g id="Symbols" class="st1">
		<g id="icon-checkbox-circle">
			<g>
				<circle class="st2" cx="128" cy="128" r="110"/>
			</g>
		</g>
	</g>
</g>
<g id="Setting" class="st0">
	<g class="st1">
		<path class="st3" d="M128.1,5.8c-4.4,0-8,3.6-8,8v40.6c-18.3,3.6-31.8,19.9-31.8,39s13.5,35.4,31.8,39v112.2c0,4.4,3.6,8,8,8
			c4.4,0,8-3.6,8-8V132.3c18.3-3.6,31.8-19.9,31.8-39s-13.5-35.4-31.8-39V13.7C136,9.3,132.4,5.8,128.1,5.8z M151.9,93.3
			c0,13.1-10.7,23.9-23.9,23.9s-23.9-10.7-23.9-23.9s10.7-23.9,23.9-23.9S151.9,80.2,151.9,93.3z"/>
		<path class="st3" d="M223.6,126V13.7c0-4.4-3.6-8-8-8c-4.4,0-8,3.6-8,8V126c-18.3,3.6-31.8,19.9-31.8,39s13.5,35.4,31.8,39v40.6
			c0,4.4,3.6,8,8,8c4.4,0,8-3.6,8-8V204c18.3-3.6,31.8-19.9,31.8-39S241.9,129.5,223.6,126z M215.6,188.8
			c-13.1,0-23.9-10.7-23.9-23.9s10.7-23.9,23.9-23.9c13.1,0,23.9,10.7,23.9,23.9S228.8,188.8,215.6,188.8z"/>
		<path class="st3" d="M32.6,204v40.6c0,4.4,3.6,8,8,8s8-3.6,8-8V204c18.3-3.6,31.8-19.9,31.8-39s-13.5-35.4-31.8-39V13.7
			c0-4.4-3.6-8-8-8s-8,3.6-8,8V126c-18.3,3.6-31.8,19.9-31.8,39S14.2,200.4,32.6,204z M40.5,141.1c13.1,0,23.9,10.7,23.9,23.9
			s-10.7,23.9-23.9,23.9S16.6,178.1,16.6,165S27.4,141.1,40.5,141.1z"/>
	</g>
</g>
<g id="Launch" class="st0">
	<g class="st1">
		<path class="st3" d="M213.1,75.7c-2.2-2.5-6.2-2.8-8.7-0.6c-2.5,2.2-2.8,6.2-0.6,8.7l30,35h-91.6c-3.4,0-6.2,2.8-6.2,6.2
			c0,3.4,2.8,6.2,6.2,6.2h91.6l-30,35c-2.2,2.5-1.9,6.5,0.6,8.7c1.2,0.9,2.5,1.5,4,1.5c1.9,0,3.4-0.6,4.6-2.2l39-45.2
			c1.9-2.5,1.9-5.9,0-8L213.1,75.7z"/>
		<path class="st3" d="M98.9,220.9c39,0,74-23.5,88.8-59.4c1.2-3.1-0.3-6.8-3.4-8c-3.1-1.2-6.8,0.3-8,3.4
			c-13,31.3-43.3,51.7-77.4,51.7c-46.1,0-83.6-37.4-83.6-83.6s37.4-83.6,83.6-83.6c34,0,64.4,20.4,77.4,52c1.2,3.1,5,4.6,8,3.4
			c3.1-1.2,4.6-5,3.4-8C172.9,52.5,137.9,29,98.9,29C46,29,3,72,3,124.9S46,220.9,98.9,220.9z"/>
	</g>
</g>
<g id="Profile" class="st0">
	<g class="st1">
		<g>
			<path class="st3" d="M254.5,128C254.5,58.1,197.9,1.5,128,1.5S1.5,58.1,1.5,128S58.1,254.5,128,254.5S254.5,197.9,254.5,128z
				 M13.9,128C13.9,64.9,65.2,13.9,128,13.9s114.1,51,114.1,114.1c0,32-13.1,60.9-34.5,81.4c-16.5-28.3-46.6-45.7-79.9-45.7
				c-32.9,0-63.4,17.7-79.9,45.7C27,188.9,13.9,160,13.9,128z M57.8,217.8c14-25.5,41-41.6,70.2-41.6c29.5,0,56.3,15.9,70.2,41.6
				c-19.3,15.2-43.8,24.2-70.2,24.2C101.6,242.1,77,233.1,57.8,217.8z"/>
			<path class="st3" d="M128,147.6c27.4,0,49.7-22.4,49.7-49.7S155.4,48.1,128,48.1S78.3,70.5,78.3,97.9S100.6,147.6,128,147.6z
				 M128,60.6c20.5,0,37.3,16.8,37.3,37.3s-16.8,37.3-37.3,37.3s-37.3-16.8-37.3-37.3S107.5,60.6,128,60.6z"/>
		</g>
	</g>
</g>
<g id="Layer_5" class="st0">
	<g class="st1">
		<path class="st4" d="M155,180.7c19.7,0,35.7-16,35.7-35.7s-16-35.7-35.7-35.7s-35.7,16-35.7,35.7S135.3,180.7,155,180.7z
			 M131.4,169c6.3-8.2,14.7-12.7,23.6-12.7s17.2,4.5,23.6,12.7c-6.1,6-14.4,9.6-23.6,9.6S137.5,175,131.4,169z M155,111.3
			c18.6,0,33.7,15.1,33.7,33.7c0,8.7-3.3,16.6-8.7,22.6c-6.7-8.6-15.6-13.3-25-13.3s-18.3,4.7-25,13.3c-5.4-6-8.7-13.9-8.7-22.6
			C121.3,126.4,136.4,111.3,155,111.3z"/>
		<path class="st4" d="M155,147.3c7.3,0,13.2-5.9,13.2-13.2c0-7.3-5.9-13.2-13.2-13.2s-13.2,5.9-13.2,13.2
			C141.8,141.4,147.7,147.3,155,147.3z M155,122.9c6.2,0,11.2,5,11.2,11.2c0,6.2-5,11.2-11.2,11.2s-11.2-5-11.2-11.2
			C143.8,128,148.8,122.9,155,122.9z"/>
	</g>
</g>
<g id="Layer_6" class="st0">
	<path class="st5" d="M155,118c-8.8,0-16,7.2-16,16v3h-5c-2.8,0-5,2.2-5,5v14c0,2.8,2.2,5,5,5h6c0.6,0,1-0.4,1-1v-26
		c0-7.8,6.2-14,14-14s14,6.2,14,14v25.4l-10,4.6c-0.9-1.2-2.4-2-4-2c-2.7,0-5,2.3-5,5s2.3,5,5,5s5-2.3,5-5c0-0.4-0.1-0.8-0.2-1.2
		l10.4-4.8h5.8c2.8,0,5-2.2,5-5v-14c0-2.8-2.2-5-5-5h-5v-3C171,125.2,163.8,118,155,118z M134,139h5v20h-5c-1.7,0-3-1.3-3-3v-14
		C131,140.3,132.3,139,134,139z M171,139h5c1.7,0,3,1.3,3,3v14c0,1.7-1.3,3-3,3h-5V139z M155,164c1.7,0,3,1.3,3,3s-1.3,3-3,3
		s-3-1.3-3-3S153.3,164,155,164z"/>
</g>
<g id="Layer_7" class="st0">
	<g class="st1">
		<path class="st4" d="M155,114c-1.1,0-2,0.9-2,2v10.2c-4.6,0.9-8,5-8,9.8s3.4,8.9,8,9.8V174c0,1.1,0.9,2,2,2s2-0.9,2-2v-28.2
			c4.6-0.9,8-5,8-9.8s-3.4-8.9-8-9.8V116C157,114.9,156.1,114,155,114z M161,136c0,3.3-2.7,6-6,6s-6-2.7-6-6s2.7-6,6-6
			S161,132.7,161,136z"/>
		<path class="st4" d="M179,144.2V116c0-1.1-0.9-2-2-2s-2,0.9-2,2v28.2c-4.6,0.9-8,5-8,9.8s3.4,8.9,8,9.8V174c0,1.1,0.9,2,2,2
			s2-0.9,2-2v-10.2c4.6-0.9,8-5,8-9.8C187,149.2,183.6,145.1,179,144.2z M177,160c-3.3,0-6-2.7-6-6s2.7-6,6-6s6,2.7,6,6
			S180.3,160,177,160z"/>
		<path class="st4" d="M131,163.8V174c0,1.1,0.9,2,2,2s2-0.9,2-2v-10.2c4.6-0.9,8-5,8-9.8c0-4.8-3.4-8.9-8-9.8V116c0-1.1-0.9-2-2-2
			s-2,0.9-2,2v28.2c-4.6,0.9-8,5-8,9.8S126.4,162.9,131,163.8z M133,148c3.3,0,6,2.7,6,6s-2.7,6-6,6s-6-2.7-6-6S129.7,148,133,148z"
			/>
	</g>
</g>
<g id="Layer_8">
	<path class="st6" d="M201.4,94.2c-10.8-33.8-42.5-58.7-79.9-58.7C75.4,35.5,38,72.9,38,119c0,1.4,0,2.9,0.4,4.3
		c-20.2,1.8-36,19.1-36,39.6c0,22,18,39.6,39.6,39.6h78.5v-51.8L110,161.5c-3.2,3.2-8.3,3.2-11.5,0c-3.2-3.2-3.2-8.3,0-11.5
		l24.5-24.5l0,0c1.1-1.1,2.5-1.8,4-2.2l0,0c0.4,0,1.1,0,1.8,0l0,0l0,0c0.7,0,1.1,0,1.8,0l0,0c1.4,0.4,2.9,1.1,4,2.2l0,0l24.5,24.5
		c3.2,3.2,3.2,8.3,0,11.5c-3.2,3.2-8.3,3.2-11.5,0L137,150.7v52.2h54.7c1.4,0,2.9,0,4.3-0.4c1.4,0,3.2,0.4,4.7,0.4
		c29.9,0,54.3-24.5,54.3-54.3S230.9,94.5,201.4,94.2z"/>
</g>
</svg>
