<?xml version="1.0" encoding="utf-8"?>
<!-- Generator: Adobe Illustrator 21.1.0, SVG Export Plug-In . SVG Version: 6.00 Build 0)  -->
<svg version="1.1" id="Layer_1" xmlns="http://www.w3.org/2000/svg" xmlns:xlink="http://www.w3.org/1999/xlink" x="0px" y="0px"
	 viewBox="0 0 256 256" style="enable-background:new 0 0 256 256;" xml:space="preserve">
<style type="text/css">
	.st0{fill:#838383;}
</style>
<title>Artboard 1</title>
<path class="st0" d="M224-1H32C14.7-1.4,0.4,12.3,0,29.5c0,0.2,0,0.4,0,0.6v125.6C0.1,173.1,14.1,187,31.4,187c0.2,0,0.4,0,0.6,0
	h105.6v60.5c0,4.2,3.4,7.6,7.6,7.6l0,0c2.2,0,4.3-1,5.8-2.7l57.1-65.5h16c17.3,0.4,31.6-13.2,32-30.5c0-0.2,0-0.4,0-0.5V30.2
	C255.9,12.9,241.9-1.1,224.6-1C224.4-1,224.2-1,224-1z M240,155.8c-0.1,8.8-7.2,15.9-16,15.9h-19.4c-2.4-0.1-4.6,0.9-6.2,2.7
	l-45.9,52.7v-47.7c0-4.2-3.4-7.6-7.6-7.6c0,0-0.1,0-0.1,0H32c-8.8,0-15.9-7.1-16-15.9V30.2c0-8.8,7.2-16,16-16l0,0h192
	c8.8,0,15.9,7.1,16,15.9V155.8z"/>
<path class="st0" d="M213.3,49.1H42.7c-4.2-0.1-7.6,3.3-7.7,7.5c0,0,0,0.1,0,0.1l0,0c0,4.2,3.4,7.6,7.6,7.6c0,0,0.1,0,0.1,0h170.7
	c4.2,0.1,7.6-3.3,7.7-7.5c0,0,0-0.1,0-0.1l0,0c0-4.2-3.4-7.6-7.6-7.6C213.4,49.1,213.4,49.1,213.3,49.1z M213.3,85.4H42.7
	c-4.2-0.1-7.6,3.3-7.7,7.5c0,0,0,0.1,0,0.1l0,0c0,4.2,3.4,7.6,7.6,7.6c0,0,0.1,0,0.1,0h170.7c4.2,0.1,7.6-3.3,7.7-7.5
	c0,0,0-0.1,0-0.1l0,0c0-4.2-3.4-7.6-7.6-7.6C213.4,85.4,213.4,85.4,213.3,85.4z M123.2,121.7H42.7c-4.2-0.1-7.6,3.3-7.7,7.5
	c0,0,0,0.1,0,0.1l0,0c0,4.2,3.4,7.6,7.6,7.6c0,0,0.1,0,0.1,0h81.1c4.2,0.1,7.6-3.3,7.7-7.5c0,0,0-0.1,0-0.1l0,0
	c0-4.2-3.4-7.6-7.6-7.6c0,0-0.1,0-0.1,0H123.2z"/>
</svg>
