<?xml version="1.0" encoding="utf-8"?>
<!-- Generator: Adobe Illustrator 21.1.0, SVG Export Plug-In . SVG Version: 6.00 Build 0)  -->
<svg version="1.1" id="Layer_1" xmlns="http://www.w3.org/2000/svg" xmlns:xlink="http://www.w3.org/1999/xlink" x="0px" y="0px"
	 viewBox="0 0 256 256" style="enable-background:new 0 0 256 256;" xml:space="preserve">
<style type="text/css">
	.st0{fill:#838383;}
</style>
<title>Artboard 1</title>
<path class="st0" d="M56.6,153.5c-4,0-7.2,3.2-7.2,7.2l0,0v12.6c0,4.1,3.4,7.5,7.5,7.5s7.5-3.4,7.5-7.5v-12.6c0-4-3.2-7.2-7.2-7.2
	C57,153.5,56.8,153.5,56.6,153.5z M85.7,153.5c-4,0-7.2,3.2-7.2,7.2l0,0v12.6c0,4.1,3.4,7.5,7.5,7.5s7.5-3.4,7.5-7.5v-12.6
	c0-4-3.2-7.2-7.2-7.2C86.1,153.5,85.9,153.5,85.7,153.5z M107.5,160.7v12.6c0,4.1,3.4,7.5,7.5,7.5c4.1,0,7.5-3.4,7.5-7.5v-12.6
	c0-4.1-3.4-7.5-7.5-7.5C110.9,153.2,107.5,156.6,107.5,160.7z M141,153.5c-4,0-7.2,3.2-7.2,7.2l0,0v12.6c0,4.1,3.4,7.5,7.5,7.5
	s7.5-3.4,7.5-7.5v-12.6c0-4-3.2-7.2-7.2-7.2H141z M170,153.5c-4,0-7.2,3.2-7.2,7.2l0,0v12.6c0,4.1,3.4,7.5,7.5,7.5s7.5-3.4,7.5-7.5
	v-12.6c0-4-3.2-7.2-7.2-7.2H170z M199.1,153.5c-4,0-7.2,3.2-7.2,7.2l0,0v12.6c0,4.1,3.4,7.5,7.5,7.5c4.1,0,7.5-3.4,7.5-7.5v-12.6
	c0-4-3.2-7.2-7.2-7.2H199.1z M56.6,113.3c-4,0-7.2,3.2-7.2,7.2l0,0l0,0v12.6c0,4.1,3.4,7.5,7.5,7.5s7.5-3.4,7.5-7.5l0,0v-12.8
	c-0.1-4-3.4-7.2-7.3-7.1C56.9,113.2,56.7,113.3,56.6,113.3z M85.7,113.3c-4,0-7.2,3.2-7.2,7.2l0,0l0,0v12.6c0,4.1,3.4,7.5,7.5,7.5
	s7.5-3.4,7.5-7.5l0,0v-12.8c-0.1-4-3.4-7.2-7.3-7.1C86,113.2,85.9,113.3,85.7,113.3z M114.7,113.3c-4,0-7.2,3.2-7.2,7.2l0,0l0,0
	v12.6c0,4.1,3.4,7.5,7.5,7.5c4.1,0,7.5-3.4,7.5-7.5l0,0v-12.8c-0.1-4-3.4-7.2-7.3-7.1C115,113.2,114.9,113.3,114.7,113.3z
	 M141,113.3c-4,0-7.2,3.2-7.2,7.2l0,0v12.6c0,4.1,3.4,7.5,7.5,7.5s7.5-3.4,7.5-7.5l0,0v-12.8c-0.1-4-3.4-7.2-7.3-7.1
	C141.3,113.2,141.2,113.3,141,113.3z M170,113.3c-4,0-7.2,3.2-7.2,7.2l0,0v12.6c0,4.1,3.4,7.5,7.5,7.5s7.5-3.4,7.5-7.5l0,0v-12.8
	c-0.1-4-3.4-7.2-7.3-7.1C170.3,113.2,170.1,113.3,170,113.3z M199.1,113.3c-4,0-7.2,3.2-7.2,7.2l0,0v12.6c0,4.1,3.4,7.5,7.5,7.5
	c4.1,0,7.5-3.4,7.5-7.5l0,0v-12.8c-0.1-4-3.4-7.2-7.3-7.1C199.4,113.2,199.3,113.3,199.1,113.3z M98.8,39.1c-4,0-7.2,3.2-7.2,7.2
	l0,0v12.6c0,4.1,3.4,7.5,7.5,7.5c4.1,0,7.5-3.4,7.5-7.5V46.3c0-4-3.2-7.2-7.2-7.2l0,0H98.8z M127.9,39.1c-4,0-7.2,3.2-7.2,7.2v12.6
	c0,4.1,3.4,7.5,7.5,7.5s7.5-3.4,7.5-7.5V46.3c0-4-3.2-7.2-7.2-7.2H127.9z M156.9,39.1c-4,0-7.2,3.2-7.2,7.2v12.6
	c0,4.1,3.4,7.5,7.5,7.5c4.1,0,7.5-3.4,7.5-7.5V46.3c0-4-3.2-7.2-7.2-7.2H156.9z"/>
<path class="st0" d="M247.9,77.8H194V15.5c0.1-4-3.1-7.3-7.1-7.4c-0.1,0-0.1,0-0.2,0H68.9c-4,0-7.2,3.2-7.2,7.2l0,0l0,0v62.5H7.8
	c-4.1,0-7.5,3.4-7.5,7.5c0,4.1,3.4,7.5,7.5,7.5h7.5v148c0,4,3.2,7.2,7.2,7.2h211.3c4,0,7.2-3.2,7.2-7.2l0,0l0,0V92.4h6.8
	c4.1,0,7.5-3.4,7.5-7.5c0-4.1-3.4-7.5-7.5-7.5L247.9,77.8z M163.7,233.4h-27.9c0-0.3,0-0.6,0-0.9v-11.1h28.5L163.7,233.4z
	 M120.7,233.4H92v-12h28.7v11C120.7,232.7,120.7,233.1,120.7,233.4z M178.2,233.4v-19.2c0-4-3.2-7.2-7.2-7.2H84.8
	c-4,0-7.2,3.2-7.2,7.2l0,0v19.2H29.2v-141h196.6v141H178.2z M75.7,23.1H179v54.7H75.7V23.1z"/>
</svg>
