<?xml version="1.0" encoding="utf-8"?>
<!-- Generator: Adobe Illustrator 21.1.0, SVG Export Plug-In . SVG Version: 6.00 Build 0)  -->
<svg version="1.1" id="Layer_1" xmlns="http://www.w3.org/2000/svg" xmlns:xlink="http://www.w3.org/1999/xlink" x="0px" y="0px"
	 viewBox="0 0 256 256" style="enable-background:new 0 0 256 256;" xml:space="preserve">
<style type="text/css">
	.st0{fill:#FFFFFF;}
</style>
<title>Artboard 1</title>
<path class="st0" d="M57.3,153.3c-3.9,0-7.1,3.2-7.1,7.1l0,0V173c0,4.1,3.3,7.4,7.4,7.4s7.4-3.3,7.4-7.4v-12.5
	c0-3.9-3.2-7.2-7.1-7.2C57.7,153.3,57.5,153.3,57.3,153.3z M86.2,153.3c-3.9,0-7.1,3.2-7.1,7.1l0,0V173c0,4.1,3.3,7.4,7.4,7.4
	c4.1,0,7.4-3.3,7.4-7.4v-12.5c0-3.9-3.2-7.2-7.1-7.2C86.6,153.3,86.4,153.3,86.2,153.3z M107.8,160.5V173c0,4.1,3.3,7.4,7.4,7.4
	c4.1,0,7.4-3.3,7.4-7.4v-12.5c0-4.1-3.3-7.4-7.4-7.4C111.1,153,107.8,156.3,107.8,160.5z M141,153.3c-3.9,0-7.1,3.2-7.1,7.1l0,0V173
	c0,4.1,3.3,7.4,7.4,7.4s7.4-3.3,7.4-7.4v-12.5c0-3.9-3.2-7.1-7.1-7.1H141z M169.8,153.3c-3.9,0-7.1,3.2-7.1,7.1l0,0V173
	c0,4.1,3.3,7.4,7.4,7.4s7.4-3.3,7.4-7.4v-12.5c0-3.9-3.2-7.1-7.1-7.1H169.8z M198.7,153.3c-3.9,0-7.1,3.2-7.1,7.1l0,0V173
	c0,4.1,3.3,7.4,7.4,7.4c4.1,0,7.4-3.3,7.4-7.4v-12.5c0-3.9-3.2-7.1-7.1-7.1H198.7z M57.3,113.4c-3.9,0-7.1,3.2-7.1,7.1l0,0l0,0v12.5
	c0,4.1,3.3,7.4,7.4,7.4s7.4-3.3,7.4-7.4l0,0v-12.7c-0.1-3.9-3.3-7.1-7.3-7C57.6,113.4,57.5,113.4,57.3,113.4z M86.2,113.4
	c-3.9,0-7.1,3.2-7.1,7.1l0,0l0,0v12.5c0,4.1,3.3,7.4,7.4,7.4c4.1,0,7.4-3.3,7.4-7.4l0,0v-12.7c-0.1-3.9-3.3-7.1-7.3-7
	C86.5,113.4,86.4,113.4,86.2,113.4z M114.9,113.4c-3.9,0-7.1,3.2-7.1,7.1l0,0l0,0v12.5c0,4.1,3.3,7.4,7.4,7.4c4.1,0,7.4-3.3,7.4-7.4
	l0,0v-12.7c-0.1-3.9-3.3-7.1-7.3-7C115.3,113.4,115.1,113.4,114.9,113.4z M141,113.4c-3.9,0-7.1,3.2-7.1,7.1l0,0v12.5
	c0,4.1,3.3,7.4,7.4,7.4s7.4-3.3,7.4-7.4l0,0v-12.7c-0.1-3.9-3.3-7.1-7.3-7C141.3,113.4,141.2,113.4,141,113.4z M169.8,113.4
	c-3.9,0-7.1,3.2-7.1,7.1l0,0v12.5c0,4.1,3.3,7.4,7.4,7.4s7.4-3.3,7.4-7.4l0,0v-12.7c-0.1-3.9-3.3-7.1-7.3-7
	C170.1,113.4,169.9,113.4,169.8,113.4z M198.7,113.4c-3.9,0-7.1,3.2-7.1,7.1l0,0v12.5c0,4.1,3.3,7.4,7.4,7.4c4.1,0,7.4-3.3,7.4-7.4
	l0,0v-12.7c-0.1-3.9-3.3-7.1-7.3-7C199,113.4,198.8,113.4,198.7,113.4z M99.2,39.8C95.2,39.8,92,43,92,47l0,0v12.5
	c0,4.1,3.3,7.4,7.4,7.4c4.1,0,7.4-3.3,7.4-7.4V47c0-3.9-3.2-7.1-7.1-7.1l0,0H99.2z M128.1,39.8c-3.9,0-7.1,3.2-7.1,7.1v12.5
	c0,4.1,3.3,7.4,7.4,7.4s7.4-3.3,7.4-7.4V47c0-3.9-3.2-7.1-7.1-7.1H128.1z M156.8,39.8c-3.9,0-7.1,3.2-7.1,7.1v12.5
	c0,4.1,3.3,7.4,7.4,7.4c4.1,0,7.4-3.3,7.4-7.4V47c0-3.9-3.2-7.1-7.1-7.1H156.8z"/>
<path class="st0" d="M247.1,78.2h-53.5V16.4c0.1-3.9-3.1-7.2-7-7.3c-0.1,0-0.1,0-0.2,0H69.5c-3.9,0-7.1,3.2-7.1,7.1l0,0l0,0v62H8.9
	c-4.1,0-7.4,3.3-7.4,7.4c0,4.1,3.3,7.4,7.4,7.4h7.4v146.7c0,3.9,3.2,7.1,7.1,7.1h209.6c3.9,0,7.1-3.2,7.1-7.1l0,0l0,0V92.7h6.7
	c4.1,0,7.4-3.3,7.4-7.4c0-4.1-3.3-7.4-7.4-7.4L247.1,78.2z M163.5,232.6h-27.7c0-0.3,0-0.6,0-0.9v-11h28.3L163.5,232.6z
	 M120.9,232.6H92.5v-11.9h28.5v10.9C120.9,231.9,120.9,232.2,120.9,232.6z M178,232.6v-19.1c0-3.9-3.2-7.1-7.1-7.1H85.3
	c-3.9,0-7.1,3.2-7.1,7.1l0,0v19.1h-48V92.7h195v139.9H178z M76.2,24h102.5v54.2H76.2V24z"/>
</svg>
