<svg id="Layer_1" data-name="Layer 1"
  xmlns="http://www.w3.org/2000/svg" viewBox="0 0 137.75 129.91">
  <defs>
    <style>
      .cls-1, .cls-4 {
        fill: #eff6f9;
      }

      .cls-2 {
        fill: #fff;
      }

      .cls-10, .cls-11, .cls-12, .cls-13, .cls-14, .cls-17, .cls-3, .cls-5, .cls-7, .cls-8, .cls-9 {
        fill: none;
      }

      .cls-13, .cls-3, .cls-5 {
        stroke: #3d9cd1;
      }

      .cls-17, .cls-3, .cls-4, .cls-7 {
        stroke-miterlimit: 10;
      }

      .cls-3 {
        stroke-width: 0.55px;
      }

      .cls-4, .cls-8 {
        stroke: #009cf6;
      }

      .cls-13, .cls-14, .cls-17, .cls-4, .cls-5 {
        stroke-width: 0.57px;
      }

      .cls-10, .cls-11, .cls-12, .cls-13, .cls-14, .cls-5, .cls-7, .cls-8, .cls-9 {
        stroke-linecap: round;
      }

      .cls-10, .cls-11, .cls-12, .cls-13, .cls-14, .cls-5, .cls-8, .cls-9 {
        stroke-linejoin: round;
      }

      .cls-5 {
        stroke-dasharray: 4.45 2.23;
      }

      .cls-6 {
        fill: #d7ecfa;
      }

      .cls-7 {
        stroke: #1a5784;
        stroke-width: 0.51px;
        stroke-dasharray: 0 1.02;
      }

      .cls-8 {
        stroke-width: 1.13px;
      }

      .cls-14, .cls-9 {
        stroke: #a8d2ef;
      }

      .cls-9 {
        stroke-width: 0.5px;
      }

      .cls-10, .cls-11, .cls-12 {
        stroke: #d7ecfa;
      }

      .cls-10 {
        stroke-width: 0.41px;
      }

      .cls-11 {
        stroke-width: 0.2px;
      }

      .cls-12 {
        stroke-width: 0.2px;
      }

      .cls-15 {
        fill: #3d9cd1;
      }

      .cls-16 {
        fill: #009cf6;
      }

      .cls-17 {
        stroke: #fff;
      }
    </style>
  </defs>
  <title>Add Strategy</title>
  <g>
    <rect class="cls-1" x="36.04" y="28.92" width="66.82" height="81.04" rx="2.06" ry="2.06"/>
    <g>
      <rect class="cls-2" x="33.53" y="26.12" width="65.1" height="80.1" rx="2.02" ry="2.02"/>
      <rect class="cls-3" x="33.53" y="26.12" width="65.1" height="80.1" rx="2.02" ry="2.02"/>
    </g>
    <circle class="cls-4" cx="66.08" cy="66.74" r="23.98"/>
    <g>
      <circle class="cls-2" cx="66.08" cy="66.74" r="15.95"/>
      <circle class="cls-5" cx="66.08" cy="66.74" r="15.95"/>
    </g>
    <g>
      <circle class="cls-6" cx="66.08" cy="66.74" r="7.31"/>
      <circle class="cls-7" cx="66.08" cy="66.74" r="7.31"/>
    </g>
    <g>
      <polyline class="cls-8" points="100.98 92.78 100.99 94.69 100.99 96.61"/>
      <polyline class="cls-8" points="101 99.5 101.01 101.41 101.01 103.32"/>
      <polyline class="cls-8" points="95.73 98.07 97.64 98.06 99.55 98.06"/>
      <polyline class="cls-8" points="102.44 98.05 104.35 98.04 106.27 98.03"/>
    </g>
    <g>
      <polyline class="cls-9" points="107.74 87.43 107.74 88.2 107.75 88.97"/>
      <polyline class="cls-9" points="107.75 90.14 107.75 90.91 107.75 91.68"/>
      <polyline class="cls-9" points="105.62 89.56 106.39 89.56 107.17 89.55"/>
      <polyline class="cls-9" points="108.33 89.55 109.1 89.55 109.88 89.55"/>
    </g>
    <g>
      <polyline class="cls-10" points="94.34 82.31 94.34 82.94 94.34 83.57"/>
      <polyline class="cls-10" points="94.34 84.52 94.35 85.15 94.35 85.78"/>
      <polyline class="cls-10" points="92.6 84.05 93.23 84.05 93.86 84.05"/>
      <polyline class="cls-10" points="94.82 84.04 95.45 84.04 96.08 84.04"/>
    </g>
    <g>
      <polyline class="cls-10" points="59.55 73.55 59.56 74.18 59.56 74.81"/>
      <polyline class="cls-10" points="59.56 75.76 59.56 76.4 59.57 77.03"/>
      <polyline class="cls-10" points="57.82 75.29 58.45 75.29 59.08 75.29"/>
      <polyline class="cls-10" points="60.04 75.28 60.67 75.28 61.3 75.28"/>
    </g>
    <g>
      <polyline class="cls-11" points="71.58 58.73 71.58 59.04 71.58 59.34"/>
      <polyline class="cls-11" points="71.58 59.81 71.58 60.11 71.58 60.42"/>
      <polyline class="cls-11" points="70.74 59.58 71.04 59.58 71.35 59.58"/>
      <polyline class="cls-11" points="71.81 59.57 72.11 59.57 72.42 59.57"/>
    </g>
    <g>
      <polyline class="cls-12" points="57.82 71.59 57.82 71.9 57.82 72.21"/>
      <polyline class="cls-12" points="57.82 72.67 57.82 72.98 57.82 73.3"/>
      <polyline class="cls-12" points="56.97 72.44 57.27 72.44 57.59 72.44"/>
      <polyline class="cls-12" points="58.05 72.44 58.36 72.44 58.67 72.44"/>
    </g>
    <g>
      <polyline class="cls-13" points="38.98 46.48 38.98 47.12 38.98 47.75"/>
      <polyline class="cls-13" points="38.99 48.7 38.99 49.33 38.99 49.96"/>
      <polyline class="cls-13" points="37.25 48.23 37.88 48.23 38.51 48.23"/>
      <polyline class="cls-13" points="39.46 48.22 40.09 48.22 40.73 48.22"/>
    </g>
    <g>
      <polyline class="cls-8" points="36.85 41.16 36.85 39.25 36.84 37.33"/>
      <polyline class="cls-8" points="36.83 34.45 36.82 32.53 36.82 30.62"/>
      <polyline class="cls-8" points="42.1 35.87 40.19 35.88 38.28 35.89"/>
      <polyline class="cls-8" points="35.39 35.9 33.48 35.9 31.57 35.91"/>
    </g>
    <g>
      <polyline class="cls-14" points="29.59 45.4 29.58 44.63 29.58 43.86"/>
      <polyline class="cls-14" points="29.58 42.69 29.57 41.92 29.57 41.15"/>
      <polyline class="cls-14" points="31.71 43.27 30.93 43.27 30.16 43.27"/>
      <polyline class="cls-14" points="29 43.28 28.23 43.28 27.45 43.28"/>
    </g>
    <path class="cls-15" d="M103.86,48.22,65.9,66a1,1,0,0,0,.81,1.73l38-17.78Z"/>
    <polygon class="cls-16" points="104.9 48.77 94.09 54.05 97.33 46.92 106.69 42.35 104.9 48.77"/>
    <polygon class="cls-16" points="104.9 48.77 94.09 54.05 101.7 55.87 111.06 51.29 104.9 48.77"/>
    <polyline class="cls-17" points="96.3 54.87 93.77 54.22 95.04 51.22"/>
  </g>
</svg>
