<svg id="Layer_1" data-name="Layer 1" xmlns="http://www.w3.org/2000/svg" viewBox="0 0 137.75 129.91">
  <defs>
    <style>
      .tl-cls-1 {
        fill: #eff6f9;
      }

      .tl-cls-2, .tl-cls-3 {
        fill: #fff;
        stroke-miterlimit: 10;
      }

      .tl-cls-2 {
        stroke: #3d9cd1;
        stroke-width: 1.07px;
      }

      .tl-cls-3 {
        stroke: #a8d2ef;
      }

      .tl-cls-4, .tl-cls-5 {
        fill: none;
        stroke: #009cf6;
        stroke-linecap: round;
        stroke-linejoin: round;
      }

      .tl-cls-4 {
        stroke-width: 4.35px;
      }

      .tl-cls-5 {
        stroke-width: 0.75px;
        stroke-dasharray: 5 4;
      }

      .tl-cls-6 {
        fill: #d7ecfa;
      }
    </style>
  </defs>
  <title>Add Target List</title>
  <g>
    <path class="tl-cls-1" d="M125.64,54.57l-19.9-5.18L85.85,44.2a9.38,9.38,0,0,0-6.55.61,7.21,7.21,0,0,0-3.84,4.59l-3.91,15-3.91,15a7.18,7.18,0,0,0,1.11,5.89A9.32,9.32,0,0,0,74.16,89l10.63,2.77,10.62,2.77L96,96.27,96.56,98l1,3,1,3,2.36-2.13,2.36-2.13,1.33-1.19L106,97.34l4,1,4,1a9.35,9.35,0,0,0,6.54-.61,7.2,7.2,0,0,0,3.85-4.59l3.91-15,3.91-15a7.16,7.16,0,0,0-1.11-5.88A9.38,9.38,0,0,0,125.64,54.57Z"/>
    <path class="tl-cls-1" d="M74.86,34,49.15,35.79,23.44,37.62A11.72,11.72,0,0,0,15.92,41a9,9,0,0,0-2.72,7l1.38,19.4L16,86.77a9,9,0,0,0,3.68,6.54,11.79,11.79,0,0,0,7.93,2.26l13.73-1,13.73-1,1.36,1.77,1.36,1.78,2.42,3.16,2.42,3.16,2-3.47,2-3.47,1.1-2,1.09-1.95,5.15-.37L79,91.91a11.72,11.72,0,0,0,7.52-3.35,9,9,0,0,0,2.72-7l-1.38-19.4-1.37-19.4a9,9,0,0,0-3.68-6.54A11.79,11.79,0,0,0,74.86,34Z"/>
    <path class="tl-cls-2" d="M70,30,44.29,31.79,18.58,33.62A11.7,11.7,0,0,0,11.06,37a9,9,0,0,0-2.72,7l1.37,19.4,1.38,19.4a9,9,0,0,0,3.68,6.54,11.79,11.79,0,0,0,7.93,2.26l13.73-1,13.73-1,1.36,1.77,1.36,1.78,2.42,3.16,2.42,3.16,2-3.47,1.95-3.47,1.09-2,1.1-1.95L69,88.28l5.16-.37a11.72,11.72,0,0,0,7.52-3.35,9,9,0,0,0,2.72-7L83,58.16l-1.37-19.4a9,9,0,0,0-3.69-6.54A11.76,11.76,0,0,0,70,30Z"/>
    <path class="tl-cls-3" d="M121.64,50.68l-19.9-5.19L81.85,40.31a9.38,9.38,0,0,0-6.55.61,7.19,7.19,0,0,0-3.84,4.59l-3.91,15-3.91,15a7.16,7.16,0,0,0,1.11,5.88,9.38,9.38,0,0,0,5.41,3.73l10.63,2.77,10.62,2.77L92,92.38l.57,1.69,1,3,1,3L97,98l2.36-2.13,1.33-1.19,1.33-1.2,4,1,4,1a9.35,9.35,0,0,0,6.54-.61,7.23,7.23,0,0,0,3.85-4.59l3.91-15,3.91-15a7.18,7.18,0,0,0-1.11-5.89A9.32,9.32,0,0,0,121.64,50.68Z"/>
    <polyline class="tl-cls-4" points="86.67 61.4 87.63 67.66 88.59 73.92 100.29 69.52 111.98 65.13"/>
    <path class="tl-cls-5" d="M28.71,45.66s13.56-9.61,16-3.26S24.93,77.07,32.48,80.68s20.77-37,27.13-33.19-11.73,25.82-4,28S68.78,53.66,80,67.66"/>
    <circle class="tl-cls-6" cx="22.18" cy="49.83" r="4.25"/>
  </g>
</svg>
