<?xml version="1.0" encoding="utf-8"?>
<!-- Generator: Adobe Illustrator 21.1.0, SVG Export Plug-In . SVG Version: 6.00 Build 0)  -->
<svg version="1.1" id="Layer_1" xmlns="http://www.w3.org/2000/svg" xmlns:xlink="http://www.w3.org/1999/xlink" x="0px" y="0px"
	 viewBox="0 0 256 256" style="enable-background:new 0 0 256 256;" xml:space="preserve">
<style type="text/css">
	.st0{fill:#838383;}
</style>
<title>Artboard 1</title>
<path class="st0" d="M255.8,11.8c-1.3-2.8-4-4.6-7.1-4.5H8.2C4.9,7,1.8,8.8,0.5,11.8c-1,2.9-0.3,6.1,1.8,8.3l92.4,114.4v105.7
	c0,2.7,1.3,5.3,3.6,6.8c2.3,1.3,5.2,1.3,7.5,0l51.9-26.3c2.7-1.3,4.4-4.1,4.4-7.1v-79.1l92.5-114.4C256.6,17.7,257,14.5,255.8,11.8z
	 M148.6,127.3c-1.2,1.4-1.8,3.2-1.8,5v76.5l-36.5,18.4v-95.6c-0.1-1.6-0.8-3.1-1.8-4.4L24.6,23.1h207.7L148.6,127.3z"/>
</svg>
