<svg id="Layer_1" data-name="Layer 1" xmlns="http://www.w3.org/2000/svg" viewBox="0 0 256 256"><defs><style>.cls-1{fill:#fff;}</style></defs><title>Artboard 1</title><path class="cls-1" d="M255.8,11.8a7.54,7.54,0,0,0-7.1-4.5H8.2A7.6,7.6,0,0,0,.5,11.8a8.16,8.16,0,0,0,1.8,8.3L94.7,134.5V240.2a8.09,8.09,0,0,0,3.6,6.8,7.7,7.7,0,0,0,7.5,0l51.9-26.3a7.89,7.89,0,0,0,4.4-7.1V134.5L254.6,20.1A7.9,7.9,0,0,0,255.8,11.8ZM148.6,127.3a7.68,7.68,0,0,0-1.8,5v76.5l-36.5,18.4V131.6a8.14,8.14,0,0,0-1.8-4.4L24.6,23.1H232.3Z"/></svg>