<svg id="Capa_1" data-name="Capa 1" xmlns="http://www.w3.org/2000/svg" viewBox="0 0 256 256"><defs><style>.cls-1{fill:#fff;}</style></defs><title>Artboard 1</title><path class="cls-1" d="M53.33,102.4H160a4.27,4.27,0,1,0,0-8.53H53.33a4.27,4.27,0,0,0,0,8.53Z"/><path class="cls-1" d="M53.33,68.27H96a4.27,4.27,0,1,0,0-8.53H53.33a4.27,4.27,0,0,0,0,8.53Z"/><path class="cls-1" d="M53.33,136.53H160a4.27,4.27,0,1,0,0-8.53H53.33a4.27,4.27,0,1,0,0,8.53Z"/><path class="cls-1" d="M125.87,162.13H53.33a4.27,4.27,0,0,0,0,8.53h72.53a4.27,4.27,0,0,0,0-8.53Z"/><path class="cls-1" d="M113.07,196.27H53.33a4.27,4.27,0,1,0,0,8.53h59.73a4.27,4.27,0,0,0,0-8.53Z"/><path class="cls-1" d="M206.93,146.62V62.23L144.7,0H6.4V256H194.13a55.44,55.44,0,0,0,12.8-109.38Zm-59.73-132,45.17,45.17H147.2Zm17.4,232.9H14.93V8.53H138.67V68.27H198.4v77c-1.46-.12-2.88-.19-4.27-.19a55.53,55.53,0,0,0-55.47,55.47c0,1.7.11,3.38.26,5,0,.39.07.77.12,1.16.18,1.63.42,3.24.74,4.83,0,.19.09.37.13.56.31,1.44.68,2.86,1.1,4.26.11.35.2.7.32,1q.72,2.25,1.62,4.42c.12.27.24.54.36.81q.83,1.89,1.79,3.71c.15.29.3.58.46.87q1.12,2,2.41,4c.2.29.4.58.6.87q1.17,1.69,2.46,3.29c.16.2.32.41.48.61,1,1.19,2,2.32,3.11,3.42l.81.79c1,1,2.12,2,3.24,2.94l.29.26c1.2,1,2.46,1.92,3.75,2.81l.94.64Zm29.53,0a46.93,46.93,0,0,1,0-93.87c1.33,0,2.65.09,4,.2s2.53.28,3.88.51l1.89.32a46.93,46.93,0,0,1-9.72,92.84Z"/><path class="cls-1" d="M219.73,196.27h-51.2a4.27,4.27,0,0,0,0,8.53h51.2a4.27,4.27,0,1,0,0-8.53Z"/></svg>