<?xml version="1.0" encoding="utf-8"?>
<!-- Generator: Adobe Illustrator 21.1.0, SVG Export Plug-In . SVG Version: 6.00 Build 0)  -->
<svg version="1.1" id="Layer_1" xmlns="http://www.w3.org/2000/svg" xmlns:xlink="http://www.w3.org/1999/xlink" x="0px" y="0px"
	 viewBox="0 0 256 256" style="enable-background:new 0 0 256 256;" xml:space="preserve">
<style type="text/css">
	.st0{fill:#838383;}
	.st1{fill:none;stroke:#838383;stroke-width:10;}
</style>
<title>Artboard 1</title>
<path class="st0" d="M184.7,81.4h-105c-9.3-0.1-16.9,7.4-17,16.7v70.6c0.1,9.3,7.7,16.8,17,16.7h105c9.2-0.1,16.7-7.5,16.8-16.7
	V98.1C201.4,88.9,193.9,81.4,184.7,81.4z M193.9,168.7c-0.1,5-4.2,9.1-9.2,9l0,0h-105c-5,0.1-9.2-4-9.2-9l0,0V98.1
	c0.1-5,4.2-9.1,9.2-9l0,0h105c5-0.1,9.2,4,9.2,9l0,0V168.7z"/>
<path class="st0" d="M150.4,132.5l33.9-29.9c1.5-1.5,1.5-3.9,0-5.3l0,0l0,0c-1.5-1.4-3.9-1.4-5.5,0L132,138.6l-9.1-8l-0.7-0.6
	L85.3,96.9c-1.5-1.5-3.9-1.5-5.5,0c-1.5,1.5-1.5,3.9,0,5.3l0,0l0,0l34.3,30.2L79.9,164c-1.5,1.5-1.5,3.9,0,5.3l0,0l0,0
	c1.5,1.5,3.9,1.5,5.5,0l34.8-31.5l9.4,8.3c1.5,1.3,3.7,1.3,5.1,0l9.7-8.5l34.5,32.2c1.5,1.5,3.9,1.5,5.5,0c1.5-1.5,1.5-3.9,0-5.3
	l0,0l0,0L150.4,132.5z"/>
<path class="st1" d="M128.4,249.7c66.7-0.2,120.6-54.4,120.4-121.1S194.3,8,127.7,8.2C61,8.4,7,62.6,7.2,129.4
	c0.1,33.4,14.2,65.4,38.7,88.1C68.3,238.4,97.7,249.8,128.4,249.7z"/>
</svg>
