<?xml version="1.0" encoding="utf-8"?>
<!-- Generator: Adobe Illustrator 21.1.0, SVG Export Plug-In . SVG Version: 6.00 Build 0)  -->
<svg version="1.1" id="Layer_1" xmlns="http://www.w3.org/2000/svg" xmlns:xlink="http://www.w3.org/1999/xlink" x="0px" y="0px"
	 viewBox="0 0 256 256" style="enable-background:new 0 0 256 256;" xml:space="preserve">
<style type="text/css">
	.st0{fill:none;stroke:#838383;stroke-width:5;}
	.st1{fill:#838383;}
</style>
<title>Artboard 1</title>
<circle class="st0" cx="127" cy="128.4" r="123.6"/>
<path class="st0" d="M70.9,167.8c-0.1-6.3,3.2-12.1,8.7-15.3l21.9-12.1c3.7-2,6-5.9,6-10.1v-10l-0.5-0.6v-0.4l-0.7-0.4l-1.3-2
	c-0.9-1.5-1.8-3-2.5-4.5l-1-2.2v-2l-0.7-2.1v-0.4c0-0.8-0.2-1.6-0.6-2.4v-1l-0.9-0.5c-1.4-0.9-2.3-2.5-2.3-4.2V86.7
	c0-1.4,0.6-2.7,1.6-3.6l0.8-0.8V66c0-0.3,0-0.5,0-0.8c0-4,1.4-7.9,4-11c5.5-5.3,13.1-7.8,20.6-7c7.6-0.8,15.1,1.8,20.6,7
	c2.4,3.8,3.3,8.3,2.4,12.7v15.8l0.8,0.8c1,0.9,1.6,2.2,1.6,3.6V97c0,2.1-1.4,4-3.5,4.7h-1.2v1.2c-1.6,5-3.9,9.8-6.9,14.1
	c-0.7,1-1.5,2-2.1,2.7l-0.6,0.7v10.2c0,4.4,2.4,8.4,6.3,10.3l23.5,11.8c5.9,3,9.6,9,9.5,15.5v5"/>
<g>
	<g>
		<path class="st1" d="M178.6,187.7c-7.4,7.5-17.8,11.6-30.7,12.1l-0.1,11.6c0,2.8-3.4,4.6-5.6,2.3l-24.6-25.8
			c-1.4-1.5-1.2-3.7,0-4.8l25.1-25.3c2.2-2.2,5.5-0.3,5.5,2.4l-0.1,11.8l2.9,0c9.5,0.1,26.3-1.4,32.8-13.1c0.5-1.1,1.8-1.6,2.9-1.6
			c2,0,3.2,1.7,3.2,3.3C189.9,161.1,189.7,176.4,178.6,187.7z M150.9,178.8c-3.9,0-6.3-0.4-6.4-0.4c-1.6-0.2-3-1.7-3-3.3l0.1-6.8
			l-17,17.3l16.7,17.6l0.1-6.8c0-1.8,1.6-3.3,3.4-3.3c24,0.2,33-12.4,36.5-21.9C171.9,177.7,159,178.9,150.9,178.8z"/>
	</g>
</g>
</svg>
