<svg id="Capa_1" data-name="Capa 1" xmlns="http://www.w3.org/2000/svg" viewBox="0 0 256 256"><defs><style>.cls-1{fill:#29aae1;}</style></defs><title>Artboard 1</title><path class="cls-1" d="M252.46,154.86l-44.18,83.61c-2.16,4.16-8.29,8.55-13,8.55l-177.16,0A14.1,14.1,0,0,1,4,233L4,95.38a14.1,14.1,0,0,1,14.09-14.1h13v12H22.4a6.4,6.4,0,0,0-6.4,6.4v129a6.4,6.4,0,0,0,6.4,6.4h8.88l41.87-84.7c2.37-4.73,6.84-8.55,11.56-8.55H187.26l0-34.08a13.13,13.13,0,0,1,12,13v21.06h47C251.85,141.85,256.53,147.34,252.46,154.86ZM39.24,192.41c-.38-42.16,0-168.64,0-168.64A11.58,11.58,0,0,1,50.8,12.2h92.62a5.3,5.3,0,0,1,3.9,1.71l29.94,32.53a5.32,5.32,0,0,1,1.4,3.59v84.28h-9.71v-77a2.42,2.42,0,0,0-2.42-2.41H143.61A4.86,4.86,0,0,1,138.75,50V24.33a2.42,2.42,0,0,0-2.42-2.41H50.81A1.86,1.86,0,0,0,49,23.77v158l-7.43,15S39.28,196.68,39.24,192.41ZM148.48,45.19H162.9L148.48,29.51V45.19Zm5.26,19.6H64.23a6,6,0,0,0,0,12h89.51a6,6,0,1,0,0-12Zm6,40.78a6,6,0,0,0-6-6H64.23a6,6,0,1,0,0,11.94h89.51A6,6,0,0,0,159.72,105.58Zm-101.47,35a6,6,0,0,0,6,6h2.15a17.91,17.91,0,0,1,13.14-11.94H64.22A6,6,0,0,0,58.25,140.62Z"/></svg>