<svg id="Layer_1" data-name="Layer 1" xmlns="http://www.w3.org/2000/svg" viewBox="0 0 256 256"><defs><style>.cls-1{fill:none;stroke:#838383;stroke-width:5px;}.cls-2{fill:#838383;}</style></defs><title>Artboard 1</title><circle class="cls-1" cx="128.25" cy="127.75" r="125.75"/><path class="cls-2" d="M192,171.1,177,155.88a2.84,2.84,0,0,0-4,0l0,0a2.9,2.9,0,0,0,0,4.07l10.21,10.3H142.62a2.88,2.88,0,0,0,0,5.77h40.51l-10.21,10.29a2.9,2.9,0,0,0,0,4.08,2.84,2.84,0,0,0,4,0l0,0L192,175.18A2.9,2.9,0,0,0,192,171.1Zm-74-45.85c9.13,0,18-5.59,25.1-15.73,6.23-8.95,9.94-20,9.94-29.6a35,35,0,1,0-70.08,0c0,9.59,3.71,20.65,9.94,29.6C100,119.66,108.87,125.24,118,125.24Zm0-74.92a29.49,29.49,0,0,1,29.33,29.58c0,8.32-3.42,18.39-8.91,26.3-5.87,8.43-13.31,13.28-20.42,13.28s-14.55-4.84-20.42-13.28c-5.49-7.9-8.91-18-8.91-26.3A29.49,29.49,0,0,1,118,50.33Zm14.74,144.75c0-.07,0-.05,0,0a2.86,2.86,0,0,0-4.65-.91,2.92,2.92,0,0,0,0,4.07,2.86,2.86,0,0,0,3.65.33,2.93,2.93,0,0,0,1-3.47Z"/><path class="cls-2" d="M166.32,135.67h-.83a61.57,61.57,0,0,0-21.28-16.95,2.84,2.84,0,0,0-3.25.56c-6.88,6.93-14.82,10.59-23,10.59s-16.08-3.66-23-10.59a2.84,2.84,0,0,0-3.25-.56A61.63,61.63,0,0,0,57,174.36v.05a2.89,2.89,0,0,0,.94,2.14,88.86,88.86,0,0,0,63.63,23.32,2.87,2.87,0,0,0,2.75-3h0a2.87,2.87,0,0,0-3-2.77h0a83.17,83.17,0,0,1-58.63-21,55.84,55.84,0,0,1,29.81-48.31c7.64,7.09,16.42,10.83,25.51,10.83s17.87-3.74,25.51-10.83a55.85,55.85,0,0,1,15.12,11.66,37.13,37.13,0,1,0,7.7-.81Zm0,69.16a31.7,31.7,0,1,1,31.43-31.7A31.6,31.6,0,0,1,166.32,204.84Z"/></svg>