<svg id="Capa_1" data-name="Capa 1" xmlns="http://www.w3.org/2000/svg" viewBox="0 0 256 256"><defs><style>.cls-1{fill:#29aae1;}</style></defs><title>Artboard 1</title><rect class="cls-1" x="55.5" y="83" width="144" height="90"/><polygon class="cls-1" points="183 36 183 55.8 215 55.8 215 81.38 239 81.38 239 36 183 36"/><polygon class="cls-1" points="40 55.8 71 55.8 71 36 16 36 16 81.38 40 81.38 40 55.8"/><polygon class="cls-1" points="215 200.2 183 200.2 183 220 239 220 239 173.79 215 173.79 215 200.2"/><polygon class="cls-1" points="40 173.79 16 173.79 16 220 71 220 71 200.2 40 200.2 40 173.79"/></svg>