<?xml version="1.0" encoding="utf-8"?>
<!-- Generator: Adobe Illustrator 22.0.1, SVG Export Plug-In . SVG Version: 6.00 Build 0)  -->
<svg version="1.1" id="Layer_1" xmlns="http://www.w3.org/2000/svg" xmlns:xlink="http://www.w3.org/1999/xlink" x="0px" y="0px"
	 viewBox="0 0 256 256" style="enable-background:new 0 0 256 256;" xml:space="preserve">
<style type="text/css">
	.st0{fill:#455565;}
</style>
<title>icon-gear</title>
<desc>Created with Sketch.</desc>
<g id="Symbols">
	<g id="icon-gear" transform="translate(-2.000000, -2.000000)">
		<path class="st0" d="M91.6,49c2.7-1.3,5.5-2.4,8.3-3.4l7.8-31.2C109.4,7.5,116.5,2,123.6,2h12.8c7.1,0,14.2,5.5,15.9,12.4
			l7.8,31.2c2.8,1,5.6,2.2,8.3,3.4L196,32.5c6.1-3.6,15-2.6,20,2.5l9,9c5,5,6.1,13.9,2.5,20L211,91.6c1.3,2.7,2.4,5.5,3.4,8.3
			l31.2,7.8c6.8,1.7,12.4,8.8,12.4,15.9v12.8c0,7.1-5.5,14.2-12.4,15.9l-31.2,7.8c-1,2.8-2.2,5.6-3.4,8.3l16.5,27.6
			c3.6,6.1,2.6,15-2.5,20l-9,9c-5,5-13.9,6.1-20,2.5L168.4,211c-2.7,1.3-5.5,2.4-8.3,3.4l-7.8,31.2c-1.7,6.8-8.8,12.4-15.9,12.4
			h-12.8c-7.1,0-14.2-5.5-15.9-12.4l-7.8-31.2c-2.8-1-5.6-2.2-8.3-3.4L64,227.5c-6.1,3.6-15,2.6-20-2.5l-9-9c-5-5-6.1-13.9-2.5-20
			L49,168.4c-1.3-2.7-2.4-5.5-3.4-8.3l-31.2-7.8C7.5,150.6,2,143.5,2,136.4v-12.8c0-7.1,5.5-14.2,12.4-15.9l31.2-7.8
			c1-2.8,2.2-5.6,3.4-8.3L32.5,64c-3.6-6.1-2.6-15,2.5-20l9-9c5-5,13.9-6.1,20-2.5L91.6,49L91.6,49z M130,168.4
			c21.2,0,38.4-17.2,38.4-38.4S151.2,91.6,130,91.6S91.6,108.8,91.6,130S108.8,168.4,130,168.4z"/>
	</g>
</g>
</svg>
