<?xml version="1.0" encoding="utf-8"?>
<!-- Generator: Adobe Illustrator 21.1.0, SVG Export Plug-In . SVG Version: 6.00 Build 0)  -->
<svg version="1.1" id="Layer_1" xmlns="http://www.w3.org/2000/svg" xmlns:xlink="http://www.w3.org/1999/xlink" x="0px" y="0px"
	 viewBox="0 0 256 256" style="enable-background:new 0 0 256 256;" xml:space="preserve">
<style type="text/css">
	.st0{fill:#D8D8D8;fill-opacity:0;}
	.st1{fill:#99AABA;}
</style>
<title>icon-google</title>
<desc>Created with Sketch.</desc>
<g id="Symbols">
	<g id="icon-google">
		<g>
			<rect id="bg" class="st0" width="256" height="256"/>
			<path class="st1" d="M42.2,84.9C35.7,97.8,32,112.5,32,128s3.7,30.2,10.2,43.1C58,202.5,90.5,224,128,224
				c25.9,0,47.7-8.6,63.5-23.3c18.2-16.7,28.6-41.3,28.6-70.6c0-6.8-0.6-13.4-1.7-19.6H128v37.1h51.7c-2.2,12-9,22.2-19.2,29
				c-8.6,5.8-19.6,9.2-32.5,9.2c-25,0-46.2-16.9-53.7-39.6c-1.9-5.8-3-11.9-3-18.2s1.1-12.5,3-18.2C81.8,87.1,103,70.2,128,70.2
				c14.1,0,26.7,4.8,36.7,14.4L192.2,57c-16.6-15.5-38.4-25-64.2-25C90.5,32,58,53.5,42.2,84.9z"/>
		</g>
	</g>
</g>
</svg>
