<?xml version="1.0" encoding="utf-8"?>
<!-- Generator: Adobe Illustrator 22.0.1, SVG Export Plug-In . SVG Version: 6.00 Build 0)  -->
<svg version="1.1" id="Layer_1" xmlns="http://www.w3.org/2000/svg" xmlns:xlink="http://www.w3.org/1999/xlink" x="0px" y="0px"
	 viewBox="0 0 256 256" style="enable-background:new 0 0 256 256;" xml:space="preserve">
<style type="text/css">
	.st0{fill:#455565;fill-opacity:0;}
	.st1{fill:#455565;}
</style>
<title>icon-google_009CF6</title>
<g id="Symbols">
	<g id="icon-google">
		<rect id="bg" class="st0" width="256" height="256"/>
		<path class="st1" d="M42.2,84.9C18.4,132.3,37.5,190,84.9,213.8C98.3,220.5,113,224,128,224c25.9,0,47.7-8.6,63.5-23.3
			c18.2-16.7,28.6-41.3,28.6-70.6c0-6.6-0.6-13.1-1.7-19.6H128v37.1h51.7c-2.1,11.9-9.1,22.4-19.2,29c-8.6,5.8-19.6,9.2-32.5,9.2
			c-25,0-46.2-16.9-53.7-39.6c-4-11.8-4-24.6,0-36.4C81.8,87.1,103,70.2,128,70.2c14.1,0,26.7,4.8,36.7,14.4L192.2,57
			c-16.6-15.5-38.4-25-64.2-25C91.7,32,58.5,52.5,42.2,84.9z"/>
	</g>
</g>
</svg>
