<svg id="Capa_1" data-name="Capa 1" xmlns="http://www.w3.org/2000/svg" viewBox="0 0 256 256"><defs><style>.cls-1{fill:#838383;}</style></defs><title>Artboard 1</title><path class="cls-1" d="M210.69,146.18a5.37,5.37,0,0,0-2.81-5.12L180,127.74a22.16,22.16,0,0,0,7.81-8.7,27.23,27.23,0,0,0,2.94-12.8,25.81,25.81,0,0,0-6-17.15q-6-7.17-14.72-7.17a16,16,0,0,0-5.76,1,25.06,25.06,0,0,0-5,2.56A45,45,0,0,1,162,101.12a40.93,40.93,0,0,1-6.66,22.78q1.28,1.28,2.43,2.3a16.21,16.21,0,0,0,2.43,1.79l18.18,8.45a16,16,0,0,1,6.14,5.76,15.46,15.46,0,0,1,2.3,8.32v23.55h19.2a4,4,0,0,0,3.33-1.66,6.31,6.31,0,0,0,1.28-4V146.18Zm-32.51,4.35q0-4.61-3.58-6.14l-24.32-11.78L140,127.75a24.86,24.86,0,0,0,6-5.25,29.92,29.92,0,0,0,4.48-7.3,46.87,46.87,0,0,0,2.17-6.66,30.43,30.43,0,0,0,.9-7.42,30,30,0,0,0-.26-4,36,36,0,0,0-.77-4,30.2,30.2,0,0,0-9.09-15.87,23.26,23.26,0,0,0-31.36-.13,29.72,29.72,0,0,0-9,15.23,32.57,32.57,0,0,0-1.28,8.7A34.88,34.88,0,0,0,105.22,116a30.1,30.1,0,0,0,10.5,12L106,132.61,80.9,144.13a6.46,6.46,0,0,0-3.84,6.4v27.65a7,7,0,0,0,1.66,4.74,5.35,5.35,0,0,0,4.22,1.92h89.6a5.08,5.08,0,0,0,4-1.92,7,7,0,0,0,1.66-4.74V150.53Zm-109.57,0a15.46,15.46,0,0,1,2.3-8.32,15.94,15.94,0,0,1,6.14-5.76L96,127.74a14.09,14.09,0,0,0,4.1-3.58A39,39,0,0,1,95,113.41a42,42,0,0,1-1.79-12.29,37.67,37.67,0,0,1,.9-8.32,65,65,0,0,1,2.18-7.55A17.08,17.08,0,0,0,86,81.92q-8.7,0-14.72,7.17a25.81,25.81,0,0,0-6,17.15,27,27,0,0,0,3.07,12.93A22.2,22.2,0,0,0,76.54,128L48.13,141.05q-2.82,1.28-2.82,5.12v22.27a6.31,6.31,0,0,0,1.28,4,4,4,0,0,0,3.33,1.66H68.61V150.53ZM128,0a124.28,124.28,0,0,1,49.79,10.11,127.86,127.86,0,0,1,68.1,68.1,127.82,127.82,0,0,1,5.5,83.84,129.89,129.89,0,0,1-12.93,30.59,128.17,128.17,0,0,1-45.82,45.82A129.8,129.8,0,0,1,162,251.39a128.09,128.09,0,0,1-68.1,0,129.85,129.85,0,0,1-30.59-12.93,128.17,128.17,0,0,1-45.82-45.82A129.81,129.81,0,0,1,4.61,162a128.09,128.09,0,0,1,0-68.1A129.79,129.79,0,0,1,17.54,63.36,128.17,128.17,0,0,1,63.36,17.54,129.79,129.79,0,0,1,94,4.61,125.16,125.16,0,0,1,128,0Z"/></svg>