<?xml version="1.0" encoding="utf-8"?>
<!-- Generator: Adobe Illustrator 22.0.1, SVG Export Plug-In . SVG Version: 6.00 Build 0)  -->
<svg version="1.1" id="Capa_1" xmlns="http://www.w3.org/2000/svg" xmlns:xlink="http://www.w3.org/1999/xlink" x="0px" y="0px"
	 viewBox="0 0 256 256" style="enable-background:new 0 0 256 256;" xml:space="preserve">
<style type="text/css">
	.st0{fill:#455565;}
</style>
<title>Artboard 1</title>
<path class="st0" d="M58.9,183.9H34.2c19.4,38.2,58.9,64.4,104.5,64.4c64.8,0,117.3-52.9,117.3-118.1S203.5,12,138.7,12
	C81.2,12,33.3,53.7,23.3,108.6H0l32,43l32-43H45c9.7-43,47.9-75.2,93.6-75.2c53,0,96,43.3,96,96.6s-43,96.6-96,96.6
	C106.6,226.8,76.7,210.7,58.9,183.9z"/>
<polygon class="st0" points="133.3,55.3 133.3,133.9 188.9,166.9 194.3,157.6 144,127.5 144,55.3 "/>
</svg>
