<?xml version="1.0" encoding="utf-8"?>
<!-- Generator: Adobe Illustrator 21.1.0, SVG Export Plug-In . SVG Version: 6.00 Build 0)  -->
<svg version="1.1" id="Capa_1" xmlns="http://www.w3.org/2000/svg" xmlns:xlink="http://www.w3.org/1999/xlink" x="0px" y="0px"
	 viewBox="0 0 256 256" style="enable-background:new 0 0 256 256;" xml:space="preserve">
<style type="text/css">
	.st0{fill:#FFFFFF;}
</style>
<title>Artboard 1</title>
<path class="st0" d="M58.8,181.5H34.1c19.4,37.9,58.9,63.9,104.4,63.9c64.7,0,117.2-52.5,117.2-117.2S203.2,11,138.5,11
	C81,11,33.3,52.3,23.2,106.9H0l32,42.6l32-42.6H45c9.7-42.7,47.9-74.6,93.5-74.6c52.9,0,95.9,42.9,95.9,95.9S191.4,224,138.5,224
	C106.5,224,76.6,208.1,58.8,181.5z"/>
<polygon class="st0" points="133.1,53.9 133.1,131.9 188.6,164.6 194.1,155.4 143.8,125.5 143.8,53.9 "/>
</svg>
