<?xml version="1.0" encoding="utf-8"?>
<!-- Generator: Adobe Illustrator 21.1.0, SVG Export Plug-In . SVG Version: 6.00 Build 0)  -->
<svg version="1.1" id="Capa_1" xmlns="http://www.w3.org/2000/svg" xmlns:xlink="http://www.w3.org/1999/xlink" x="0px" y="0px"
	 viewBox="0 0 256 256" style="enable-background:new 0 0 256 256;" xml:space="preserve">
<style type="text/css">
	.st0{fill:#009CF6;}
</style>
<title>Artboard 1</title>
<path class="st0" d="M60.5,179.1H36.4c19,36.5,57.6,61.5,102.1,61.5c63.3,0,114.6-50.5,114.6-112.8S201.7,15,138.4,15
	C82.2,15,35.5,54.8,25.7,107.3H3l31.2,41l31.2-41H47c9.5-41.1,46.8-71.8,91.4-71.8c51.8,0,93.8,41.3,93.8,92.3s-42,92.3-93.8,92.3
	C107.1,220.1,77.9,204.7,60.5,179.1z"/>
<polygon class="st0" points="133.2,56.3 133.2,131.4 187.5,162.9 192.8,154 143.6,125.3 143.6,56.3 "/>
</svg>
