<?xml version="1.0" encoding="utf-8"?>
<!-- Generator: Adobe Illustrator 22.0.1, SVG Export Plug-In . SVG Version: 6.00 Build 0)  -->
<svg version="1.1" id="Layer_1" xmlns="http://www.w3.org/2000/svg" xmlns:xlink="http://www.w3.org/1999/xlink" x="0px" y="0px"
	 viewBox="0 0 256 256" style="enable-background:new 0 0 256 256;" xml:space="preserve">
<style type="text/css">
	.st0{fill:#465665;}
</style>
<title>icon-mobile-phone</title>
<desc>Created with Sketch.</desc>
<g id="Symbols">
	<g id="overview" transform="translate(-105.000000, -537.000000)">
		<g id="contact">
			<g transform="translate(0.000000, 399.000000)">
				<g id="Group-9" transform="translate(0.000000, 81.000000)">
					<g id="Group-3" transform="translate(0.000000, 52.000000)">
						<g id="icon-home-phone" transform="translate(104.000000, 5.000000)">
							<path class="st0" d="M33,101.7L124.1,9l0,0c4-4,10.3-4.1,14.4-0.1l0.1,0.1l91.1,92.7l0,0c1.8,1.9,2.9,4.4,2.9,7.1v130
								c0,5.6-4.5,10.1-10.1,10.1H40.2c-5.6,0-10.1-4.5-10.1-10.1v-130l0,0C30.1,106.2,31.1,103.7,33,101.7L33,101.7z M95.9,145.9
								c-2.8,0-5,2.3-5,5V249h81v-98c0-2.8-2.3-5-5-5h-71V145.9z"/>
						</g>
					</g>
				</g>
			</g>
		</g>
	</g>
</g>
</svg>
