<?xml version="1.0" encoding="UTF-8"?>
<svg width="256px" height="256px" viewBox="0 0 256 256" version="1.1" xmlns="http://www.w3.org/2000/svg" xmlns:xlink="http://www.w3.org/1999/xlink">
    <!-- Generator: Sketch 46 (44423) - http://www.bohemiancoding.com/sketch -->
    <title>icon-projects-on</title>
    <desc>Created with Sketch.</desc>
    <defs></defs>
    <g id="Assets" stroke="none" stroke-width="1" fill="none" fill-rule="evenodd">
        <g id="icon-projects-on" fill="#FFFFFF">
            <g id="icon-projects">
                <g id="Group-28" transform="translate(42.666667, 47.666667)">
                    <path d="M49.5460196,27 C54.1356153,11.5787256 68.4212233,0.333333333 85.3333333,0.333333333 C102.245443,0.333333333 116.531051,11.5787256 121.120647,27 L109.781104,27 C105.666131,17.5818408 96.2683679,11 85.3333333,11 C74.3982988,11 65.0005355,17.5818408 60.8855667,26.9999992 L49.5460196,27 Z" id="Combined-Shape" fill-rule="nonzero"></path>
                    <path d="M0,101.666667 L170.666667,101.666667 L170.666667,133.666667 L170.666667,133.666667 C170.666667,145.448741 161.115408,155 149.333333,155 L21.3333333,155 L21.3333333,155 C9.55125867,155 -2.10982568e-15,145.448741 -3.55271368e-15,133.666667 L0,101.666667 Z" id="Rectangle-9"></path>
                    <path d="M21.3333333,37.6666667 L149.333333,37.6666667 C161.115408,37.6666667 170.666667,47.2179253 170.666667,59 L170.666667,91 L0,91 L0,59 L0,59 C-1.442888e-15,47.2179253 9.55125867,37.6666667 21.3333333,37.6666667 L21.3333333,37.6666667 Z M85.3333333,80.3333333 C91.2243707,80.3333333 96,75.557704 96,69.6666667 C96,63.7756293 91.2243707,59 85.3333333,59 C79.442296,59 74.6666667,63.7756293 74.6666667,69.6666667 C74.6666667,75.557704 79.442296,80.3333333 85.3333333,80.3333333 Z" id="Combined-Shape"></path>
                </g>
            </g>
        </g>
    </g>
</svg>