<?xml version="1.0" encoding="utf-8"?>
<!-- Generator: Adobe Illustrator 21.1.0, SVG Export Plug-In . SVG Version: 6.00 Build 0)  -->
<svg version="1.1" id="Layer_1" xmlns="http://www.w3.org/2000/svg" xmlns:xlink="http://www.w3.org/1999/xlink" x="0px" y="0px"
	 viewBox="0 0 256 256" style="enable-background:new 0 0 256 256;" xml:space="preserve">
<style type="text/css">
	.st0{fill:#CAD1D8;}
</style>
<title>icon-grid</title>
<desc>Created with Sketch.</desc>
<g id="Symbols">
	<g id="icon-grid">
		<g id="Rectangle-3">
			<path class="st0" d="M16,0h64c8.8,0,16,7.2,16,16v64c0,8.8-7.2,16-16,16H16C7.2,96,0,88.8,0,80V16C0,7.2,7.2,0,16,0z"/>
			<path class="st0" d="M176,0h64c8.8,0,16,7.2,16,16v64c0,8.8-7.2,16-16,16h-64c-8.8,0-16-7.2-16-16V16C160,7.2,167.2,0,176,0z"/>
			<path class="st0" d="M176,160h64c8.8,0,16,7.2,16,16v64c0,8.8-7.2,16-16,16h-64c-8.8,0-16-7.2-16-16v-64
				C160,167.2,167.2,160,176,160z"/>
			<path class="st0" d="M16,160h64c8.8,0,16,7.2,16,16v64c0,8.8-7.2,16-16,16H16c-8.8,0-16-7.2-16-16v-64C0,167.2,7.2,160,16,160z"
				/>
		</g>
	</g>
</g>
</svg>
