<?xml version="1.0" encoding="UTF-8"?>
<svg width="256px" height="256px" viewBox="0 0 256 256" version="1.1" xmlns="http://www.w3.org/2000/svg" xmlns:xlink="http://www.w3.org/1999/xlink">
    <!-- Generator: Sketch 46 (44423) - http://www.bohemiancoding.com/sketch -->
    <title>icon-projects-off</title>
    <desc>Created with Sketch.</desc>
    <defs></defs>
    <g id="Assets" stroke="none" stroke-width="1" fill="none" fill-rule="evenodd">
        <g id="icon-projects-off">
            <g id="icon-projects">
                <g id="Group-28" transform="translate(42.666667, 42.666667)">
                    <path d="M49.5460196,32 C54.1356153,16.5787256 68.4212233,5.33333333 85.3333333,5.33333333 C102.245443,5.33333333 116.531051,16.5787256 121.120647,32 L109.781104,32 C105.666131,22.5818408 96.2683679,16 85.3333333,16 C74.3982988,16 65.0005355,22.5818408 60.8855667,31.9999992 L49.5460196,32 Z" id="Combined-Shape" fill="#99AABB" fill-rule="nonzero"></path>
                    <path d="M0,106.666667 L170.666667,106.666667 L170.666667,138.666667 L170.666667,138.666667 C170.666667,150.448741 161.115408,160 149.333333,160 L21.3333333,160 L21.3333333,160 C9.55125867,160 -2.10982568e-15,150.448741 -3.55271368e-15,138.666667 L0,106.666667 Z" id="Rectangle-9" fill="#778DA4"></path>
                    <path d="M21.3333333,42.6666667 L149.333333,42.6666667 C161.115408,42.6666667 170.666667,52.2179253 170.666667,64 L170.666667,96 L0,96 L0,64 L0,64 C-1.442888e-15,52.2179253 9.55125867,42.6666667 21.3333333,42.6666667 L21.3333333,42.6666667 Z M85.3333333,85.3333333 C91.2243707,85.3333333 96,80.557704 96,74.6666667 C96,68.7756293 91.2243707,64 85.3333333,64 C79.442296,64 74.6666667,68.7756293 74.6666667,74.6666667 C74.6666667,80.557704 79.442296,85.3333333 85.3333333,85.3333333 Z" id="Combined-Shape" fill="#778DA4"></path>
                </g>
            </g>
        </g>
    </g>
</svg>