<?xml version="1.0" encoding="UTF-8"?>
<svg width="256px" height="256px" viewBox="0 0 256 256" version="1.1" xmlns="http://www.w3.org/2000/svg" xmlns:xlink="http://www.w3.org/1999/xlink">
    <!-- Generator: Sketch 46 (44423) - http://www.bohemiancoding.com/sketch -->
    <title>icon-deals-off</title>
    <desc>Created with Sketch.</desc>
    <defs></defs>
    <g id="Assets" stroke="none" stroke-width="1" fill="none" fill-rule="evenodd">
        <g id="icon-deals-off">
            <g transform="translate(0.000000, 1.000000)" id="Combined-Shape">
                <path d="M150.115537,58.5556518 L144.647042,58.5556518 C137.574602,58.5556518 130.791831,61.3651676 125.790861,66.3661377 L55.9674845,136.189514 L48.1569987,128.379028 C41.90861,122.13064 41.90861,112 48.1569987,105.751611 L122.666667,31.2419433 C125.667249,28.2413613 129.736911,26.5556518 133.980375,26.5556518 L186.777681,26.5556518 C195.614237,26.5556518 202.777681,33.7190958 202.777681,42.5556518 L202.777681,59.0890818 C201.054428,58.7392799 199.270833,58.5556518 197.444348,58.5556518 L180.015103,58.5556518 C179.236265,56.5138777 178.024241,54.5995173 176.379028,52.954305 C170.13064,46.7059163 160,46.7059163 153.751611,52.954305 C152.106399,54.5995173 150.894374,56.5138777 150.115537,58.5556518 Z" fill="#99AABB"></path>
                <path d="M144.647042,69.2223185 L197.444348,69.2223185 C206.280904,69.2223185 213.444348,76.3857625 213.444348,85.2223185 L213.444348,138.019625 C213.444348,142.263089 211.758639,146.332751 208.758057,149.333333 L134.248389,223.843001 C128,230.09139 117.86936,230.09139 111.620972,223.843001 L58.8236653,171.045695 C52.5752767,164.797306 52.5752767,154.666667 58.8236653,148.418278 L133.333333,73.90861 C136.333915,70.908028 140.403578,69.2223185 144.647042,69.2223185 Z M164.418278,118.248389 C170.666667,124.496777 180.797306,124.496777 187.045695,118.248389 C193.294084,112 193.294084,101.86936 187.045695,95.6209717 C180.797306,89.372583 170.666667,89.372583 164.418278,95.6209717 C158.169889,101.86936 158.169889,112 164.418278,118.248389 Z" fill="#778DA4"></path>
            </g>
        </g>
    </g>
</svg>