<?xml version="1.0" encoding="UTF-8"?>
<svg width="256px" height="256px" viewBox="0 0 256 256" version="1.1" xmlns="http://www.w3.org/2000/svg" xmlns:xlink="http://www.w3.org/1999/xlink">
    <!-- Generator: Sketch 46 (44423) - http://www.bohemiancoding.com/sketch -->
    <title>icon-people-off</title>
    <desc>Created with Sketch.</desc>
    <defs></defs>
    <g id="Assets" stroke="none" stroke-width="1" fill="none" fill-rule="evenodd">
        <g id="icon-people-off" fill="#778DA4">
            <g id="icon-people">
                <g transform="translate(32.000000, 32.000000)" id="Combined-Shape">
                    <path d="M96,192 C42.980664,192 0,149.019336 0,96 C0,42.980664 42.980664,0 96,0 C149.019336,0 192,42.980664 192,96 C192,149.019336 149.019336,192 96,192 Z M37.7496758,158.359683 C52.9995431,172.610643 73.4811248,181.333333 96,181.333333 C118.518875,181.333333 139.000457,172.610643 154.250324,158.359683 C141.854043,152.342116 122.437269,149.333333 96,149.333333 C69.5627261,149.333333 50.145949,152.342118 37.7496685,158.359686 L37.7496758,158.359683 Z M96,128 C119.564149,128 138.666667,108.897483 138.666667,85.3333333 C138.666667,61.769184 119.564149,42.6666667 96,42.6666667 C72.4358507,42.6666667 53.3333333,61.769184 53.3333333,85.3333333 C53.3333333,108.897483 72.4358507,128 96,128 Z"></path>
                </g>
            </g>
        </g>
    </g>
</svg>