<?xml version="1.0" encoding="UTF-8"?>
<svg width="256px" height="256px" viewBox="0 0 256 256" version="1.1" xmlns="http://www.w3.org/2000/svg" xmlns:xlink="http://www.w3.org/1999/xlink">
    <!-- Generator: Sketch 46 (44423) - http://www.bohemiancoding.com/sketch -->
    <title>icon-companies-off</title>
    <desc>Created with Sketch.</desc>
    <defs></defs>
    <g id="Assets" stroke="none" stroke-width="1" fill="none" fill-rule="evenodd">
        <g id="icon-companies-off">
            <g id="icon-companies">
                <g transform="translate(32.000000, 53.333333)">
                    <path d="M170.666667,117.866763 L170.666667,96 C170.666667,84.2179253 161.115408,74.6666667 149.333333,74.6666667 L32,74.6666667 C20.2179253,74.6666667 10.6666667,84.2179253 10.6666667,96 L10.6666667,117.866763 C12.3899197,117.516961 14.1735155,117.333333 16,117.333333 C17.8264845,117.333333 19.6100803,117.516961 21.3333333,117.866763 L21.3333333,96 C21.3333333,90.1089627 26.1089627,85.3333333 32,85.3333333 L149.333333,85.3333333 C155.224371,85.3333333 160,90.1089627 160,96 L160,117.866763 C161.723253,117.516961 163.506849,117.333333 165.333333,117.333333 C167.159818,117.333333 168.943414,117.516961 170.666667,117.866763 Z" id="Combined-Shape" fill="#778DA4" fill-rule="nonzero"></path>
                    <path d="M85.3333333,117.866763 L85.3333333,42.1332367 C87.0565863,42.4830386 88.8401822,42.6666667 90.6666667,42.6666667 C92.4931511,42.6666667 94.276747,42.4830386 96,42.1332367 L96,117.866763 C94.276747,117.516961 92.4931511,117.333333 90.6666667,117.333333 C88.8401822,117.333333 87.0565863,117.516961 85.3333333,117.866763 Z" id="Combined-Shape" fill="#778DA4" fill-rule="nonzero"></path>
                    <circle id="Oval-4" fill="#99AABB" cx="90.6666667" cy="16" r="16"></circle>
                    <circle id="Oval-4" fill="#99AABB" cx="90.6666667" cy="144" r="16"></circle>
                    <circle id="Oval-4" fill="#99AABB" cx="16" cy="144" r="16"></circle>
                    <circle id="Oval-4" fill="#99AABB" cx="165.333333" cy="144" r="16"></circle>
                </g>
            </g>
        </g>
    </g>
</svg>