<?xml version="1.0" encoding="utf-8"?>
<!-- Generator: Adobe Illustrator 21.1.0, SVG Export Plug-In . SVG Version: 6.00 Build 0)  -->
<svg version="1.1" id="Layer_1" xmlns="http://www.w3.org/2000/svg" xmlns:xlink="http://www.w3.org/1999/xlink" x="0px" y="0px"
	 viewBox="0 0 256 256" style="enable-background:new 0 0 256 256;" xml:space="preserve">
<style type="text/css">
	.st0{fill:#009CF6;}
</style>
<title>icon-people-off</title>
<desc>Created with Sketch.</desc>
<g id="Icons-256">
	<g id="icon-people-off">
		<g id="icon-people" transform="translate(32.000000, 32.000000)">
			<g id="Combined-Shape" transform="translate(24.000000, 24.000000)">
				<path class="st0" d="M72,200C1.3,200-56,142.7-56,72S1.3-56,72-56S200,1.3,200,72S142.7,200,72,200z M-5.7,155.1
					c20.3,19,47.6,30.6,77.7,30.6s57.3-11.6,77.7-30.6c-16.5-8-42.4-12-77.7-12S10.9,147.1-5.7,155.1L-5.7,155.1z M72,114.7
					c31.4,0,56.9-25.5,56.9-56.9S103.4,0.9,72,0.9S15.1,26.4,15.1,57.8S40.6,114.7,72,114.7z"/>
			</g>
		</g>
	</g>
</g>
</svg>
