<?xml version="1.0" encoding="utf-8"?>
<!-- Generator: Adobe Illustrator 21.1.0, SVG Export Plug-In . SVG Version: 6.00 Build 0)  -->
<svg version="1.1" id="Layer_1" xmlns="http://www.w3.org/2000/svg" xmlns:xlink="http://www.w3.org/1999/xlink" x="0px" y="0px"
	 viewBox="0 0 256 256" style="enable-background:new 0 0 256 256;" xml:space="preserve">
<style type="text/css">
	.st0{fill:#99AABB;}
	.st1{fill:none;stroke:#FFFFFF;stroke-width:12.6749;}
	.st2{fill:#FFFFFF;}
</style>
<title>icon-deals</title>
<desc>Created with Sketch.</desc>
<g id="Projects-_x3E_-Candidates">
	<g id="Candidates-1.15" transform="translate(-430.000000, -483.000000)">
		<g id="body" transform="translate(280.000000, 108.000000)">
			<g id="main">
				<g id="projects" transform="translate(0.000000, 62.000000)">
					<g id="Group-13" transform="translate(0.000000, 72.000000)">
						<g id="card-candidate">
							<g id="no-color-icons" transform="translate(119.000000, 238.000000)">
								<g id="icon-deals" transform="translate(31.000000, 0.000000)">
									
										<g id="Group-26" transform="translate(10.000000, 10.045942) rotate(-315.000000) translate(-10.000000, -10.045942) translate(5.000000, 1.545942)">
										<g id="Combined-Shape">
											<g>
												<path id="path-1" class="st0" d="M97.9-74.1l44.4-44.4c7.4-7.4,19.5-7.4,26.9,0l44.4,44.4c3.6,3.6,5.6,8.4,5.6,13.4
													V64.6c0,10.5-8.5,19-19,19h-88.7c-10.5,0-19-8.5-19-19V-60.7C92.3-65.7,94.3-70.5,97.9-74.1z"/>
											</g>
											<path class="st1" d="M93.4-78.6l44.4-44.4c9.9-9.9,26-9.9,35.9,0L218-78.6c4.8,4.8,7.4,11.2,7.4,17.9V64.6
												c0,14-11.3,25.3-25.3,25.3h-88.7c-14,0-25.3-11.3-25.3-25.3V-60.7C86-67.4,88.7-73.8,93.4-78.6z"/>
										</g>
										
											<ellipse id="Oval-5" transform="matrix(0.7071 -0.7071 0.7071 0.7071 94.0668 90.0388)" class="st2" cx="155.7" cy="-68.5" rx="19" ry="19"/>
									</g>
									
										<g id="Group-26_1_" transform="translate(11.000000, 13.045942) rotate(-315.000000) translate(-11.000000, -13.045942) translate(6.000000, 4.545942)">
										<g id="Combined-Shape_1_">
											<g>
												<path id="path-2" class="st0" d="M130.9-57.6l44.4-44.4c7.4-7.4,19.5-7.4,26.9,0l44.4,44.4c3.6,3.6,5.6,8.4,5.6,13.4
													V81.1c0,10.5-8.5,19-19,19h-88.7c-10.5,0-19-8.5-19-19V-44.1C125.4-49.2,127.4-54,130.9-57.6z"/>
											</g>
											<path class="st1" d="M126.5-62.1l44.4-44.4c9.9-9.9,26-9.9,35.9,0L251-62.1c4.8,4.8,7.4,11.2,7.4,17.9V81.1
												c0,14-11.3,25.3-25.3,25.3h-88.7c-14,0-25.3-11.3-25.3-25.3V-44.1C119-50.9,121.7-57.3,126.5-62.1z"/>
										</g>
										
											<ellipse id="Oval-5_1_" transform="matrix(0.7071 -0.7071 0.7071 0.7071 92.0637 118.2246)" class="st2" cx="188.7" cy="-52" rx="19" ry="19"/>
									</g>
								</g>
							</g>
						</g>
					</g>
				</g>
			</g>
		</g>
	</g>
</g>
</svg>
