<?xml version="1.0" encoding="utf-8"?>
<!-- Generator: Adobe Illustrator 21.1.0, SVG Export Plug-In . SVG Version: 6.00 Build 0)  -->
<svg version="1.1" id="Layer_1" xmlns="http://www.w3.org/2000/svg" xmlns:xlink="http://www.w3.org/1999/xlink" x="0px" y="0px"
	 viewBox="0 0 256 256" style="enable-background:new 0 0 256 256;" xml:space="preserve">
<style type="text/css">
	.st0{fill:#009CF6;}
</style>
<title>icon-gear</title>
<desc>Created with Sketch.</desc>
<g id="Icons-256">
	<g id="icon-gear">
		<g transform="translate(32.000000, 32.000000)">
			<path class="st0" d="M57.6,15c2.7-1.3,5.5-2.4,8.3-3.4l7.8-31.2C75.4-26.5,82.5-32,89.6-32h12.8c7.1,0,14.2,5.5,15.9,12.4
				l7.8,31.2c2.8,1,5.6,2.2,8.3,3.4L162-1.5c6.1-3.6,15-2.6,20,2.5L191,10c5,5,6.1,13.9,2.5,20L177,57.6c1.3,2.7,2.4,5.5,3.4,8.3
				l31.2,7.8c6.8,1.7,12.4,8.8,12.4,15.9v12.8c0,7.1-5.5,14.2-12.4,15.9l-31.2,7.8c-1,2.8-2.2,5.6-3.4,8.3l16.5,27.6
				c3.6,6.1,2.6,15-2.5,20L182,191c-5,5-13.9,6.1-20,2.5L134.4,177c-2.7,1.3-5.5,2.4-8.3,3.4l-7.8,31.2c-1.7,6.8-8.8,12.4-15.9,12.4
				H89.6c-7.1,0-14.2-5.5-15.9-12.4l-7.8-31.2c-2.8-1-5.6-2.2-8.3-3.4L30,193.5c-6.1,3.6-15,2.6-20-2.5L1,182c-5-5-6.1-13.9-2.5-20
				L15,134.4c-1.3-2.7-2.4-5.5-3.4-8.3l-31.2-7.8c-6.8-1.7-12.4-8.8-12.4-15.9V89.6c0-7.1,5.5-14.2,12.4-15.9l31.2-7.8
				c1-2.8,2.2-5.6,3.4-8.3L-1.5,30C-5.1,24-4.1,15.1,1,10L10,1c5-5,13.9-6.1,20-2.5L57.6,15L57.6,15z M96,134.4
				c21.2,0,38.4-17.2,38.4-38.4S117.2,57.6,96,57.6S57.6,74.8,57.6,96S74.8,134.4,96,134.4z"/>
		</g>
	</g>
</g>
</svg>
