<?xml version="1.0" encoding="UTF-8"?>
<svg width="16px" height="14px" viewBox="0 0 16 14" version="1.1" xmlns="http://www.w3.org/2000/svg" xmlns:xlink="http://www.w3.org/1999/xlink">
    <!-- Generator: Sketch 49.1 (51147) - http://www.bohemiancoding.com/sketch -->
    <title>Icon/24/Nav/Events/On</title>
    <desc>Created with Sketch.</desc>
    <defs></defs>
    <g id="Assets" stroke="none" stroke-width="1" fill="none" fill-rule="evenodd">
        <g id="Icons" transform="translate(-1120.000000, -69.000000)" fill="#FFFFFF">
            <g id="24" transform="translate(820.000000, 16.000000)">
                <g id="Icon/24/Nav/Events/On" transform="translate(296.000000, 48.000000)">
                    <g id="Icon/24/Nav/Events" transform="translate(4.000000, 5.000000)">
                        <path d="M0,5 L16,5 L16,12 C16,13.1045695 15.1045695,14 14,14 L2,14 C0.8954305,14 1.3527075e-16,13.1045695 0,12 L0,5 Z" id="Rectangle-4"></path>
                        <path d="M2,0 L14,0 C15.1045695,-2.02906125e-16 16,0.8954305 16,2 L16,4 L0,4 L0,2 C-1.3527075e-16,0.8954305 0.8954305,2.02906125e-16 2,0 Z M4,3 C4.55228475,3 5,2.55228475 5,2 C5,1.44771525 4.55228475,1 4,1 C3.44771525,1 3,1.44771525 3,2 C3,2.55228475 3.44771525,3 4,3 Z M12,3 C12.5522847,3 13,2.55228475 13,2 C13,1.44771525 12.5522847,1 12,1 C11.4477153,1 11,1.44771525 11,2 C11,2.55228475 11.4477153,3 12,3 Z" id="Combined-Shape"></path>
                    </g>
                </g>
            </g>
        </g>
    </g>
</svg>