<?xml version="1.0" encoding="UTF-8"?>
<svg width="24px" height="12px" viewBox="0 0 24 12" version="1.1" xmlns="http://www.w3.org/2000/svg" xmlns:xlink="http://www.w3.org/1999/xlink">
    <!-- Generator: Sketch 51.2 (57519) - http://www.bohemiancoding.com/sketch -->
    <title>icon-12-dragging columns</title>
    <desc>Created with Sketch.</desc>
    <defs>
        <path d="M5.41421356,6 L8.70710678,9.29289322 C9.09763107,9.68341751 9.09763107,10.3165825 8.70710678,10.7071068 C8.31658249,11.0976311 7.68341751,11.0976311 7.29289322,10.7071068 L3.29289322,6.70710678 C2.90236893,6.31658249 2.90236893,5.68341751 3.29289322,5.29289322 L7.29289322,1.29289322 C7.68341751,0.902368927 8.31658249,0.902368927 8.70710678,1.29289322 C9.09763107,1.68341751 9.09763107,2.31658249 8.70710678,2.70710678 L5.41421356,6 Z" id="path-1"></path>
    </defs>
    <g id="icon-12-dragging-columns" stroke="none" stroke-width="1" fill="none" fill-rule="evenodd">
        <mask id="mask-2" fill="white">
            <use xlink:href="#path-1"></use>
        </mask>
        <use id="icon-12-chevron-left" fill="#455565" fill-rule="nonzero" xlink:href="#path-1"></use>
        <path d="M4.5,6 L20.5,6" id="Line" stroke="#455565" stroke-width="2" stroke-linecap="square" fill-rule="nonzero"></path>
        <path d="M18.4142136,6 L21.7071068,9.29289322 C22.0976311,9.68341751 22.0976311,10.3165825 21.7071068,10.7071068 C21.3165825,11.0976311 20.6834175,11.0976311 20.2928932,10.7071068 L16.2928932,6.70710678 C15.9023689,6.31658249 15.9023689,5.68341751 16.2928932,5.29289322 L20.2928932,1.29289322 C20.6834175,0.902368927 21.3165825,0.902368927 21.7071068,1.29289322 C22.0976311,1.68341751 22.0976311,2.31658249 21.7071068,2.70710678 L18.4142136,6 Z" id="icon-12-chevron-left" fill="#455565" fill-rule="nonzero" transform="translate(19.000000, 6.000000) scale(-1, -1) translate(-19.000000, -6.000000) "></path>
    </g>
</svg>