<?xml version="1.0" encoding="utf-8"?>
<!-- Generator: Adobe Illustrator 21.1.0, SVG Export Plug-In . SVG Version: 6.00 Build 0)  -->
<svg version="1.1" id="Layer_1" xmlns="http://www.w3.org/2000/svg" xmlns:xlink="http://www.w3.org/1999/xlink" x="0px" y="0px"
	 viewBox="0 0 256 256" style="enable-background:new 0 0 256 256;" xml:space="preserve">
<style type="text/css">
	.st0{fill:#99AABB;}
</style>
<title>icon-edit</title>
<desc>Created with Sketch.</desc>
<g id="Candidates-_x2F_-Panels">
	<g id="Candidates-2.6" transform="translate(-1289.000000, -388.000000)">
		<g id="panel" transform="translate(912.000000, 0.000000)">
			<g id="body">
				<g transform="translate(1.000000, 309.000000)">
					<g id="Group-10_1_">
						<g id="overview" transform="translate(0.000000, 18.000000)">
							<g id="positions" transform="translate(0.000000, 44.000000)">
								<g id="Group-6" transform="translate(365.000000, 6.000000)">
									<g id="notes-popover">
										<g id="Group-10" transform="translate(8.000000, 8.000000)">
											<g id="icon-edit-on">
												<g id="Combined-Shape">
													<path class="st0" d="M190.4,35.5l36.1,36.1L65.9,232.2l-36.1-36.1L190.4,35.5z M208.4,17.5l3.7-3.7
														c10-10,26.1-10,36.1,0c10,10,10,26.1,0,36.1l-3.7,3.7L208.4,17.5z M47.8,250.3L47.8,250.3L47.8,250.3z M47.8,250.3
														c-2.4,2.4-5.6,3.7-9,3.7l0,0H8v-31.9c0-2.7,1.1-5.3,3-7.2l0,0l0.7-0.7L47.8,250.3z"/>
												</g>
											</g>
										</g>
									</g>
								</g>
							</g>
						</g>
					</g>
				</g>
			</g>
		</g>
	</g>
</g>
</svg>
