<?xml version="1.0" encoding="utf-8"?>
<!-- Generator: Adobe Illustrator 21.1.0, SVG Export Plug-In . SVG Version: 6.00 Build 0)  -->
<svg version="1.1" id="Layer_1" xmlns="http://www.w3.org/2000/svg" xmlns:xlink="http://www.w3.org/1999/xlink" x="0px" y="0px"
	 viewBox="0 0 256 256" style="enable-background:new 0 0 256 256;" xml:space="preserve">
<style type="text/css">
	.st0{fill:#455565;}
	.st1{fill:none;stroke:#FFFFFF;stroke-width:19.2;}
	.st2{fill:#FFFFFF;}
</style>
<title>icon-resume</title>
<desc>Created with Sketch.</desc>
<g id="Projects-_x3E_-Candidates">
	<g id="Candidates-1.15" transform="translate(-327.000000, -543.000000)">
		<g id="body" transform="translate(280.000000, 108.000000)">
			<g id="main">
				<g id="projects" transform="translate(0.000000, 62.000000)">
					<g id="Group-13" transform="translate(0.000000, 72.000000)">
						<g id="card-candidate">
							<g id="card">
								<g id="social-popover" transform="translate(16.000000, 299.000000)">
									<g id="Group-10">
										<g id="icon-resume" transform="translate(28.000000, 1.000000)">
											<g transform="translate(3.000000, 2.000000)">
												<path id="Rectangle-11" class="st0" d="M70.4,36h115.2l0,0c21.2,0,38.4,17.2,38.4,38.4v134.4l0,0
													c0,21.2-17.2,38.4-38.4,38.4H70.4l0,0c-21.2,0-38.4-17.2-38.4-38.4V74.4l0,0C32,53.2,49.2,36,70.4,36z"/>
												<g id="Rectangle-5">
													<g>
														<path id="path-1" class="st0" d="M99.2,16.9h57.6c5.3,0,9.6,4.3,9.6,9.6l0,0c0,5.3-4.3,9.6-9.6,9.6H99.2
															c-5.3,0-9.6-4.3-9.6-9.6l0,0C89.6,21.1,93.9,16.9,99.2,16.9z"/>
													</g>
													<path class="st1" d="M99.2,7.2h57.6c10.6,0,19.2,8.6,19.2,19.2l0,0c0,10.6-8.6,19.2-19.2,19.2H99.2
														C88.6,45.7,80,37.1,80,26.5l0,0C80,15.8,88.6,7.2,99.2,7.2z"/>
												</g>
												<g id="Oval-2">
													<g>
														<circle id="path-2" class="st2" cx="128" cy="132.1" r="38.4"/>
													</g>
													<circle class="st1" cx="128" cy="132.1" r="28.8"/>
												</g>
												<path id="Rectangle-2" class="st2" d="M89.6,189.6h76.8l0,0c10.6,0,19.2,8.6,19.2,19.2l0,0H70.4l0,0l0,0
													C70.4,198.2,79,189.6,89.6,189.6z"/>
											</g>
										</g>
									</g>
								</g>
							</g>
						</g>
					</g>
				</g>
			</g>
		</g>
	</g>
</g>
</svg>
