<svg xmlns="http://www.w3.org/2000/svg" xmlns:xlink="http://www.w3.org/1999/xlink" width="16" height="16" viewBox="0 0 16 16">
  <defs>
    <path id="icon-16-mail-a" d="M14.2590216,3.03387162 L8.35355339,8.93933983 C8.15829124,9.13460197 7.84170876,9.13460197 7.64644661,8.93933983 L1.7409784,3.03387162 C1.82359172,3.01177863 1.91042034,3 2,3 L14,3 C14.0895797,3 14.1764083,3.01177863 14.2590216,3.03387162 Z M14.9661284,3.7409784 C14.9882214,3.82359172 15,3.91042034 15,4 L15,12 C15,12.5522847 14.5522847,13 14,13 L2,13 C1.44771525,13 1,12.5522847 1,12 L1,4 C1,3.91042034 1.01177863,3.82359172 1.03387162,3.7409784 L6.93933983,9.64644661 C7.52512627,10.232233 8.47487373,10.232233 9.06066017,9.64644661 L14.9661284,3.7409784 Z"/>
  </defs>
  <g fill="none" fill-rule="evenodd">
    <mask id="icon-16-mail-b" fill="#fff">
      <use xlink:href="#icon-16-mail-a"/>
    </mask>
    <use fill="#9AB" xlink:href="#icon-16-mail-a"/>
    <g fill="#455565" mask="url(#icon-16-mail-b)">
      <rect width="16" height="16"/>
    </g>
  </g>
</svg>
