<?xml version="1.0" encoding="utf-8"?>
<!-- Generator: Adobe Illustrator 21.1.0, SVG Export Plug-In . SVG Version: 6.00 Build 0)  -->
<svg version="1.1" id="Layer_1" xmlns="http://www.w3.org/2000/svg" xmlns:xlink="http://www.w3.org/1999/xlink" x="0px" y="0px"
	 viewBox="0 0 256 256" style="enable-background:new 0 0 256 256;" xml:space="preserve">
<style type="text/css">
	.st0{fill:#99AABB;}
	.st1{fill:none;stroke:#99AABB;stroke-width:30.6867;stroke-linecap:round;}
</style>
<title>icon-add-candidate</title>
<desc>Created with Sketch.</desc>
<g id="Symbols">
	<g id="icon-add-candidate">
		<g id="Group" transform="translate(0.000000, 1.000000)">
			<g transform="translate(1.000000, 2.000000)">
				<g id="Group-24" transform="translate(5.000000, 0.000000)">
					<circle id="Oval-2" class="st0" cx="166.9" cy="94.3" r="46"/>
					<path id="Oval-3" class="st0" d="M243.5,197.6c-2.2-27.9-27.8-41.9-76.6-41.9c-48.8,0-74.3,14-76.6,41.9l0,0
						c-0.2,2.1,1.4,4,3.5,4.1c0.1,0,0.2,0,0.3,0h145.5v0c2.1,0,3.8-1.7,3.8-3.8C243.5,197.8,243.5,197.7,243.5,197.6z"/>
				</g>
				<g id="Group-6" transform="translate(0.000000, 3.000000)">
					<path id="Path-2" class="st1" d="M18.5,122h61.4"/>
					<path id="Path-6" class="st1" d="M49.2,91.3v61.4"/>
				</g>
			</g>
		</g>
	</g>
</g>
</svg>
