<?xml version="1.0" encoding="utf-8"?>
<!-- Generator: Adobe Illustrator 21.1.0, SVG Export Plug-In . SVG Version: 6.00 Build 0)  -->
<svg version="1.1" id="Layer_1" xmlns="http://www.w3.org/2000/svg" xmlns:xlink="http://www.w3.org/1999/xlink" x="0px" y="0px"
	 viewBox="0 0 256 256" style="enable-background:new 0 0 256 256;" xml:space="preserve">
<style type="text/css">
	.st0{fill:#99AABB;}
</style>
<title>icon-list</title>
<desc>Created with Sketch.</desc>
<g id="Symbols">
	<g id="icon-list">
		<g id="Rectangle-3" transform="translate(0.000000, 1.000000)">
			<path class="st0" d="M16,15h224c8.8,0,16,7.2,16,16l0,0c0,8.8-7.2,16-16,16H16C7.2,47,0,39.8,0,31l0,0C0,22.2,7.2,15,16,15z"/>
			<path class="st0" d="M16,111h224c8.8,0,16,7.2,16,16l0,0c0,8.8-7.2,16-16,16H16c-8.8,0-16-7.2-16-16l0,0C0,118.2,7.2,111,16,111z
				"/>
			<path class="st0" d="M16,207h224c8.8,0,16,7.2,16,16l0,0c0,8.8-7.2,16-16,16H16c-8.8,0-16-7.2-16-16l0,0C0,214.2,7.2,207,16,207z
				"/>
		</g>
	</g>
</g>
</svg>
