<?xml version="1.0" encoding="UTF-8"?>
<svg width="256px" height="256px" viewBox="0 0 256 256" version="1.1" xmlns="http://www.w3.org/2000/svg" xmlns:xlink="http://www.w3.org/1999/xlink">
    <!-- Generator: Sketch 46 (44423) - http://www.bohemiancoding.com/sketch -->
    <title>icon-dashboard-off</title>
    <desc>Created with Sketch.</desc>
    <defs></defs>
    <g id="Assets" stroke="none" stroke-width="1" fill="none" fill-rule="evenodd">
        <g id="icon-dashboard-off">
            <g id="icon-dashboard-on">
                <rect id="bg" fill="#FFFFFF" opacity="0" x="0" y="0" width="256" height="256"></rect>
                <path d="M54.0827611,192.000024 C46.8221614,179.448621 42.6666667,164.876261 42.6666667,149.333333 C42.6666667,102.205035 80.8717014,64 128,64 C175.128299,64 213.333333,102.205035 213.333333,149.333333 C213.333333,164.876261 209.177839,179.448621 201.917239,192.000024 L54.0827473,192 Z M128,106.666667 C133.891037,106.666667 138.666667,101.891037 138.666667,96 C138.666667,90.1089627 133.891037,85.3333333 128,85.3333333 C122.108963,85.3333333 117.333333,90.1089627 117.333333,96 C117.333333,101.891037 122.108963,106.666667 128,106.666667 Z M85.3333333,149.333333 C85.3333333,143.442296 80.557704,138.666667 74.6666667,138.666667 C68.7756293,138.666667 64,143.442296 64,149.333333 C64,155.224371 68.7756293,160 74.6666667,160 C80.557704,160 85.3333333,155.224371 85.3333333,149.333333 Z M97.8301107,119.163444 C101.995703,114.997852 101.995703,108.244092 97.8301107,104.078499 C93.6645182,99.9129069 86.9107584,99.9129069 82.745166,104.078499 C78.5795736,108.244092 78.5795736,114.997852 82.745166,119.163444 C86.9107584,123.329036 93.6645182,123.329036 97.8301107,119.163444 Z M170.666667,149.333333 C170.666667,155.224371 175.442296,160 181.333333,160 C187.224371,160 192,155.224371 192,149.333333 C192,143.442296 187.224371,138.666667 181.333333,138.666667 C175.442296,138.666667 170.666667,143.442296 170.666667,149.333333 Z M135.542472,156.875806 L173.254834,119.163444 C177.420426,114.997852 177.420426,108.244092 173.254834,104.078499 C169.089242,99.9129069 162.335482,99.9129069 158.169889,104.078499 L120.457528,141.790861 C116.291935,145.956453 116.291935,152.710213 120.457528,156.875806 C124.62312,161.041398 131.37688,161.041398 135.542472,156.875806 Z" fill="#778DA4"></path>
            </g>
        </g>
    </g>
</svg>