<?xml version="1.0" encoding="utf-8"?>
<!-- Generator: Adobe Illustrator 21.1.0, SVG Export Plug-In . SVG Version: 6.00 Build 0)  -->
<svg version="1.1" id="Capa_1" xmlns="http://www.w3.org/2000/svg" xmlns:xlink="http://www.w3.org/1999/xlink" x="0px" y="0px"
	 viewBox="0 0 256 256" style="enable-background:new 0 0 256 256;" xml:space="preserve">
<style type="text/css">
	.st0{fill:#009CF6;}
</style>
<g>
	<g>
		<path class="st0" d="M218.5,37.5c-50-50-131-50-181,0c-50,50-50,131,0,181c50,50,131,50,181,0C268.5,168.5,268.5,87.5,218.5,37.5z
			 M144.7,183.7c0,9.2-7.5,16.7-16.7,16.7s-16.7-7.5-16.7-16.7v-66.8c0-9.2,7.5-16.7,16.7-16.7s16.7,7.5,16.7,16.7V183.7z
			 M127.7,88.3c-9.6,0-16-6.8-15.8-15.2c-0.2-8.8,6.2-15.4,16-15.4c9.8,0,16,6.6,16.2,15.4C144.1,81.5,137.7,88.3,127.7,88.3z"/>
	</g>
</g>
</svg>
