<svg xmlns="http://www.w3.org/2000/svg" xmlns:xlink="http://www.w3.org/1999/xlink" width="12" height="12" viewBox="0 0 12 12">
  <defs>
    <path id="icon-12-reorder-a" d="M1,1 L11,1 C11.5522847,1 12,1.44771525 12,2 C12,2.55228475 11.5522847,3 11,3 L1,3 C0.44771525,3 6.76353751e-17,2.55228475 0,2 C-6.76353751e-17,1.44771525 0.44771525,1 1,1 Z M1,5 L11,5 C11.5522847,5 12,5.44771525 12,6 C12,6.55228475 11.5522847,7 11,7 L1,7 C0.44771525,7 6.76353751e-17,6.55228475 0,6 C-6.76353751e-17,5.44771525 0.44771525,5 1,5 Z M1,9 L11,9 C11.5522847,9 12,9.44771525 12,10 C12,10.5522847 11.5522847,11 11,11 L1,11 C0.44771525,11 6.76353751e-17,10.5522847 0,10 C-6.76353751e-17,9.44771525 0.44771525,9 1,9 Z"/>
  </defs>
  <g fill="none" fill-rule="evenodd">
    <use fill="#455565" xlink:href="#icon-12-reorder-a"/>
  </g>
</svg>
