<?xml version="1.0" encoding="utf-8"?>
<!-- Generator: Adobe Illustrator 21.1.0, SVG Export Plug-In . SVG Version: 6.00 Build 0)  -->
<svg version="1.1" id="Layer_1" xmlns="http://www.w3.org/2000/svg" xmlns:xlink="http://www.w3.org/1999/xlink" x="0px" y="0px"
	 viewBox="0 0 256 256" style="enable-background:new 0 0 256 256;" xml:space="preserve">
<style type="text/css">
	.st0{fill:#99AABB;}
</style>
<title>Artboard 1</title>
<path class="st0" d="M141.8,6c-6.4-6.1-16.7-6.1-23,0.1l-90,90.5c-5.5,5.4-5.5,14.2-0.2,19.7c0.4,0.4,0.8,0.6,1,1
	c6.6,5.5,16,5.1,22.2-0.9l62.7-63.1l0.5,189.5c0.6,8.6,8.3,15.2,16.9,14.5c7.8-0.6,14-6.8,14.6-14.6L146,53l63.1,62.7
	c6.2,5.9,15.6,6.1,22.2,0.8c5.9-4.9,6.7-13.8,1.8-19.7c-0.2-0.4-0.6-0.6-0.8-1L141.8,6z"/>
</svg>
