<?xml version="1.0" encoding="utf-8"?>
<!-- Generator: Adobe Illustrator 21.1.0, SVG Export Plug-In . SVG Version: 6.00 Build 0)  -->
<svg version="1.1" id="Layer_1" xmlns="http://www.w3.org/2000/svg" xmlns:xlink="http://www.w3.org/1999/xlink" x="0px" y="0px"
	 viewBox="0 0 256 256" style="enable-background:new 0 0 256 256;" xml:space="preserve">
<style type="text/css">
	.st0{fill:#009CF6;}
</style>
<title>icon-list</title>
<desc>Created with Sketch.</desc>
<g id="Symbols">
	<g id="icon-list-on" transform="translate(0.000000, -1.000000)">
		<g id="icon-list" transform="translate(0.000000, 1.000000)">
			<path id="Rectangle-3" class="st0" d="M16,16h224c8.8,0,16,7.2,16,16l0,0c0,8.8-7.2,16-16,16H16C7.2,48,0,40.8,0,32l0,0
				C0,23.2,7.2,16,16,16z"/>
			<path id="Rectangle-3_1_" class="st0" d="M16,112h224c8.8,0,16,7.2,16,16l0,0c0,8.8-7.2,16-16,16H16c-8.8,0-16-7.2-16-16l0,0
				C0,119.2,7.2,112,16,112z"/>
			<path id="Rectangle-3_2_" class="st0" d="M16,208h224c8.8,0,16,7.2,16,16l0,0c0,8.8-7.2,16-16,16H16c-8.8,0-16-7.2-16-16l0,0
				C0,215.2,7.2,208,16,208z"/>
		</g>
	</g>
</g>
</svg>
