<?xml version="1.0" encoding="UTF-8"?>
<svg width="12px" height="12px" viewBox="0 0 12 12" version="1.1" xmlns="http://www.w3.org/2000/svg" xmlns:xlink="http://www.w3.org/1999/xlink">
    <!-- Generator: Sketch 49.3 (51167) - http://www.bohemiancoding.com/sketch -->
    <title>icon-12-download</title>
    <desc>Created with Sketch.</desc>
    <defs>
        <path d="M5,5.58578644 L5,1 C5,0.44771525 5.44771525,0 6,0 C6.55228475,0 7,0.44771525 7,1 L7,5.58578644 L8.29289322,4.29289322 C8.68341751,3.90236893 9.31658249,3.90236893 9.70710678,4.29289322 C10.0976311,4.68341751 10.0976311,5.31658249 9.70710678,5.70710678 L6.70710678,8.70710678 C6.31658249,9.09763107 5.68341751,9.09763107 5.29289322,8.70710678 L2.29289322,5.70710678 C1.90236893,5.31658249 1.90236893,4.68341751 2.29289322,4.29289322 C2.68341751,3.90236893 3.31658249,3.90236893 3.70710678,4.29289322 L5,5.58578644 Z M2,12 C1.44771525,12 1,11.5522847 1,11 C1,10.4477153 1.44771525,10 2,10 L10,10 C10.5522847,10 11,10.4477153 11,11 C11,11.5522847 10.5522847,12 10,12 L2,12 Z" id="path-1"></path>
    </defs>
    <g id="icon-12-download" stroke="none" stroke-width="1" fill="none" fill-rule="evenodd">
        <g id="Icon/12/Download">
            <mask id="mask-2" fill="white">
                <use xlink:href="#path-1"></use>
            </mask>
            <use id="Combined-Shape" fill="#99AABB" fill-rule="nonzero" xlink:href="#path-1"></use>
            <g id="Color/Slate-1" mask="url(#mask-2)" fill="#455565" fill-rule="evenodd">
                <rect x="0" y="0" width="12" height="12"></rect>
            </g>
        </g>
    </g>
</svg>