<svg xmlns="http://www.w3.org/2000/svg" xmlns:xlink="http://www.w3.org/1999/xlink" width="12" height="12" viewBox="0 0 12 12">
  <defs>
    <path id="icon-12-add-a" d="M7,5 L10,5 C10.5522847,5 11,5.44771525 11,6 C11,6.55228475 10.5522847,7 10,7 L7,7 L7,10 C7,10.5522847 6.55228475,11 6,11 C5.44771525,11 5,10.5522847 5,10 L5,7 L2,7 C1.44771525,7 1,6.55228475 1,6 C1,5.44771525 1.44771525,5 2,5 L5,5 L5,2 C5,1.44771525 5.44771525,1 6,1 C6.55228475,1 7,1.44771525 7,2 L7,5 Z"/>
  </defs>
  <g fill="none" fill-rule="evenodd">
    <use fill="#009cf6" xlink:href="#icon-12-add-a"/>
  </g>
</svg>
