<svg id="Layer_1" data-name="Layer 1" xmlns="http://www.w3.org/2000/svg" viewBox="0 0 256 256"><defs><style>.cls-1{fill:#009cf6;}</style></defs><title>icon-grid_009CF6</title><g id="Symbols"><g id="icon-grid"><g id="Rectangle-3"><path class="cls-1" d="M16,0H80A16,16,0,0,1,96,16V80A16,16,0,0,1,80,96H16A16,16,0,0,1,0,80V16A16,16,0,0,1,16,0Z"/><path class="cls-1" d="M176,0h64a16,16,0,0,1,16,16V80a16,16,0,0,1-16,16H176a16,16,0,0,1-16-16V16A16,16,0,0,1,176,0Z"/><path class="cls-1" d="M176,160h64a16,16,0,0,1,16,16v64a16,16,0,0,1-16,16H176a16,16,0,0,1-16-16V176A16,16,0,0,1,176,160Z"/><path class="cls-1" d="M16,160H80a16,16,0,0,1,16,16v64a16,16,0,0,1-16,16H16A16,16,0,0,1,0,240V176A16,16,0,0,1,16,160Z"/></g></g></g></svg>