<?xml version="1.0" encoding="UTF-8"?>
<svg width="16px" height="16px" viewBox="0 0 16 16" version="1.1" xmlns="http://www.w3.org/2000/svg" xmlns:xlink="http://www.w3.org/1999/xlink">
    <!-- Generator: Sketch 49.3 (51167) - http://www.bohemiancoding.com/sketch -->
    <title>icon-16-more</title>
    <desc>Created with Sketch.</desc>
    <defs>
        <path d="M2,10 C0.8954305,10 0,9.1045695 0,8 C0,6.8954305 0.8954305,6 2,6 C3.1045695,6 4,6.8954305 4,8 C4,9.1045695 3.1045695,10 2,10 Z M8,10 C6.8954305,10 6,9.1045695 6,8 C6,6.8954305 6.8954305,6 8,6 C9.1045695,6 10,6.8954305 10,8 C10,9.1045695 9.1045695,10 8,10 Z M14,10 C12.8954305,10 12,9.1045695 12,8 C12,6.8954305 12.8954305,6 14,6 C15.1045695,6 16,6.8954305 16,8 C16,9.1045695 15.1045695,10 14,10 Z" id="path-1"></path>
    </defs>
    <g id="icon-16-more" stroke="none" stroke-width="1" fill="none" fill-rule="evenodd">
        <g id="Icon/16/More">
            <mask id="mask-2" fill="white">
                <use xlink:href="#path-1"></use>
            </mask>
            <use id="Shape" fill="#455565" fill-rule="evenodd" xlink:href="#path-1"></use>
            <g id="Color/Slate-1" mask="url(#mask-2)" fill="#455565" fill-rule="evenodd">
                <rect x="0" y="0" width="16" height="16"></rect>
            </g>
        </g>
    </g>
</svg>