<?xml version="1.0" encoding="utf-8"?>
<!-- Generator: Adobe Illustrator 22.0.1, SVG Export Plug-In . SVG Version: 6.00 Build 0)  -->
<svg version="1.1" id="Capa_1" xmlns="http://www.w3.org/2000/svg" xmlns:xlink="http://www.w3.org/1999/xlink" x="0px" y="0px"
	 viewBox="0 0 256 256" style="enable-background:new 0 0 256 256;" xml:space="preserve">
<style type="text/css">
	.st0{fill:#455565;}
</style>
<g>
	<g>
		<path class="st0" d="M215.7,40.3C167.2-8.1,88.8-8.1,40.3,40.3s-48.4,126.9,0,175.3s126.9,48.4,175.3,0S264.1,88.8,215.7,40.3z
			 M144.2,182c0,8.9-7.3,16.2-16.2,16.2s-16.2-7.3-16.2-16.2v-64.7c0-8.9,7.3-16.2,16.2-16.2s16.2,7.3,16.2,16.2V182z M127.7,89.5
			c-9.3,0-15.5-6.6-15.3-14.7c-0.2-8.5,6-14.9,15.5-14.9c9.5,0,15.5,6.4,15.7,14.9C143.6,83,137.4,89.5,127.7,89.5z"/>
	</g>
</g>
</svg>
