<svg id="Capa_1" data-name="Capa 1" xmlns="http://www.w3.org/2000/svg" viewBox="0 0 513.32 513.32"><defs><style>.cls-1{fill:#838383;}</style></defs><title>Artboard 1</title><path class="cls-1" d="M141.56,205.94l-9.13,7.75a11.52,11.52,0,0,0-.14,18L253.9,338.16a16.48,16.48,0,0,0,20.87.16L398,233.74a11.52,11.52,0,0,0,.14-18l-9-7.89a16.48,16.48,0,0,0-20.87-.16l-63.77,51.49c-9.36,7.94-18.25,10.11-18.16-1.22L288.18,20.9c.05-7-6.51-12.77-14.66-12.84L260.27,8c-8.15-.06-14.8,5.58-14.86,12.61l-1.84,237.06c-.09,11.33-6.71,13.64-15.94,5.55l-65.2-57.08A16.48,16.48,0,0,0,141.56,205.94Z"/><path class="cls-1" d="M505.44,249.94c.82-105.46-65.82-193.5-155.3-230.09l-.17,22C417,73.76,489.21,168.78,488.6,247.31c-.87,112.2-117.79,230-230,229.12S31.22,358.73,32.09,246.53C32.7,168,102.88,73.72,170.44,42.82l.19-24.37c-90,35.21-158,124.44-158.85,227.66a246.84,246.84,0,1,0,493.66,3.82Z"/></svg>