<svg id="Layer_1" data-name="Layer 1" xmlns="http://www.w3.org/2000/svg" viewBox="0 0 256 256"><defs><style>.cls-1{fill:#29aae1;}</style></defs><title>Artboard 1</title><path class="cls-1" d="M239,10a7,7,0,0,1,7,7V230a7,7,0,0,1-7,7H15a7,7,0,0,1-7-7V17a7,7,0,0,1,7-7H239m0-5H15A12,12,0,0,0,3,17V230a12,12,0,0,0,12,12H239a12,12,0,0,0,12-12V17A12,12,0,0,0,239,5Z"/><path class="cls-1" d="M54.5,26A1.5,1.5,0,0,0,53,27.5v210a1.5,1.5,0,0,0,3,0V27.5A1.5,1.5,0,0,0,54.5,26Z"/><path class="cls-1" d="M101.5,25a1.5,1.5,0,0,0-1.5,1.5v211a1.5,1.5,0,0,0,3,0V26.5a1.5,1.5,0,0,0-1.5-1.5Z"/><path class="cls-1" d="M149.5,24.47A1.5,1.5,0,0,0,148,26V236a1.5,1.5,0,0,0,3,0V26a1.5,1.5,0,0,0-1.5-1.5Z"/><path class="cls-1" d="M198.5,24a1.5,1.5,0,0,0-1.5,1.5V236a1.5,1.5,0,1,0,3,0V25.5a1.5,1.5,0,0,0-1.5-1.5Z"/><rect class="cls-1" x="13" y="30" width="36" height="19"/><rect class="cls-1" x="13" y="55" width="36" height="19"/><rect class="cls-1" x="13" y="80" width="36" height="19"/><rect class="cls-1" x="60" y="30" width="36" height="19"/><rect class="cls-1" x="60" y="55" width="36" height="19"/><rect class="cls-1" x="60" y="80" width="36" height="19"/><rect class="cls-1" x="107" y="30" width="36" height="19"/><rect class="cls-1" x="107" y="55" width="36" height="19"/><rect class="cls-1" x="107" y="80" width="36" height="19"/><rect class="cls-1" x="156" y="30" width="36" height="19"/><rect class="cls-1" x="156" y="55" width="36" height="19"/><rect class="cls-1" x="156" y="80" width="36" height="19"/><rect class="cls-1" x="205" y="30" width="36" height="19"/><rect class="cls-1" x="205" y="55" width="36" height="19"/><rect class="cls-1" x="107" y="105" width="36" height="19"/><rect class="cls-1" x="107" y="130" width="36" height="19"/><rect class="cls-1" x="107" y="155" width="36" height="19"/><rect class="cls-1" x="60" y="105" width="36" height="19"/><rect class="cls-1" x="60" y="130" width="36" height="19"/></svg>