<?xml version="1.0" encoding="utf-8"?>
<!-- Generator: Adobe Illustrator 22.0.0, SVG Export Plug-In . SVG Version: 6.00 Build 0)  -->
<svg version="1.1" id="Layer_1" xmlns="http://www.w3.org/2000/svg" xmlns:xlink="http://www.w3.org/1999/xlink" x="0px" y="0px"
	 viewBox="0 0 256 256" style="enable-background:new 0 0 256 256;" xml:space="preserve">
<style type="text/css">
	.st0{fill:#D8D8D8;fill-opacity:0;}
	.st1{fill:#465665;}
	.st2{fill:#FFFFFF;}
</style>
<title>Artboard 1</title>
<g id="Symbols">
	<g id="icon-linkedin">
		<rect id="bg" x="-27" y="-29" class="st0" width="310" height="310"/>
		<path class="st1" d="M209.9,207.9h-34.5v-54c0-12.8-0.2-29.4-17.9-29.4c-17.9,0-20.7,14-20.7,28.5v54.9h-34.4V96.9h33.1v15.1h0.5
			c4.6-8.7,15.9-17.9,32.6-17.9c34.9,0,41.4,23,41.4,52.9L209.9,207.9L209.9,207.9z M63.5,81.8c-11,0-20-9-20-20s9-20,20-20
			s20,9,20,20l0,0C83.4,72.7,74.5,81.7,63.5,81.8L63.5,81.8L63.5,81.8z M46.3,207.9h34.5V96.9H46.3V207.9z M227.1,9.8H28.9
			c-9.3-0.1-17.1,7.4-17.2,16.7l0,0l0,0v199c0.1,9.3,7.8,16.8,17.1,16.8l0,0h198.1c9.3,0.1,17.1-7.4,17.2-16.7l0,0V26.5
			C244.1,17.1,236.5,9.6,227.1,9.8C227.2,9.8,227.2,9.8,227.1,9.8L227.1,9.8z"/>
		<rect x="45.1" y="96.9" class="st2" width="36.6" height="110.3"/>
	</g>
</g>
</svg>
