<?xml version="1.0" encoding="utf-8"?>
<!-- Generator: Adobe Illustrator 21.1.0, SVG Export Plug-In . SVG Version: 6.00 Build 0)  -->
<svg version="1.1" id="Layer_1" xmlns="http://www.w3.org/2000/svg" xmlns:xlink="http://www.w3.org/1999/xlink" x="0px" y="0px"
	 viewBox="0 0 256 256" style="enable-background:new 0 0 256 256;" xml:space="preserve">
<style type="text/css">
	.st0{fill:#838383;}
	.st1{fill:none;stroke:#838383;stroke-width:10;}
</style>
<title>Artboard 1</title>
<path class="st0" d="M80.3,186.2h19.3v-80.1H80.3V186.2z M157.6,106.1c-10.1,0.6-19.5,5.4-25.7,13.4v-13.4h-19.3v80.1h19.3v-46.8
	c1.6-9,10.3-15,19.3-13.4l0,0c8.2,0.5,12.6,11.8,12.9,13.4v46.8h19.3v-55.4c0.1-13.6-10.9-24.6-24.5-24.7
	C158.4,106.1,158,106.1,157.6,106.1z M89.9,79.3c-5.7-0.4-10.7,3.9-11.1,9.6s3.9,10.7,9.6,11.1s10.7-3.9,11.1-9.6c0-0.2,0-0.5,0-0.7
	c0.3-5.4-3.9-10.1-9.3-10.4C90.2,79.3,90.1,79.3,89.9,79.3z"/>
<path class="st1" d="M128.4,249.2c66.7-0.2,120.6-54.4,120.4-121.1S194.3,7.5,127.7,7.7C61,7.9,7,62.1,7.2,128.9
	c0.1,33.4,14.2,65.4,38.7,88.1C68.3,237.9,97.7,249.3,128.4,249.2z"/>
</svg>
