<?xml version="1.0" encoding="utf-8"?>
<!-- Generator: Adobe Illustrator 22.0.1, SVG Export Plug-In . SVG Version: 6.00 Build 0)  -->
<svg version="1.1" id="Layer_1" xmlns="http://www.w3.org/2000/svg" xmlns:xlink="http://www.w3.org/1999/xlink" x="0px" y="0px"
	 viewBox="0 0 256 256" style="enable-background:new 0 0 256 256;" xml:space="preserve">
<style type="text/css">
	.st0{fill:#99AABA;}
</style>
<title>icon-list</title>
<desc>Created with Sketch.</desc>
<path id="Rectangle-3" class="st0" d="M16,36h224c8.8,0,16,12.4,16,27.7l0,0c0,15.1-7.2,27.7-16,27.7H16C7.2,91.2,0,78.8,0,63.7l0,0
	C0,48.4,7.2,36,16,36z"/>
<path id="Rectangle-3_1_" class="st0" d="M16,169.6h224c8.8,0,16,12.4,16,27.7l0,0c0,15.1-7.2,27.7-16,27.7H16
	c-8.8,0-16-12.4-16-27.7l0,0C0,182.2,7.2,169.6,16,169.6z"/>
</svg>
