<?xml version="1.0" encoding="utf-8"?>
<!-- Generator: Adobe Illustrator 22.0.1, SVG Export Plug-In . SVG Version: 6.00 Build 0)  -->
<svg version="1.1" id="Layer_1" xmlns="http://www.w3.org/2000/svg" xmlns:xlink="http://www.w3.org/1999/xlink" x="0px" y="0px"
	 viewBox="0 0 256 256" style="enable-background:new 0 0 256 256;" xml:space="preserve">
<style type="text/css">
	.st0{fill:#99AABA;}
</style>
<title>icon-list</title>
<desc>Created with Sketch.</desc>
<g id="Symbols">
	<path id="Rectangle-3" class="st0" d="M16,23h224c8.8,0,16,8.1,16,18.1l0,0c0,9.9-7.2,18.1-16,18.1H16C7.2,59.1,0,51,0,41.1l0,0
		C0,31.1,7.2,23,16,23z"/>
	<path id="Rectangle-3_1_" class="st0" d="M16,82.4h224c8.8,0,16,8.1,16,18.1l0,0c0,9.9-7.2,18.1-16,18.1H16c-8.8,0-16-8.1-16-18.1
		l0,0C0,90.6,7.2,82.4,16,82.4z"/>
	<path id="Rectangle-3_4_" class="st0" d="M16,141.9h224c8.8,0,16,8.1,16,18.1l0,0c0,9.9-7.2,18.1-16,18.1H16c-8.8,0-16-8.1-16-18.1
		l0,0C0,150,7.2,141.9,16,141.9z"/>
	<path id="Rectangle-3_2_" class="st0" d="M16,200.9h224c8.8,0,16,8.1,16,18.1l0,0c0,9.9-7.2,18.1-16,18.1H16c-8.8,0-16-8.1-16-18.1
		l0,0C0,209,7.2,200.9,16,200.9z"/>
</g>
</svg>
