<?xml version="1.0" encoding="UTF-8"?>
<svg width="142px" height="28px" viewBox="0 0 142 28" version="1.1" xmlns="http://www.w3.org/2000/svg" xmlns:xlink="http://www.w3.org/1999/xlink">
    <!-- Generator: Sketch 46 (44423) - http://www.bohemiancoding.com/sketch -->
    <title>logo-clockwork-dark</title>
    <desc>Created with Sketch.</desc>
    <defs></defs>
    <g id="Logo" stroke="none" stroke-width="1" fill="none" fill-rule="evenodd">
        <g id="logo-clockwork-dark" fill="#778DA4">
            <g id="logo-clockwork-grey">
                <path d="M61.916769,16.88513 C60.1547258,16.88513 58.7263561,15.4522433 58.7263561,13.6846279 C58.7263561,11.9170125 60.1547258,10.4841258 61.916769,10.4841258 C63.6788123,10.4841258 65.107182,11.9170125 65.107182,13.6846279 C65.107182,15.4522433 63.6788123,16.88513 61.916769,16.88513 M61.916769,9.01991517 C59.3486809,9.01991517 57.2667613,11.1084185 57.2667613,13.6846279 C57.2667613,16.2608372 59.3486809,18.3497048 61.916769,18.3497048 C64.4848572,18.3497048 66.5667768,16.2608372 66.5667768,13.6846279 C66.5667768,11.1084185 64.4848572,9.01991517 61.916769,9.01991517 M113.255258,16.88513 C111.493215,16.88513 110.064845,15.4522433 110.064845,13.6846279 C110.064845,11.9170125 111.493215,10.4841258 113.255258,10.4841258 C115.017301,10.4841258 116.445671,11.9170125 116.445671,13.6846279 C116.445671,15.4522433 115.017301,16.88513 113.255258,16.88513 M113.255258,9.01991517 C110.68717,9.01991517 108.60525,11.1084185 108.60525,13.6846279 C108.60525,16.2608372 110.68717,18.3497048 113.255258,18.3497048 C115.823346,18.3497048 117.905266,16.2608372 117.905266,13.6846279 C117.905266,11.1084185 115.823346,9.01991517 113.255258,9.01991517 M40.5365367,18.3394699 C37.9219739,18.3394699 35.974032,16.2954028 35.974032,13.6984323 C35.974032,11.1269579 37.8838501,9.03153415 40.6004393,9.03153415 C42.2539207,9.03153415 43.253489,9.60993376 44.1121809,10.4327327 L43.0995416,11.6026443 C42.3820891,10.9342795 41.6130786,10.4844536 40.5877314,10.4844536 C38.8703474,10.4844536 37.6271502,11.8984002 37.6271502,13.6725718 C37.6271502,15.4467434 38.8703474,16.8865505 40.5877314,16.8865505 C41.6896892,16.8865505 42.394797,16.4367246 43.1638074,15.716639 L44.1760836,16.7452287 C43.240781,17.7224618 42.2154338,18.3394699 40.5365367,18.3394699 M48.2638569,9.18578619 L49.8403645,9.18578619 L49.8403645,16.7454108 L54.5564534,16.7454108 L54.5564534,18.1852179 L48.2638569,18.1852179 L48.2638569,9.18578619 Z M73.8560007,18.3394699 C71.2414379,18.3394699 69.293496,16.2954028 69.293496,13.6984323 C69.293496,11.1269579 71.2033141,9.03153415 73.9199034,9.03153415 C75.5733847,9.03153415 76.572953,9.60993376 77.431645,10.4327327 L76.4190057,11.6026443 C75.7015531,10.9342795 74.9325427,10.4844536 73.9071954,10.4844536 C72.1898115,10.4844536 70.9466143,11.8984002 70.9466143,13.6725718 C70.9466143,15.4467434 72.1898115,16.8865505 73.9071954,16.8865505 C75.0091532,16.8865505 75.714261,16.4367246 76.4832714,15.716639 L77.4955476,16.7452287 C76.5602451,17.7224618 75.5348978,18.3394699 73.8560007,18.3394699 M89.2727352,18.1852179 L87.3632802,18.1852179 L84.3003095,14.1356922 L82.903165,15.5754993 L82.903165,18.1852179 L81.3270204,18.1852179 L81.3270204,9.18578619 L82.903165,9.18578619 L82.903165,13.7113625 L87.170846,9.18578619 L89.10608,9.18578619 L85.3768515,13.0557458 L89.2727352,18.1852179 Z M98.2688137,9.11461536 L99.6016924,9.11461536 L101.805971,15.8128325 L103.946347,9.14011156 L105.599465,9.14011156 L102.472592,18.2040122 L101.113934,18.2040122 L98.9096557,11.7374463 L96.705377,18.2040122 L95.3467193,18.2040122 L92.219846,9.14011156 L93.9245221,9.14011156 L96.064535,15.8128325 L98.2688137,9.11461536 Z M125.129425,10.625739 L122.835465,10.625739 L122.835465,13.6470392 L125.142133,13.6470392 C126.270233,13.6470392 126.987686,13.0555273 126.987686,12.130015 C126.987686,11.1400338 126.295649,10.625739 125.129425,10.625739 L125.129425,10.625739 Z M127.013464,18.1853636 L124.809186,15.0482377 L122.835465,15.0482377 L122.835465,18.1853636 L121.258957,18.1853636 L121.258957,9.18593188 L125.257594,9.18593188 C127.320996,9.18593188 128.589609,10.2786264 128.589609,12.0400499 C128.589609,13.5312136 127.705501,14.4312296 126.449596,14.7783422 L128.871725,18.1853636 L127.013464,18.1853636 Z M140.905249,18.1852179 L138.995794,18.1852179 L135.932823,14.1356922 L134.535679,15.5754993 L134.535679,18.1852179 L132.959534,18.1852179 L132.959534,9.18578619 L134.535679,9.18578619 L134.535679,13.7113625 L138.80336,9.18578619 L140.738594,9.18578619 L137.009365,13.0557458 L140.905249,18.1852179 Z" id="Combined-Shape"></path>
                <path d="M18.7485143,2.7005799 C20.3663681,2.7005799 21.5632344,2.85089676 23.0552802,3.38887289 C24.8928286,4.97718338 26.3123939,7.03754154 27.1292072,9.38233387 L21.0104301,9.38233387 C19.7226816,6.04635443 17.0874727,3.756942 14.0414161,3.756942 C14.0252676,3.756942 14.0094946,3.75844893 13.9933461,3.75844893 C15.4729989,3.0675188 17.0968614,2.7005799 18.7485143,2.7005799 Z M27.1018675,18.6884168 C26.2921895,20.9363885 24.964633,22.888624 23.2664123,24.4204244 C22.1262535,24.7255789 20.9703218,24.957647 20.9537978,24.9610376 C20.2278666,25.1057035 19.485787,25.1791666 18.7485894,25.1791666 C17.1908231,25.1791666 15.6585939,24.8502778 14.2484172,24.2335643 C17.1611549,24.1333531 19.6750623,21.9426449 20.9767061,18.6884168 L27.1018675,18.6884168 Z M10.9265218,23.3940503 C13.0446033,25.1707278 15.7714456,26.2414058 18.7484017,26.2414058 C19.5659661,26.2414058 20.3640022,26.1592777 21.1361255,26.0055703 C20.9915402,26.0929726 20.844326,26.1769842 20.6959852,26.2591123 C20.6189982,26.3020599 20.5408845,26.3435007 20.4627709,26.3849414 C20.3632511,26.4373074 20.2633557,26.48892 20.1627093,26.5390256 C20.0883511,26.5763223 20.013993,26.6139957 19.9388837,26.6497854 C19.7815297,26.7247555 19.6226736,26.7967117 19.4623153,26.8660307 C19.3894593,26.8972996 19.3158522,26.9270616 19.2426207,26.9572003 C19.127328,27.0046688 19.0109086,27.0506304 18.8937381,27.095085 C18.8231354,27.1218331 18.7529082,27.1493347 18.6815544,27.1749526 C18.5095542,27.2371137 18.3360517,27.2962609 18.1606716,27.3516408 C18.099082,27.371231 18.0367413,27.3889375 17.9751517,27.4077742 C17.8384528,27.4488382 17.7010028,27.4880185 17.5628018,27.5253152 C17.4982078,27.5426449 17.4336138,27.5599747 17.3686443,27.576551 C17.1812466,27.6236427 16.9930979,27.6680974 16.8026959,27.7076544 C16.7576303,27.7170728 16.7118137,27.7246075 16.6663726,27.7336491 C16.5056387,27.7652947 16.3441538,27.7943032 16.1819177,27.8206746 C16.122957,27.830093 16.0639962,27.8395113 16.0046599,27.8481762 C15.8037425,27.8779382 15.6016986,27.9046863 15.3977769,27.9257834 C15.3733664,27.9280438 15.3485803,27.9295507 15.3237943,27.9321879 C15.1375233,27.9502711 14.9501256,27.9642103 14.7619769,27.9751356 C14.7060205,27.9781494 14.6500641,27.9811633 14.5937321,27.9838004 C14.3822995,27.9932188 14.1697403,28 13.9556788,28 C12.9924024,28 12.0516587,27.9020492 11.143212,27.7155658 C10.6888009,27.6221358 10.2426518,27.5068552 9.80589139,27.3704775 C9.5873234,27.3022887 9.37100869,27.2288255 9.1573228,27.1504649 C8.72995103,26.9933668 8.31196791,26.8159251 7.90525119,26.6192699 C7.49853447,26.4226148 7.10270859,26.207123 6.71927574,25.9731712 C6.33546734,25.7392194 5.96405198,25.4871843 5.60578074,25.218573 C5.24750949,24.9499617 4.90275792,24.6643973 4.57227711,24.3630101 C4.0765559,23.9109293 3.61350722,23.4238123 3.18688654,22.9054263 C2.90222238,22.5595845 2.63408227,22.1998036 2.38321729,21.8275904 C0.878778517,19.5931811 0,16.8995331 0,14.0001884 C0,11.1004669 0.878778517,8.40681889 2.38321729,6.17240962 C2.63408227,5.80019644 2.90222238,5.44041548 3.18688654,5.09495042 C3.61350722,4.57618772 4.0765559,4.08907068 4.57227711,3.6369899 C4.90275792,3.33560271 5.24750949,3.05003835 5.60578074,2.78142701 C5.96405198,2.51281568 6.33546734,2.26078065 6.71927574,2.02682884 C7.10270859,1.79325377 7.49853447,1.5773852 7.90525119,1.38073006 C8.31196791,1.18407492 8.72995103,1.00663321 9.1573228,0.849535137 C9.37100869,0.771174468 9.5873234,0.697711341 9.80589139,0.62952249 C10.2426518,0.493144787 10.6888009,0.377864187 11.143212,0.284434159 C12.0516587,0.0979508362 12.9924024,0 13.9556788,0 C14.1697403,0 14.3822995,0.00678121174 14.5937321,0.0161995614 C14.6500641,0.0188366993 14.7060205,0.0218505712 14.7619769,0.024864443 C14.9501256,0.0357897286 15.1375233,0.0497288861 15.3237943,0.0678121174 C15.3485803,0.0704492553 15.3733664,0.0719561912 15.3977769,0.0742165951 C15.6016986,0.0953136983 15.8037425,0.122061811 16.0046599,0.151823796 C16.0639962,0.160488678 16.122957,0.169907027 16.1819177,0.179325377 C16.3441538,0.205696756 16.5056387,0.234705273 16.6663726,0.266350928 C16.7118137,0.275392543 16.7576303,0.282927223 16.8026959,0.292345573 C16.9930979,0.331902641 17.1812466,0.376357251 17.3686443,0.423449 C17.4336138,0.440025295 17.4982078,0.457355058 17.5628018,0.474684822 C17.7010028,0.511981486 17.8384528,0.551161821 17.9751517,0.592225825 C18.0367413,0.611062524 18.099082,0.628769022 18.1606716,0.648359189 C18.3360517,0.703739085 18.5095542,0.762886321 18.6815544,0.825047428 C18.7529082,0.850665339 18.8231354,0.87816692 18.8937381,0.904915033 C19.0109086,0.949369643 19.127328,0.99533119 19.2426207,1.04279967 C19.3158522,1.07293839 19.3894593,1.10270038 19.4623153,1.1339693 C19.6226736,1.20328835 19.7815297,1.27524454 19.9388837,1.3502146 C20.013993,1.38600433 20.0883511,1.42405446 20.1627093,1.4609744 C20.2633557,1.51145675 20.3632511,1.56269257 20.4627709,1.6150586 C20.5408845,1.65649933 20.6189982,1.69794007 20.6959852,1.74088775 C20.844326,1.82301576 20.9915402,1.90702743 21.1361255,1.99442972 C20.3640022,1.84072225 19.5659661,1.75859424 18.7484017,1.75859424 C15.7714456,1.75859424 13.0446033,2.82927223 10.9265218,4.60594971 C8.24962721,6.85128426 6.54577331,10.2256906 6.54577331,14.0001884 C6.54577331,17.7743094 8.24962721,21.1487157 10.9265218,23.3940503 Z" id="Combined-Shape"></path>
            </g>
        </g>
    </g>
</svg>