<?xml version="1.0" standalone="no"?>
<svg version="1.1" preserveAspectRatio="xMidYMid meet" viewBox="0 0 142 28" class="ng-element" data-id="4020097c8382407691c2791923cae5b7" style="overflow: visible; width: 142px; height: 28px; pointer-events: all; filter: none;" xmlns="http://www.w3.org/2000/svg"><title>logo-clockwork-logomark</title><desc>Created with Sketch.</desc><defs/><g id="Symbols_1518641598298" stroke="none" stroke-width="1" fill="none" fill-rule="evenodd">
        <g id="logo-clockwork-logomark_1518641598298" fill="#778DA4">
            <g id="Group-2_1518641598298" transform="translate(36.000000, 9.000000)">
                <path d="M23.7344065,5.08107503 C23.7344065,3.3134596 25.1627762,1.88057291 26.9248194,1.88057291 C28.6868627,1.88057291 30.1152323,3.3134596 30.1152323,5.08107503 C30.1152323,6.84869046 28.6868627,8.28157715 26.9248194,8.28157715 C25.1627762,8.28157715 23.7344065,6.84869046 23.7344065,5.08107503 Z M22.2748117,5.08107503 C22.2748117,7.65728437 24.3567313,9.74615198 26.9248194,9.74615198 C29.4929076,9.74615198 31.5748272,7.65728437 31.5748272,5.08107503 C31.5748272,2.50486569 29.4929076,0.416362316 26.9248194,0.416362316 C24.3567313,0.416362316 22.2748117,2.50486569 22.2748117,5.08107503 Z" id="Fill-17_1518641598298" vector-effect="non-scaling-stroke"/>
                <path d="M75.0728957,5.08107503 C75.0728957,3.3134596 76.5012653,1.88057291 78.2633086,1.88057291 C80.0253518,1.88057291 81.4537215,3.3134596 81.4537215,5.08107503 C81.4537215,6.84869046 80.0253518,8.28157715 78.2633086,8.28157715 C76.5012653,8.28157715 75.0728957,6.84869046 75.0728957,5.08107503 Z M73.6133008,5.08107503 C73.6133008,7.65728437 75.6952204,9.74615198 78.2633086,9.74615198 C80.8313967,9.74615198 82.9133163,7.65728437 82.9133163,5.08107503 C82.9133163,2.50486569 80.8313967,0.416362316 78.2633086,0.416362316 C75.6952204,0.416362316 73.6133008,2.50486569 73.6133008,5.08107503 Z" id="Fill-18_1518641598298" vector-effect="non-scaling-stroke"/>
                <path d="M0.98208239,5.09487941 C0.98208239,2.52340507 2.89190052,0.427981301 5.60848972,0.427981301 C7.26197104,0.427981301 8.26153935,1.00638091 9.12023134,1.82917985 L8.10759203,2.9990914 C7.39013944,2.33072661 6.62112903,1.88090072 5.59578181,1.88090072 C3.87839783,1.88090072 2.63520063,3.29484737 2.63520063,5.06901897 C2.63520063,6.84319057 3.87839783,8.28299765 5.59578181,8.28299765 C6.6977396,8.28299765 7.40284736,7.83317176 8.17185778,7.1130861 L9.184134,8.14167584 C8.24883143,9.11890893 7.22348421,9.73591708 5.54458706,9.73591708 C2.93002426,9.73591708 0.98208239,7.69184994 0.98208239,5.09487941 Z" id="Fill-19_1518641598298" vector-effect="non-scaling-stroke"/>
                <polygon id="Fill-20_1518641598298" points="13.2719073 0.582233338 14.8484149 0.582233338 14.8484149 8.14185795 19.5645038 8.14185795 19.5645038 9.58166504 13.2719073 9.58166504" vector-effect="non-scaling-stroke"/>
                <path d="M34.3015464,5.09487941 C34.3015464,2.52340507 36.2113645,0.427981301 38.9279537,0.427981301 C40.5814351,0.427981301 41.5810034,1.00638091 42.4396954,1.82917985 L41.4270561,2.9990914 C40.7096035,2.33072661 39.9405931,1.88090072 38.9152458,1.88090072 C37.1978618,1.88090072 35.9546646,3.29484737 35.9546646,5.06901897 C35.9546646,6.84319057 37.1978618,8.28299765 38.9152458,8.28299765 C40.0172036,8.28299765 40.7223114,7.83317176 41.4913218,7.1130861 L42.503598,8.14167584 C41.5682955,9.11890893 40.5429482,9.73591708 38.8640511,9.73591708 C36.2494883,9.73591708 34.3015464,7.69184994 34.3015464,5.09487941 Z" id="Fill-21_1518641598298" vector-effect="non-scaling-stroke"/>
                <polygon id="Fill-22_1518641598298" points="54.2807856 9.58166504 52.3713306 9.58166504 49.3083599 5.53213931 47.9112154 6.9719464 47.9112154 9.58166504 46.3350708 9.58166504 46.3350708 0.582233338 47.9112154 0.582233338 47.9112154 5.10780962 52.1788964 0.582233338 54.1141304 0.582233338 50.3849018 4.45219294" vector-effect="non-scaling-stroke"/>
                <polygon id="Fill-23_1518641598298" points="63.2768641 0.511062504 64.6097428 0.511062504 66.8140215 7.20927964 68.9543975 0.536558709 70.6075158 0.536558709 67.4806424 9.60045938 66.1219847 9.60045938 63.9177061 3.13389348 61.7134274 9.60045938 60.3547697 9.60045938 57.2278964 0.536558709 58.9325724 0.536558709 61.0725854 7.20927964" vector-effect="non-scaling-stroke"/>
                <path d="M87.8435154,2.02218612 L87.8435154,5.04348634 L90.1501836,5.04348634 C91.2782834,5.04348634 91.995736,4.4519744 91.995736,3.52646218 C91.995736,2.53648098 91.3036992,2.02218612 90.1374757,2.02218612 L87.8435154,2.02218612 Z M92.0215149,9.58181073 L89.8172362,6.44468489 L87.8435154,6.44468489 L87.8435154,9.58181073 L86.2670078,9.58181073 L86.2670078,0.58237903 L90.2656441,0.58237903 C92.3290464,0.58237903 93.5976595,1.67507351 93.5976595,3.436497 C93.5976595,4.92766073 92.7135516,5.82767674 91.4576465,6.17478936 L93.8797752,9.58181073 L92.0215149,9.58181073 Z" id="Fill-24_1518641598298" vector-effect="non-scaling-stroke"/>
                <polygon id="Fill-25_1518641598298" points="105.9133 9.58166504 104.003845 9.58166504 100.940874 5.53213931 99.5437293 6.9719464 99.5437293 9.58166504 97.9675848 9.58166504 97.9675848 0.582233338 99.5437293 0.582233338 99.5437293 5.10780962 103.81141 0.582233338 105.746644 0.582233338 102.017416 4.45219294" vector-effect="non-scaling-stroke"/>
            </g>
            <g id="Group_1518641598298">
                <path d="M13.4808397,4.15764863 C13.4970298,4.15764863 13.5128433,4.15614285 13.5290334,4.15614285 C16.5829295,4.15614285 19.2249205,6.44379596 20.5159833,9.77721184 L26.6505079,9.77721184 C25.8315924,7.43422139 24.4083736,5.37544653 22.566096,3.7883566 C21.0702103,3.25079388 19.8702636,3.10059253 18.2482461,3.10059253 C16.5923423,3.10059253 14.9643006,3.46724945 13.4808397,4.15764863 Z" id="Fill-26_1518641598298" vector-effect="non-scaling-stroke"/>
                <path d="M21.2634325,18.6035552 C19.9584388,21.8552826 17.4380615,24.0443073 14.5178274,24.1444415 C15.9316333,24.7606811 17.467806,25.0893171 19.0295815,25.0893171 C19.7686763,25.0893171 20.5126658,25.0159105 21.2404652,24.8713558 C21.2570318,24.8679678 22.4159385,24.636078 23.5590317,24.331158 C25.261623,22.8005347 26.5925961,20.8497994 27.4043579,18.6035552 L21.2634325,18.6035552 Z" id="Fill-28_1518641598298" vector-effect="non-scaling-stroke"/>
                <path d="M6.56261984,13.9894298 C6.56261984,10.2178325 8.27085887,6.84601933 10.9546428,4.60241022 C13.0781756,2.82709805 15.8120357,1.75724284 18.7966535,1.75724284 C19.6163221,1.75724284 20.416412,1.83930773 21.1905225,1.99289708 C21.045565,1.90556196 20.897972,1.82161484 20.7492494,1.73954995 C20.6720642,1.69663528 20.5937496,1.65522638 20.5154349,1.61381749 C20.415659,1.56149171 20.3155065,1.51029526 20.2146011,1.4598517 C20.1400515,1.42296014 20.065502,1.38493925 19.9901994,1.34917702 C19.8324405,1.27426457 19.6731755,1.20236367 19.5124045,1.13309789 C19.439361,1.101853 19.3655645,1.07211388 19.2921445,1.04199832 C19.176555,0.994566319 19.059836,0.948640092 18.942364,0.904219643 C18.8715796,0.877492085 18.8011716,0.850011638 18.7296342,0.824413413 C18.5571913,0.762300074 18.3832423,0.70319829 18.2074108,0.647860952 C18.1456627,0.628285839 18.0831615,0.610592948 18.0214134,0.591770724 C17.8843627,0.550738276 17.746559,0.51158805 17.6080023,0.474320046 C17.543242,0.4570036 17.4784818,0.439687154 17.4133451,0.423123597 C17.2254652,0.376068036 17.0368322,0.331647588 16.8459402,0.292120917 C16.8007586,0.282709805 16.754824,0.275180916 16.709266,0.266146248 C16.5481185,0.234524912 16.3862179,0.205538687 16.2235643,0.179187573 C16.1644518,0.169776461 16.1053393,0.160365349 16.0458502,0.151707126 C15.8444158,0.121968012 15.6418519,0.0952404537 15.4374054,0.0741595627 C15.4129321,0.0719008959 15.3880822,0.0703951179 15.3632324,0.0677600066 C15.176482,0.0496906715 14.988602,0.0357622257 14.7999691,0.0248453357 C14.7438686,0.0218337799 14.6877682,0.018822224 14.6312913,0.0161871127 C14.4193145,0.00677600066 14.2062082,0 13.9915959,0 C13.0258403,0 12.0826755,0.097875565 11.1718908,0.284215583 C10.7163101,0.377573814 10.2690128,0.492765825 9.83112832,0.629038728 C9.61199782,0.697175179 9.39512638,0.770581852 9.18089055,0.848882304 C8.75241887,1.00585965 8.33336001,1.183165 7.92559654,1.37966902 C7.51783307,1.57617304 7.12098847,1.79187573 6.7365688,2.02527131 C6.35177262,2.25904333 5.97940136,2.51088469 5.62020805,2.7792896 C5.26101475,3.04769452 4.9153759,3.33303943 4.58404455,3.63419502 C4.08704753,4.0859284 3.62280712,4.57267111 3.19508847,5.09103516 C2.90969169,5.43623475 2.64086148,5.79573923 2.38935086,6.16766638 C0.881040185,8.40035859 0,11.0919366 0,13.9894298 C0,16.8865465 0.881040185,19.5781246 2.38935086,21.8108168 C2.64086148,22.1827439 2.90969169,22.5422484 3.19508847,22.8878244 C3.62280712,23.405812 4.08704753,23.8925548 4.58404455,24.3442881 C4.9153759,24.6454437 5.26101475,24.9307886 5.62020805,25.1991936 C5.97940136,25.4675985 6.35177262,25.7194398 6.7365688,25.9532118 C7.12098847,26.1869839 7.51783307,26.4023101 7.92559654,26.5988141 C8.33336001,26.7953182 8.75241887,26.9726235 9.18089055,27.1296008 C9.39512638,27.2079013 9.61199782,27.281308 9.83112832,27.3494444 C10.2690128,27.4857173 10.7163101,27.6009093 11.1718908,27.6942676 C12.0826755,27.8806076 13.0258403,27.9784832 13.9915959,27.9784832 C14.2062082,27.9784832 14.4193145,27.9717072 14.6312913,27.962296 C14.6877682,27.9596609 14.7438686,27.9566494 14.7999691,27.9536378 C14.988602,27.9427209 15.176482,27.9287925 15.3632324,27.9107231 C15.3880822,27.908088 15.4129321,27.9065823 15.4374054,27.9043236 C15.6418519,27.8832427 15.8444158,27.8565151 16.0458502,27.826776 C16.1053393,27.8181178 16.1644518,27.8087067 16.2235643,27.7992956 C16.3862179,27.7729445 16.5481185,27.7439582 16.709266,27.7123369 C16.754824,27.7033022 16.8007586,27.6957733 16.8459402,27.6863622 C17.0368322,27.6468356 17.2254652,27.6024151 17.4133451,27.5553596 C17.4784818,27.538796 17.543242,27.5214796 17.6080023,27.5041631 C17.746559,27.4668951 17.8843627,27.4277449 18.0214134,27.3867124 C18.0831615,27.3678902 18.1456627,27.3501973 18.2074108,27.3306222 C18.3832423,27.2752849 18.5571913,27.2161831 18.7296342,27.1540697 C18.8011716,27.1284715 18.8715796,27.1009911 18.942364,27.0742635 C19.059836,27.0298431 19.176555,26.9839168 19.2921445,26.9364848 C19.3655645,26.9063693 19.439361,26.8766302 19.5124045,26.8453853 C19.6731755,26.7761195 19.8324405,26.7042186 19.9901994,26.6293061 C20.065502,26.5935439 20.1400515,26.5558995 20.2146011,26.5186315 C20.3155065,26.4685643 20.415659,26.4169914 20.5154349,26.3646657 C20.5937496,26.3232568 20.6720642,26.2818479 20.7492494,26.2389332 C20.897972,26.1568683 21.045565,26.0729212 21.1905225,25.9855861 C20.416412,26.1391754 19.6163221,26.2212403 18.7966535,26.2212403 C15.8120357,26.2212403 13.0781756,25.1513851 10.9546428,23.3760729 C8.27085887,21.1324638 6.56261984,17.7606506 6.56261984,13.9894298 Z" id="Fill-29_1518641598298" vector-effect="non-scaling-stroke"/>
            </g>
        </g>
    </g></svg>