<?xml version="1.0" encoding="utf-8"?>
<!-- Generator: Adobe Illustrator 22.0.1, SVG Export Plug-In . SVG Version: 6.00 Build 0)  -->
<svg version="1.1" id="Layer_1" xmlns="http://www.w3.org/2000/svg" xmlns:xlink="http://www.w3.org/1999/xlink" x="0px" y="0px"
	 viewBox="0 0 256 256" style="enable-background:new 0 0 256 256;" xml:space="preserve">
<style type="text/css">
	.st0{fill:#455565;}
</style>
<g id="XMLID_2_">
	<path id="XMLID_4_" class="st0" d="M216.3,119.7l-134.8,0.1c-6.4,0-11.6,5.2-11.6,11.6c0,6.4,5.2,11.6,11.6,11.6l134.8-0.1l-15,15
		c-4.5,4.5-4.5,11.9,0,16.5c4.5,4.5,11.9,4.5,16.5,0l34.8-34.9c0.3-0.3,0.5-0.6,0.8-0.8c0.1-0.1,0.1-0.1,0.2-0.2
		c0.2-0.2,0.4-0.5,0.5-0.7c0-0.1,0.1-0.1,0.1-0.2c0.2-0.2,0.3-0.5,0.5-0.8c0-0.1,0-0.1,0.1-0.2c0.1-0.3,0.3-0.6,0.4-0.9l0-0.1
		c0.1-0.3,0.2-0.6,0.3-1l0-0.1c0.1-0.3,0.2-0.6,0.2-1c0-0.1,0-0.2,0-0.3c0-0.3,0.1-0.5,0.1-0.8c0-0.4,0.1-0.8,0.1-1.2s0-0.8-0.1-1.2
		c0-0.3-0.1-0.6-0.1-0.8c0-0.1,0-0.2,0-0.3c-0.1-0.3-0.2-0.7-0.2-1l0-0.1c-0.1-0.3-0.2-0.6-0.3-1l0-0.1c-0.1-0.3-0.3-0.6-0.4-0.9
		c0-0.1,0-0.1-0.1-0.2c-0.1-0.3-0.3-0.5-0.5-0.8c0-0.1-0.1-0.1-0.1-0.2c-0.2-0.2-0.3-0.5-0.5-0.7c-0.1-0.1-0.1-0.1-0.2-0.2
		c-0.2-0.3-0.5-0.6-0.8-0.8L217.7,88c-2.3-2.3-5.3-3.4-8.2-3.4c-2.9,0-6,1.1-8.2,3.4c-4.5,4.5-4.5,11.9,0,16.5L216.3,119.7z"/>
	<path id="XMLID_5_" class="st0" d="M95.3,226.6c31.8,0,61.3-15.9,79.1-42.2c3.6-5.3,2.2-12.6-3.2-16.1c-5.3-3.6-12.6-2.2-16.1,3.2
		c-13.4,19.9-35.7,31.9-59.7,32c-39.7,0-71.9-32.2-72-71.8s32.2-71.9,71.8-72c23.9,0,46.2,11.9,59.6,31.6c3.6,5.3,10.8,6.7,16.2,3.1
		c5.3-3.6,6.7-10.8,3.1-16.2c-17.8-26.3-47.3-42-78.9-41.9c-52.5,0-95.2,42.8-95.1,95.3S42.8,226.7,95.3,226.6z"/>
</g>
</svg>
