<svg id="Capa_1" data-name="Capa 1" xmlns="http://www.w3.org/2000/svg" viewBox="0 0 256 256"><defs><style>.cls-1{fill:#838383;}</style></defs><title>Artboard 1</title><path class="cls-1" d="M0,63.2V192.8a32.49,32.49,0,0,0,32.42,32.42H137.16a32.49,32.49,0,0,0,32.42-32.42v-21a6.42,6.42,0,1,0-12.84,0v21a19.68,19.68,0,0,1-19.63,19.63H32.42A19.68,19.68,0,0,1,12.79,192.8V63.2A19.68,19.68,0,0,1,32.42,43.57H137.16A19.68,19.68,0,0,1,156.8,63.2v21a6.42,6.42,0,1,0,12.84,0v-21a32.49,32.49,0,0,0-32.42-32.42H32.42A32.46,32.46,0,0,0,0,63.2Z"/><path class="cls-1" d="M201.23,176.3a6.43,6.43,0,0,0,9.09,0l43.81-43.81a6.37,6.37,0,0,0,0-9L210.31,79.65a6.39,6.39,0,0,0-9,9l32.89,32.89h-120a6.42,6.42,0,1,0,0,12.84h120l-32.89,32.89A6.3,6.3,0,0,0,201.23,176.3Z"/></svg>