<?xml version="1.0" encoding="utf-8"?>
<!-- Generator: Adobe Illustrator 21.1.0, SVG Export Plug-In . SVG Version: 6.00 Build 0)  -->
<svg version="1.1" id="Layer_1" xmlns="http://www.w3.org/2000/svg" xmlns:xlink="http://www.w3.org/1999/xlink" x="0px" y="0px"
	 viewBox="0 0 256 256" style="enable-background:new 0 0 256 256;" xml:space="preserve">
<style type="text/css">
	.st0{fill:#838383;}
	.st1{fill:none;stroke:#838383;stroke-width:5;}
	.st2{fill:none;stroke:#838383;stroke-width:10;}
</style>
<title>Artboard 1</title>
<path class="st0" d="M81.9,101.5c9.3-0.1,16.8-7.7,16.8-17c-0.1-9.3-7.7-16.8-17-16.8c-9.3,0.1-16.8,7.6-16.8,16.9
	C65,94,72.6,101.5,81.9,101.5z M81.9,73.4c6.2,0,11.2,5.1,11.2,11.3C93.1,91,88,96,81.8,95.9c-6.2,0-11.2-5.1-11.2-11.3
	C70.6,78.4,75.7,73.4,81.9,73.4L81.9,73.4z M172.6,101.5c9.3-0.1,16.8-7.7,16.8-17c-0.1-9.3-7.7-16.8-17-16.8
	c-9.3,0.1-16.8,7.6-16.8,16.9C155.6,94,163.2,101.5,172.6,101.5L172.6,101.5z M172.6,73.4c6.2,0,11.2,5.1,11.2,11.3
	s-5.1,11.2-11.3,11.2c-6.2,0-11.2-5.1-11.2-11.3C161.3,78.4,166.3,73.4,172.6,73.4L172.6,73.4z M200.9,107.2v36.6
	c0,4.7-3.8,8.5-8.5,8.4v-31c0-7.8-6.4-14.1-14.2-14.1h-14.2c-1.6,0-2.8,1.3-2.8,2.8c0,0,0,0,0,0v16.9h-22.7c-1.6,0-2.8,1.2-2.8,2.8
	c0,0,0,0,0,0l0,0v8.4h-17v-8.4c0-1.6-1.3-2.8-2.8-2.8c0,0,0,0,0,0H93.2V110c0-1.6-1.3-2.8-2.8-2.8c0,0,0,0,0,0H76.3
	c-7.8,0-14.1,6.3-14.2,14v31c-4.7,0-8.5-3.8-8.5-8.4v-36.6h-5.7v36.6c0,5.6,3.4,10.7,8.5,12.9v35h5.7v-33.8h28.3v31
	c0,1.6,1.3,2.8,2.8,2.8c0,0,0,0,0,0h14.2v-47.9h39.7v47.8h14.2c1.6,0,2.8-1.3,2.8-2.8c0,0,0,0,0,0v-31h28.3v33.8h5.7v-35
	c5.1-2.2,8.5-7.3,8.5-12.9v-36.5H200.9z M104.6,138.2H81.9v-16.9h-5.7v19.7c0,1.6,1.3,2.8,2.8,2.8c0,0,0,0,0,0h19.8
	c1.6,0,2.8,1.3,2.8,2.8c0,0,0,0,0,0l0,0V186h-5.7v-31c0-1.6-1.3-2.8-2.8-2.8c0,0,0,0,0,0H67.8v-31c0-4.7,3.8-8.5,8.5-8.4h11.3v16.9
	c0,1.6,1.3,2.8,2.8,2.8c0,0,0,0,0,0h22.7v5.6L104.6,138.2z M161.2,152.2c-1.6,0-2.8,1.3-2.8,2.8c0,0,0,0,0,0v31h-5.7v-39.5
	c0-1.6,1.3-2.8,2.8-2.8h19.8c1.6,0,2.8-1.2,2.8-2.8c0,0,0,0,0,0l0,0v-19.7h-5.7v16.9h-31.2v-5.6h22.7c1.6,0,2.8-1.3,2.8-2.8
	c0,0,0,0,0,0v-16.9h11.3c4.7,0,8.5,3.8,8.5,8.4v31L161.2,152.2L161.2,152.2z"/>
<ellipse class="st1" cx="127.2" cy="97.8" rx="18.9" ry="18.8"/>
<path class="st1" d="M118.8,93.9l7.5,9.4l10-11.5"/>
<path class="st2" d="M127.6,248.5c66.7-0.2,120.6-54.4,120.4-121.1S193.6,6.8,126.9,7C60.2,7.2,6.2,61.4,6.4,128.2
	c0.1,33.4,14.2,65.4,38.7,88.1C67.5,237.2,96.9,248.6,127.6,248.5z"/>
</svg>
