<?xml version="1.0" encoding="utf-8"?>
<!-- Generator: Adobe Illustrator 21.1.0, SVG Export Plug-In . SVG Version: 6.00 Build 0)  -->
<svg version="1.1" id="Layer_1" xmlns="http://www.w3.org/2000/svg" xmlns:xlink="http://www.w3.org/1999/xlink" x="0px" y="0px"
	 viewBox="0 0 256 256" style="enable-background:new 0 0 256 256;" xml:space="preserve">
<style type="text/css">
	.st0{fill:#838383;}
	.st1{fill:none;stroke:#838383;stroke-width:10;}
</style>
<title>Artboard 1</title>
<path class="st0" d="M210,86.1v-0.2c0-0.2,0-0.4,0-0.6l0,0c-0.1-0.3-0.1-0.5-0.3-0.8l0,0l0,0l0,0c-0.2-0.2-0.4-0.5-0.6-0.6l0,0
	l-0.7-0.3h-0.3c-0.3-0.1-0.7-0.1-1,0h-0.2L41.7,116.3c-1.2,0.2-2.1,1.2-2.2,2.3c-0.2,1.2,0.4,2.3,1.5,2.9L88.3,146l8.3,45.1l0,0
	c-0.1,0.3-0.1,0.7,0,1s0.2,0.5,0.3,0.7l0,0l0,0l0,0l0.4,0.4l0,0l0,0l0.6,0.3H98h0.8l0,0c0.8,0,1.5-0.3,2-0.9l31.5-20.6l33,21
	c0.7,0.5,1.6,0.6,2.4,0.3c0.8-0.3,1.5-0.9,1.8-1.7l40.4-105v-0.3v-0.2L210,86.1z M177.2,103.8L108.9,153l-0.3,0.3l0,0l0,0v0.2
	c-0.1,0.2-0.2,0.3-0.3,0.5l0,0l0,0l-7.9,24.9l-6.6-33.1L177.2,103.8z M104.4,184.6l7.9-25.1l12.1,7.9l3.5,2.2l-11.8,7.6L104.4,184.6
	z M187.2,92.4l-96.6,48.5l-40.2-20.8L187.2,92.4z M165.9,187.2l-43.8-27.8l-6.6-4.2l85.8-61.8L165.9,187.2L165.9,187.2z"/>
<path class="st1" d="M128.6,248.5c66.7-0.2,120.6-54.4,120.4-121.1S194.5,6.8,127.9,7C61.2,7.2,7.2,61.4,7.4,128.2
	c0.1,33.4,14.2,65.4,38.7,88.1C68.5,237.2,97.9,248.6,128.6,248.5z"/>
</svg>
