<?xml version="1.0" encoding="utf-8"?>
<!-- Generator: Adobe Illustrator 22.0.1, SVG Export Plug-In . SVG Version: 6.00 Build 0)  -->
<svg version="1.1" id="Layer_1" xmlns="http://www.w3.org/2000/svg" xmlns:xlink="http://www.w3.org/1999/xlink" x="0px" y="0px"
	 viewBox="0 0 256 256" style="enable-background:new 0 0 256 256;" xml:space="preserve">
<style type="text/css">
	.st0{fill:#009CF6;}
</style>
<title>icon-mobile-phone</title>
<desc>Created with Sketch.</desc>
<g id="Symbols">
	<g id="overview" transform="translate(-106.000000, -511.000000)">
		<g id="contact">
			<g transform="translate(0.000000, 399.000000)">
				<g id="Group-9" transform="translate(0.000000, 81.000000)">
					<g id="Group-4" transform="translate(0.000000, 26.000000)">
						<g id="icon-mobile-phone" transform="translate(104.000000, 5.000000)">
							<path class="st0" d="M72.5,5h122.8l0,0c11.3,0,20.4,9.1,20.4,20.4V230c0,11.3-9.1,20.4-20.4,20.4H72.5
								c-11.3,0-20.4-9.1-20.4-20.4V25.4l0,0C52.1,14.1,61.2,5,72.5,5L72.5,5z M72.5,45.9v143.2h122.8V45.9H72.5z M123.6,209.5
								c-5.6,0-10.2,4.6-10.2,10.2S118,230,123.6,230H144c5.6,0,10.2-4.6,10.2-10.2s-4.6-10.2-10.2-10.2h-20.4V209.5z"/>
						</g>
					</g>
				</g>
			</g>
		</g>
	</g>
</g>
</svg>
