<svg id="Capa_1" data-name="Capa 1" xmlns="http://www.w3.org/2000/svg" viewBox="0 0 256 256"><defs><style>.cls-1{fill:#838383;}.cls-2{fill:none;stroke:#838383;stroke-miterlimit:10;stroke-width:5px;}</style></defs><title>Artboard 1</title><path class="cls-1" d="M193.54,100.42H174.68a5.28,5.28,0,0,0-5.27,5.27v11.17h-15.6a5.28,5.28,0,0,0-5.27,5.27v10.63h-15.6a5.28,5.28,0,0,0-5.27,5.27v10.63h-15.6a5.28,5.28,0,0,0-5.27,5.27v10.62H91.21a5.28,5.28,0,0,0-5.27,5.27v10.63H71.07a5.28,5.28,0,0,0-5.27,5.27v9.72a5.28,5.28,0,0,0,5.27,5.27H89.92a5.22,5.22,0,0,0,.65,0,5.3,5.3,0,0,0,.65,0h18.86a5.29,5.29,0,0,0,1-.1,5.26,5.26,0,0,0,1,.1h18.86a5.29,5.29,0,0,0,1-.1,5.26,5.26,0,0,0,1,.1h18.86a5.29,5.29,0,0,0,1-.1,5.26,5.26,0,0,0,1,.1h18.86a5.29,5.29,0,0,0,1-.1,5.26,5.26,0,0,0,1,.1h18.86a5.28,5.28,0,0,0,5.27-5.27V105.69A5.28,5.28,0,0,0,193.54,100.42Z"/><path class="cls-1" d="M74.63,166.41a2.84,2.84,0,1,0,5.68,0V140.2l35.51-27v21.24a2.84,2.84,0,0,0,5.68,0V108.92l35.1-26.66v20.42a2.84,2.84,0,1,0,5.68,0V77.94l20.24-15.37a4.05,4.05,0,0,0-4.9-6.46L58.79,146.36a4.05,4.05,0,1,0,4.9,6.46l10.93-8.31v21.9Z"/><circle class="cls-2" cx="127.66" cy="128.32" r="123.66"/></svg>