<svg id="Layer_1" data-name="Layer 1" xmlns="http://www.w3.org/2000/svg" viewBox="0 0 256 256"><defs><style>.cls-1{fill:#fff;}</style></defs><title>Artboard 1</title><path class="cls-1" d="M249,57.5a14.18,14.18,0,0,0-4.06-10L239.5,42a13.66,13.66,0,0,0-19.59,0L194.28,68.11V40.24a4.92,4.92,0,0,0-4.87-5H9.23a4.92,4.92,0,0,0-4.87,5V224a4.92,4.92,0,0,0,4.87,5H189.4a4.92,4.92,0,0,0,4.87-5V119.18l50.67-51.68A14.18,14.18,0,0,0,249,57.5ZM184.53,219.06H14.1V45.21H184.53V78.05l-89.22,91A5,5,0,0,0,94.13,171l-9.07,27.75a5,5,0,0,0,1.18,5.09,4.8,4.8,0,0,0,5,1.2l27.21-9.25a4.86,4.86,0,0,0,1.91-1.2l64.19-65.48Zm-70.27-32.32-16.87,5.74L103,175.26,206.49,69.71l11.25,11.47ZM238.05,60.46,224.63,74.15,219,68.42l-5.62-5.74L226.81,49a4,4,0,0,1,5.8,0l5.44,5.55h0a4.25,4.25,0,0,1,0,5.92Z"/><path class="cls-1" d="M156.36,66.34h-4.65a5,5,0,0,0,0,9.94h4.65a5,5,0,0,0,0-9.94Z"/><path class="cls-1" d="M130.55,66.34H41.75a5,5,0,0,0,0,9.94h88.8a5,5,0,0,0,0-9.94Z"/><path class="cls-1" d="M125.9,95.3H41.75a5,5,0,0,0,0,9.94H125.9a5,5,0,0,0,0-9.94Z"/><path class="cls-1" d="M95.45,124.27H41.75a5,5,0,0,0,0,9.94H95.45a5,5,0,0,0,0-9.94Z"/><path class="cls-1" d="M72.21,152.71H41.75a5,5,0,0,0,0,9.94H72.21a5,5,0,0,0,0-9.94Z"/></svg>