<?xml version="1.0" encoding="utf-8"?>
<!-- Generator: Adobe Illustrator 22.0.1, SVG Export Plug-In . SVG Version: 6.00 Build 0)  -->
<svg version="1.1" id="Capa_1" xmlns="http://www.w3.org/2000/svg" xmlns:xlink="http://www.w3.org/1999/xlink" x="0px" y="0px"
	 viewBox="0 0 256 256" style="enable-background:new 0 0 256 256;" xml:space="preserve">
<style type="text/css">
	.st0{fill:#455565;}
</style>
<title>Artboard 1</title>
<path class="st0" d="M144.6,223.3c-1.9,2.7-4.7,4.6-7.9,5.5l-15.7,4.3c-7.5,2.1-15.3-2.3-17.4-9.8c-0.2-0.8-0.4-1.7-0.5-2.6
	l-1.4-16.3c-0.3-3.3,0.6-6.7,2.5-9.4l0.6-0.8H48.4c-4.6-0.2-8.2-4-8-8.6c0.2-4.4,3.6-7.8,8-8h68.1l15.2-21.8H48.4
	c-4.6,0-8.3-3.7-8.3-8.3s3.7-8.3,8.3-8.3l95.1-0.2l35.7-51.1V50.1c0.1-6.1-4.7-11.1-10.8-11.2c-0.1,0-0.1,0-0.2,0h-27.3v21.6
	c0,10.1-8.3,18.3-18.4,18.3h-0.1h-55c-10,0.1-18.2-8-18.3-18c0-0.1,0-0.2,0-0.3V38.8H21.6c-6.2,0-11.2,5-11.2,11.2l0,0v193.2
	c0,6.3,5,11.4,11.2,11.5h146.6c6.2,0,11-5.3,11-11.5v-69.1L144.6,223.3z M48.4,101h92.9c4.6,0.2,8.2,4,8,8.6c-0.2,4.4-3.6,7.8-8,8
	H48.4c-4.6-0.2-8.2-4-8-8.6C40.6,104.6,44.1,101.2,48.4,101z"/>
<path class="st0" d="M67.6,67.8h54.9c4.2,0,7.5-3.4,7.6-7.5l0,0V28.7c0-4.2-3.4-7.5-7.5-7.5h-8.3c0-10.7-8.7-19.3-19.3-19.3
	c-10.7,0-19.3,8.6-19.3,19.3h-8c-4.2,0-7.5,3.4-7.5,7.5l0,0v31.5C60,64.4,63.4,67.8,67.6,67.8L67.6,67.8z M94.9,12.7
	c4.7,0,8.6,3.8,8.6,8.5H86.2C86.3,16.5,90.2,12.7,94.9,12.7z"/>
<path class="st0" d="M248.6,52.8c-0.3-1.4-1.1-2.6-2.2-3.5l-13.7-9.6c-2.4-1.7-5.7-1.1-7.4,1.3l0,0L128,180.5l22.5,15.7l97.3-139.5
	C248.5,55.6,248.8,54.2,248.6,52.8z"/>
<path class="st0" d="M112.6,203.4l1.4,16.4c0.1,0.9,0.6,1.8,1.3,2.3c0.5,0.4,1.2,0.6,1.8,0.6c0.3,0,0.6,0,0.8-0.1l15.9-4.3
	c0.7-0.2,1.3-0.6,1.8-1.2l6-8.5l-22.5-15.7l-6,8.5C112.7,201.9,112.5,202.7,112.6,203.4z"/>
</svg>
