<?xml version="1.0" encoding="utf-8"?>
<!-- Generator: Adobe Illustrator 21.1.0, SVG Export Plug-In . SVG Version: 6.00 Build 0)  -->
<svg version="1.1" id="Layer_1" xmlns="http://www.w3.org/2000/svg" xmlns:xlink="http://www.w3.org/1999/xlink" x="0px" y="0px"
	 viewBox="0 0 256 256" style="enable-background:new 0 0 256 256;" xml:space="preserve">
<style type="text/css">
	.st0{fill:#29AAE1;}
</style>
<title>Artboard 1</title>
<path class="st0" d="M238.1,209.1c-27-12.3-28.2-65-28.2-66.4v-35.2c0-33-19.8-62.9-50.2-75.8C159.8,14.2,145.6,0,128,0
	c-17.5,0-31.8,14.2-31.8,31.8c-30.4,12.9-50.2,42.8-50.2,75.8v35.5c0,1.3-1.1,54-28.2,66.5c-3.4,2.1-4.6,6.5-2.5,10
	c1.2,2,3.2,3.3,5.5,3.5h68.8c1.4,7.9,5.1,15.1,10.7,20.9c14.3,15.3,38.3,16.1,53.6,1.9c0.6-0.6,1.3-1.2,1.9-1.9
	c5.5-5.8,9.2-13,10.7-20.9h68.8c4-0.4,6.9-4,6.5-8c-0.2-2.3-1.5-4.3-3.5-5.5V209.1z M202.3,183.9c3,8.9,7.6,17.2,13.5,24.5H40.4
	c5.9-7.3,10.5-15.6,13.5-24.5H202.3z M128.1,14.1c7.7,0,14.6,5.1,16.7,12.5c-11-2.3-22.4-2.3-33.5,0
	C113.5,19.2,120.3,14.1,128.1,14.1z M60.6,142.8v-35.2c0-37.2,30.2-67.4,67.4-67.4s67.4,30.2,67.4,67.4v35.5
	c0.2,9.1,1.3,18.1,3.1,27H57.5c1.8-9,2.8-18.1,3-27.2H60.6z M128.1,241.5c-11.1-0.3-20.6-7.8-23.6-18.5h47.3
	C148.8,233.8,139.2,241.3,128.1,241.5z"/>
<path class="st0" d="M128.1,49.6C97,49.7,72,74.9,72,106c-0.5,4,2.2,7.7,6.2,8.2c4,0.5,7.7-2.2,8.2-6.2c0.1-0.7,0.1-1.3,0-2
	c0-23.1,18.6-41.8,41.7-42c4-0.5,6.8-4.2,6.2-8.2C133.9,52.6,131.3,50,128.1,49.6z"/>
</svg>
