<?xml version="1.0" encoding="utf-8"?>
<!-- Generator: Adobe Illustrator 21.1.0, SVG Export Plug-In . SVG Version: 6.00 Build 0)  -->
<svg version="1.1" id="Layer_1" xmlns="http://www.w3.org/2000/svg" xmlns:xlink="http://www.w3.org/1999/xlink" x="0px" y="0px"
	 viewBox="0 0 256 256" style="enable-background:new 0 0 256 256;" xml:space="preserve">
<style type="text/css">
	.st0{fill:#838383;}
</style>
<title>Artboard 1</title>
<path class="st0" d="M238.1,209c-27-12.3-28.2-65-28.2-66.3v-35.2c0-33-19.8-62.8-50.1-75.8c0-17.5-14.2-31.7-31.7-31.7
	S96.3,14.2,96.3,31.7C66,44.7,46.2,74.5,46.2,107.5v35.4c0,1.3-1.1,53.9-28.2,66.5c-3.4,2.1-4.6,6.5-2.5,10c1.2,2,3.2,3.2,5.5,3.5
	h68.7c1.4,7.9,5.1,15.1,10.6,20.9c14.3,15.3,38.2,16.1,53.5,1.9c0.6-0.6,1.3-1.2,1.9-1.9c5.5-5.8,9.2-13,10.6-20.9h68.7
	c4-0.4,6.9-4,6.5-8c-0.2-2.3-1.5-4.3-3.5-5.5V209z M202.3,183.8c3,8.9,7.6,17.2,13.5,24.5H40.5C46.4,201,51,192.7,54,183.8H202.3z
	 M128.2,14.1c7.7,0,14.6,5.1,16.7,12.5c-11-2.3-22.4-2.3-33.4,0C113.6,19.2,120.4,14.1,128.2,14.1z M60.8,142.7v-35.2
	c0-37.2,30.2-67.4,67.4-67.4s67.4,30.2,67.4,67.4v35.4c0.2,9.1,1.3,18.1,3.1,27h-141c1.8-9,2.8-18.1,3-27.2H60.8z M128.2,241.3
	c-11.1-0.3-20.6-7.8-23.6-18.5h47.3C148.9,233.6,139.3,241.1,128.2,241.3z"/>
<path class="st0" d="M128.2,49.5c-31,0.1-56.1,25.3-56.1,56.3c-0.5,4,2.2,7.7,6.2,8.2c4,0.5,7.7-2.2,8.2-6.2c0.1-0.7,0.1-1.3,0-2
	c0-23,18.6-41.8,41.7-41.9c4-0.5,6.8-4.2,6.2-8.2C133.9,52.5,131.4,50,128.2,49.5z"/>
</svg>
