<svg id="Capa_1" data-name="Capa 1" xmlns="http://www.w3.org/2000/svg" viewBox="0 0 256 256"><defs><style>.cls-1{fill:#838383;}.cls-2{fill:none;stroke:#838383;stroke-miterlimit:10;stroke-width:5px;}</style></defs><title>Artboard 1</title><g id="_Group_" data-name="&lt;Group&gt;"><path id="_Path_" data-name="&lt;Path&gt;" class="cls-1" d="M177.25,126a16.84,16.84,0,0,0-16.83,16.83,4,4,0,0,0,8.07,0,8.83,8.83,0,0,1,8.8-8.8,4,4,0,1,0,0-8Z"/><path id="_Compound_Path_" data-name="&lt;Compound Path&gt;" class="cls-1" d="M204.7,114.38c-1-.95-2-1.85-3.13-2.73h0L186.67,99a39.11,39.11,0,0,0-20-7.16l.8.8-9.05-9.09h-.07a14.18,14.18,0,0,0-23.05,6.11,13,13,0,0,0-6.22-2c-.36,0-.76,0-1.13,0a13.2,13.2,0,0,0-7,2,14.19,14.19,0,0,0-23.05-6.07h-.07l-9.05,9.09.8-.8a39.32,39.32,0,0,0-20,7.16L54.66,111.69h0a31.68,31.68,0,0,0-3.13,2.73,39.54,39.54,0,1,0,66.72,33.3,19.85,19.85,0,0,0,19.71,0,39.55,39.55,0,0,0,78.79-4.91A39.21,39.21,0,0,0,204.7,114.38ZM79,169.83a27,27,0,1,1,27-27A27,27,0,0,1,79,169.83Zm49.12-30.69a8.76,8.76,0,1,1,8.76-8.76A8.77,8.77,0,0,1,128.14,139.14Zm49.12,30.69a27,27,0,1,1,27-27A27,27,0,0,1,177.25,169.83Z"/><path id="_Path_2" data-name="&lt;Path&gt;" class="cls-1" d="M79,126a16.84,16.84,0,0,0-16.83,16.83,4,4,0,1,0,8.07,0,8.83,8.83,0,0,1,8.8-8.8,4,4,0,1,0,0-8Z"/></g><circle class="cls-2" cx="127.73" cy="128.53" r="124.27"/></svg>