<?xml version="1.0" encoding="utf-8"?>
<!-- Generator: Adobe Illustrator 21.1.0, SVG Export Plug-In . SVG Version: 6.00 Build 0)  -->
<svg version="1.1" id="Layer_1" xmlns="http://www.w3.org/2000/svg" xmlns:xlink="http://www.w3.org/1999/xlink" x="0px" y="0px"
	 viewBox="0 0 256 256" style="enable-background:new 0 0 256 256;" xml:space="preserve">
<style type="text/css">
	.st0{fill:#838383;}
</style>
<title>Artboard 1</title>
<path class="st0" d="M237.8,184.1c-12.1-9.9-25.6-18-40-24.1c-10.5-4.9-20.5-10.6-30.1-17.1c15.9-18.1,25.3-40.9,26.8-65
	c1-16.3-2-32.6-8.6-47.5C174.4,9.7,151.6-2.2,128,0.4c-23.6-2.6-46.4,9.3-57.9,30.1c-6.3,14.8-8.9,30.9-7.8,46.9
	c1.3,24.2,10.7,47.3,26.8,65.6c-9.6,6.5-19.6,12.2-30.1,17.1c-14.4,6.1-27.9,14.2-40,24.1c-12,14-18.6,31.8-18.8,50.2
	c-0.2,11.8,9.3,21.5,21,21.7c0,0,0,0,0,0h213.2c11.8,0,21.4-9.6,21.4-21.4l0,0l0,0C255.9,216.2,249.5,198.3,237.8,184.1z
	 M237.8,238.4c-1,1-2.4,1.5-3.8,1.5H21.5c-2.9,0-5.3-2.4-5.3-5.3l0,0l0,0c0.2-14.1,5.2-27.8,14-38.8c11-8.5,23.1-15.6,35.9-21.1
	c12.2-5.3,23.9-11.9,34.6-19.9l10.8-10.2l-10.1-12c-13.6-15.2-21.8-34.4-23.3-54.7c-1-13.5,1.1-27.1,6.2-39.7
	c8.8-15.4,26-24.1,43.6-22c17.6-2.1,34.8,6.5,43.6,21.8c5.1,12.6,7.2,26.2,6.2,39.7c-1.5,20.4-9.7,39.7-23.3,54.9l-9.3,11.6
	l10.8,10.2c10.7,7.9,22.3,14.6,34.6,19.9c12.6,5.6,24.4,12.9,35.2,21.5c8.8,11.2,13.5,25,13.4,39.2c0.1,1.2-0.1,2.3-0.8,3.3H237.8z"
	/>
</svg>
