<?xml version="1.0" encoding="utf-8"?>
<!-- Generator: Adobe Illustrator 22.0.1, SVG Export Plug-In . SVG Version: 6.00 Build 0)  -->
<svg version="1.1" id="Layer_1" xmlns="http://www.w3.org/2000/svg" xmlns:xlink="http://www.w3.org/1999/xlink" x="0px" y="0px"
	 viewBox="0 0 256 256" style="enable-background:new 0 0 256 256;" xml:space="preserve">
<style type="text/css">
	.st0{fill:#99AABA;}
</style>
<title>icon-people-off</title>
<desc>Created with Sketch.</desc>
<g id="Icons-256">
	<g id="icon-people-off">
		<g id="icon-people" transform="translate(32.000000, 32.000000)">
			<g id="Combined-Shape" transform="translate(24.000000, 24.000000)">
				<path class="st0" d="M72,198C2.4,198-54,141.6-54,72S2.4-54,72-54S198,2.4,198,72S141.6,198,72,198z M-4.5,153.8
					c20,18.7,46.9,30.1,76.5,30.1s56.4-11.4,76.5-30.1C132.2,145.9,106.7,142,72,142S11.9,145.9-4.5,153.8L-4.5,153.8z M72,114
					c30.9,0,56-25.1,56-56S102.9,2,72,2S16,27.1,16,58S41.1,114,72,114z"/>
			</g>
		</g>
	</g>
</g>
</svg>
