<?xml version="1.0" encoding="utf-8"?>
<!-- Generator: Adobe Illustrator 21.1.0, SVG Export Plug-In . SVG Version: 6.00 Build 0)  -->
<svg version="1.1" id="Capa_1" xmlns="http://www.w3.org/2000/svg" xmlns:xlink="http://www.w3.org/1999/xlink" x="0px" y="0px"
	 viewBox="0 0 256 256" style="enable-background:new 0 0 256 256;" xml:space="preserve">
<style type="text/css">
	.st0{fill:#FFFFFF;}
	.st1{fill:none;stroke:#FFFFFF;stroke-width:10;}
</style>
<title>Artboard 1</title>
<path class="st0" d="M189.2,137.2H63.3c-5,0-9.1-4.1-9.1-9.1s4.1-9.1,9.1-9.1h125.9c5,0,9.1,4.1,9.1,9.1
	C198.3,133.1,194.2,137.2,189.2,137.2z"/>
<path class="st0" d="M126.3,200.1c-5,0-9.1-4.1-9.1-9.1l0,0V65.1c0-5,4.1-9.1,9.1-9.1s9.1,4.1,9.1,9.1l0,0V191
	C135.4,196,131.3,200.1,126.3,200.1z"/>
<path class="st1" d="M127.9,249.5c66.7-0.2,120.6-54.4,120.4-121.1S193.8,7.8,127.2,8C60.5,8.2,6.5,62.4,6.7,129.2
	c0.1,33.4,14.2,65.4,38.7,88.1C67.8,238.2,97.2,249.6,127.9,249.5z"/>
</svg>
