<?xml version="1.0" encoding="utf-8"?>
<!-- Generator: Adobe Illustrator 21.1.0, SVG Export Plug-In . SVG Version: 6.00 Build 0)  -->
<svg version="1.1" id="Layer_1" xmlns="http://www.w3.org/2000/svg" xmlns:xlink="http://www.w3.org/1999/xlink" x="0px" y="0px"
	 viewBox="0 0 256 256" style="enable-background:new 0 0 256 256;" xml:space="preserve">
<style type="text/css">
	.st0{fill:#FFFFFF;}
</style>
<title>Artboard 1</title>
<path class="st0" d="M241.8,50.7H186V26.3c0.1-3.4-2.6-6.3-6.1-6.3c0,0-0.1,0-0.1,0H76.5c-3.4,0-6.2,2.8-6.2,6.2l0,0l0,0v24.5h-56
	C6.4,50.8,0.1,57.2,0,65v156.2c-0.1,8,6.3,14.5,14.3,14.6c0,0,0,0,0,0h227.5c8,0,14.4-6.5,14.4-14.4c0,0,0-0.1,0-0.1V65
	C256.2,57.1,249.7,50.7,241.8,50.7z M82.5,32.5h91v18.2h-91V32.5z M244.4,221.4c0,1.1-0.9,2-2,2H14.3c-1.1,0-2-0.9-2-2l0,0v-72h84
	v12c0,3.4,2.8,6.2,6.2,6.2l0,0h51.2c3.4,0,6.2-2.8,6.2-6.2l0,0v-12h84v71.9L244.4,221.4z M108.7,154.9v-23.7h39v23.7H108.7z
	 M243.6,136.8h-83.8v-11.7c0-3.4-2.8-6.2-6.2-6.2l0,0h-51.1c-3.4,0-6.2,2.8-6.2,6.2l0,0v12h-84V65c0-1.1,0.9-2,2-2h0h227.5
	c1.1,0,2,0.9,2,2v71.9L243.6,136.8z"/>
</svg>
