<?xml version="1.0" encoding="utf-8"?>
<!-- Generator: Adobe Illustrator 21.1.0, SVG Export Plug-In . SVG Version: 6.00 Build 0)  -->
<svg version="1.1" id="Layer_1" xmlns="http://www.w3.org/2000/svg" xmlns:xlink="http://www.w3.org/1999/xlink" x="0px" y="0px"
	 viewBox="0 0 256 256" style="enable-background:new 0 0 256 256;" xml:space="preserve">
<style type="text/css">
	.st0{fill:#838383;}
</style>
<title>Artboard 1</title>
<path class="st0" d="M240.3,54.2h-54.8v-24c0.1-3.4-2.6-6.1-6-6.2c0,0-0.1,0-0.1,0H78.1c-3.4,0-6.1,2.7-6.1,6.1l0,0l0,0v24.1H17
	c-7.7,0.1-14,6.3-14,14v153.3c-0.1,7.8,6.2,14.2,14,14.3c0,0,0,0,0,0h223.3c7.8,0,14.2-6.3,14.2-14.2c0,0,0-0.1,0-0.1V68.2
	C254.4,60.4,248.1,54.2,240.3,54.2z M84,36.3h89.3v17.9H84V36.3z M242.9,221.6c0,1.1-0.9,2-2,2H17c-1.1,0-2-0.9-2-2l0,0v-70.7h82.5
	v11.8c0,3.4,2.7,6.1,6.1,6.1l0,0h50.3c3.4,0,6.1-2.7,6.1-6.1l0,0v-11.8h82.5v70.6L242.9,221.6z M109.7,156.4v-23.3h38.3v23.3H109.7z
	 M242.1,138.6h-82.2v-11.5c0-3.4-2.7-6.1-6.1-6.1l0,0h-50.2c-3.4,0-6.1,2.7-6.1,6.1l0,0v11.8H15V68.2c0-1.1,0.9-2,2-2h0h223.3
	c1.1,0,2,0.9,2,2v70.6L242.1,138.6z"/>
</svg>
