<svg id="Layer_1" data-name="Layer 1" xmlns="http://www.w3.org/2000/svg" viewBox="0 0 256 256"><defs><style>.cls-1{fill:none;stroke:#838383;stroke-width:5px;}.cls-2{fill:#838383;}</style></defs><title>Artboard 1</title><circle class="cls-1" cx="126.96" cy="128.36" r="123.64"/><path class="cls-1" d="M39.75,158.76a17.34,17.34,0,0,1,8.7-15.29l21.87-12.09a11.47,11.47,0,0,0,6-10.09v-10l-.5-.59v-.41l-.71-.4-1.3-2c-.9-1.5-1.8-3-2.5-4.5l-1-2.2v-2l-.69-2.09v-.4a5.32,5.32,0,0,0-.6-2.4v-1l-.9-.5a5,5,0,0,1-2.3-4.2V77.72a4.85,4.85,0,0,1,1.6-3.61l.8-.8V57c0-.27,0-.55,0-.82a16.91,16.91,0,0,1,4-11,25.74,25.74,0,0,1,20.59-7,26,26,0,0,1,20.59,7,17.24,17.24,0,0,1,2.39,12.68V73.72l.81.81a4.82,4.82,0,0,1,1.59,3.59V88a5,5,0,0,1-3.49,4.7h-1.21v1.21A52.26,52.26,0,0,1,106.6,108c-.69,1-1.5,2-2.09,2.71l-.6.69v10.19a11.36,11.36,0,0,0,6.29,10.29l23.49,11.78a17.16,17.16,0,0,1,9.49,15.49v5"/><path class="cls-2" d="M50.66,191c7.62,7.46,18.32,11.57,31.56,12l.12,11.58a3.36,3.36,0,0,0,5.72,2.33l25.28-25.83a3.27,3.27,0,0,0-.05-4.78L87.47,161.05a3.36,3.36,0,0,0-5.67,2.45l.13,11.76-2.94,0c-9.74.1-27-1.36-33.78-13.06A3.36,3.36,0,0,0,39,164C39,164.52,39.14,179.77,50.66,191Zm28.4-8.95a55.43,55.43,0,0,0,6.61-.44,3.54,3.54,0,0,0,3.09-3.34l-.07-6.8,17.47,17.28L89.06,206.44l-.07-6.8a3.46,3.46,0,0,0-3.53-3.27c-24.63.26-34-12.32-37.55-21.84C57.54,181,70.79,182.19,79.06,182.1Z"/><path class="cls-1" d="M120.57,191.74a17.34,17.34,0,0,1,8.7-15.29l21.87-12.09a11.47,11.47,0,0,0,6-10.09v-10l-.5-.59v-.41l-.71-.4-1.3-2c-.9-1.5-1.8-3-2.5-4.5l-1-2.2v-2l-.69-2.09v-.4a5.32,5.32,0,0,0-.6-2.4v-1l-.9-.5a5,5,0,0,1-2.3-4.2V110.7a4.85,4.85,0,0,1,1.6-3.61l.8-.8V90c0-.27,0-.55,0-.82a16.91,16.91,0,0,1,4-11,25.74,25.74,0,0,1,20.59-7,26,26,0,0,1,20.59,7,17.24,17.24,0,0,1,2.39,12.68v15.79l.81.81A4.82,4.82,0,0,1,199,111.1V121a5,5,0,0,1-3.49,4.7h-1.21v1.21A52.26,52.26,0,0,1,187.42,141c-.69,1-1.5,2-2.09,2.71l-.6.69v10.19A11.36,11.36,0,0,0,191,164.86l23.49,11.78A17.16,17.16,0,0,1,224,192.13v5"/></svg>