<svg id="Capa_1" data-name="Capa 1" xmlns="http://www.w3.org/2000/svg" viewBox="0 0 256 256"><defs><style>.cls-1{fill:#29aae1;}</style></defs><title>Artboard 1</title><path class="cls-1" d="M209.06,0H1V258.67H254.39V45.32Zm-23.3,10.56v73.9H59.07V10.56ZM48.51,248.11V147.81H201.6v100.3Zm195.32,0H212.16V137.25H38V248.11H11.56V10.56h37V95H196.32V10.56h8.37L243.83,49.7Z"/><path class="cls-1" d="M69.63,174.2h37a5.28,5.28,0,1,0,0-10.56h-37a5.28,5.28,0,1,0,0,10.56Z"/><path class="cls-1" d="M122.41,184.76H69.63a5.28,5.28,0,1,0,0,10.56h52.79a5.28,5.28,0,1,0,0-10.56Z"/><path class="cls-1" d="M134.5,186.29a5.35,5.35,0,0,0,0,7.5,5.43,5.43,0,0,0,3.75,1.53,5.29,5.29,0,1,0-3.75-9Z"/><path class="cls-1" d="M175.2,21.12H143.53V73.9H175.2ZM164.65,63.35H154.09V31.67h10.56Z"/></svg>