<svg id="Layer_1" data-name="Layer 1" xmlns="http://www.w3.org/2000/svg" viewBox="0 0 256 256"><defs><style>.cls-1{fill:#838383;}</style></defs><title>Artboard 1</title><path class="cls-1" d="M31.12,61.55a4.38,4.38,0,0,0-6.05,1.35,123,123,0,0,0-8.58,16,4.38,4.38,0,1,0,8,3.56,114.08,114.08,0,0,1,8-14.85A4.38,4.38,0,0,0,31.12,61.55Z"/><path class="cls-1" d="M85.23,18.48a4.38,4.38,0,0,0-5.77-2.25A122.8,122.8,0,0,0,63.4,24.74a4.38,4.38,0,1,0,4.67,7.42A114,114,0,0,1,83,24.26,4.38,4.38,0,0,0,85.23,18.48Z"/><path class="cls-1" d="M16.44,148.5a114.86,114.86,0,0,1-1.67-16.78,4.38,4.38,0,0,0-8.76.23A123.74,123.74,0,0,0,7.8,150a4.38,4.38,0,0,0,8.64-1.51Z"/><path class="cls-1" d="M15.75,92.93A4.38,4.38,0,0,0,10.36,96a122.45,122.45,0,0,0-3.51,17.82,4.38,4.38,0,1,0,8.7,1.05,113.69,113.69,0,0,1,3.26-16.54A4.38,4.38,0,0,0,15.75,92.93Z"/><path class="cls-1" d="M27.11,180.4a113.6,113.6,0,0,1-6.52-15.56,4.38,4.38,0,0,0-8.31,2.78,122.5,122.5,0,0,0,7,16.76,4.38,4.38,0,1,0,7.81-4Z"/><path class="cls-1" d="M236.27,69.55a123.21,123.21,0,0,0-9.92-15.22,4.38,4.38,0,1,0-7,5.32,114.42,114.42,0,0,1,9.21,14.13,4.38,4.38,0,1,0,7.68-4.23Z"/><path class="cls-1" d="M248.85,103.55a122,122,0,0,0-5-17.47,4.38,4.38,0,1,0-8.22,3,113.46,113.46,0,0,1,4.66,16.22,4.38,4.38,0,1,0,8.58-1.79Z"/><path class="cls-1" d="M184.93,19.57a122.51,122.51,0,0,0-16.71-7.11,4.38,4.38,0,0,0-2.82,8.3,113.7,113.7,0,0,1,15.52,6.6,4.38,4.38,0,0,0,4-7.79Z"/><path class="cls-1" d="M46.65,207.79a115,115,0,0,1-10.78-13,4.38,4.38,0,0,0-7.14,5.09,123.83,123.83,0,0,0,11.61,14,4.38,4.38,0,0,0,6.31-6.09Z"/><path class="cls-1" d="M119.3,10.62a4.38,4.38,0,0,0-4.86-3.85A122.59,122.59,0,0,0,96.6,10.19a4.38,4.38,0,1,0,2.29,8.46,113.89,113.89,0,0,1,16.56-3.17A4.38,4.38,0,0,0,119.3,10.62Z"/><path class="cls-1" d="M150.63,7.91A123.77,123.77,0,0,0,132.58,6h-.14a4.38,4.38,0,0,0-.13,8.76,114.93,114.93,0,0,1,16.77,1.76,4.38,4.38,0,1,0,1.56-8.63Z"/><path class="cls-1" d="M211.78,213.08a4.38,4.38,0,0,0-6.19-.28,114.71,114.71,0,0,1-13.25,10.44,4.38,4.38,0,1,0,4.9,7.27,123.5,123.5,0,0,0,14.27-11.24A4.38,4.38,0,0,0,211.78,213.08Z"/><path class="cls-1" d="M232.82,185.17a4.38,4.38,0,0,0-6,1.54,114.93,114.93,0,0,1-9.65,13.83,4.38,4.38,0,1,0,6.8,5.53,123.53,123.53,0,0,0,10.38-14.89A4.38,4.38,0,0,0,232.82,185.17Z"/><path class="cls-1" d="M214.31,40.74a123.69,123.69,0,0,0-13.9-11.68,4.38,4.38,0,0,0-5.13,7.11A115.05,115.05,0,0,1,208.19,47a4.38,4.38,0,0,0,6.12-6.28Z"/><path class="cls-1" d="M244.77,152.33a4.38,4.38,0,0,0-5.29,3.23,113.34,113.34,0,0,1-5.17,16,4.38,4.38,0,1,0,8.12,3.3A122.22,122.22,0,0,0,248,157.62,4.38,4.38,0,0,0,244.77,152.33Z"/><path class="cls-1" d="M251.23,121.56a4.38,4.38,0,1,0-8.75.5c.13,2.2.19,4.43.19,6.63,0,3.42-.15,6.86-.45,10.24a4.38,4.38,0,0,0,4,4.75l.39,0a4.38,4.38,0,0,0,4.36-4c.32-3.64.49-7.35.49-11C251.43,126.32,251.36,123.93,251.23,121.56Z"/><path class="cls-1" d="M73.3,228.31A114.58,114.58,0,0,1,59.22,219,4.38,4.38,0,1,0,53.87,226,123.37,123.37,0,0,0,69,236a4.38,4.38,0,0,0,4.27-7.66Z"/><path class="cls-1" d="M150.49,245.12a4.38,4.38,0,0,0-5-3.7,116.12,116.12,0,0,1-24,1,4.38,4.38,0,0,0-.55,8.75c2.57.16,5.19.24,7.77.24a124.22,124.22,0,0,0,18.11-1.33A4.38,4.38,0,0,0,150.49,245.12Z"/><path class="cls-1" d="M55,36a4.38,4.38,0,0,0-6.18-.47A123.84,123.84,0,0,0,35.91,48.33a4.38,4.38,0,1,0,6.62,5.74,115.24,115.24,0,0,1,12-11.9A4.38,4.38,0,0,0,55,36Z"/><path class="cls-1" d="M104.76,240.14a113.48,113.48,0,0,1-16.18-4.74,4.38,4.38,0,1,0-3.09,8.21,122.26,122.26,0,0,0,17.43,5.11,4.38,4.38,0,1,0,1.83-8.57Z"/><path class="cls-1" d="M183.53,233.69a4.38,4.38,0,0,0-5.84-2.07A113.64,113.64,0,0,1,162,237.72a4.38,4.38,0,1,0,2.56,8.39,122.55,122.55,0,0,0,16.94-6.58A4.38,4.38,0,0,0,183.53,233.69Z"/><path class="cls-1" d="M128.69,49.78a78.9,78.9,0,1,0,78.9,78.9A79,79,0,0,0,128.69,49.78Zm0,149a70.13,70.13,0,1,1,70.13-70.13A70.21,70.21,0,0,1,128.69,198.82Z"/></svg>