<svg id="Layer_1" data-name="Layer 1" xmlns="http://www.w3.org/2000/svg" viewBox="0 0 256 256"><defs><style>.cls-1{fill:none;stroke:#838383;stroke-width:5px;}.cls-2{fill:#838383;}</style></defs><title>Artboard 1</title><circle class="cls-1" cx="126.96" cy="128.36" r="123.64"/><path class="cls-1" d="M65.68,180.11a19.12,19.12,0,0,1,9.59-16.86l24.11-13.33A12.65,12.65,0,0,0,106,138.8v-11l-.55-.65v-.45l-.78-.44L103.23,124a55.73,55.73,0,0,1-2.76-5l-1.1-2.43v-2.21l-.76-2.3v-.44A5.87,5.87,0,0,0,98,109v-1.1l-1-.55a5.51,5.51,0,0,1-2.54-4.63v-12a5.35,5.35,0,0,1,1.76-4l.88-.88V67a18.64,18.64,0,0,1,4.41-12.13,28.38,28.38,0,0,1,22.7-7.72,28.67,28.67,0,0,1,22.7,7.72,19,19,0,0,1,2.64,14V86.35l.89.89a5.31,5.31,0,0,1,1.75,4V102.1a5.51,5.51,0,0,1-3.85,5.18H147v1.33a57.62,57.62,0,0,1-7.6,15.53c-.76,1.1-1.65,2.21-2.3,3l-.66.76v11.23a12.52,12.52,0,0,0,6.93,11.35l25.9,13a18.92,18.92,0,0,1,10.46,17.08v5.51"/><path class="cls-2" d="M157.38,167.88a.85.85,0,0,0-1.18.26h0a24,24,0,0,0-1.67,3.12.85.85,0,1,0,1.54.74l0,0a22.22,22.22,0,0,1,1.56-2.89.85.85,0,0,0-.26-1.18Z"/><path class="cls-2" d="M167.92,159.49a.85.85,0,0,0-1.12-.44,23.92,23.92,0,0,0-3.13,1.66.85.85,0,0,0,.91,1.45,22.2,22.2,0,0,1,2.91-1.54.85.85,0,0,0,.43-1.13Z"/><path class="cls-2" d="M154.52,184.81a22.37,22.37,0,0,1-.33-3.27.85.85,0,0,0-1.71,0h0a24.1,24.1,0,0,0,.35,3.52.85.85,0,0,0,1.68-.29h0Z"/><path class="cls-2" d="M154.39,174a.85.85,0,0,0-1,.6h0a23.85,23.85,0,0,0-.68,3.47.85.85,0,0,0,1.69.2h0A22.14,22.14,0,0,1,155,175a.85.85,0,0,0-.59-1.05Z"/><path class="cls-2" d="M156.6,191a22.12,22.12,0,0,1-1.27-3,.85.85,0,0,0-1.62.54,23.86,23.86,0,0,0,1.36,3.26.85.85,0,0,0,1.52-.78h0Z"/><path class="cls-2" d="M197.34,169.43a24,24,0,0,0-1.93-3,.86.86,0,1,0-1.36,1h0a22.28,22.28,0,0,1,1.79,2.75.85.85,0,1,0,1.5-.82h0Z"/><path class="cls-2" d="M199.79,176.05a23.76,23.76,0,0,0-1-3.4.85.85,0,0,0-1.63.51l0,.08a22.1,22.1,0,0,1,.91,3.16.85.85,0,0,0,1.67-.35Z"/><path class="cls-2" d="M187.34,159.7a23.86,23.86,0,0,0-3.25-1.38.85.85,0,0,0-.55,1.62,22.14,22.14,0,0,1,3,1.29.85.85,0,0,0,.78-1.52Z"/><path class="cls-2" d="M160.41,196.36a22.4,22.4,0,0,1-2.1-2.53.85.85,0,0,0-1.39,1,24.12,24.12,0,0,0,2.26,2.73.85.85,0,1,0,1.23-1.19Z"/><path class="cls-2" d="M174.56,158a.85.85,0,0,0-.94-.75h0a23.87,23.87,0,0,0-3.47.67.85.85,0,0,0,.45,1.65,22.18,22.18,0,0,1,3.23-.62.85.85,0,0,0,.75-.94Z"/><path class="cls-2" d="M180.66,157.43a24.1,24.1,0,0,0-3.52-.37h0a.85.85,0,0,0,0,1.71,22.38,22.38,0,0,1,3.27.34.85.85,0,1,0,.3-1.68Z"/><path class="cls-2" d="M192.57,197.39a.85.85,0,0,0-1.21-.05h0a22.34,22.34,0,0,1-2.58,2,.85.85,0,0,0,1,1.42,24.05,24.05,0,0,0,2.78-2.19.85.85,0,0,0,.05-1.21Z"/><path class="cls-2" d="M196.66,192a.85.85,0,0,0-1.17.3h0a22.38,22.38,0,0,1-1.88,2.69.85.85,0,1,0,1.32,1.08,24.06,24.06,0,0,0,2-2.9.85.85,0,0,0-.3-1.17Z"/><path class="cls-2" d="M193.06,163.82a24.09,24.09,0,0,0-2.71-2.27.85.85,0,0,0-1,1.38,22.41,22.41,0,0,1,2.51,2.11.85.85,0,1,0,1.19-1.22Z"/><path class="cls-2" d="M199,185.55a.85.85,0,0,0-1,.63h0a22.07,22.07,0,0,1-1,3.12.85.85,0,1,0,1.58.64h0a23.8,23.8,0,0,0,1.08-3.36.85.85,0,0,0-.63-1Z"/><path class="cls-2" d="M200.25,179.56a.85.85,0,1,0-1.7.1h0c0,.43,0,.86,0,1.29,0,.67,0,1.34-.09,2a.85.85,0,0,0,.77.92h.08a.85.85,0,0,0,.85-.78c.06-.71.1-1.43.1-2.14C200.29,180.49,200.27,180,200.25,179.56Z"/><path class="cls-2" d="M165.6,200.35a22.31,22.31,0,0,1-2.74-1.81.86.86,0,1,0-1,1.36,24,24,0,0,0,2.95,1.95.85.85,0,0,0,.83-1.49h0Z"/><path class="cls-2" d="M180.63,203.63a.85.85,0,0,0-1-.72h0a22.61,22.61,0,0,1-4.67.19.85.85,0,1,0-.11,1.7c.5,0,1,0,1.51,0a24.19,24.19,0,0,0,3.53-.26A.85.85,0,0,0,180.63,203.63Z"/><path class="cls-2" d="M162,162.9a.85.85,0,0,0-1.2-.09h0a24.12,24.12,0,0,0-2.51,2.49.85.85,0,0,0,1.29,1.12h0a22.44,22.44,0,0,1,2.34-2.32A.85.85,0,0,0,162,162.9Z"/><path class="cls-2" d="M171.72,202.66a22.1,22.1,0,0,1-3.15-.92.85.85,0,1,0-.6,1.6,23.81,23.81,0,0,0,3.39,1,.85.85,0,1,0,.36-1.67h0Z"/><path class="cls-2" d="M187.06,201.4a.85.85,0,0,0-1.14-.4h0a22.13,22.13,0,0,1-3.06,1.19.85.85,0,1,0,.5,1.63,23.87,23.87,0,0,0,3.3-1.28A.85.85,0,0,0,187.06,201.4Z"/><path class="cls-2" d="M148.62,161.51a1.22,1.22,0,0,0-1.69.38h0a34.34,34.34,0,0,0-2.4,4.47,1.22,1.22,0,1,0,2.2,1.06l0-.06A31.85,31.85,0,0,1,149,163.2a1.22,1.22,0,0,0-.38-1.69Z"/><path class="cls-2" d="M163.72,149.48a1.22,1.22,0,0,0-1.61-.63,34.28,34.28,0,0,0-4.48,2.38,1.22,1.22,0,0,0,1.3,2.07,31.83,31.83,0,0,1,4.17-2.21,1.22,1.22,0,0,0,.62-1.61Z"/><path class="cls-2" d="M144.52,185.78a32.07,32.07,0,0,1-.47-4.68,1.22,1.22,0,0,0-2.45.06h0a34.55,34.55,0,0,0,.5,5,1.22,1.22,0,0,0,2.41-.42h0Z"/><path class="cls-2" d="M144.33,170.27a1.22,1.22,0,0,0-1.5.85h0a34.19,34.19,0,0,0-1,5,1.22,1.22,0,0,0,2.43.29h0a31.74,31.74,0,0,1,.91-4.62,1.22,1.22,0,0,0-.85-1.51Z"/><path class="cls-2" d="M147.5,194.69a31.72,31.72,0,0,1-1.82-4.34,1.22,1.22,0,0,0-2.32.78,34.2,34.2,0,0,0,2,4.68,1.22,1.22,0,0,0,2.18-1.12h0Z"/><path class="cls-2" d="M205.89,163.74a34.4,34.4,0,0,0-2.77-4.25,1.23,1.23,0,1,0-2,1.49h0a32,32,0,0,1,2.57,3.94,1.22,1.22,0,1,0,2.14-1.18h0Z"/><path class="cls-2" d="M209.4,173.24a34.06,34.06,0,0,0-1.4-4.88,1.22,1.22,0,0,0-2.33.73l0,.11a31.68,31.68,0,0,1,1.3,4.53,1.22,1.22,0,0,0,2.4-.5Z"/><path class="cls-2" d="M191.56,149.79a34.2,34.2,0,0,0-4.67-2,1.22,1.22,0,0,0-.79,2.32,31.74,31.74,0,0,1,4.33,1.84,1.22,1.22,0,0,0,1.12-2.17Z"/><path class="cls-2" d="M153,202.34a32.11,32.11,0,0,1-3-3.63,1.22,1.22,0,0,0-2,1.42,34.57,34.57,0,0,0,3.24,3.91,1.22,1.22,0,1,0,1.76-1.7Z"/><path class="cls-2" d="M173.24,147.29a1.22,1.22,0,0,0-1.35-1.08h0a34.23,34.23,0,0,0-5,1,1.22,1.22,0,0,0,.64,2.36,31.8,31.8,0,0,1,4.62-.89,1.22,1.22,0,0,0,1.08-1.35Z"/><path class="cls-2" d="M182,146.53a34.56,34.56,0,0,0-5-.53h0a1.22,1.22,0,0,0,0,2.45,32.09,32.09,0,0,1,4.68.49,1.22,1.22,0,1,0,.44-2.41Z"/><path class="cls-2" d="M199.06,203.81a1.22,1.22,0,0,0-1.73-.08h0a32,32,0,0,1-3.7,2.91,1.22,1.22,0,0,0,1.37,2,34.48,34.48,0,0,0,4-3.14,1.22,1.22,0,0,0,.08-1.73Z"/><path class="cls-2" d="M204.93,196a1.22,1.22,0,0,0-1.68.43h0a32.09,32.09,0,0,1-2.69,3.86,1.22,1.22,0,1,0,1.9,1.54,34.49,34.49,0,0,0,2.9-4.16,1.22,1.22,0,0,0-.42-1.68Z"/><path class="cls-2" d="M199.76,155.7a34.53,34.53,0,0,0-3.88-3.26,1.22,1.22,0,0,0-1.43,2,32.12,32.12,0,0,1,3.6,3,1.22,1.22,0,0,0,1.71-1.75Z"/><path class="cls-2" d="M208.27,186.85a1.22,1.22,0,0,0-1.48.9h0a31.64,31.64,0,0,1-1.44,4.47,1.22,1.22,0,1,0,2.27.92h0a34.12,34.12,0,0,0,1.56-4.81,1.22,1.22,0,0,0-.9-1.48Z"/><path class="cls-2" d="M210.07,178.26a1.22,1.22,0,1,0-2.44.14h0c0,.61.05,1.24.05,1.85,0,1,0,1.92-.13,2.86a1.22,1.22,0,0,0,1.11,1.33h.12a1.22,1.22,0,0,0,1.22-1.12c.09-1,.14-2.05.14-3.07C210.12,179.59,210.11,178.92,210.07,178.26Z"/><path class="cls-2" d="M160.39,208.07a32,32,0,0,1-3.93-2.6,1.23,1.23,0,1,0-1.49,2,34.44,34.44,0,0,0,4.22,2.79,1.22,1.22,0,0,0,1.19-2.14h0Z"/><path class="cls-2" d="M181.94,212.76a1.22,1.22,0,0,0-1.39-1h0a32.42,32.42,0,0,1-6.7.28,1.22,1.22,0,1,0-.15,2.44c.72,0,1.45.07,2.17.07a34.68,34.68,0,0,0,5.06-.37A1.22,1.22,0,0,0,181.94,212.76Z"/><path class="cls-2" d="M155.28,154.38a1.22,1.22,0,0,0-1.72-.13h0a34.57,34.57,0,0,0-3.6,3.57,1.22,1.22,0,0,0,1.85,1.6h0a32.17,32.17,0,0,1,3.35-3.32A1.22,1.22,0,0,0,155.28,154.38Z"/><path class="cls-2" d="M169.18,211.37a31.68,31.68,0,0,1-4.52-1.32,1.22,1.22,0,1,0-.86,2.29,34.13,34.13,0,0,0,4.87,1.43,1.22,1.22,0,1,0,.51-2.39h0Z"/><path class="cls-2" d="M191.17,209.57a1.22,1.22,0,0,0-1.63-.58h0a31.73,31.73,0,0,1-4.38,1.7,1.22,1.22,0,1,0,.71,2.34,34.21,34.21,0,0,0,4.73-1.84A1.22,1.22,0,0,0,191.17,209.57Z"/></svg>