<?xml version="1.0" encoding="utf-8"?>
<!-- Generator: Adobe Illustrator 21.1.0, SVG Export Plug-In . SVG Version: 6.00 Build 0)  -->
<svg version="1.1" id="Layer_1" xmlns="http://www.w3.org/2000/svg" xmlns:xlink="http://www.w3.org/1999/xlink" x="0px" y="0px"
	 viewBox="0 0 256 256" style="enable-background:new 0 0 256 256;" xml:space="preserve">
<style type="text/css">
	.st0{fill:#FFFFFF;}
</style>
<title>Artboard 1</title>
<path class="st0" d="M232.7,256.3H23V13.3h39.1v10.8H34.7v220.6h186.4V23.3H193v-10h39.7V256.3z"/>
<path class="st0" d="M204.1,48.2H51.7L62.3,0h131.3L204.1,48.2z M65.5,37.3h125.3l-6.1-25.6H71.1L65.5,37.3z"/>
<path class="st0" d="M103.4,132H55.5V81.6h47.9V132z M66.7,121.2h25.6v-28H66.7V121.2z M123.9,101.5h70.7v10.8h-70.7V101.5z"/>
<path class="st0" d="M103.4,205H55.5v-50.1h47.9V205z M66.7,194.1h25.6v-28.4H66.7V194.1z"/>
<path class="st0" d="M123.9,174.8h70.7v10.8h-70.7V174.8z"/>
</svg>
