<?xml version="1.0" encoding="utf-8"?>
<!-- Generator: Adobe Illustrator 21.1.0, SVG Export Plug-In . SVG Version: 6.00 Build 0)  -->
<svg version="1.1" id="Capa_1" xmlns="http://www.w3.org/2000/svg" xmlns:xlink="http://www.w3.org/1999/xlink" x="0px" y="0px"
	 viewBox="0 0 238.5 247" style="enable-background:new 0 0 238.5 247;" xml:space="preserve">
<style type="text/css">
	.st0{fill:#99AABB;}
	.st1{fill:#99AABA;}
</style>
<title>task_009CF6</title>
<path class="st0" d="M201,162.8l-24.4,35.1l-17.2-14.1c-1.8-1.6-4.6-1.4-6.2,0.4c-1.6,1.8-1.4,4.6,0.4,6.2c0.1,0.1,0.2,0.1,0.2,0.2
	l20.9,17.1c0.8,0.6,1.8,1,2.8,1c0.2,0,0.4,0,0.6,0c1.2-0.2,2.3-0.8,3-1.8l27.1-39c1.4-2,0.8-4.7-1.1-6.1
	C205,160.4,202.4,160.9,201,162.8L201,162.8z"/>
<path class="st1" d="M178.4,130.1c-31.3,0-56.7,25.4-56.7,56.7s25.4,56.7,56.7,56.7s56.7-25.4,56.7-56.7l0,0
	C235.1,155.5,209.7,130.1,178.4,130.1z M178.4,234.8c-26.5,0-48-21.5-48-48s21.5-48,48-48s48,21.5,48,48
	C226.3,213.3,204.9,234.7,178.4,234.8L178.4,234.8z"/>
<path class="st1" d="M110.7,191.1c-2.4-0.2-4.2-2.2-4.1-4.7c0.1-2.2,1.9-3.9,4.1-4.1h1c2,0,3.7-1.5,4-3.4
	c3.1-19.1,13.3-35.5,27.4-45.9c1.8-1.3,2.2-3.9,0.9-5.7c-0.8-1.1-2-1.7-3.3-1.7h-30c-2.4-0.2-4.2-2.2-4.1-4.7
	c0.1-2.2,1.9-3.9,4.1-4.1h71.6c2.3,0.1,4.1,2.1,4,4.4c0,0.2-0.1,0.4-0.1,0.6c9.2,1.3,18,4.7,25.6,9.9c1.9,1.2,4.4,0.7,5.7-1.1
	c0.4-0.7,0.7-1.5,0.7-2.3V56.6c0-29.3-21.7-53.1-48.4-53.1h-118C25.1,3.5,3.4,27.4,3.4,56.6V186c0,29.3,21.7,53.1,48.4,53.1H124
	c2.3,0,4.1-1.8,4.1-4.1c0-0.8-0.3-1.6-0.7-2.3c-7.5-11.2-11.9-24.2-12.5-37.7C114.7,192.9,112.9,191.2,110.7,191.1L110.7,191.1z
	 M110.7,55.9h71.6c2.4,0.2,4.2,2.2,4.1,4.7c-0.1,2.2-1.9,3.9-4.1,4.1h-71.6c-2.4-0.2-4.2-2.2-4.1-4.7
	C106.8,57.8,108.6,56,110.7,55.9z M85.7,167.8l-27.3,34.9c-0.7,0.9-1.8,1.5-3,1.5c-0.9,0-1.7-0.3-2.4-0.9l-18.2-15
	c-1.8-1.5-2.1-4.2-0.8-6.1c1.1-1.7,3.4-2.3,5.2-1.2c0.1,0.1,0.3,0.2,0.4,0.3l12,9.9c1.7,1.4,4.3,1.2,5.8-0.6c0,0,0-0.1,0.1-0.1
	L79.8,162c1.2-1.7,3.6-2,5.2-0.8c0.1,0.1,0.3,0.2,0.4,0.3C86.9,163.3,87.1,165.9,85.7,167.8z M85.7,102.3l-27.3,34.9
	c-0.7,1-1.8,1.5-3,1.6c-0.9,0-1.7-0.3-2.4-0.9l-18.2-15c-1.8-1.5-2.1-4.2-0.8-6.1c1.1-1.7,3.4-2.3,5.2-1.2c0.1,0.1,0.3,0.2,0.4,0.3
	l12,9.8c1.7,1.4,4.3,1.2,5.8-0.6c0,0,0-0.1,0.1-0.1l22.3-28.5c1.2-1.7,3.6-2,5.2-0.8c0.1,0.1,0.3,0.2,0.4,0.3
	C86.9,97.9,87.1,100.5,85.7,102.3z M85.7,41.3L58.4,76.2c-0.7,0.9-1.8,1.5-3,1.5c-0.9,0-1.7-0.3-2.4-0.9l-18.2-15
	c-1.8-1.5-2.1-4.2-0.8-6.1c1.1-1.7,3.4-2.3,5.2-1.2c0.1,0.1,0.3,0.2,0.4,0.3l12,9.8c1.7,1.4,4.3,1.2,5.8-0.6c0,0,0-0.1,0.1-0.1
	l22.3-28.5c1.2-1.7,3.6-2,5.2-0.8c0.1,0.1,0.3,0.2,0.4,0.3C86.9,36.8,87.1,39.4,85.7,41.3L85.7,41.3z"/>
</svg>
