<?xml version="1.0" encoding="utf-8"?>
<!-- Generator: Adobe Illustrator 22.0.1, SVG Export Plug-In . SVG Version: 6.00 Build 0)  -->
<svg version="1.1" id="Layer_1" xmlns="http://www.w3.org/2000/svg" xmlns:xlink="http://www.w3.org/1999/xlink" x="0px" y="0px"
	 viewBox="0 0 256 256" style="enable-background:new 0 0 256 256;" xml:space="preserve">
<style type="text/css">
	.st0{fill:#FB657E;}
	.st1{fill:none;stroke:#FB657E;stroke-width:3.9062;stroke-miterlimit:10;}
</style>
<path class="st0" d="M70.4,153.9c3.1,2.7,7.1,4.1,11.1,4.1l3.7,0l13.5,0l6.4,0l0,16.7c0,8,2.4,13.8,7.1,17.2
	c7.4,5.4,17.5,2.3,17.9,2.2c1.7-0.6,2.9-2.1,2.9-3.9l0-20.1c0-6.1,2.9-11.3,8.7-15.5c4.4-3.2,8.9-4.6,9.5-4.8l0.4-0.1
	c1.5,1.7,3.8,2.8,6.4,2.8l15.7,0c4.7,0,8.5-3.8,8.5-8.5L182,92.6c0-4.7-3.8-8.5-8.5-8.5l-15.7,0c-2.1,0-4,0.8-5.4,2
	c-3.2-3.1-7.5-5-12.1-5l-15.6,0l-1.6,0l-32,0.1c-4.9,0-9.3,1.2-12.6,3.5c-4.3,2.9-6.9,7.5-7.6,13.3l-6.3,39.5
	C63.5,143.7,65.8,150,70.4,153.9z M157.6,92.7c0-0.1,0.1-0.2,0.2-0.2l15.7,0c0.1,0,0.2,0.1,0.2,0.2l0.1,51.4c0,0.1-0.1,0.2-0.2,0.2
	l-15.7,0c-0.1,0-0.2-0.1-0.2-0.2L157.6,92.7z M72.6,138.9l6.3-39.6c0,0,0-0.1,0-0.2c0.3-2.4,1.1-9.6,12.1-9.6l32-0.1l1.6,0l15.6,0
	c4.4,0,8.3,3.3,8.9,7.6c0,0.2,0.1,0.3,0.1,0.5l0.1,44.2l-0.2,0.1c-0.1,0-0.1,0-0.2,0c-0.2,0.1-6.1,1.7-11.9,5.9
	c-8.1,5.8-12.3,13.5-12.3,22.4l0,16.7c-2.3,0.2-5.4,0.1-7.7-1.5c-2.5-1.8-3.7-5.4-3.7-10.6l0-20.8c0-2.3-1.9-4.1-4.1-4.1l-10.5,0
	l-13.5,0l-3.7,0c-2.1,0-4.1-0.8-5.7-2.2C73.3,145.6,72.1,142.2,72.6,138.9z"/>
<circle class="st1" cx="128" cy="128" r="125"/>
</svg>
