<?xml version="1.0" encoding="utf-8"?>
<!-- Generator: Adobe Illustrator 22.0.1, SVG Export Plug-In . SVG Version: 6.00 Build 0)  -->
<svg version="1.1" id="Layer_1" xmlns="http://www.w3.org/2000/svg" xmlns:xlink="http://www.w3.org/1999/xlink" x="0px" y="0px"
	 viewBox="0 0 256 256" style="enable-background:new 0 0 256 256;" xml:space="preserve">
<style type="text/css">
	.st0{fill:#50D087;stroke:#50D087;stroke-width:3.9062;stroke-miterlimit:10;}
	.st1{fill:#FFFFFF;}
</style>
<circle class="st0" cx="128" cy="129" r="125"/>
<g>
	<g>
		<path class="st1" d="M106.4,105.6c0-2.1-1.7-3.9-3.9-3.9h-31c-2.1,0-3.9,1.7-3.9,3.9s1.7,3.9,3.9,3.9h31
			C104.7,109.5,106.4,107.7,106.4,105.6z"/>
		<path class="st1" d="M191,101.7h-31c-2.1,0-3.9,1.7-3.9,3.9s1.7,3.9,3.9,3.9h31c2.1,0,3.9-1.7,3.9-3.9S193.2,101.7,191,101.7z"/>
		<path class="st1" d="M131.3,80.7c2.1,0,3.9-1.7,3.9-3.9v-31c0-2.1-1.7-3.9-3.9-3.9s-3.9,1.7-3.9,3.9v31
			C127.4,79,129.2,80.7,131.3,80.7z"/>
		<path class="st1" d="M151.6,89.1c1,0,2-0.4,2.7-1.1l21.9-21.9c1.5-1.5,1.5-4,0-5.5c-1.5-1.5-4-1.5-5.5,0l-21.9,21.9
			c-1.5,1.5-1.5,4,0,5.5C149.7,88.8,150.7,89.1,151.6,89.1z"/>
		<path class="st1" d="M108.2,88c0.7,0.7,1.7,1.1,2.7,1.1s2-0.4,2.7-1.1c1.5-1.5,1.5-4,0-5.5L91.8,60.6c-1.5-1.5-4-1.5-5.5,0
			c-1.5,1.5-1.5,4,0,5.5L108.2,88z"/>
		<path class="st1" d="M177.7,130c-2.9-2.5-6.6-3.9-10.4-3.9h-3.5h-12.6h-6v-15.6c0-7.5-2.2-12.9-6.6-16.2c-7-5.1-16.4-2.2-16.8-2.1
			c-1.6,0.5-2.7,2-2.7,3.7v18.8c0,5.7-2.7,10.6-8.2,14.5c-4.1,3-8.3,4.3-8.9,4.5l-0.4,0.1c-1.4-1.6-3.6-2.7-6-2.7H81
			c-4.4,0-8,3.6-8,8v48.2c0,4.4,3.6,8,8,8h14.7c1.9,0,3.7-0.7,5.1-1.9c3,2.9,7,4.7,11.3,4.7h14.7h1.5h30c4.6,0,8.7-1.1,11.9-3.2
			c4-2.7,6.5-7,7.2-12.5l6-37C184.2,139.5,182.1,133.7,177.7,130z M95.9,187.2c0,0.1-0.1,0.2-0.2,0.2H81c-0.1,0-0.2-0.1-0.2-0.2
			v-48.2c0-0.1,0.1-0.2,0.2-0.2h14.7c0.1,0,0.2,0.1,0.2,0.2V187.2z M175.7,144.1l-6,37.1c0,0,0,0.1,0,0.2c-0.3,2.2-1.1,9-11.4,9h-30
			h-1.5h-14.7c-4.1,0-7.7-3.1-8.4-7.2c0-0.2-0.1-0.3-0.1-0.5v-41.4l0.2-0.1c0.1,0,0.1,0,0.2,0c0.2-0.1,5.7-1.6,11.1-5.5
			c7.6-5.4,11.6-12.6,11.6-20.9V99.1c2.1-0.2,5.1-0.1,7.2,1.4c2.3,1.7,3.5,5.1,3.5,9.9v19.5c0,2.1,1.7,3.9,3.9,3.9h9.9h12.6h3.5
			c1.9,0,3.8,0.7,5.4,2C175,137.8,176.1,141,175.7,144.1z"/>
	</g>
</g>
</svg>
