<svg id="Layer_1" data-name="Layer 1" xmlns="http://www.w3.org/2000/svg" viewBox="0 0 256 256"><defs><style>.cls-1{fill:#838383;}</style></defs><title>Artboard 1</title><path class="cls-1" d="M254.53,47.19a5.71,5.71,0,0,0-5.21-1.3l-8.69,3a59.54,59.54,0,0,0,10.86-18.68,4.49,4.49,0,0,0-.87-5.21,4.62,4.62,0,0,0-5.21-.87c-12.17,5.21-22.59,9.56-31.29,12.17,0,.43-.43,0-.87,0-7-3.91-23.9-12.6-36.06-12.6-30.85.43-55.62,26.51-55.62,58.23v1.74c-45.19-8.69-70-21.73-96.9-50l-4.34-4.35-2.61,5.21c-14.77,28.24-4.35,53.88,12.6,71.26A35.48,35.48,0,0,1,12.51,98a5.2,5.2,0,0,0-6.08-.43c-1.74.87-2.61,3.48-2.17,5.65,6.08,20.42,21.29,36.93,37.8,46.93-7.82,0-14.34-.87-20.86-5.21a6.12,6.12,0,0,0-6.08.43A4.75,4.75,0,0,0,13.38,151c7.82,22.16,23,33.89,47.36,36.93-12.6,7.39-29.11,13.47-54.75,13.9a6.19,6.19,0,0,0-5.65,3.91,6,6,0,0,0,1.74,6.52c15.64,12.6,50.4,20,93.42,20,76.48,0,139-68.22,139-152.08v-1.3c9.56-4.78,17.38-13.9,21.29-26.51A5.71,5.71,0,0,0,254.53,47.19ZM228.46,72l-2.61.87v7.39c0,79.08-58.66,143.39-130.36,143.39-39.54,0-66-6.52-80.39-13.47C45.1,208,62.48,198.4,75.95,188l10.86-7.82h-13c-24.77,0-40-7-48.67-23.46,7.82,2.61,16.08,2.61,25.2,2.17a83.7,83.7,0,0,1,10.43-.43l1.3-8.69C45.53,145,26,130.18,16.42,110.19,25.11,114.1,34.67,115,43.36,115H56.83L46,107.15c-9.13-6.52-36.06-29.55-23-62.57C50.74,72,77.25,84.56,125,93.25l5.21.87V82c0-26.94,20.86-49.1,46.93-49.54,10-.43,26.51,8.69,31.29,11.3a10,10,0,0,0,7.82.87c6.52-2.17,14.34-5.21,23-8.69a69.45,69.45,0,0,1-16.08,18.25,5.23,5.23,0,0,0-1.3,6.08,4.31,4.31,0,0,0,5.65,2.17l16.95-5.65C241.5,62.4,236.72,68.91,228.46,72Z"/></svg>