<svg id="Layer_1" data-name="Layer 1" xmlns="http://www.w3.org/2000/svg" viewBox="0 0 256 256"><defs><style>.cls-1{fill:#838383;}</style></defs><title>Artboard 1</title><path class="cls-1" d="M95.27,117.08l-1.42-.47c-3.8-1.42-4.75-1.9-4.75-1.9,0-1.42,1.42-3.32,2.85-5.7,3.32-4.75,6.65-10.45,6.65-19.47.47-13.77-8.07-23.27-20.89-23.27s-21.37,9.5-21.37,23.27c0,9,3.8,14.72,6.65,19.47,1.42,2.37,2.85,4.27,3.32,5.7,0,0-.95.95-4.75,2.37l-3.8,1.42c-12.82,3.32-25.16,7.6-25.16,28.49,0,6.65,6.65,9.5,45.11,9.5s45.11-3.32,45.11-9.5C122.8,126.1,109.51,121.83,95.27,117.08ZM77.7,147.47c-24.21,0-32.76-1.9-35.61-2.85.47-11.87,6.17-13.77,18.52-17.57l1.42-.47c.95-.47,1.9-.47,2.85-.95,3.32-.95,11.4-3.8,11.4-10.92,0-4.27-2.37-7.6-4.75-11.4-2.85-4.27-5.7-8.07-5.7-14.24,0-8.55,4.75-14.24,12.34-14.24s12.34,5.7,12.34,14.24c0,6.17-2.85,10-5.7,14.24-2.37,3.32-4.75,7.12-4.75,11.4,0,7.12,8.55,10,11.4,10.92l1.42.47c14.24,4.75,20.42,7.12,20.89,18.52C110.46,145.57,101.91,147.47,77.7,147.47ZM213,85.27H146.54a4.75,4.75,0,0,0,0,9.5H213a4.75,4.75,0,0,0,0-9.5ZM213,109H146.54a4.75,4.75,0,0,0,0,9.5H213a4.75,4.75,0,1,0,0-9.5Zm0,23.74H146.54a4.75,4.75,0,0,0,0,9.5H213a4.75,4.75,0,1,0,0-9.5Zm23.74-95H18.35A14,14,0,0,0,4.11,52V204a14,14,0,0,0,14.24,14.24H65.83a4.49,4.49,0,0,0,4.75-4.75V199.22a4.49,4.49,0,0,0-4.75-4.75,4.75,4.75,0,1,1,0-9.5h19a4.75,4.75,0,1,1,0,9.5,4.49,4.49,0,0,0-4.75,4.75v14.24a4.49,4.49,0,0,0,4.75,4.75h85.46a4.49,4.49,0,0,0,4.75-4.75V199.22a4.49,4.49,0,0,0-4.75-4.75,4.75,4.75,0,1,1,0-9.5h19a4.75,4.75,0,0,1,0,9.5,4.49,4.49,0,0,0-4.75,4.75v14.24a4.49,4.49,0,0,0,4.75,4.75h47.48A14,14,0,0,0,251,204V52A14,14,0,0,0,236.76,37.79ZM241.5,204a4.49,4.49,0,0,1-4.75,4.75H194V203a13.83,13.83,0,0,0,9.5-13.29,14,14,0,0,0-14.24-14.24h-19A14,14,0,0,0,156,189.72a13.83,13.83,0,0,0,9.5,13.29v5.7h-76V203a13.83,13.83,0,0,0,9.5-13.29,14,14,0,0,0-14.24-14.24h-19a14,14,0,0,0-14.24,14.24A13.83,13.83,0,0,0,61.08,203v5.7H18.35A4.49,4.49,0,0,1,13.6,204V52a4.49,4.49,0,0,1,4.75-4.75H236.76A4.49,4.49,0,0,1,241.5,52Z"/></svg>