<?xml version="1.0" encoding="utf-8"?>
<!-- Generator: Adobe Illustrator 21.1.0, SVG Export Plug-In . SVG Version: 6.00 Build 0)  -->
<svg version="1.1" id="Layer_1" xmlns="http://www.w3.org/2000/svg" xmlns:xlink="http://www.w3.org/1999/xlink" x="0px" y="0px"
	 viewBox="0 0 256 256" style="enable-background:new 0 0 256 256;" xml:space="preserve">
<style type="text/css">
	.st0{fill:#29AAE1;}
</style>
<title>Artboard 1</title>
<path class="st0" d="M255.5,124.1C223.8,53.7,141.1,22.3,70.7,53.9c-31.2,14-56.1,39-70.1,70.1c-0.7,1.6-0.7,3.4,0,5
	c31.7,70.4,114.4,101.8,184.8,70.1c31.2-14,56.1-39,70.1-70.1C256.2,127.5,256.2,125.7,255.5,124.1z M128,199.2
	c-49.1,0.2-93.9-28.2-114.7-72.8c29.8-63.3,105.2-90.5,168.6-60.7c26.7,12.6,48.2,34,60.7,60.7C221.9,171,177.1,199.4,128,199.2z"/>
<path class="st0" d="M128,78.3c-26.6,0.6-47.7,22.6-47.1,49.2c0.6,26.6,22.6,47.7,49.2,47.1c26.2-0.6,47.1-22,47.1-48.1
	C176.9,99.5,154.9,78,128,78.3C128,78.3,128,78.3,128,78.3z M128,162c-19.7-0.4-35.2-16.7-34.8-36.4c0.4-19.7,16.7-35.2,36.4-34.8
	c19.3,0.4,34.8,16.2,34.8,35.6c-0.1,19.8-16.3,35.7-36.1,35.6C128.2,162,128.1,162,128,162z"/>
<path class="st0" d="M128,101c-14.5,0-26.2,11.7-26.2,26.2c0.7,3.5,4.2,5.8,7.7,5.1c2.6-0.5,4.6-2.5,5.1-5.1
	c0-7.2,5.9-13.1,13.1-13.1c0.1,0,0.2,0,0.3,0c3.5,0,6.3-2.8,6.3-6.3c0-3.5-2.8-6.3-6.3-6.3V101z"/>
</svg>
