<?xml version="1.0" encoding="utf-8"?>
<!-- Generator: Adobe Illustrator 22.0.1, SVG Export Plug-In . SVG Version: 6.00 Build 0)  -->
<svg version="1.1" id="Layer_1" xmlns="http://www.w3.org/2000/svg" xmlns:xlink="http://www.w3.org/1999/xlink" x="0px" y="0px"
	 viewBox="0 0 256 256" style="enable-background:new 0 0 256 256;" xml:space="preserve">
<style type="text/css">
	.st0{fill:#455565;}
</style>
<title>icon-work-phone</title>
<desc>Created with Sketch.</desc>
<g id="Symbols">
	<g id="icon-work-phone">
		<path id="Combined-Shape" class="st0" d="M29.8,90.7h198c10.9,0,19.8,8.8,19.8,19.7v118c0,10.9-8.9,19.7-19.8,19.7h-198
			c-10.9,0-19.8-8.8-19.8-19.7v-118C10,99.5,18.9,90.7,29.8,90.7L29.8,90.7z M69.4,71c0-32.6,26.6-59,59.4-59s59.4,26.4,59.4,59
			h-19.8c0-21.7-17.7-39.3-39.6-39.3S89.2,49.3,89.2,71H69.4z M10,149.7v19.7h237.6v-19.7H10z M119,110.3c-5.5,0-10,4.4-10,9.9
			s4.4,9.9,10,9.9h19.8c5.5,0,10-4.4,10-9.9s-4.4-9.9-10-9.9C138.8,110.3,119,110.3,119,110.3z"/>
	</g>
</g>
</svg>
